<svg width="248" height="405" viewBox="0 0 248 405" fill="none" xmlns="http://www.w3.org/2000/svg">
<g opacity="0.4">
<path d="M226.922 86.8975C227.352 86.6824 227.782 86.6824 228.212 86.4673C228.642 86.4673 228.857 86.2522 229.288 86.2522C229.718 86.2522 230.148 86.0372 230.793 86.0372H233.805C234.45 86.0372 235.095 86.2522 235.74 86.2522C235.955 86.2522 235.955 86.2522 236.17 86.4673C236.601 86.6824 237.246 86.6824 237.676 86.8975C237.891 86.8975 237.891 86.8975 238.106 87.1126C238.752 87.3277 239.397 87.5428 239.827 87.973L207.994 69.4751H207.778L206.488 68.8299H206.273C206.058 68.8299 206.058 68.8298 205.843 68.6147C205.628 68.6147 205.413 68.3996 205.197 68.3996C204.982 68.3996 204.767 68.1845 204.337 68.1845C204.122 68.1845 204.122 68.1845 203.907 67.9694H203.692C203.262 67.9694 202.616 67.7544 201.971 67.7544H198.099C197.884 67.7544 197.669 67.7543 197.454 67.9694C197.024 67.9694 196.809 68.1845 196.379 68.1845C196.164 68.1845 195.948 68.1846 195.733 68.3996C195.518 68.3996 195.303 68.6147 195.088 68.6147L193.152 69.26C192.937 69.26 192.722 69.4751 192.507 69.4751C192.292 69.4751 192.292 69.6902 192.077 69.6902C191.001 70.1204 189.926 70.7656 188.635 71.4109L175.085 79.1542L206.918 97.6521L220.469 89.9088C221.544 89.2635 222.835 88.6183 223.91 88.1881C224.34 87.973 224.556 87.973 224.986 87.7579C225.631 87.3277 226.276 87.1126 226.922 86.8975Z" fill="#66BC00"/>
<path d="M181.322 81.093C181.322 71.1988 178.741 63.4555 174.224 58.5084C172.718 56.7877 170.998 55.4972 169.062 54.4217L137.228 35.9238C144.756 40.2257 149.488 49.6897 149.488 62.8102V93.7834L181.322 112.281V81.093ZM97.6515 160.677L65.8179 142.179L149.488 93.7834L181.322 112.281L97.6515 160.677ZM31.8335 223.914C31.8335 223.268 32.0486 222.408 32.2637 221.763C32.2637 221.333 32.4788 220.687 32.4788 220.257C32.4788 219.827 32.6939 219.397 32.909 218.967C33.1241 218.321 33.3392 217.676 33.3392 217.031C33.5543 216.6 33.5543 216.385 33.7694 215.955C33.9845 215.31 34.1996 214.45 34.4147 213.804C34.4147 213.589 34.6297 213.159 34.6297 212.944C35.0599 211.869 35.4901 211.008 35.9203 209.933C35.9203 209.933 35.9203 209.718 36.1354 209.718L37.426 207.137C37.6411 206.921 37.641 206.491 37.8561 206.276C38.2862 205.416 38.7165 204.555 39.1467 203.91C39.1467 203.695 39.3617 203.695 39.3617 203.48C40.007 202.62 40.4372 201.544 41.0824 200.684C41.2975 200.469 41.5126 200.254 41.5126 199.823L42.8033 197.888C43.0184 197.457 43.2334 197.242 43.4485 196.812C43.8787 196.382 44.3088 195.737 44.739 195.306C45.1692 194.876 45.3843 194.446 45.8145 194.016C46.2446 193.586 46.4597 193.156 46.8899 192.941C47.5352 192.295 48.1804 191.65 48.6106 191.005L49.471 190.144C50.7616 188.854 52.0521 187.778 53.3427 186.703C53.5577 186.488 53.7728 186.273 53.9879 186.273C55.2785 185.197 56.7841 184.337 58.2897 183.476L71.8406 175.733L40.007 157.235L26.4563 164.979C24.9506 165.839 23.6601 166.699 22.1544 167.775C21.9393 167.99 21.7243 168.205 21.5092 168.205C20.2186 169.28 18.9281 170.356 17.6376 171.646L17.4224 171.862L16.7771 172.507C16.1319 173.152 15.4866 173.797 15.0564 174.443L14.4112 175.088C14.1961 175.303 14.1961 175.518 13.981 175.733C13.5508 176.163 13.3357 176.594 12.9055 177.024C12.6904 177.239 12.4754 177.669 12.2603 177.884C12.0452 178.099 11.8301 178.314 11.8301 178.529C11.615 178.96 11.3999 179.175 11.1848 179.605C10.9697 179.82 10.7546 180.035 10.7546 180.25C10.5395 180.68 10.1093 181.11 9.8942 181.541C9.67911 181.756 9.46413 181.971 9.46413 182.401C9.46413 182.616 9.24896 182.616 9.24896 182.831C8.81877 183.477 8.38864 184.337 7.95846 185.197V185.412C7.95846 185.627 7.74329 185.627 7.74329 185.842C7.5282 186.488 7.0981 186.918 6.88301 187.563C6.66791 187.778 6.66789 187.993 6.4528 188.424C6.23771 188.639 6.23768 189.069 6.02259 189.284C5.8075 189.499 5.80747 189.714 5.59238 189.929C5.37729 190.574 4.94719 191.22 4.73209 191.865C4.73209 191.865 4.73202 192.08 4.51692 192.08C4.08674 192.94 3.87165 193.586 3.44147 194.446C3.44147 194.661 3.44152 194.661 3.22643 194.876C3.01134 195.091 3.01139 195.522 3.01139 195.737C2.7963 196.167 2.79627 196.597 2.58118 197.027C2.58118 197.242 2.36601 197.673 2.36601 197.888C2.15092 198.318 2.15103 198.533 1.93593 198.963C1.93593 199.178 1.72076 199.393 1.72076 199.608C1.50567 200.038 1.50573 200.469 1.50573 200.899C1.29063 201.329 1.29061 201.759 1.07552 202.189C1.07552 202.405 1.07557 202.405 0.860478 202.62C0.860478 203.05 0.8604 203.265 0.645308 203.695C0.430217 204.34 0.430191 205.201 0.2151 205.846V207.137C8.51945e-06 208.642 6.10352e-05 210.363 6.10352e-05 211.869L0.43027 367.164C0.43027 375.768 3.44157 381.791 8.38867 384.587L40.2221 403.085C35.275 400.288 32.2637 394.266 32.2637 385.662L31.8335 230.366C31.8335 228.861 32.0487 227.14 32.0487 225.634C31.8336 224.774 31.8335 224.344 31.8335 223.914Z" fill="#66BC00"/>
<path d="M220.468 89.6952C235.525 81.0916 247.57 87.9745 247.57 105.182L248 260.478C248 277.685 235.955 298.549 221.114 307.153L58.9348 400.717C44.0935 409.321 31.8332 402.438 31.8332 385.231L31.403 229.935C31.403 212.727 43.4481 191.864 58.2894 183.26L71.8403 175.517V144.544C71.6252 101.74 101.953 49.4732 139.164 27.9641C176.375 6.45492 206.918 23.6622 206.918 66.6805V97.6536L220.468 89.6952ZM181.322 112.28V81.3067C181.322 54.8504 162.394 44.0959 139.379 57.4315C116.364 70.7672 97.6512 103.246 97.6512 129.702V160.675L181.322 112.28Z" fill="#B4FF59"/>
<path d="M72.2705 134.432C72.4856 132.926 72.7008 131.206 72.9159 129.485C73.131 127.764 73.5611 125.828 73.7762 124.108C73.9913 122.817 74.2063 121.742 74.4214 120.451C74.6365 119.376 75.0667 118.085 75.2818 117.01C75.712 115.504 76.1422 113.783 76.5723 112.278C76.7874 111.417 77.2177 110.342 77.4328 109.481C78.078 107.761 78.5082 105.825 79.1535 104.104C79.3685 103.459 79.5837 102.599 80.0139 101.953C80.8742 99.3722 81.9496 97.0062 83.0251 94.4251C83.2402 94.21 83.2402 93.7798 83.4553 93.5647C84.5307 91.4138 85.3912 89.2629 86.4666 87.112C86.8968 86.4667 87.1119 85.8214 87.5421 85.1761C88.6175 83.0252 89.693 81.0894 90.7684 79.1536L91.4137 77.863C92.7042 75.497 94.2099 73.1311 95.7155 70.9801L97.006 69.0443C98.0815 67.3235 99.157 65.8179 100.448 64.3123L102.383 61.7312C103.459 60.4406 104.319 59.1501 105.395 57.8596L107.976 54.6332C108.836 53.5577 109.696 52.6974 110.557 51.6219C112.062 49.9012 113.568 48.3955 115.074 46.8899L117.87 44.0937C118.515 43.4484 119.376 42.5881 120.236 41.9428C121.527 40.8674 122.817 39.5768 124.108 38.5013C124.968 37.8561 125.613 37.2108 126.474 36.5655C127.764 35.4901 129.27 34.4146 130.775 33.3392C131.421 32.909 132.066 32.2637 132.926 31.8335C135.077 30.3279 137.228 29.0373 139.379 27.7468C141.53 26.4562 143.466 25.5959 145.617 24.5204C146.047 24.3053 146.692 24.0902 147.122 23.8751C149.058 23.0147 150.994 22.1544 152.93 21.5091C153.145 21.5091 153.145 21.5091 153.36 21.294C155.081 20.6488 156.586 20.2186 158.307 20.0035C159.167 19.7884 160.243 19.5733 161.103 19.3582C162.394 19.1431 163.469 18.928 164.76 18.7129C165.405 18.7129 166.05 18.4978 166.696 18.4978C168.201 18.4978 169.707 18.2827 170.997 18.4978H172.073C173.794 18.4978 175.514 18.7129 177.02 19.1431C177.45 19.1431 177.88 19.3582 178.311 19.3582C179.601 19.5733 180.892 20.0035 181.967 20.4337C182.397 20.6488 182.827 20.6487 183.042 20.8638C184.548 21.5091 186.054 22.1544 187.559 23.0147L155.726 4.51687C155.511 4.51687 155.511 4.30183 155.296 4.30183C154.22 3.65655 153.145 3.22633 151.854 2.58106C151.639 2.58106 151.424 2.36595 151.209 2.36595C150.779 2.15086 150.349 2.1509 150.134 1.93581C149.488 1.72072 149.058 1.50559 148.413 1.2905C147.768 1.0754 147.122 1.07544 146.477 0.860352C146.047 0.860352 145.617 0.645248 145.186 0.645248C144.971 0.645248 144.756 0.430143 144.541 0.430143C143.251 0.215052 141.745 0 140.454 0H135.938C135.507 0 135.292 -5.25157e-05 134.862 0.215039C134.217 0.215039 133.572 0.430143 132.926 0.430143C132.281 0.430143 131.636 0.430156 130.991 0.645248C130.345 0.645248 129.915 0.860365 129.27 1.07546C128.409 1.29055 127.334 1.50561 126.474 1.7207C126.043 1.9358 125.398 1.93581 124.968 1.93581C123.892 2.1509 122.602 2.58108 121.526 3.01127C121.311 3.01127 121.311 3.01128 121.096 3.22637C119.806 3.65655 118.3 4.30179 117.01 4.73197C116.364 4.94706 115.934 5.16214 115.289 5.59232C114.859 5.80741 114.213 6.02254 113.783 6.23764C111.847 7.098 109.696 8.17346 107.546 9.46401C105.395 10.7546 103.244 12.0451 101.093 13.5507C100.448 13.9809 99.8022 14.6262 98.9419 15.0564C97.4362 16.1318 96.1457 17.2073 94.64 18.2828C93.7797 18.928 93.1345 19.5733 92.2741 20.2186C90.9836 21.294 89.6929 22.3695 88.4024 23.66C87.542 24.3053 86.8968 25.1657 86.0364 25.811C85.6062 26.2411 85.176 26.6713 84.5307 27.1015C84.1006 27.5316 83.6703 28.1769 83.0251 28.6071C81.5194 30.1128 80.0138 31.8335 78.5082 33.3392L77.0025 34.8448C76.5724 35.2749 76.1422 35.7051 75.9271 36.1353L73.346 39.3617C72.7007 40.007 72.2705 40.6522 71.6253 41.5126C71.1951 42.1579 70.7649 42.8031 70.3348 43.2333L68.3989 45.8144C67.9687 46.4597 67.5386 46.8899 67.1084 47.5351C66.4631 48.6106 65.8178 49.6861 64.9575 50.5465L63.6669 52.4823C63.4518 52.6974 63.2367 52.9124 63.0216 53.3426C61.7311 55.2784 60.6557 57.2143 59.5802 59.1501C59.5802 59.3652 59.365 59.3652 59.365 59.5803C59.1499 60.0104 58.9349 60.4406 58.7198 60.6557C57.8594 61.9463 57.2142 63.4519 56.3538 64.7424C55.9237 65.3877 55.7086 66.033 55.2784 66.6783C54.8482 67.3236 54.6331 67.9688 54.2029 68.6141C53.9878 69.2594 53.5576 69.6896 53.3425 70.3348C52.4821 71.8405 51.8369 73.5612 51.1916 75.0669C50.9765 75.282 50.9765 75.7121 50.7614 75.9272C50.7614 75.9272 50.7614 76.1423 50.5463 76.1423C49.686 78.0781 48.8256 80.229 47.9652 82.1648C47.7501 82.595 47.7501 82.8101 47.535 83.2403C47.3199 83.8856 47.1049 84.7459 46.6747 85.3912C46.2445 86.4667 45.8144 87.327 45.5993 88.4025C45.3842 89.2628 45.1691 89.9081 44.954 90.7685C44.7389 91.6289 44.3087 92.7044 44.0936 93.5647C43.8785 94.21 43.6634 94.6402 43.6634 95.2854C43.4483 96.3609 43.2333 97.4363 42.8031 98.2967C42.588 99.3722 42.1578 100.663 41.9427 101.738C41.9427 102.168 41.7277 102.599 41.7277 103.029C41.5126 103.889 41.5125 104.749 41.2974 105.61C40.8673 107.331 40.6521 109.266 40.437 110.987C40.437 111.417 40.222 112.063 40.222 112.493C40.0069 113.568 40.0069 114.644 39.7918 115.934C39.7918 116.795 39.5767 117.44 39.5767 118.3C39.3617 120.881 39.3616 123.247 39.3616 125.828V156.802L71.1951 175.299V144.326C71.1951 141.96 71.4102 139.379 71.4102 136.798C72.2706 136.153 72.2705 135.292 72.2705 134.432ZM133.787 197.884C145.617 191.001 155.081 196.593 155.081 210.144C155.081 220.469 149.703 232.299 141.745 240.472V261.551C141.745 266.713 138.089 272.736 133.787 275.317C129.485 277.898 125.828 275.747 125.828 270.8V249.721C118.085 250.581 112.493 244.989 112.493 234.665C112.708 221.114 122.172 204.552 133.787 197.884Z" fill="#66BC00"/>
<path d="M152.93 290.378V269.299L129.7 255.748V276.827C129.7 279.408 130.56 281.129 132.066 281.989L155.296 295.54C153.79 294.68 152.93 292.959 152.93 290.378Z" fill="#E8CFAC"/>
<path d="M165.835 215.31C166.05 215.31 166.48 215.095 166.695 215.095C166.91 215.095 167.341 214.88 167.556 214.88C167.986 214.88 168.416 214.665 168.631 214.665H170.782C171.427 214.665 171.857 214.665 172.288 214.88H172.718C173.148 214.88 173.578 215.095 173.793 215.31C174.008 215.31 174.008 215.31 174.224 215.525L175.514 216.17L152.284 202.62H152.069C151.639 202.405 151.424 202.19 150.994 202.19H150.779C150.563 202.19 150.564 202.189 150.348 201.974C150.133 201.974 149.918 201.759 149.703 201.759C149.488 201.759 149.273 201.759 149.058 201.544H148.628H148.413C147.982 201.544 147.552 201.329 147.122 201.329H143.896C143.681 201.329 143.466 201.329 143.466 201.544C143.25 201.544 142.82 201.759 142.605 201.759H142.175C141.96 201.759 141.96 201.974 141.745 201.974C141.315 202.189 140.669 202.189 140.239 202.405C140.024 202.405 139.809 202.62 139.809 202.62L139.594 202.835L137.013 204.125C135.722 204.986 134.217 205.846 132.926 206.922C132.496 207.352 132.066 207.567 131.636 207.997C130.99 208.642 130.345 209.072 129.7 209.718L128.839 210.578C128.624 210.793 128.409 211.008 128.194 211.438L127.334 212.299C126.688 212.944 126.258 213.589 125.613 214.45C125.398 214.665 125.183 214.88 124.968 215.31C124.968 215.525 124.753 215.525 124.753 215.74L124.107 216.385L122.817 218.321C122.387 218.967 122.171 219.612 121.741 220.042V220.472C121.526 220.902 121.096 221.548 120.881 221.978C120.666 222.623 120.236 223.268 120.021 223.699C119.805 224.344 119.59 224.774 119.16 225.419C118.945 226.065 118.73 226.71 118.3 227.355L117.655 229.291C117.439 229.721 117.439 229.936 117.439 230.366C117.439 230.582 117.439 230.582 117.224 230.797C117.224 231.012 117.009 231.227 117.009 231.442C116.794 232.302 116.579 233.163 116.364 233.808C116.364 234.238 116.149 234.883 116.149 235.314C116.149 235.529 116.149 235.744 115.934 236.174C115.934 236.389 115.934 236.604 115.719 236.819C115.504 238.325 115.504 239.615 115.504 240.906C115.504 247.574 117.87 252.306 121.741 254.672L144.971 268.223C141.1 266.072 138.733 261.34 138.733 254.457C138.733 252.951 138.949 251.23 139.164 249.51C139.164 249.295 139.164 249.079 139.379 248.649C139.594 247.144 140.024 245.638 140.454 243.917C140.454 243.702 140.454 243.702 140.669 243.487C141.1 241.766 141.745 240.046 142.605 238.54C143.25 236.819 144.111 235.098 145.186 233.593V233.378C146.047 231.872 147.122 230.366 148.198 228.861C148.198 228.646 148.413 228.646 148.413 228.431C149.488 227.14 150.348 225.85 151.424 224.774C151.639 224.559 151.854 224.344 152.069 223.914L154.65 221.333C155.08 220.902 155.511 220.687 155.941 220.257C157.231 219.182 158.522 218.321 160.028 217.461L162.609 216.17C162.824 215.955 163.254 215.955 163.469 215.74C164.76 215.74 165.19 215.525 165.835 215.31Z" fill="#E8CFAC"/>
<path d="M160.674 217.462C172.504 210.579 181.968 216.171 181.968 229.722C181.968 240.046 176.59 251.876 168.632 260.05V281.129C168.632 286.291 164.975 292.313 160.674 294.894C156.372 297.476 152.715 295.325 152.715 290.378V269.299C144.972 270.159 139.38 264.567 139.38 254.242C139.38 240.692 149.059 224.344 160.674 217.462Z" fill="white"/>
</g>
</svg>
