<svg width="243" height="208" viewBox="0 0 243 208" fill="none" xmlns="http://www.w3.org/2000/svg">
<g style="mix-blend-mode:overlay" opacity="0.22">
<path d="M73.3682 263.218H112.499C112.499 263.218 112.303 164.805 112.499 124.06C95.3301 121.761 73.3682 125.87 73.3682 125.87V263.218Z" fill="#545454"/>
<path d="M141.848 95.0054L180.978 70.5488V261.31H141.848V95.0054Z" fill="#545454"/>
<path d="M47.1043 111.587C45.8815 111.098 51.8 104.348 52.4359 103.272C77.4305 70.2069 108.392 66.4405 141.409 61.1579C172.909 55.9242 195.066 42.5221 216.588 19.4351L240.849 -10.9399C248.626 26.1362 226.273 68.984 193.941 87.4732C154.469 110.022 125.267 96.7178 85.012 102.979C73.1261 104.837 59.5772 106.843 48.4739 111.441L47.1043 111.587Z" fill="#545454"/>
<path d="M160.484 35.8705C149.87 32.9847 138.669 31.4194 127.174 31.4194C56.9348 31.4194 0 88.3543 0 158.593H34.2392C34.2392 148.371 35.9511 138.588 38.9837 129.441C41.0381 123.18 43.8261 117.213 47.1033 111.588C45.9783 111.05 51.7989 104.349 52.4348 103.273C53.2174 102.197 54.0489 101.267 54.8805 100.24C55.2229 99.7999 55.5653 99.3597 55.9566 98.9195C66.375 86.4956 77.7718 78.6695 89.9022 73.4847C90.7827 73.0934 91.6142 72.751 92.4946 72.4086C94.6468 71.5282 96.799 70.7456 99.0001 70.0119C99.2446 69.914 99.4892 69.8162 99.7338 69.7673C113.038 65.5118 127.027 63.4575 141.408 61.1586C158.283 58.3705 172.419 53.1368 185.283 45.4086C177.457 41.3977 169.19 38.1694 160.533 35.8216L160.484 35.8705Z" fill="black"/>
<path d="M202.256 213.179C185.381 236.364 158.087 251.527 127.174 251.527C75.8642 251.527 34.2392 209.902 34.2392 158.592H0C0 228.831 56.9348 285.766 127.174 285.766C167.283 285.766 202.989 267.179 226.321 238.174L202.256 213.179Z" fill="black"/>
</g>
</svg>
