<svg width="145" height="58" viewBox="0 0 145 58" fill="none" xmlns="http://www.w3.org/2000/svg">
<path d="M133.777 31.3686L135.829 26.49L130.684 13.5339V13.4806H135.456C135.954 14.8846 136.416 16.2975 136.842 17.7193C137.287 19.1411 137.642 20.5984 137.909 22.0913H137.962C138.229 20.6162 138.566 19.1678 138.975 17.746C139.402 16.3242 139.882 14.9024 140.415 13.4806H145V13.5605L138.149 31.4219H133.777V31.3686Z" fill="white"/>
<path d="M125.06 13.3472C126.375 13.3472 127.415 13.7826 128.179 14.6534C128.961 15.5243 129.352 17.035 129.352 19.1854V26.4633H125.087L125.06 19.7186C125.06 18.8477 124.927 18.2168 124.66 17.8258C124.411 17.4348 123.914 17.2393 123.167 17.2393C122.421 17.2393 121.914 17.4348 121.648 17.8258C121.399 18.2168 121.274 18.8477 121.274 19.7186V26.4633H117.009L116.982 19.7186C116.982 18.8477 116.849 18.2168 116.582 17.8258C116.334 17.4348 115.836 17.2393 115.09 17.2393C114.343 17.2393 113.837 17.4348 113.57 17.8258C113.321 18.2168 113.197 18.8477 113.197 19.7186V26.4633H108.931V13.4805H112.984L113.197 15.8531H113.277C113.508 15.0711 113.908 14.4579 114.476 14.0136C115.063 13.5693 115.889 13.3472 116.956 13.3472C118.022 13.3472 118.857 13.5693 119.462 14.0136C120.084 14.4579 120.484 15.0711 120.661 15.8531H120.741C120.972 15.0533 121.417 14.4402 122.074 14.0136C122.749 13.5693 123.745 13.3472 125.06 13.3472Z" fill="white"/>
<path d="M105.997 26.0367C105.499 26.2144 104.806 26.3744 103.918 26.5166C103.047 26.641 102.007 26.7032 100.799 26.7032C99.2702 26.7032 97.9639 26.5077 96.8798 26.1167C95.8135 25.7079 95.0048 25.0237 94.4539 24.064C93.9029 23.0865 93.6274 21.7358 93.6274 20.0118C93.6274 17.6659 94.1606 15.9686 95.227 14.92C96.3111 13.8715 97.9817 13.3472 100.239 13.3472C101.856 13.3472 103.127 13.5782 104.051 14.0403C104.993 14.5024 105.659 15.16 106.05 16.013C106.459 16.8483 106.664 17.8436 106.664 18.9988C106.664 19.3365 106.646 19.7008 106.61 20.0918C106.592 20.4828 106.548 20.8649 106.477 21.2381L106.37 21.3448H97.5996C97.724 22.1268 98.0883 22.6422 98.6926 22.891C99.3146 23.1398 100.319 23.2642 101.705 23.2642C102.629 23.2642 103.393 23.2464 103.998 23.2109C104.62 23.1576 105.251 23.0865 105.89 22.9976L105.997 23.0776V26.0367ZM102.958 18.5456C102.958 18.1191 102.887 17.7547 102.745 17.4526C102.62 17.1327 102.363 16.8928 101.972 16.7328C101.581 16.5551 101.003 16.4662 100.239 16.4662C99.1191 16.4662 98.3816 16.6617 98.0261 17.0527C97.6885 17.426 97.5196 17.9236 97.5196 18.5456H102.958Z" fill="white"/>
<path d="M87.3051 26.4634L87.1451 24.5706H87.0385C86.7363 25.2815 86.3009 25.8147 85.7322 26.1701C85.1813 26.5256 84.3726 26.7033 83.3063 26.7033C81.5823 26.7033 80.3205 26.2057 79.5207 25.2104C78.721 24.1974 78.3033 22.6778 78.2678 20.6518C78.25 18.839 78.4366 17.3994 78.8276 16.3331C79.2186 15.2667 79.8317 14.5025 80.667 14.0404C81.5024 13.5783 82.5687 13.3473 83.8661 13.3473C84.5414 13.3473 85.1546 13.4095 85.7055 13.5339C86.2565 13.6405 86.7008 13.7916 87.0385 13.9871L87.0918 13.9604V8.52206H91.3572V26.4634H87.3051ZM84.6925 23.0777C85.4034 23.0777 85.981 22.8556 86.4253 22.4113C86.8696 21.9669 87.0918 21.2294 87.0918 20.1986V17.3994C86.4342 17.1328 85.6611 16.9995 84.7725 16.9995C83.9372 16.9995 83.3329 17.2039 82.9597 17.6127C82.6042 18.0037 82.4265 18.8034 82.4265 20.012C82.4265 21.0428 82.5687 21.8159 82.8531 22.3313C83.1552 22.8289 83.7683 23.0777 84.6925 23.0777Z" fill="white"/>
<path d="M69.2411 13.3472C70.9473 13.3472 72.3247 13.5249 73.3732 13.8803C74.4218 14.2358 75.186 14.8934 75.6659 15.8531C76.1635 16.795 76.4123 18.1635 76.4123 19.9585V26.4633H72.5468L72.4135 25.237H72.3335C71.9959 25.6813 71.4716 26.0367 70.7607 26.3033C70.0498 26.5699 69.1256 26.7032 67.9882 26.7032C64.9135 26.7032 63.3762 25.2636 63.3762 22.3845C63.3762 21.1582 63.7761 20.1985 64.5759 19.5053C65.3934 18.7944 66.673 18.439 68.4147 18.439H72.3602C72.2358 17.6925 71.9159 17.1949 71.4005 16.9461C70.8851 16.6795 70.0054 16.5462 68.7613 16.5462C67.9793 16.5462 67.2062 16.6084 66.442 16.7328C65.6955 16.8395 65.0379 16.9639 64.4692 17.106L64.3893 17.0527L64.4159 13.9603C64.7714 13.8537 65.2246 13.7559 65.7755 13.6671C66.3265 13.5604 66.9041 13.4805 67.5083 13.4271C68.1304 13.3738 68.708 13.3472 69.2411 13.3472ZM69.0812 23.5575C70.1831 23.5575 71.0095 23.4242 71.5604 23.1576C72.1114 22.8732 72.3958 22.4289 72.4135 21.8246V21.1582H69.4011C68.6191 21.1582 68.0682 21.2737 67.7482 21.5047C67.4461 21.718 67.2951 22.0112 67.2951 22.3845C67.2951 22.8288 67.455 23.1398 67.7749 23.3175C68.0948 23.4775 68.5302 23.5575 69.0812 23.5575Z" fill="white"/>
<path d="M61.9166 22.7044V26.17C61.4723 26.3477 60.8147 26.481 59.9438 26.5699C59.073 26.6588 58.1488 26.7032 57.1713 26.7032C55.7673 26.7032 54.5943 26.5077 53.6524 26.1167C52.7282 25.7257 52.0351 25.0503 51.573 24.0906C51.1287 23.1309 50.8977 21.798 50.8799 20.0918C50.8799 18.3323 51.1198 16.9639 51.5997 15.9864C52.0973 15.0089 52.8171 14.3247 53.759 13.9337C54.701 13.5427 55.8295 13.3472 57.1447 13.3472C57.9267 13.3472 58.7531 13.4005 59.6239 13.5071C60.4948 13.6138 61.2057 13.7559 61.7566 13.9337L61.7833 17.5059L61.7033 17.5592C61.1701 17.4526 60.6014 17.3726 59.9972 17.3193C59.3929 17.266 58.7975 17.2393 58.211 17.2393C57.0203 17.2393 56.1939 17.4615 55.7318 17.9058C55.2697 18.3501 55.0386 19.0966 55.0386 20.1451C55.0386 20.9449 55.1364 21.5403 55.3319 21.9313C55.5274 22.3223 55.8562 22.58 56.3183 22.7044C56.7803 22.8288 57.4113 22.891 58.211 22.891C58.8331 22.891 59.4284 22.8643 59.9972 22.811C60.5659 22.7577 61.1701 22.6955 61.81 22.6244L61.9166 22.7044Z" fill="white"/>
<path d="M49.9366 26.3835V26.4634H45.4046C45.2802 26.0369 45.1291 25.5482 44.9514 24.9972C44.7915 24.4463 44.6137 23.8598 44.4182 23.2377H38.66C38.3045 24.4818 37.9757 25.557 37.6736 26.4634H33.1416V26.4101L38.6066 9.58847H44.4716L49.9366 26.3835ZM41.4858 12.6276C41.3081 13.534 41.0504 14.6359 40.7127 15.9332C40.375 17.2306 40.0195 18.5547 39.6463 19.9054H43.4585C43.0675 18.5547 42.7032 17.2306 42.3655 15.9332C42.0278 14.6359 41.7701 13.534 41.5924 12.6276H41.4858Z" fill="white"/>
<path d="M14.2034 53.0737H21.7786C21.7786 53.0737 21.7407 34.022 21.7786 26.1344C18.4549 25.6893 14.2034 26.4847 14.2034 26.4847V53.0737Z" fill="url(#paint0_linear_1804_1577)"/>
<path d="M27.46 20.5098L35.0352 15.7753V52.7044H27.46V20.5098Z" fill="url(#paint1_linear_1804_1577)"/>
<path d="M9.11878 23.7198C8.88205 23.6252 10.0278 22.3184 10.1509 22.1101C14.9896 15.7091 20.9834 14.98 27.375 13.9573C33.473 12.9441 37.7625 10.3496 41.9289 5.88025L46.6255 0C48.1311 7.1775 43.8037 15.4723 37.5447 19.0516C29.9032 23.4168 24.2502 20.8413 16.4573 22.0533C14.1563 22.4131 11.5334 22.8014 9.38391 23.6914L9.11878 23.7198Z" fill="url(#paint2_linear_1804_1577)"/>
<path d="M31.0678 9.06175C29.013 8.50308 26.8446 8.20007 24.6194 8.20007C11.0219 8.20007 0 19.222 0 32.8195H6.6283C6.6283 30.8405 6.95971 28.9467 7.54679 27.176C7.94449 25.9639 8.48422 24.8087 9.11865 23.7198C8.90086 23.6156 10.0277 22.3184 10.1508 22.11C10.3023 21.9017 10.4632 21.7218 10.6242 21.523C10.6905 21.4377 10.7568 21.3525 10.8325 21.2673C12.8494 18.8622 15.0557 17.3471 17.404 16.3434C17.5745 16.2677 17.7354 16.2014 17.9059 16.1351C18.3225 15.9647 18.7391 15.8132 19.1653 15.6711C19.2126 15.6522 19.2599 15.6332 19.3073 15.6238C21.8829 14.8 24.591 14.4023 27.3749 13.9572C30.6417 13.4175 33.3782 12.4043 35.8686 10.9082C34.3535 10.1317 32.7533 9.5068 31.0773 9.05228L31.0678 9.06175Z" fill="white"/>
<path d="M39.1543 43.3869C35.8875 47.8752 30.6038 50.8106 24.6194 50.8106C14.6864 50.8106 6.6283 42.7524 6.6283 32.8195H0C0 46.4169 11.0219 57.4389 24.6194 57.4389C32.384 57.4389 39.2963 53.8406 43.8131 48.2255L39.1543 43.3869Z" fill="white"/>
<defs>
<linearGradient id="paint0_linear_1804_1577" x1="17.991" y1="25.9991" x2="17.991" y2="53.0737" gradientUnits="userSpaceOnUse">
<stop stop-color="#A2EA5C"/>
<stop offset="0.475" stop-color="#5CE695"/>
<stop offset="1" stop-color="#20D0AD"/>
</linearGradient>
<linearGradient id="paint1_linear_1804_1577" x1="31.2476" y1="15.7753" x2="31.2476" y2="52.7044" gradientUnits="userSpaceOnUse">
<stop stop-color="#CEED37"/>
<stop offset="0.495" stop-color="#61E693"/>
<stop offset="1" stop-color="#00C6B9"/>
</linearGradient>
<linearGradient id="paint2_linear_1804_1577" x1="28.0063" y1="0" x2="28.0063" y2="23.7198" gradientUnits="userSpaceOnUse">
<stop stop-color="#00B6BF"/>
<stop offset="0.49" stop-color="#59E696"/>
<stop offset="1" stop-color="#D0EE39"/>
</linearGradient>
</defs>
</svg>
