<svg width="20" height="20" viewBox="0 0 20 20" fill="none" xmlns="http://www.w3.org/2000/svg">
<path d="M15 10.0002V14.1668C15 15.5475 12.7614 16.6668 10 16.6668C7.23858 16.6668 5 15.5475 5 14.1668V10.0002M15 10.0002V5.8335M15 10.0002C15 11.3809 12.7614 12.5002 10 12.5002C7.23858 12.5002 5 11.3809 5 10.0002M15 5.8335C15 4.45278 12.7614 3.3335 10 3.3335C7.23858 3.3335 5 4.45278 5 5.8335M15 5.8335C15 7.21421 12.7614 8.3335 10 8.3335C7.23858 8.3335 5 7.21421 5 5.8335M5 10.0002V5.8335" stroke="white" stroke-width="1.5" stroke-linecap="round" stroke-linejoin="round"/>
</svg>
