<svg width="32" height="32" viewBox="0 0 32 32" fill="none" xmlns="http://www.w3.org/2000/svg">
<rect opacity="0.2" x="0.5" y="0.5" width="31" height="31" rx="3.5" stroke="#FFFEFE"/>
<path d="M10 18.0002V19.2C10 19.9468 10 20.3199 10.1453 20.6051C10.2732 20.856 10.477 21.0604 10.7279 21.1882C11.0128 21.3334 11.386 21.3334 12.1313 21.3334H22.0001M10 18.0002V11.3334M10 18.0002L12.5689 15.8594L12.5711 15.8577C13.0358 15.4704 13.2686 15.2764 13.521 15.1976C13.8192 15.1045 14.1405 15.1193 14.429 15.239C14.6737 15.3405 14.8882 15.555 15.3172 15.984L15.3215 15.9883C15.7571 16.4239 15.9756 16.6423 16.2241 16.7436C16.5182 16.8634 16.8457 16.8737 17.1471 16.7738C17.4027 16.689 17.6361 16.4851 18.1029 16.0767L22 12.6667" stroke="white" stroke-width="1.5" stroke-linecap="round" stroke-linejoin="round"/>
</svg>
