<svg width="32" height="32" viewBox="0 0 32 32" fill="none" xmlns="http://www.w3.org/2000/svg">
<rect opacity="0.2" x="0.5" y="0.5" width="31" height="31" rx="3.5" stroke="#FFFEFE"/>
<path d="M10 15.3334V18.5335C10 19.2802 10 19.6534 10.1453 19.9386C10.2732 20.1895 10.477 20.3937 10.7279 20.5215C11.0128 20.6667 11.386 20.6667 12.1313 20.6667H19.8687C20.614 20.6667 20.9867 20.6667 21.2716 20.5215C21.5225 20.3937 21.727 20.1895 21.8548 19.9386C22 19.6537 22 19.281 22 18.5358V15.3334M10 15.3334V14M10 15.3334H22M10 14V13.4668C10 12.7201 10 12.3465 10.1453 12.0612C10.2732 11.8104 10.477 11.6065 10.7279 11.4787C11.0131 11.3334 11.3867 11.3334 12.1335 11.3334H19.8668C20.6135 11.3334 20.9864 11.3334 21.2716 11.4787C21.5225 11.6065 21.727 11.8104 21.8548 12.0612C22 12.3462 22 12.7194 22 13.4646V14M10 14H22M12.6667 18H15.3333M22 15.3334V14" stroke="white" stroke-width="1.5" stroke-linecap="round" stroke-linejoin="round"/>
</svg>
