<svg width="32" height="32" viewBox="0 0 32 32" fill="none" xmlns="http://www.w3.org/2000/svg">
<rect opacity="0.2" x="0.5" y="0.5" width="31" height="31" rx="3.5" stroke="#FFFEFE"/>
<path d="M19.3333 22C19.3333 20.1591 17.8409 18.6667 16 18.6667C14.1591 18.6667 12.6667 20.1591 12.6667 22M19.3333 22H19.8687C20.614 22 20.9867 22 21.2716 21.8548C21.5225 21.727 21.727 21.5225 21.8548 21.2716C22 20.9867 22 20.614 22 19.8687V12.1313C22 11.386 22 11.0128 21.8548 10.7279C21.727 10.477 21.5225 10.2732 21.2716 10.1453C20.9864 10 20.6135 10 19.8668 10H12.1335C11.3867 10 11.0131 10 10.7279 10.1453C10.477 10.2732 10.2732 10.477 10.1453 10.7279C10 11.0131 10 11.3867 10 12.1335V19.8668C10 20.6135 10 20.9864 10.1453 21.2716C10.2732 21.5225 10.477 21.727 10.7279 21.8548C11.0128 22 11.386 22 12.1313 22H12.6667M19.3333 22H12.6667M16 16.6667C14.8954 16.6667 14 15.7712 14 14.6667C14 13.5621 14.8954 12.6667 16 12.6667C17.1046 12.6667 18 13.5621 18 14.6667C18 15.7712 17.1046 16.6667 16 16.6667Z" stroke="white" stroke-width="1.5" stroke-linecap="round" stroke-linejoin="round"/>
</svg>
