<svg width="32" height="32" viewBox="0 0 32 32" fill="none" xmlns="http://www.w3.org/2000/svg">
<rect opacity="0.2" x="0.5" y="0.5" width="31" height="31" rx="3.5" stroke="#FFFEFE"/>
<path d="M13.3001 20.3242C13.2905 20.3242 13.2801 20.3224 13.2696 20.3198C12.2199 19.9998 11.0831 18.8525 10.8364 17.8648C10.8224 17.809 10.8564 17.7532 10.9113 17.7392C10.9671 17.7253 11.0229 17.7593 11.0369 17.8142C11.2644 18.7252 12.3577 19.8246 13.3298 20.1219C13.3847 20.1385 13.4152 20.196 13.3986 20.2509C13.3856 20.2954 13.3446 20.3242 13.3001 20.3242Z" fill="#975500"/>
<path d="M13.8007 21.6259C13.7929 21.6259 13.785 21.625 13.7772 21.6232C12.9088 21.421 11.8993 20.7724 11.0083 19.843C10.1748 18.9747 9.63517 18.0505 9.60029 17.4316C9.59681 17.3749 9.6404 17.3252 9.69794 17.3226C9.7546 17.3191 9.8043 17.3627 9.80691 17.4202C9.8383 17.9834 10.3684 18.8779 11.1574 19.7C12.0213 20.6015 12.9934 21.2283 13.8242 21.4219C13.88 21.4349 13.9149 21.4907 13.9018 21.5465C13.8905 21.5936 13.8478 21.6259 13.8007 21.6259Z" fill="#975500"/>
<path d="M18.2511 12.5668C18.2049 12.5668 18.1631 12.5363 18.1509 12.4901C18.0053 11.9374 17.3436 11.144 16.7412 10.9888C16.6862 10.9749 16.6522 10.9182 16.6671 10.8624C16.6819 10.8066 16.7377 10.7735 16.7935 10.7883C17.4717 10.9636 18.1884 11.8188 18.3514 12.4378C18.3662 12.4927 18.3331 12.5494 18.2773 12.5642C18.2686 12.566 18.2599 12.5668 18.2511 12.5668Z" fill="#975500"/>
<path d="M19.5562 12.7507C19.51 12.7507 19.4682 12.7194 19.456 12.6731C19.068 11.1457 17.6173 9.95396 16.7891 9.80575C16.7324 9.79529 16.6958 9.74211 16.7054 9.68544C16.7158 9.62877 16.769 9.59215 16.8257 9.60174C17.728 9.7639 19.2415 10.9923 19.6565 12.6217C19.6704 12.6775 19.6373 12.7333 19.5815 12.7473C19.5728 12.7499 19.5649 12.7507 19.5562 12.7507Z" fill="#975500"/>
<path d="M16.98 15.4648C17.1465 15.6487 17.2965 15.8902 17.2328 15.9538C17.1692 16.0175 16.9739 15.9024 16.8248 15.7524C16.6757 15.6034 16.3192 17.1901 16.2843 17.2703C16.2581 17.3304 15.8432 17.8064 15.6261 18.2589C15.5537 18.4097 15.5642 18.8648 15.5371 18.8919C15.4282 19.0008 15.2896 18.9895 14.9905 18.7253C14.6915 18.4612 14.5363 20.0348 14.8929 20.2833C15.5023 20.7087 16.7211 22.3992 18.3313 22.3992C20.1944 22.3992 21.9197 20.4559 21.9197 19.0296C21.9197 17.6033 21.5012 17.0628 21.5291 15.8675C21.5518 14.8554 22.2885 14.3724 22.2885 13.8667C22.2885 13.4413 21.6564 13.3375 21.4489 13.3375C21.081 13.3375 20.1377 13.8092 20.1377 15.0506C20.1377 15.5336 20 15.9704 19.5057 15.9704C19.0113 15.9704 18.4595 15.2921 18.1256 14.7629" fill="url(#paint0_linear_1608_3918)"/>
<path d="M22.2877 13.8667C22.2877 13.6357 22.1003 13.4997 21.8962 13.423C22.1412 14.2346 20.8989 14.2695 20.8989 17.0349C20.8989 19.8003 19.2886 20.605 18.6217 20.7436C17.9548 20.8814 16.7796 20.9215 15.8851 19.8239C15.6105 19.4865 15.2382 19.1203 14.8241 18.7742C14.6489 19.0663 14.6114 20.0872 14.893 20.2833C15.5024 20.7088 16.7211 22.3992 18.3314 22.3992C20.1945 22.3992 21.9198 20.4559 21.9198 19.0296C21.9198 17.6033 21.5013 17.0628 21.5292 15.8676C21.5519 14.8554 22.2877 14.3724 22.2877 13.8667Z" fill="url(#paint1_linear_1608_3918)"/>
<path d="M14.9905 18.7254C14.6915 18.4612 13.9844 17.7079 13.5241 17.3392C13.0638 16.9713 12.6619 16.9756 12.3855 17.3819C12.1092 17.7882 12.9147 18.5013 13.0987 18.6852C13.3803 18.9668 14.5363 20.0348 14.8929 20.2842" fill="url(#paint2_linear_1608_3918)"/>
<path d="M16.2844 17.2702C16.2495 17.3505 16.015 17.4062 15.5486 16.8989C15.192 16.5109 14.2374 15.3958 13.6742 14.8902C13.111 14.3845 12.6733 14.177 12.3054 14.4421C11.9375 14.7071 12.1468 15.2581 12.5583 15.7184C13.0674 16.2877 13.6533 16.8683 14.2138 17.4263C14.6524 17.8622 15.6454 18.7837 15.5364 18.8927" fill="url(#paint3_linear_1608_3918)"/>
<path d="M14.2147 17.4254C14.6289 17.8369 15.5356 18.68 15.5451 18.8657C15.6759 18.6617 15.437 18.0549 15.1842 17.8422C13.723 16.612 12.3116 14.6287 12.132 14.6879C12.0553 14.9765 12.2497 15.3723 12.5583 15.7184C13.0674 16.2869 13.6533 16.8684 14.2147 17.4254Z" fill="url(#paint4_linear_1608_3918)"/>
<path d="M18.1248 14.7638C17.7909 14.2346 16.4222 12.5328 16.0891 12.0498C15.7552 11.5668 15.3071 11.5668 14.9968 11.7857C14.6864 12.0045 14.594 12.4413 15.2932 13.3698C15.7343 13.9556 16.1005 14.4944 16.981 15.4656L18.0045 15.3941L18.1248 14.7638Z" fill="url(#paint5_linear_1608_3918)"/>
<path d="M16.825 15.7524C16.676 15.6033 15.3534 14.0358 15.0544 13.6993C14.4938 13.0698 13.7833 11.7211 12.9359 12.3218C12.4904 12.6374 12.7319 13.0951 12.8583 13.2791C12.9847 13.463 14.6289 15.361 14.7902 15.5214C14.9515 15.6827 16.3194 17.1892 16.2854 17.2694" fill="url(#paint6_linear_1608_3918)"/>
<path d="M16.9801 15.4647C17.1406 15.6417 17.2844 15.8709 17.2391 15.9451C17.7726 15.5161 16.6445 14.2555 16.0055 13.4987C15.5111 12.9129 15.376 12.1675 15.022 11.7682C15.0133 11.7734 15.0055 11.7795 14.9968 11.7847C14.6864 12.0036 14.594 12.4404 15.2932 13.3688C15.7334 13.9547 16.1005 14.4944 16.9801 15.4647Z" fill="url(#paint7_linear_1608_3918)"/>
<path d="M14.7893 15.5223C14.9506 15.6836 16.3185 17.1901 16.2845 17.2703C16.7073 16.701 15.0683 15.028 14.275 14.1823C13.5871 13.4491 13.4694 12.8074 12.7981 12.4474C12.5488 12.749 12.7467 13.1187 12.8574 13.28C12.9838 13.4639 14.6289 15.3619 14.7893 15.5223Z" fill="url(#paint8_linear_1608_3918)"/>
<path d="M16.2539 17.3043C16.2059 17.334 16.1074 17.3366 15.9548 17.2485C16.0682 17.3401 16.1728 17.3749 16.2539 17.3043Z" fill="url(#paint9_linear_1608_3918)"/>
<path d="M21.5458 13.5101C21.8971 13.4474 21.959 13.4875 21.8963 13.423C21.7254 13.3593 21.5423 13.3375 21.4482 13.3375C21.0802 13.3375 20.1369 13.8092 20.1369 15.0506C20.1369 15.5336 19.9992 15.9704 19.504 15.9704C19.3087 15.9704 19.1056 15.8649 18.9094 15.7045C19.7778 16.6661 20.4586 15.7603 20.5624 15.1396C20.6661 14.5188 20.5153 13.695 21.5458 13.5101Z" fill="url(#paint10_radial_1608_3918)"/>
<path d="M14.8903 11.8789C14.6758 12.1221 14.6828 12.5581 15.2922 13.3688C15.7333 13.9547 16.0995 14.4935 16.98 15.4647C17.1465 15.6486 17.2965 15.8901 17.2328 15.9538C17.3802 14.9477 15.9478 13.9582 15.4822 13.1997C15.1135 12.5982 15.0402 12.2433 14.8903 11.8789Z" fill="url(#paint11_linear_1608_3918)"/>
<path d="M14.7893 15.5223C14.9506 15.6836 16.3185 17.1901 16.2845 17.2703C16.5861 17.0549 16.3804 16.7193 15.914 16.2529C14.9576 15.2965 13.6263 14.0114 13.091 12.953C13.0405 12.8528 12.9463 12.7787 12.8356 12.7647C12.547 12.7272 12.7615 13.1396 12.8583 13.28C12.9838 13.4639 14.6289 15.3619 14.7893 15.5223Z" fill="url(#paint12_linear_1608_3918)"/>
<path d="M12.5584 15.7183C13.0675 16.2876 13.6534 16.8683 14.2139 17.4262C14.6525 17.8621 15.6455 18.7836 15.5365 18.8926C16.152 18.3748 13.2933 16.503 12.1312 14.6887C12.0553 14.9756 12.2497 15.3722 12.5584 15.7183Z" fill="url(#paint13_linear_1608_3918)"/>
<path d="M15.411 18.9956C15.4694 18.9729 15.4999 18.9459 15.5095 18.9163C15.404 18.9974 15.2654 18.9686 14.9907 18.7253C14.6917 18.4612 13.9847 17.7079 13.5243 17.3392C13.3221 17.1779 13.1312 17.0881 12.9568 17.0724C13.2061 17.2284 13.0902 17.2842 13.6447 17.7097C13.9428 17.9381 15.0308 19.1447 15.411 18.9956Z" fill="url(#paint14_linear_1608_3918)"/>
<path d="M14.6863 16.2354C15.0899 16.7271 15.878 17.5388 16.232 17.3147C16.1344 17.3478 15.912 17.2938 15.5494 16.8989C15.1928 16.5109 14.2382 15.3958 13.675 14.8902C13.219 14.4804 12.845 14.2668 12.5242 14.3409C13.4579 14.6478 14.3036 15.7707 14.6863 16.2354Z" fill="url(#paint15_linear_1608_3918)"/>
<path d="M15.1232 14.1195C15.7675 14.8205 16.7239 16.211 17.2086 15.9678C17.1293 15.9922 16.9584 15.8867 16.825 15.7525C16.6759 15.6034 15.3534 14.0359 15.0543 13.6993C14.6655 13.2634 14.2061 12.4823 13.6777 12.2434C14.2104 12.6636 14.601 13.552 15.1232 14.1195Z" fill="url(#paint16_linear_1608_3918)"/>
<path d="M18.9094 15.7053C18.9103 15.7053 18.9103 15.7053 18.9094 15.7053C18.6086 15.4595 18.3261 15.0837 18.1239 14.7638C17.7908 14.2346 16.4221 12.5328 16.0891 12.0498C15.9871 11.9025 15.8755 11.8005 15.7595 11.736C15.9147 11.9591 16.0027 12.2774 16.3541 12.6714C16.9173 13.3035 17.654 14.4421 17.9068 14.8335C18.1587 15.2232 18.5668 16.048 18.9094 15.7053Z" fill="url(#paint17_linear_1608_3918)"/>
<path d="M20.7541 21.3181C20.5449 20.809 20.2389 20.4986 19.7969 20.7898C18.5911 21.584 17.2041 21.3155 15.4648 19.9101C13.9139 18.6556 13.1118 17.7594 12.3568 17.4351C12.1755 17.8474 12.9217 18.5091 13.0978 18.6852C13.3794 18.9668 14.5355 20.0348 14.892 20.2842C15.5014 20.7096 16.7202 22.4 18.3305 22.4C19.2311 22.3992 20.0976 21.9467 20.7541 21.3181Z" fill="url(#paint18_linear_1608_3918)"/>
<path d="M21.5283 15.8675C21.551 14.8553 22.2877 14.3723 22.2877 13.8667C22.2877 13.7176 22.2101 13.6086 22.1002 13.5293C22.2345 13.9234 21.9145 14.273 21.4368 14.8675C20.9189 15.5118 20.8047 16.5118 21.1604 17.5126C21.517 18.5135 21.068 19.8936 20.3435 20.3303C19.619 20.7671 18.6565 22.6877 15.9007 20.5178C15.8999 20.5169 15.8999 20.5169 15.899 20.516C15.7307 20.36 15.5642 20.2214 15.3959 20.1167C14.2321 19.3957 13.5686 18.7471 13.0673 18.2022C12.9688 18.095 12.7038 17.6844 12.3882 17.8195C12.546 18.1769 12.9706 18.5579 13.0978 18.6852C13.3794 18.9668 14.5355 20.0348 14.892 20.2841C14.9382 20.3164 14.9888 20.3565 15.042 20.4027C15.0559 20.4149 15.0699 20.4271 15.0838 20.4393C15.0873 20.4428 15.0917 20.4463 15.0952 20.4489C15.1039 20.4567 15.1135 20.4655 15.1222 20.4733C15.1239 20.4751 15.1266 20.4768 15.1283 20.4794C15.4901 20.8081 15.9879 21.3521 16.5982 21.7767C16.5982 21.7767 16.5991 21.7767 16.5991 21.7775C16.6522 21.815 16.7072 21.8517 16.7621 21.8865C16.763 21.8874 16.7638 21.8874 16.7647 21.8883C16.8196 21.9231 16.8754 21.9571 16.9312 21.9894C16.9321 21.9894 16.9321 21.9903 16.933 21.9903C17.3549 22.2326 17.8231 22.4 18.3287 22.4C20.1918 22.4 21.9171 20.4567 21.9171 19.0305C21.9171 17.6042 21.5013 17.0636 21.5283 15.8675Z" fill="url(#paint19_radial_1608_3918)"/>
<defs>
<linearGradient id="paint0_linear_1608_3918" x1="21.014" y1="22.7681" x2="19.4788" y2="19.1713" gradientUnits="userSpaceOnUse">
<stop offset="0.00132565" stop-color="#FFCB4B"/>
<stop offset="1" stop-color="#FFD748"/>
</linearGradient>
<linearGradient id="paint1_linear_1608_3918" x1="21.3196" y1="20.2666" x2="18.0996" y2="16.4256" gradientUnits="userSpaceOnUse">
<stop offset="0.00132565" stop-color="#FFCB4B"/>
<stop offset="1" stop-color="#FFD748"/>
</linearGradient>
<linearGradient id="paint2_linear_1608_3918" x1="12.7128" y1="17.7093" x2="14.6103" y2="19.1066" gradientUnits="userSpaceOnUse">
<stop offset="0.00132565" stop-color="#FFCB4B"/>
<stop offset="1" stop-color="#FFD748"/>
</linearGradient>
<linearGradient id="paint3_linear_1608_3918" x1="12.0219" y1="14.011" x2="15.3512" y2="17.4955" gradientUnits="userSpaceOnUse">
<stop offset="0.00132565" stop-color="#FFCB4B"/>
<stop offset="1" stop-color="#FFD748"/>
</linearGradient>
<linearGradient id="paint4_linear_1608_3918" x1="14.5778" y1="16.0802" x2="13.4772" y2="17.117" gradientUnits="userSpaceOnUse">
<stop stop-color="#FFBC47" stop-opacity="0"/>
<stop offset="1" stop-color="#FFA754"/>
</linearGradient>
<linearGradient id="paint5_linear_1608_3918" x1="15.6179" y1="12.3671" x2="17.5499" y2="15.4031" gradientUnits="userSpaceOnUse">
<stop offset="0.00132565" stop-color="#FFCB4B"/>
<stop offset="1" stop-color="#FFD748"/>
</linearGradient>
<linearGradient id="paint6_linear_1608_3918" x1="13.6237" y1="12.8714" x2="16.2457" y2="16.4134" gradientUnits="userSpaceOnUse">
<stop offset="0.00132565" stop-color="#FFCB4B"/>
<stop offset="1" stop-color="#FFD748"/>
</linearGradient>
<linearGradient id="paint7_linear_1608_3918" x1="16.742" y1="13.2988" x2="15.086" y2="14.7938" gradientUnits="userSpaceOnUse">
<stop stop-color="#FFBC47" stop-opacity="0"/>
<stop offset="1" stop-color="#FFA754"/>
</linearGradient>
<linearGradient id="paint8_linear_1608_3918" x1="15.2188" y1="14.3639" x2="12.9418" y2="16.0286" gradientUnits="userSpaceOnUse">
<stop stop-color="#FFBC47" stop-opacity="0"/>
<stop offset="1" stop-color="#FFA754"/>
</linearGradient>
<linearGradient id="paint9_linear_1608_3918" x1="16.9149" y1="16.6842" x2="14.6378" y2="18.3488" gradientUnits="userSpaceOnUse">
<stop stop-color="#FFBC47" stop-opacity="0"/>
<stop offset="1" stop-color="#FFA754"/>
</linearGradient>
<radialGradient id="paint10_radial_1608_3918" cx="0" cy="0" r="1" gradientUnits="userSpaceOnUse" gradientTransform="translate(19.9027 13.9817) scale(2.73362)">
<stop stop-color="#FFBC47" stop-opacity="0"/>
<stop offset="1" stop-color="#FFA754"/>
</radialGradient>
<linearGradient id="paint11_linear_1608_3918" x1="17.0449" y1="13.0052" x2="15.6304" y2="14.3162" gradientUnits="userSpaceOnUse">
<stop offset="0.3118" stop-color="#FFBC47" stop-opacity="0"/>
<stop offset="1" stop-color="#FF8900"/>
</linearGradient>
<linearGradient id="paint12_linear_1608_3918" x1="15.9619" y1="13.7158" x2="14.0989" y2="15.3948" gradientUnits="userSpaceOnUse">
<stop offset="0.3118" stop-color="#FFBC47" stop-opacity="0"/>
<stop offset="1" stop-color="#FF8900"/>
</linearGradient>
<linearGradient id="paint13_linear_1608_3918" x1="15.3323" y1="15.5317" x2="13.0323" y2="17.4637" gradientUnits="userSpaceOnUse">
<stop offset="0.3118" stop-color="#FFBC47" stop-opacity="0"/>
<stop offset="1" stop-color="#FF8900"/>
</linearGradient>
<linearGradient id="paint14_linear_1608_3918" x1="12.8227" y1="16.9353" x2="15.4964" y2="19.1088" gradientUnits="userSpaceOnUse">
<stop stop-color="#FFBC47" stop-opacity="0"/>
<stop offset="1" stop-color="#FFBC47"/>
</linearGradient>
<linearGradient id="paint15_linear_1608_3918" x1="13.3342" y1="14.2412" x2="15.4215" y2="17.4152" gradientUnits="userSpaceOnUse">
<stop stop-color="#FFBC47" stop-opacity="0"/>
<stop offset="1" stop-color="#FFBC47"/>
</linearGradient>
<linearGradient id="paint16_linear_1608_3918" x1="14.9693" y1="14.468" x2="15.5558" y2="14.0195" gradientUnits="userSpaceOnUse">
<stop stop-color="#FFBC47" stop-opacity="0"/>
<stop offset="1" stop-color="#FFA754"/>
</linearGradient>
<linearGradient id="paint17_linear_1608_3918" x1="17.8634" y1="16.2399" x2="17.0814" y2="12.5139" gradientUnits="userSpaceOnUse">
<stop stop-color="#FFBC47" stop-opacity="0"/>
<stop offset="1" stop-color="#FFBC47"/>
</linearGradient>
<linearGradient id="paint18_linear_1608_3918" x1="16.0782" y1="19.8159" x2="14.9052" y2="20.8941" gradientUnits="userSpaceOnUse">
<stop offset="0.3118" stop-color="#FFBC47" stop-opacity="0"/>
<stop offset="1" stop-color="#FF8900"/>
</linearGradient>
<radialGradient id="paint19_radial_1608_3918" cx="0" cy="0" r="1" gradientUnits="userSpaceOnUse" gradientTransform="translate(16.8552 16.2528) rotate(48.1401) scale(7.92356 7.1921)">
<stop offset="0.6134" stop-color="#FFBC47" stop-opacity="0"/>
<stop offset="1" stop-color="#FF8900"/>
</radialGradient>
</defs>
</svg>
