<svg width="20" height="20" viewBox="0 0 20 20" fill="none" xmlns="http://www.w3.org/2000/svg">
<path d="M16.0547 2.66837V2.69571C16.0547 3.70743 13.9609 4.53126 10 4.53126C5.83984 4.53126 3.94531 3.70743 3.94531 2.69571V2.64883C3.94531 2.0629 4.59766 1.59805 5.88672 1.26993C6.98828 0.988678 8.44922 0.836334 10 0.836334C11.5469 0.836334 13.0078 0.988678 14.1133 1.26993C15.4023 1.59805 16.0547 2.0629 16.0547 2.64883V2.66837ZM9.14062 2.64883C9.14062 2.48477 8.625 2.35587 7.99219 2.35587C7.35547 2.35587 6.83984 2.48477 6.83984 2.64883C6.83984 2.80899 7.35547 2.9418 7.99219 2.9418C8.625 2.9418 9.14062 2.80899 9.14062 2.64883ZM15.6875 6.47266V4.1211C15.3477 4.37891 14.832 4.59766 14.1406 4.77344C13.0273 5.0586 11.5586 5.21094 10 5.21094C8.44141 5.21094 6.97266 5.05469 5.85938 4.77344C5.16797 4.59766 4.65234 4.38282 4.3125 4.1211V6.47266C4.06641 6.67969 3.94531 6.91016 3.94531 7.16407V7.20704C3.94531 8.21876 5.83984 9.03907 10 9.03907C13.9609 9.03907 16.0547 8.21876 16.0547 7.20704V7.16407C16.0547 6.91016 15.9336 6.67969 15.6875 6.47266ZM15.6875 11.5078V8.63672C15.3477 8.89454 14.832 9.11329 14.1406 9.28907C13.0273 9.57032 11.5586 9.72657 10 9.72657C8.44141 9.72657 6.97266 9.57032 5.85938 9.28907C5.16797 9.11329 4.65234 8.89454 4.3125 8.63672V11.5078C4.06641 11.7149 3.94531 11.9453 3.94531 12.1992V12.2344C3.94531 13.2461 5.83984 14.0664 10 14.0664C13.9609 14.0664 16.0547 13.2461 16.0547 12.2344V12.1992C16.0547 11.9414 15.9336 11.7109 15.6875 11.5078ZM16.0352 17.1875C15.9922 16.9961 15.8789 16.8203 15.6875 16.6602V13.6719C15.3477 13.9297 14.832 14.1484 14.1406 14.3242C13.0273 14.6055 11.5586 14.7617 10 14.7617C8.44141 14.7617 6.97266 14.6055 5.85938 14.3242C5.16797 14.1484 4.65234 13.9297 4.3125 13.6719V16.6602C4.12109 16.8203 4.00781 16.9961 3.96484 17.1875C3.95312 17.2344 3.94531 17.2852 3.94531 17.332V17.3516C3.94531 17.5742 4.03516 17.7773 4.21875 17.9609C4.88281 18.6641 6.75 19.1641 10 19.1641C12.3516 19.1641 14.0469 18.875 15.0352 18.4258C15.7109 18.1328 16.0547 17.7773 16.0547 17.3516V17.332C16.0547 17.2852 16.0469 17.2344 16.0352 17.1875Z" fill="#B4FF59"/>
</svg>
