<svg width="20" height="20" viewBox="0 0 20 20" fill="none" xmlns="http://www.w3.org/2000/svg">
<path d="M17.132 7.76025C17.444 5.76379 15.8556 4.69062 13.6835 3.97471L14.3882 1.27033L12.6678 0.860128L11.9818 3.4933C11.5296 3.38536 11.0651 3.28365 10.6035 3.18283L11.2944 0.532273L9.57507 0.12207L8.87006 2.82557C8.49579 2.74402 8.12819 2.66344 7.77154 2.57852L7.77354 2.57001L5.40109 2.00311L4.94345 3.76139C4.94345 3.76139 6.21983 4.04136 6.19293 4.05859C6.88959 4.22498 7.01557 4.66627 6.99465 5.01605L6.19201 8.09697C6.23998 8.10863 6.30221 8.1255 6.37087 8.1519C6.31347 8.13826 6.2524 8.12337 6.18902 8.10885L5.06399 12.4248C4.97885 12.6273 4.76275 12.9313 4.27568 12.8158C4.29292 12.8398 3.02528 12.5172 3.02528 12.5172L2.17114 14.4017L4.40994 14.9357C4.82643 15.0357 5.23457 15.1402 5.63651 15.2386L4.9246 17.974L6.64299 18.3842L7.348 15.6778C7.81744 15.7998 8.27302 15.9122 8.71902 16.0183L8.01638 18.7119L9.73684 19.1221L10.4487 16.3918C13.3823 16.9231 15.5881 16.7089 16.5166 14.1698C17.2648 12.1255 16.4794 10.9464 14.936 10.1775C16.0601 9.92939 16.9068 9.22191 17.1326 7.76047L17.132 7.7601L17.132 7.76025ZM13.2013 13.0345C12.6696 15.0788 9.07267 13.9737 7.90649 13.6966L8.85121 10.0727C10.0173 10.3513 13.7569 10.9025 13.2014 13.0345H13.2013ZM13.7333 7.73062C13.2483 9.5901 10.2546 8.6454 9.28341 8.41375L10.1399 5.12707C11.1111 5.35872 14.2386 5.79107 13.7335 7.73062H13.7333Z" fill="#B4FF59"/>
</svg>
