<svg width="20" height="20" viewBox="0 0 20 20" fill="none" xmlns="http://www.w3.org/2000/svg">
<g clip-path="url(#clip0_201_140)">
<path d="M11.8305 17.1022C9.74238 17.1022 7.913 15.6968 6.9194 13.6059H13.4907V10.7082H6.1557C6.13742 10.4738 6.12758 10.239 6.12758 9.99916C6.12758 9.76161 6.13736 9.52393 6.1557 9.29268H13.4908V6.3944H6.91947C7.91306 4.30365 9.74238 2.89866 11.8306 2.89866C13.8264 2.89866 15.7057 4.23472 16.7348 6.38391L19.3495 5.13416C17.8338 1.96647 14.9529 0 11.8305 0C9.48326 0 7.29244 1.07257 5.66148 3.02275C4.84121 4.0038 4.21446 5.14851 3.80243 6.3944H0.650635V9.29261H3.25015C3.23619 9.52541 3.22898 9.76315 3.22898 9.9991C3.22898 10.2375 3.23619 10.4722 3.25015 10.7081H0.650635V13.6058H3.80243C4.21446 14.8516 4.84121 15.995 5.66154 16.9751C7.2925 18.9254 9.48333 20 11.8306 20C14.953 20 17.8338 18.0338 19.3495 14.8662L16.7348 13.6141C15.7056 15.7661 13.8263 17.1022 11.8305 17.1022Z" fill="#B4FF59"/>
</g>
<defs>
<clipPath id="clip0_201_140">
<rect width="20" height="20" fill="white"/>
</clipPath>
</defs>
</svg>
