<svg width="20" height="20" viewBox="0 0 20 20" fill="none" xmlns="http://www.w3.org/2000/svg">
<g clip-path="url(#clip0_201_156)">
<path d="M10 1C10 1 16 6.0628 16 12.1564C16 15.9364 13.3119 19 10 19C6.68807 19 4 15.9364 4 12.1564C4 6.0628 10 1 10 1ZM10 16.8196C11.682 16.8196 13.0461 15.2632 13.0461 13.345C13.0461 10.2514 10 7.6804 10 7.6804C10 7.6804 6.95392 10.2508 6.95392 13.345C6.95392 15.2632 8.31627 16.8196 10 16.8196Z" fill="#B4FF59"/>
</g>
<defs>
<clipPath id="clip0_201_156">
<rect width="12" height="18" fill="white" transform="matrix(-1 0 0 1 16 1)"/>
</clipPath>
</defs>
</svg>
