<svg width="20" height="20" viewBox="0 0 20 20" fill="none" xmlns="http://www.w3.org/2000/svg">
<g clip-path="url(#clip0_201_129)">
<path fill-rule="evenodd" clip-rule="evenodd" d="M15.032 1.71335H19.5746L15.3546 13.3333C15.2981 13.4898 15.1946 13.625 15.0583 13.7205C14.9221 13.8159 14.7597 13.867 14.5933 13.8667H10.1333C10.2852 13.8509 10.4296 13.7924 10.5497 13.698C10.6698 13.6037 10.7607 13.4772 10.812 13.3333L15.032 1.71335Z" fill="#B4FF59"/>
<path fill-rule="evenodd" clip-rule="evenodd" d="M9.77069 13.6933C9.62091 13.6937 9.47433 13.65 9.34916 13.5678C9.22399 13.4855 9.12577 13.3683 9.06669 13.2307L8.15869 10.7293L9.70669 6.46265C9.75918 6.31748 9.85413 6.19146 9.9792 6.10097C10.1043 6.01048 10.2537 5.9597 10.408 5.95525C10.5623 5.95079 10.7143 5.99285 10.8444 6.07597C10.9745 6.15909 11.0766 6.27942 11.1374 6.42132L12.0427 8.91198L10.4947 13.1787C10.4427 13.3292 10.345 13.4597 10.2152 13.552C10.0854 13.6443 9.92996 13.6937 9.77069 13.6933Z" fill="#B4FF59"/>
<path fill-rule="evenodd" clip-rule="evenodd" d="M10.0999 5.77734C9.93924 5.78292 9.78396 5.83679 9.65433 5.93193C9.52471 6.02706 9.42676 6.15905 9.37326 6.31068L5.15326 17.9333H0.610596L4.8306 6.31068C4.88724 6.15454 4.99055 6.0196 5.12651 5.92419C5.26247 5.82878 5.4245 5.77751 5.5906 5.77734H10.0999Z" fill="#B4FF59"/>
</g>
<defs>
<clipPath id="clip0_201_129">
<rect width="20" height="20" fill="white"/>
</clipPath>
</defs>
</svg>
