<svg width="20" height="20" viewBox="0 0 20 20" fill="none" xmlns="http://www.w3.org/2000/svg">
<path d="M12.7094 9.5526V2.06805H14.6868C15.1007 2.06805 15.4282 2.16019 15.6691 2.34447C15.913 2.52875 16.0873 2.79099 16.1922 3.1312C16.2971 3.47141 16.3496 3.87682 16.3496 4.34744C16.3496 4.80105 16.3056 5.19654 16.2177 5.53391C16.1298 5.86845 15.9725 6.12786 15.7457 6.31213C15.5217 6.49641 15.2028 6.58855 14.7889 6.58855H14.1807V9.5526H12.7094ZM14.1807 5.24474H14.2658C14.5436 5.24474 14.7137 5.16677 14.7761 5.01084C14.8385 4.85491 14.8697 4.62528 14.8697 4.32192C14.8697 4.03842 14.8385 3.82012 14.7761 3.66703C14.7166 3.5111 14.5734 3.43313 14.3466 3.43313H14.1807V5.24474Z" fill="#B4FF59"/>
<path d="M9.48582 9.6419C9.02087 9.6419 8.65515 9.46187 8.38865 9.10182C8.12499 8.74177 7.99316 8.24563 7.99316 7.61341C7.99316 7.16264 8.03285 6.78841 8.11224 6.49073C8.19445 6.19305 8.30786 5.94498 8.45244 5.74653C8.59703 5.54807 8.76288 5.37513 8.95 5.22771L8.91598 5.14266C8.7969 4.84781 8.69201 4.56714 8.60128 4.30065C8.5134 4.03132 8.46945 3.7549 8.46945 3.47139C8.46945 3.18505 8.53041 2.93132 8.65231 2.71018C8.77422 2.48905 8.94291 2.31611 9.15837 2.19137C9.37667 2.06379 9.62616 2 9.90683 2C10.1847 2 10.437 2.06095 10.6638 2.18286C10.8934 2.30193 11.0763 2.48196 11.2124 2.72294C11.3485 2.96392 11.4165 3.26869 11.4165 3.63725C11.4165 4.03699 11.3414 4.37153 11.1911 4.64086C11.0437 4.91019 10.8211 5.16959 10.5235 5.41908L10.9317 6.4482C11.099 6.02578 11.3399 5.69833 11.6546 5.46586L12.2457 6.38867C11.9169 6.65233 11.6419 7.08184 11.4207 7.6772L12.1692 9.55259H10.7233L10.5575 9.1486C10.4469 9.28468 10.2981 9.40092 10.111 9.49731C9.92667 9.5937 9.7183 9.6419 9.48582 9.6419ZM9.80477 3.33956C9.80477 3.41328 9.82319 3.52243 9.86005 3.66701C9.8969 3.80877 9.98337 4.05542 10.1195 4.40696C10.1733 4.35026 10.2215 4.26096 10.264 4.13905C10.3066 4.01714 10.3278 3.84987 10.3278 3.63725C10.3278 3.41895 10.3009 3.26585 10.247 3.17797C10.196 3.09008 10.128 3.04614 10.0429 3.04614C9.96069 3.04614 9.89974 3.07732 9.86005 3.13969C9.82319 3.19923 9.80477 3.26585 9.80477 3.33956ZM9.29446 7.79627C9.29446 8.30091 9.43763 8.55323 9.72397 8.55323C9.8402 8.55323 9.93376 8.51071 10.0046 8.42566C10.0755 8.33777 10.1237 8.24705 10.1492 8.15349L9.43479 6.41418C9.34123 6.61264 9.29446 6.95993 9.29446 7.45607V7.79627Z" fill="#B4FF59"/>
<path d="M5.93067 9.62063C5.24742 9.62063 4.75413 9.45053 4.45077 9.11032C4.15026 8.77011 4 8.22862 4 7.48583V6.75439H5.4799V7.68996C5.4799 7.8629 5.50542 7.99898 5.55645 8.09821C5.61031 8.1946 5.70245 8.24279 5.83286 8.24279C5.96895 8.24279 6.0625 8.2031 6.11353 8.12372C6.1674 8.04434 6.19433 7.91393 6.19433 7.73248C6.19433 7.50284 6.17165 7.31148 6.12629 7.15839C6.08093 7.00246 6.00155 6.85503 5.88815 6.71612C5.77758 6.57436 5.62307 6.40993 5.42462 6.22282L4.75271 5.58493C4.2509 5.11147 4 4.56998 4 3.96044C4 3.32255 4.14742 2.83634 4.44227 2.50181C4.73995 2.16727 5.16946 2 5.7308 2C6.41689 2 6.9031 2.18286 7.18944 2.54858C7.47861 2.91431 7.6232 3.46998 7.6232 4.2156H6.10078V3.70103C6.10078 3.59897 6.07101 3.51959 6.01147 3.46289C5.95477 3.40619 5.87681 3.37784 5.77758 3.37784C5.65851 3.37784 5.57062 3.41186 5.51392 3.4799C5.46005 3.54511 5.43312 3.63016 5.43312 3.73505C5.43312 3.83995 5.46147 3.95335 5.51817 4.07526C5.57487 4.19717 5.68686 4.3375 5.85413 4.49627L6.7174 5.32552C6.89034 5.48995 7.0491 5.66431 7.19369 5.84859C7.33828 6.03003 7.45452 6.24266 7.5424 6.48648C7.63029 6.72746 7.67423 7.0223 7.67423 7.37101C7.67423 8.07411 7.54382 8.62553 7.283 9.02527C7.02501 9.42218 6.57423 9.62063 5.93067 9.62063Z" fill="#B4FF59"/>
<path d="M14.7884 18.5044C14.0829 18.5044 13.5371 18.3067 13.1511 17.9112C12.7683 17.5157 12.5769 16.9462 12.5769 16.2027V12.4346C12.5769 11.6499 12.7588 11.0488 13.1227 10.6312C13.4897 10.2104 14.0449 10 14.7884 10C15.5351 10 16.0904 10.2104 16.4542 10.6312C16.818 11.0488 17 11.6499 17 12.4346V16.2027C17 16.9462 16.8085 17.5157 16.4257 17.9112C16.0429 18.3067 15.4971 18.5044 14.7884 18.5044ZM14.7884 16.9668C14.9181 16.9668 15.0194 16.9082 15.0922 16.7912C15.1649 16.6741 15.2013 16.5428 15.2013 16.3973V12.2732C15.2013 12.0771 15.1792 11.9062 15.1349 11.7607C15.0937 11.612 14.9783 11.5376 14.7884 11.5376C14.5986 11.5376 14.4815 11.612 14.4372 11.7607C14.3961 11.9062 14.3755 12.0771 14.3755 12.2732V16.3973C14.3755 16.5428 14.4119 16.6741 14.4847 16.7912C14.5606 16.9082 14.6619 16.9668 14.7884 16.9668Z" fill="#B4FF59"/>
<path d="M9.98582 18.5044C9.28028 18.5044 8.73452 18.3067 8.34853 17.9112C7.9657 17.5157 7.77429 16.9462 7.77429 16.2027V12.4346C7.77429 11.6499 7.95621 11.0488 8.32005 10.6312C8.68706 10.2104 9.24231 10 9.98582 10C10.7325 10 11.2877 10.2104 11.6516 10.6312C12.0154 11.0488 12.1973 11.6499 12.1973 12.4346V16.2027C12.1973 16.9462 12.0059 17.5157 11.6231 17.9112C11.2403 18.3067 10.6945 18.5044 9.98582 18.5044ZM9.98582 16.9668C10.1155 16.9668 10.2168 16.9082 10.2895 16.7912C10.3623 16.6741 10.3987 16.5428 10.3987 16.3973V12.2732C10.3987 12.0771 10.3766 11.9062 10.3323 11.7607C10.2911 11.612 10.1756 11.5376 9.98582 11.5376C9.79599 11.5376 9.67892 11.612 9.63463 11.7607C9.5935 11.9062 9.57294 12.0771 9.57294 12.2732V16.3973C9.57294 16.5428 9.60932 16.6741 9.68209 16.7912C9.75802 16.9082 9.85926 16.9668 9.98582 16.9668Z" fill="#B4FF59"/>
<path d="M5.18305 18.5471C4.54079 18.5471 4.01559 18.3889 3.60746 18.0726C3.20249 17.753 3 17.2642 3 16.6061V15.3627H4.73695V16.0793C4.73695 16.228 4.74486 16.372 4.76068 16.5112C4.77966 16.6504 4.82079 16.7643 4.88407 16.8529C4.94734 16.9415 5.04701 16.9858 5.18305 16.9858C5.36339 16.9858 5.48203 16.9257 5.53898 16.8054C5.59593 16.682 5.62441 16.5254 5.62441 16.3356V14.6936C5.62441 14.5575 5.61492 14.4231 5.59593 14.2902C5.58011 14.1573 5.54215 14.0466 5.48203 13.958C5.42192 13.8694 5.32542 13.8251 5.19254 13.8251C4.87616 13.8251 4.71797 14.0545 4.71797 14.5132H3.18508V10.0712H7.16678V11.6373H4.77017V12.8142C4.85243 12.713 4.96316 12.6244 5.10237 12.5485C5.24475 12.4694 5.41085 12.4298 5.60068 12.4298C5.98034 12.4298 6.28881 12.5026 6.5261 12.6481C6.76655 12.7937 6.95006 12.9962 7.07661 13.2556C7.20633 13.515 7.29492 13.8156 7.34237 14.1573C7.39299 14.499 7.4183 14.866 7.4183 15.2583C7.4183 15.7614 7.39141 16.2154 7.33763 16.6203C7.28701 17.0222 7.18418 17.367 7.02915 17.6549C6.87729 17.9428 6.65266 18.1643 6.35525 18.3193C6.06102 18.4712 5.67028 18.5471 5.18305 18.5471Z" fill="#B4FF59"/>
</svg>
