<svg width="48" height="32" viewBox="0 0 48 32" fill="none" xmlns="http://www.w3.org/2000/svg">
<path fill-rule="evenodd" clip-rule="evenodd" d="M16 27C22.0751 27 27 22.0751 27 16C27 9.92487 22.0751 5 16 5C9.92487 5 5 9.92487 5 16C5 22.0751 9.92487 27 16 27ZM16 32C24.8366 32 32 24.8366 32 16C32 7.16344 24.8366 0 16 0C7.16344 0 0 7.16344 0 16C0 24.8366 7.16344 32 16 32Z" fill="url(#paint0_linear_195_145)"/>
<path fill-rule="evenodd" clip-rule="evenodd" d="M32 27C38.0751 27 43 22.0751 43 16C43 9.92487 38.0751 5 32 5C25.9249 5 21 9.92487 21 16C21 22.0751 25.9249 27 32 27ZM32 32C40.8366 32 48 24.8366 48 16C48 7.16344 40.8366 0 32 0C23.1634 0 16 7.16344 16 16C16 24.8366 23.1634 32 32 32Z" fill="url(#paint1_linear_195_145)"/>
<defs>
<linearGradient id="paint0_linear_195_145" x1="32" y1="16" x2="0" y2="16" gradientUnits="userSpaceOnUse">
<stop stop-color="#FF0000"/>
<stop offset="1" stop-color="#FF0000" stop-opacity="0"/>
</linearGradient>
<linearGradient id="paint1_linear_195_145" x1="48" y1="16" x2="16" y2="16" gradientUnits="userSpaceOnUse">
<stop stop-color="#FF0000"/>
<stop offset="1" stop-color="#FF0000" stop-opacity="0"/>
</linearGradient>
</defs>
</svg>
