<svg width="16" height="16" viewBox="0 0 16 16" fill="none" xmlns="http://www.w3.org/2000/svg">
<g clip-path="url(#clip0_1280_326)">
<path d="M3.29535 3.73725L0.682683 6.34992C0.258433 6.7945 0.0217285 7.3854 0.0217285 7.99992C0.0217285 8.61444 0.258433 9.20535 0.682683 9.64992L3.29535 12.2626C3.3876 12.3581 3.49794 12.4343 3.61995 12.4867C3.74195 12.5391 3.87317 12.5667 4.00595 12.5678C4.13873 12.569 4.27041 12.5437 4.3933 12.4934C4.5162 12.4431 4.62785 12.3689 4.72175 12.275C4.81564 12.1811 4.88989 12.0694 4.94017 11.9465C4.99045 11.8237 5.01575 11.692 5.0146 11.5592C5.01345 11.4264 4.98586 11.2952 4.93345 11.1732C4.88104 11.0512 4.80486 10.9408 4.70935 10.8486L2.85668 8.99459L15.0234 8.97926C15.2886 8.97926 15.5429 8.8739 15.7305 8.68636C15.918 8.49883 16.0233 8.24447 16.0233 7.97926C16.0233 7.71404 15.918 7.45969 15.7305 7.27215C15.5429 7.08461 15.2886 6.97926 15.0234 6.97926L2.86668 6.99459L4.70935 5.15126C4.89151 4.96265 4.9923 4.71005 4.99002 4.44785C4.98775 4.18566 4.88258 3.93484 4.69717 3.74944C4.51176 3.56403 4.26095 3.45886 3.99875 3.45658C3.73655 3.4543 3.48395 3.5551 3.29535 3.73725Z" fill="white"/>
</g>
<defs>
<clipPath id="clip0_1280_326">
<rect width="16" height="16" fill="white"/>
</clipPath>
</defs>
</svg>
