<svg width="16" height="16" viewBox="0 0 16 16" fill="none" xmlns="http://www.w3.org/2000/svg">
<g clip-path="url(#clip0_319_1129)">
<path d="M3.29529 3.73725L0.682622 6.34992C0.258372 6.7945 0.0216675 7.3854 0.0216675 7.99992C0.0216675 8.61444 0.258372 9.20535 0.682622 9.64992L3.29529 12.2626C3.38754 12.3581 3.49788 12.4343 3.61988 12.4867C3.74189 12.5391 3.87311 12.5667 4.00589 12.5678C4.13867 12.569 4.27035 12.5437 4.39324 12.4934C4.51614 12.4431 4.62779 12.3689 4.72168 12.275C4.81558 12.1811 4.88983 12.0694 4.94011 11.9465C4.99039 11.8237 5.01569 11.692 5.01454 11.5592C5.01339 11.4264 4.9858 11.2952 4.93339 11.1732C4.88098 11.0512 4.8048 10.9408 4.70929 10.8486L2.85662 8.99459L15.0233 8.97926C15.2885 8.97926 15.5429 8.8739 15.7304 8.68636C15.9179 8.49883 16.0233 8.24447 16.0233 7.97926C16.0233 7.71404 15.9179 7.45969 15.7304 7.27215C15.5429 7.08461 15.2885 6.97926 15.0233 6.97926L2.86662 6.99459L4.70929 5.15126C4.89145 4.96265 4.99224 4.71005 4.98996 4.44785C4.98768 4.18566 4.88252 3.93484 4.69711 3.74944C4.5117 3.56403 4.26089 3.45886 3.99869 3.45658C3.73649 3.4543 3.48389 3.5551 3.29529 3.73725Z" fill="#B4FF59"/>
</g>
<defs>
<clipPath id="clip0_319_1129">
<rect width="16" height="16" fill="white"/>
</clipPath>
</defs>
</svg>
