<svg width="20" height="20" viewBox="0 0 20 20" fill="none" xmlns="http://www.w3.org/2000/svg">
<path d="M3.33324 3.33301L16.6666 16.6663M13.7499 13.9629C12.6227 14.5701 11.3488 14.9996 9.99991 14.9996C7.0577 14.9996 4.47187 12.9562 2.989 11.482C2.59759 11.0929 2.40191 10.8983 2.27733 10.5164C2.18849 10.2441 2.18847 9.75515 2.27733 9.48279C2.40194 9.1009 2.59803 8.90589 2.99022 8.51606C3.73763 7.77318 4.76501 6.886 5.97683 6.18864M16.2499 12.1942C16.5275 11.9501 16.7816 11.71 17.0097 11.4832L17.0121 11.4807C17.4027 11.0925 17.5985 10.8979 17.7228 10.5168C17.8117 10.2445 17.8115 9.75537 17.7227 9.48301C17.5981 9.10123 17.4022 8.90613 17.0111 8.51727C15.5282 7.04308 12.9421 4.99967 9.99991 4.99967C9.71866 4.99967 9.44066 5.01835 9.16658 5.05341M11.1023 11.2497C10.8085 11.509 10.4226 11.6663 9.99991 11.6663C9.07944 11.6663 8.33324 10.9201 8.33324 9.99967C8.33324 9.55009 8.51126 9.14224 8.80064 8.84245" stroke="white" stroke-width="2" stroke-linecap="round" stroke-linejoin="round"/>
</svg>
