<svg width="24" height="24" viewBox="0 0 24 24" fill="none" xmlns="http://www.w3.org/2000/svg">
<path fill-rule="evenodd" clip-rule="evenodd" d="M0.052002 12.0024C0.052002 6.04381 4.71364 1.14285 10.5496 1.14285C12.468 1.14285 14.2676 1.67619 15.8145 2.60542C16.3286 2.91426 16.4951 3.5814 16.1862 4.09553C15.8774 4.60965 15.2102 4.77607 14.6961 4.46724C13.4743 3.7333 12.0595 3.31475 10.5496 3.31475C5.98967 3.31475 2.2239 7.16534 2.2239 12.0024C2.2239 16.8394 5.98967 20.69 10.5496 20.69C12.0595 20.69 13.4743 20.2714 14.6962 19.5375C15.2103 19.2287 15.8774 19.3951 16.1862 19.9093C16.4951 20.4234 16.3286 21.0905 15.8145 21.3994C14.2676 22.3285 12.468 22.8619 10.5496 22.8619C4.71365 22.8619 0.052002 17.961 0.052002 12.0024ZM17.7453 6.89067C18.1694 6.46658 18.857 6.46658 19.281 6.89067L23.6248 11.2345C24.0489 11.6586 24.0489 12.3462 23.6248 12.7702L19.281 17.114C18.857 17.5381 18.1694 17.5381 17.7453 17.114C17.3212 16.69 17.3212 16.0024 17.7453 15.5783L20.2352 13.0883H8.7396C8.13985 13.0883 7.65366 12.6021 7.65366 12.0024C7.65366 11.4026 8.13985 10.9164 8.7396 10.9164H20.2352L17.7453 8.42644C17.3212 8.00235 17.3212 7.31476 17.7453 6.89067Z" fill="#B4FF59"/>
</svg>
