<svg width="32" height="32" viewBox="0 0 32 32" fill="none" xmlns="http://www.w3.org/2000/svg">
<rect width="32" height="32" rx="8" fill="#B4FF59"/>
<path d="M7 15V19.8002C7 20.9203 7 21.4801 7.21799 21.9079C7.40973 22.2842 7.71547 22.5905 8.0918 22.7822C8.5192 23 9.07899 23 10.1969 23H21.8031C22.921 23 23.48 23 23.9074 22.7822C24.2837 22.5905 24.5905 22.2842 24.7822 21.9079C25 21.4805 25 20.9215 25 19.8036V15M7 15V13M7 15H25M7 13V12.2002C7 11.0801 7 10.5196 7.21799 10.0918C7.40973 9.71547 7.71547 9.40973 8.0918 9.21799C8.51962 9 9.08009 9 10.2002 9H21.8002C22.9203 9 23.4796 9 23.9074 9.21799C24.2837 9.40973 24.5905 9.71547 24.7822 10.0918C25 10.5192 25 11.079 25 12.1969V13M7 13H25M11 19H15M25 15V13" stroke="#17162D" stroke-width="2" stroke-linecap="round" stroke-linejoin="round"/>
</svg>
