<svg width="272" height="291" viewBox="0 0 272 291" fill="none" xmlns="http://www.w3.org/2000/svg">
<path d="M6.04053 265.045L49.9869 290.527L132.735 138.716L88.7598 113.233L6.04053 265.045Z" fill="#6ABD45"/>
<path d="M0.866943 262.22L44.8417 287.702L127.561 135.891L83.5862 110.408L0.866943 262.22Z" fill="#B4FF59"/>
<path d="M154.736 129.956L198.711 155.438L256.899 48.6565L212.952 23.2025L154.736 129.956Z" fill="#6ABD45"/>
<path d="M151.95 122.822L195.925 148.304L251.725 45.8315L207.779 20.3489L151.95 122.822Z" fill="#B4FF59"/>
<path d="M83.5862 110.408L151.95 122.822L195.925 148.304L127.561 135.891L83.5862 110.408Z" fill="#B8F783"/>
<path d="M128.158 142.626L198.711 155.438L195.925 148.304L127.561 135.891L128.158 142.626Z" fill="#6ABD45"/>
<path d="M187.938 16.6392L266.023 61.8973L248.598 0.516388L187.938 16.6392Z" fill="#B4FF59"/>
<path d="M266.023 61.8973L271.197 64.7223L253.743 3.34145L248.598 0.516388L266.023 61.8973Z" fill="#6ABD45"/>
</svg>
