<svg width="400" height="331" viewBox="0 0 400 331" fill="none" xmlns="http://www.w3.org/2000/svg">
<g style="mix-blend-mode:overlay">
<path d="M218.163 0C98.1755 0 0.891113 61.3335 0.891113 137.002V203.998C0.891113 279.68 98.1755 341 218.163 341C338.151 341 435.435 279.68 435.435 203.998V137.002C435.435 61.3335 338.151 0 218.163 0ZM218.163 244.604C116.317 244.604 30.278 195.325 30.278 137.003C30.278 78.6661 116.317 29.3869 218.163 29.3869C320.009 29.3869 406.048 78.6661 406.048 137.002C406.048 195.325 320.009 244.604 218.163 244.604Z" fill="white"/>
<path d="M302.717 106.554C301.63 104.67 301.232 104.552 300.303 103.557C299.375 102.562 298.34 101.581 297.2 100.6C296.033 99.6189 294.774 98.6505 293.407 97.6821C292.028 96.7137 290.543 95.7462 288.951 94.7914C287.705 94.0487 286.352 93.2925 284.946 92.5635C283.541 91.8209 282.028 91.0782 280.464 90.3492C278.886 89.6066 277.228 88.8902 275.478 88.1612C273.754 87.4321 271.924 86.7158 270.028 85.9995L279.35 74.8202L253.968 66.1344L244.738 77.194L212.805 66.2668L202.355 62.686L195.353 71.0408L194 72.6857L193.231 74.0784L193.457 75.3515C193.735 75.7623 194.266 76.1866 195.088 76.6245L195.327 76.757L195.619 76.9165L195.937 77.0888L196.309 77.2611L196.813 77.5132L197.476 77.8577L198.311 78.2685L199.305 78.7727L199.822 79.1707L199.769 79.3693L199.901 79.6613L201.028 80.3241L138.329 155.091C137.587 154.945 137.136 154.879 136.844 154.879L136.366 154.971L136.14 155.117L135.358 155.038L134.14 154.798L133.132 154.573L132.323 154.413L131.7 154.293L131.276 154.187L130.865 154.095L130.507 154.029L130.215 153.975C129.167 153.776 128.331 153.737 127.615 153.816C126.912 153.895 126.342 154.094 125.838 154.399L124.432 155.58L123.027 157.238L115.959 165.672L126.448 169.293L158.461 180.34L149.708 190.816L175.196 199.622L183.949 189.132L187.211 190.273C189.572 191.082 191.906 191.825 194.2 192.487C196.494 193.15 198.775 193.747 201.003 194.277C203.257 194.808 205.472 195.258 207.66 195.657C209.836 196.028 211.996 196.359 214.118 196.611C216.266 196.85 218.375 197.036 220.444 197.155C222.499 197.261 224.529 197.328 226.491 197.328C228.48 197.328 230.416 197.261 232.326 197.142C234.209 197.022 236.065 196.837 237.869 196.598C239.686 196.359 241.449 196.054 243.173 195.696C244.871 195.324 246.542 194.913 248.173 194.436C249.778 193.946 251.356 193.415 252.881 192.831C254.392 192.235 255.878 191.584 257.284 190.868C258.717 190.152 260.082 189.396 261.382 188.587C262.681 187.777 263.914 186.916 265.081 186.014C266.262 185.099 267.363 184.145 268.41 183.15C269.457 182.155 270.426 181.108 271.341 180.007C273.873 176.957 275.478 173.946 276.154 170.989C276.831 168.032 276.592 165.115 275.398 162.237C274.231 159.359 272.123 156.534 269.099 153.749C266.075 150.951 262.123 148.206 257.257 145.501C258.742 145.66 264.922 144.944 265.77 144.758C266.633 144.586 267.6 144.44 268.833 144.36C270.067 144.28 271.26 144.161 272.427 144.028C273.594 143.882 274.735 143.736 275.848 143.538C276.949 143.352 278.023 143.153 279.071 142.915C280.118 142.689 281.126 142.424 282.121 142.132C283.116 141.866 284.07 141.562 284.999 141.243C285.914 140.912 286.802 140.567 287.678 140.196C288.526 139.838 289.375 139.454 290.171 139.029C290.98 138.618 291.762 138.18 292.519 137.716C293.248 137.266 293.951 136.788 294.627 136.297C295.317 135.793 295.953 135.289 296.576 134.746L298.354 133.101L299.958 131.337C300.847 130.276 301.63 129.215 302.319 128.168C303.009 127.107 303.605 126.06 304.122 125.025C304.626 123.978 305.051 122.93 305.369 121.895C305.701 120.861 306.098 119.481 306.098 118.792C306.098 117.293 306.218 115.928 305.634 113.634C304.892 110.691 303.831 108.437 302.717 106.554ZM241.609 161.442L241.185 163.073L240.495 164.718L239.514 166.376L238.267 168.047L236.835 169.625L235.257 171.07L233.546 172.409L231.663 173.656C231.026 174.041 230.336 174.399 229.647 174.731C228.931 175.062 228.215 175.367 227.446 175.645C226.689 175.911 225.907 176.162 225.085 176.388C224.277 176.6 223.428 176.799 222.553 176.972C221.69 177.132 220.802 177.264 219.887 177.356C218.958 177.449 218.004 177.516 216.996 177.542C216.015 177.569 214.98 177.556 213.933 177.516C212.886 177.476 211.785 177.41 210.671 177.304C209.57 177.198 208.416 177.038 207.236 176.84C206.043 176.641 204.822 176.389 203.563 176.083C202.303 175.778 201.017 175.433 199.704 175.036C198.377 174.652 197.011 174.214 195.619 173.737L169.016 164.573L194.346 134.284L220.788 143.394C222.115 143.845 223.361 144.296 224.555 144.747C225.748 145.225 226.863 145.675 227.91 146.14C228.957 146.618 229.965 147.081 230.867 147.559C231.795 148.037 232.657 148.514 233.453 149.004C234.235 149.495 234.978 149.985 235.654 150.489C236.331 150.98 236.941 151.484 237.498 151.988L239.009 153.5L240.176 155.025L241.012 156.616L241.528 158.208L241.727 159.813L241.609 161.442ZM270.837 119.484C270.174 120.731 269.286 122.017 268.171 123.357C267.097 124.656 265.93 125.81 264.657 126.818C263.41 127.839 262.057 128.701 260.599 129.43C259.166 130.146 257.629 130.717 255.984 131.154C254.366 131.578 252.629 131.87 250.799 131.989C248.982 132.135 247.086 132.161 245.084 132.055C243.094 131.949 241.012 131.711 238.838 131.352C236.676 130.981 234.409 130.49 232.062 129.867C229.702 129.257 227.261 128.514 224.728 127.639L205.432 121.022L230.311 91.2633L251.25 98.4375C253.77 99.2998 256.064 100.175 258.133 101.063C260.188 101.952 262.032 102.853 263.649 103.782C265.254 104.697 266.646 105.625 267.8 106.58C268.967 107.521 269.909 108.49 270.612 109.458C271.341 110.439 271.819 111.46 272.071 112.521C272.323 113.596 272.35 114.709 272.137 115.863C271.937 117.03 271.5 118.237 270.837 119.484Z" fill="white"/>
</g>
</svg>
