<svg width="427" height="435" viewBox="0 0 427 435" fill="none" xmlns="http://www.w3.org/2000/svg">
<g style="mix-blend-mode:overlay">
<path d="M362.595 373.983L368.168 385.956L373.755 373.983H362.595Z" fill="white"/>
<path d="M186.518 373.983L192.096 385.956L197.692 373.983H186.518Z" fill="white"/>
<path d="M95.3442 402.573L100.922 414.551L106.504 402.573H95.3442Z" fill="white"/>
<path d="M271.421 402.573L277.004 414.551L282.591 402.573H271.421Z" fill="white"/>
<path d="M553.572 450.475L547.345 423.651C546.647 420.653 545.15 417.9 542.999 415.701C539.871 412.496 536.161 409.767 531.868 407.53C519.241 401.057 506.493 395.754 495.04 391.269L494.789 390.48C494.39 389.156 493.586 386.457 491.714 383.584C491.705 383.011 491.7 382.472 491.719 382.049C492.917 380.417 493.581 378.94 493.894 378.17C495.304 375.027 496.18 371.986 496.883 369.532C497.369 367.847 498.033 365.538 498.49 364.878L498.48 364.869C500.102 362.472 501.185 359.484 501.478 356.683L501.623 355.234C501.974 351.88 502.325 348.55 502.643 344.792C502.869 341.144 501.94 337.564 500.16 334.489L500.15 323.107C500.15 311.226 494.703 303.839 490.136 299.724C489.019 298.719 487.884 297.713 486.748 296.726C486.839 293.136 485.819 289.479 483.639 286.37C480.531 281.558 474.794 278.651 469.077 278.651C467.196 278.57 465.372 278.603 463.481 278.902L461.599 279.2C457.85 279.782 453.967 280.393 449.881 281.341C445.959 282.265 441.743 283.44 437.475 285.057V226.799V211.404V86.1737L359.463 177.651V254.186C351.965 256.308 343.904 259.532 336.551 265.596C333.288 268.286 323.37 276.462 322.288 290.918C322.081 293.776 322.052 296.659 322.037 299.537L322.023 304.46C321.368 305.475 320.829 306.592 320.367 307.771C319.054 305.336 317.523 303.314 315.998 301.654V294.936V196.578L282.365 186.746L237.981 252.689V284.306V285.494C236.133 278.743 232.442 274.065 229.17 271.13C228.068 270.143 226.965 269.166 225.849 268.189C225.921 265.615 225.387 263.011 224.275 260.586C224.372 260.456 224.492 260.35 224.579 260.22L279.679 178.363L330.651 193.262C333.808 194.171 337.215 193.175 339.362 190.668L468.081 39.759C471.074 36.2508 470.66 30.9717 467.157 27.9737C463.649 24.9852 458.365 25.3991 455.367 28.9121L330.151 175.697L278.505 160.606C275.007 159.571 271.253 160.933 269.222 163.96L216.277 242.626L168.842 196.881C165.791 193.94 161.013 193.753 157.731 196.438L93.6406 249.094C90.0795 252.03 89.5598 257.294 92.4953 260.855C94.1459 262.867 96.5424 263.911 98.963 263.911C100.83 263.911 102.702 263.29 104.266 262.006L162.596 214.07L200.488 250.62L200.214 250.658C197.192 251.139 194.054 251.664 190.811 252.352L161.316 223.911L123.193 255.24V266.967V279.816C121.196 279.056 119.064 278.651 116.927 278.651C115.046 278.56 113.227 278.603 111.326 278.902L109.459 279.2C105.705 279.782 101.822 280.393 97.7359 281.341C88.8235 283.449 78.4771 286.625 69.3 294.2C66.0373 296.89 56.1239 305.066 55.0267 319.566C54.8294 322.395 54.8005 325.249 54.7861 328.088L54.7669 333.088C52.3703 336.856 51.1673 341.726 52.1105 347.583C52.0479 347.246 52.0046 346.904 51.995 346.861C52.0287 347.915 52.0864 349.681 52.5676 351.871C53.2606 354.955 54.1124 358.598 55.1759 362.217C55.6138 363.728 56.1913 365.215 56.8025 366.692C56.9131 366.967 57.0383 367.236 57.1393 367.52C58.0392 372.847 59.839 377.727 62.481 382.058C60.7534 384.257 59.2471 387.077 58.1692 390.706C58.0825 390.99 58.0007 391.25 57.9189 391.514C57.2933 391.769 56.6677 392.02 56.0421 392.284C54.2568 393.016 52.4666 393.752 50.6908 394.493L47.3944 395.874C43.7178 397.395 40.0508 398.92 36.3839 400.658C32.4763 402.53 28.6601 404.58 24.8391 406.644L22.2934 408.011C17.8998 410.35 14.4734 412.737 11.5283 415.518C9.11254 417.785 7.42342 420.715 6.66789 423.94L0.445577 450.446C-0.728625 455.455 0.445577 460.72 3.64095 464.753C6.83632 468.785 11.6967 471.134 16.8411 471.134C28.5927 471.134 37.5966 475.629 49.0065 481.312C61.0421 487.318 74.685 494.122 93.0632 495.701C93.5492 495.739 94.0304 495.758 94.5117 495.758C94.5405 495.758 94.5742 495.758 94.6031 495.758C97.1007 495.758 99.4683 495.224 101.595 494.247C104.338 495.292 107.375 495.629 110.387 495.138C122.75 493.064 137.216 487.395 151.205 481.904C163.429 477.111 178.636 471.143 185.002 471.143C186.35 471.143 187.678 470.965 188.958 470.648C190.248 470.956 191.571 471.143 192.918 471.143C204.67 471.143 213.674 475.643 225.084 481.322C237.119 487.327 250.762 494.132 269.141 495.705C269.627 495.749 270.108 495.768 270.589 495.768C270.618 495.768 270.652 495.768 270.68 495.768C273.178 495.768 275.546 495.234 277.673 494.262C280.421 495.306 283.448 495.638 286.465 495.147C298.828 493.078 313.293 487.404 327.283 481.913C339.506 477.12 354.713 471.153 361.08 471.153C362.422 471.153 363.75 470.975 365.026 470.662C366.315 470.965 367.629 471.153 368.977 471.153C380.728 471.153 389.727 475.648 401.142 481.331C413.178 487.337 426.825 494.141 445.208 495.72C445.694 495.758 446.171 495.778 446.652 495.778C446.681 495.778 446.714 495.778 446.748 495.778C449.246 495.778 451.613 495.243 453.74 494.267C456.474 495.311 459.506 495.648 462.523 495.157C474.886 493.083 489.352 487.414 503.341 481.923C515.564 477.13 530.771 471.163 537.138 471.163C542.268 471.163 547.123 468.829 550.319 464.806C553.514 460.783 554.727 455.484 553.572 450.475ZM107.62 479.469L118.939 463.829L100.922 414.551L82.8996 463.829L94.5165 479.873C62.9815 477.164 47.1586 455.248 16.8507 455.248L23.073 428.742C25.1231 426.817 27.587 425.239 30.2145 423.839C34.6851 421.442 39.1221 418.978 43.6841 416.789C48.1162 414.686 52.6976 412.876 57.2308 410.97C61.4945 409.175 65.8063 407.467 70.0315 405.648C70.7629 405.311 71.5089 404.551 71.7976 403.815C72.7456 401.447 73.5445 399.002 74.2904 396.553C74.8582 394.69 75.224 392.852 77.606 392.385C78.2028 392.246 78.9246 391.202 79.0257 390.509C79.5165 386.947 79.8774 383.372 80.1277 379.787C80.1854 379.017 79.7956 378.045 79.2807 377.462C76.1335 373.945 74.3914 369.897 73.684 365.244C73.3135 362.92 72.0142 360.744 71.3501 358.459C70.4453 355.384 69.7042 352.246 69.0065 349.132C68.7562 348.006 68.9054 346.794 68.7033 345.629C68.429 343.93 68.4867 342.655 70.5031 341.991C71.0806 341.813 71.5281 340.475 71.557 339.667C71.6628 334.676 71.5859 335.898 71.6195 330.889C71.6484 327.823 71.6195 324.744 71.8313 321.678C72.274 315.831 75.7148 311.697 80.0122 308.146C86.3067 302.953 93.8428 300.514 101.605 298.68C105.667 297.737 109.82 297.145 113.963 296.481C115.06 296.312 116.201 296.452 117.327 296.452C117.514 296.75 117.702 297.025 117.899 297.309C117.024 297.944 116.076 298.473 115.32 299.214C113.621 300.903 113.795 302.078 115.59 303.594C119.334 306.75 123.077 309.917 126.72 313.199C129.916 316.081 131.157 319.825 131.157 324.065C131.172 331.346 131.172 332.4 131.172 339.676C131.157 341.168 131.066 342.645 132.904 343.295C133.304 343.435 133.703 344.253 133.674 344.715C133.352 348.444 132.957 352.15 132.567 355.879C132.548 356.019 132.529 356.187 132.447 356.293C129.093 361.187 128.684 367.188 126.278 372.429C126.186 372.626 126.128 372.852 125.994 373.021C121.542 378.247 122.933 384.536 122.832 390.523C122.832 391.144 123.275 392.082 123.766 392.299C125.57 393.107 126.013 394.652 126.504 396.312C127.308 398.887 128.077 401.5 129.194 403.964C129.617 404.854 130.835 405.643 131.85 406.019C145.493 411.264 158.992 416.793 172.023 423.482C174.632 424.83 176.879 426.471 178.785 428.42L185.007 455.244C167.23 455.248 130.585 475.633 107.62 479.469ZM192.096 385.956L180.912 416.538C179.29 415.335 177.558 414.228 175.695 413.266C162.038 406.264 148.304 400.682 136.408 396.086C136.027 395.003 135.7 393.906 135.359 392.814L135.094 391.976C134.853 391.177 134.478 390.003 133.862 388.699C134.199 388.54 134.521 388.367 134.863 388.199C139.29 386.091 143.876 384.286 148.405 382.371C152.668 380.576 156.98 378.872 161.21 377.049C161.937 376.721 162.683 375.951 162.976 375.21C163.92 372.847 164.718 370.398 165.464 367.953C166.037 366.091 166.398 364.267 168.78 363.781C169.377 363.646 170.099 362.602 170.2 361.909C170.69 358.348 171.056 354.772 171.302 351.192C171.359 350.422 170.97 349.445 170.455 348.863C167.312 345.345 165.565 341.298 164.858 336.644C164.487 334.32 163.188 332.15 162.524 329.859C161.619 326.784 160.878 323.656 160.185 320.533C159.93 319.412 160.084 318.199 159.882 317.029C159.603 315.345 159.67 314.051 161.687 313.391C162.254 313.213 162.702 311.876 162.731 311.077C162.837 306.077 162.769 307.299 162.793 302.289C162.822 299.224 162.793 296.149 163.015 293.088C163.448 287.232 166.889 283.103 171.186 279.551C177.481 274.354 185.017 271.919 192.779 270.085C196.84 269.137 200.998 268.56 205.137 267.886C206.234 267.718 207.375 267.857 208.505 267.857C208.688 268.156 208.876 268.43 209.073 268.714C208.198 269.344 207.249 269.879 206.494 270.62C204.795 272.304 204.968 273.478 206.763 274.999C210.507 278.165 214.251 281.322 217.894 284.604C221.09 287.482 222.331 291.231 222.331 295.47C222.346 302.747 222.346 303.805 222.346 311.081C222.331 312.568 222.24 314.051 224.078 314.7C224.478 314.84 224.882 315.668 224.848 316.13C224.53 319.849 224.131 323.555 223.741 327.284C223.722 327.424 223.703 327.588 223.621 327.698C220.267 332.588 219.858 338.593 217.456 343.829C217.36 344.027 217.307 344.253 217.168 344.421C212.716 349.647 214.112 355.937 214.006 361.923C214.006 362.544 214.449 363.483 214.94 363.709C216.744 364.508 217.187 366.057 217.678 367.713C218.486 370.287 219.251 372.9 220.368 375.374C220.791 376.264 222.009 377.044 223.024 377.429C229.891 380.061 236.715 382.761 243.462 385.672C241.451 388.088 240.565 390.788 240.132 392.236C239.728 393.569 239.309 394.912 238.837 396.24C237.216 396.923 235.584 397.583 233.953 398.261L225.402 401.803C221.812 403.304 218.226 404.782 214.675 406.466C210.897 408.28 207.201 410.263 203.51 412.255L202.004 413.073L192.096 385.956ZM283.707 479.469L295.026 463.829L277.009 414.551L258.987 463.829L270.603 479.873C239.068 477.164 223.246 455.248 192.938 455.248L199.16 428.742C201.215 426.817 203.674 425.239 206.301 423.839C210.777 421.442 215.214 418.978 219.771 416.789C224.203 414.686 228.785 412.876 233.318 410.97C237.581 409.175 241.893 407.467 246.128 405.648C246.85 405.311 247.596 404.551 247.885 403.815C248.833 401.447 249.631 399.002 250.377 396.553C250.945 394.69 251.311 392.852 253.693 392.385C254.29 392.246 255.007 391.202 255.113 390.509C255.604 386.947 255.964 383.372 256.215 379.787C256.277 379.017 255.883 378.045 255.368 377.462C252.225 373.945 250.478 369.897 249.771 365.244C249.4 362.92 248.101 360.744 247.442 358.459C246.537 355.384 245.791 352.246 245.093 349.132C244.843 348.006 244.992 346.794 244.79 345.629C244.516 343.93 244.579 342.655 246.6 341.991C247.168 341.813 247.615 340.475 247.644 339.667C247.75 334.676 247.682 335.898 247.707 330.889C247.735 327.823 247.707 324.744 247.928 321.678C248.361 315.831 251.802 311.697 256.099 308.146C262.394 302.953 269.925 300.514 277.692 298.68C281.749 297.737 285.911 297.145 290.05 296.481C291.152 296.312 292.288 296.452 293.419 296.452C293.601 296.75 293.794 297.025 293.986 297.309C293.106 297.944 292.163 298.473 291.412 299.214C289.713 300.903 289.882 302.078 291.677 303.594C295.421 306.75 299.169 309.917 302.807 313.199C306.003 316.081 307.244 319.825 307.244 324.065C307.259 331.346 307.259 332.4 307.259 339.676C307.244 341.168 307.158 342.645 308.991 343.295C309.391 343.435 309.8 344.253 309.756 344.715C309.439 348.444 309.044 352.15 308.654 355.879C308.635 356.019 308.616 356.187 308.534 356.293C305.185 361.187 304.776 367.188 302.374 372.429C302.273 372.626 302.22 372.852 302.081 373.021C297.629 378.247 299.025 384.536 298.929 390.523C298.929 391.144 299.367 392.082 299.853 392.299C301.662 393.107 302.1 394.652 302.591 396.312C303.394 398.887 304.169 401.5 305.281 403.964C305.704 404.854 306.922 405.643 307.937 406.019C321.585 411.264 335.083 416.793 348.125 423.482C350.723 424.83 352.971 426.471 354.876 428.42L361.099 455.244C343.317 455.248 306.667 475.633 283.707 479.469ZM368.168 385.956L356.984 416.533C355.377 415.33 353.649 414.228 351.787 413.266C338.12 406.264 324.395 400.687 312.495 396.091C312.11 394.989 311.773 393.848 311.417 392.737L311.171 391.967C310.931 391.182 310.565 390.008 309.949 388.714C310.276 388.555 310.603 388.382 310.931 388.213C315.363 386.105 319.944 384.301 324.472 382.385C328.741 380.59 333.053 378.887 337.278 377.063C338 376.736 338.75 375.966 339.044 375.229C339.982 372.862 340.786 370.417 341.537 367.968C342.105 366.105 342.47 364.281 344.848 363.8C345.444 363.661 346.161 362.616 346.272 361.923C346.758 358.362 347.124 354.787 347.374 351.206C347.432 350.436 347.047 349.46 346.527 348.877C343.385 345.359 341.643 341.312 340.93 336.659C340.565 334.335 339.261 332.164 338.596 329.874C337.692 326.798 336.951 323.67 336.263 320.547C336.012 319.426 336.161 318.213 335.959 317.044C335.68 315.36 335.748 314.07 337.764 313.406C338.332 313.228 338.784 311.89 338.808 311.091C338.914 306.091 338.852 307.313 338.876 302.304C338.904 299.238 338.876 296.163 339.097 293.103C339.535 287.246 342.971 283.117 347.268 279.566C353.568 274.373 361.099 271.933 368.856 270.1C372.923 269.152 377.076 268.574 381.219 267.901C382.316 267.732 383.452 267.872 384.583 267.872C384.771 268.17 384.953 268.444 385.151 268.728C384.27 269.364 383.322 269.893 382.571 270.634C380.873 272.318 381.046 273.493 382.846 275.013C386.585 278.18 390.329 281.337 393.976 284.619C397.172 287.496 398.418 291.245 398.418 295.485C398.428 302.761 398.428 303.82 398.428 311.096C398.418 312.583 398.322 314.065 400.155 314.715C400.555 314.854 400.959 315.682 400.925 316.144C400.613 319.864 400.213 323.569 399.823 327.299C399.804 327.438 399.785 327.602 399.703 327.713C396.354 332.602 395.94 338.608 393.543 343.844C393.442 344.041 393.394 344.267 393.25 344.436C388.798 349.662 390.199 355.951 390.088 361.938C390.088 362.559 390.531 363.497 391.022 363.723C392.826 364.522 393.269 366.072 393.755 367.727C394.568 370.302 395.329 372.915 396.45 375.388C396.873 376.279 398.091 377.058 399.111 377.443C405.974 380.075 412.797 382.775 419.549 385.687C417.528 388.102 416.642 390.802 416.224 392.251C415.815 393.584 415.391 394.926 414.92 396.245C413.283 396.947 411.628 397.616 409.987 398.3L401.484 401.817C397.894 403.319 394.308 404.796 390.767 406.481C386.946 408.319 383.211 410.321 379.467 412.342L378.077 413.088L368.168 385.956ZM459.775 479.469L471.094 463.829L453.076 414.551L435.054 463.829L446.676 479.873C415.136 477.164 399.313 455.248 369.005 455.248L375.228 428.742C377.283 426.817 379.742 425.239 382.374 423.839C386.84 421.442 391.277 418.978 395.844 416.789C400.271 414.686 404.857 412.876 409.381 410.97C413.649 409.175 417.961 407.467 422.181 405.648C422.913 405.311 423.664 404.551 423.947 403.815C424.896 401.447 425.694 399.002 426.445 396.553C427.013 394.69 427.374 392.852 429.756 392.385C430.353 392.246 431.074 391.202 431.176 390.509C431.671 386.947 432.032 383.372 432.278 379.787C432.335 379.017 431.946 378.045 431.426 377.462C428.288 373.945 426.541 369.897 425.829 365.244C425.463 362.92 424.159 360.744 423.5 358.459C422.595 355.384 421.854 352.246 421.156 349.132C420.906 348.006 421.055 346.794 420.858 345.629C420.579 343.93 420.651 342.655 422.667 341.991C423.23 341.813 423.683 340.475 423.712 339.667C423.813 334.676 423.75 335.898 423.774 330.889C423.803 327.823 423.774 324.744 423.996 321.678C424.429 315.831 427.874 311.697 432.167 308.146C438.461 302.953 445.997 300.514 453.76 298.68C457.821 297.737 461.979 297.145 466.118 296.481C467.215 296.312 468.355 296.452 469.481 296.452C469.669 296.75 469.852 297.025 470.049 297.309C469.174 297.944 468.225 298.473 467.47 299.214C465.771 300.903 465.949 302.078 467.744 303.594C471.483 306.75 475.232 309.917 478.875 313.199C482.07 316.081 483.312 319.825 483.312 324.065C483.326 331.346 483.326 332.4 483.326 339.676C483.312 341.168 483.225 342.645 485.059 343.295C485.458 343.435 485.858 344.253 485.829 344.715C485.511 348.444 485.112 352.15 484.722 355.879C484.703 356.019 484.684 356.187 484.607 356.293C481.252 361.187 480.843 367.188 478.442 372.429C478.341 372.626 478.293 372.852 478.148 373.021C473.697 378.247 475.093 384.536 474.992 390.523C474.992 391.144 475.434 392.082 475.92 392.299C477.725 393.107 478.168 394.652 478.659 396.312C479.467 398.887 480.232 401.5 481.349 403.964C481.772 404.854 482.994 405.643 484.015 406.019C497.653 411.264 511.151 416.793 524.193 423.482C526.791 424.83 529.039 426.471 530.944 428.42L537.167 455.244C519.385 455.248 482.735 475.633 459.775 479.469Z" fill="white"/>
<path d="M437.485 5.16342C437.485 2.40115 435.237 0.153809 432.47 0.153809H364.477C361.715 0.153809 359.463 2.40115 359.463 5.16342V54.0949V126.121L437.485 34.658V5.16342Z" fill="white"/>
<path d="M280.012 151.222L316.003 161.751V108.152V83.7438C316.003 80.972 313.755 78.7246 310.988 78.7246H243.005C240.238 78.7246 237.99 80.972 237.99 83.7438V118.782V192.81L261.46 157.94C265.517 151.896 273.024 149.191 280.012 151.222Z" fill="white"/>
<path d="M173.814 189.508L201.215 215.937V183.469V142.256C201.215 139.484 198.967 137.237 196.2 137.237H128.212C125.44 137.237 123.198 139.484 123.198 142.256V194.648V211.972L151.59 188.632C158.145 183.238 167.702 183.613 173.814 189.508Z" fill="white"/>
</g>
</svg>
