<svg width="478" height="380" viewBox="0 0 478 380" fill="none" xmlns="http://www.w3.org/2000/svg">
<g style="mix-blend-mode:overlay">
<path d="M118.873 339.714C125.289 361.147 262.42 320.095 256.004 298.662C250.578 280.537 221.267 262.627 189.447 264.358C199.481 252.741 203.348 234.53 199.135 220.458C193.189 200.593 171.425 189.541 150.5 195.805C129.591 202.065 117.461 223.263 123.407 243.127C127.621 257.202 140.849 270.293 155.583 274.495C128.112 290.514 113.447 321.588 118.873 339.714ZM172.623 280.793L172.457 280.843L164.133 275.867C167.492 275.978 170.817 275.702 174.135 274.709C177.445 273.718 180.384 272.152 183.128 270.212L178.891 278.916L178.733 278.964L206.049 311.279L192.261 335.258L167.573 322.797L172.623 280.793Z" fill="white"/>
<path d="M239.934 244.982C241.331 249.646 246.376 252.222 251.286 250.753L358.599 218.628C359.711 217.265 361.096 215.923 363.16 214.654L358.842 200.232L246.252 233.937C241.367 235.399 238.544 240.339 239.934 244.982Z" fill="white"/>
<path d="M347.375 161.938L234.788 195.642C229.903 197.104 227.076 202.028 228.473 206.695C229.86 211.328 234.913 213.93 239.822 212.46L352.41 178.756L347.375 161.938Z" fill="white"/>
<path d="M142.796 412.541C124.625 417.98 105.634 408.346 100.473 391.106L43.1383 199.58C37.9726 182.324 48.5507 163.855 66.7219 158.415L323.326 81.5991L317.079 60.7328L60.4754 137.549C30.1755 146.619 12.5442 177.383 21.1584 206.159L78.4887 397.67C87.1029 426.446 118.733 442.444 149.033 433.373L407.129 356.11L406.756 333.485L142.786 412.507L142.796 412.541Z" fill="white"/>
<path d="M425.571 30.0648L432.104 51.8862C445.226 53.2118 456.705 61.7894 460.548 74.6244L517.878 266.135C522.708 282.27 513.656 299.321 497.652 305.933L509.462 324.55C534.137 312.595 547.58 285.352 539.858 259.555L482.527 68.0446C475.205 43.5944 451.208 28.5128 425.571 30.0648Z" fill="white"/>
<path d="M372.197 194.133C375.647 186.696 384.513 183.652 396.251 187.172C399.562 168.278 415.226 163.606 428.379 177.537C436.252 168.147 445.316 165.823 452.306 170.152C456.545 172.78 459.323 177.468 460.802 184.462C461.413 184.214 461.841 184.255 462.431 184.042L411.845 15.0619L320.823 42.3101L371.418 211.321C372.014 211.143 372.337 210.891 373.015 210.739C370.344 204.124 370.116 198.654 372.197 194.133Z" fill="white"/>
<path d="M430.77 299.46C430.485 299.477 430.229 299.466 429.92 299.455C425.133 305.389 420.004 308.297 415.229 308.836L416.432 383.794L431.657 365.945L445.771 382.6L444.581 307.793C440.026 307.315 435.398 304.597 430.77 299.46Z" fill="white"/>
<path d="M461.966 289.862C461.73 290.036 461.506 290.188 461.258 290.333C460.065 298.296 457.006 303.419 452.43 306.01L496.705 375.714L496.158 347.44L521.914 360.593L477.446 290.603C473.311 291.894 468.112 291.851 461.966 289.862Z" fill="white"/>
<path d="M454.294 286.148C456.708 284.91 458.894 283.398 461.096 281.879C477.52 288.502 483.549 282.371 475.68 267.073C477.116 264.928 478.381 262.691 479.474 260.372C497.429 258.156 499.519 250.046 484.606 240.804C484.764 238.25 484.909 235.719 484.659 233.129C499.004 222.72 496.664 214.904 478.925 214.103C477.735 211.814 476.232 209.757 474.698 207.709C482.077 191.78 475.845 186.174 459.649 194.147C457.437 192.855 455.15 191.681 452.788 190.671C450.954 173.56 442.556 171.762 432.471 186.316C429.813 186.251 427.192 186.193 424.467 186.512C413.992 173.017 405.764 175.48 404.43 192.51C402.027 193.726 399.821 195.23 397.635 196.744C381.213 190.129 375.177 196.245 383.083 211.538C381.638 213.722 380.35 215.932 379.229 218.239C361.316 220.463 359.19 228.584 374.103 237.823C373.968 240.387 373.823 242.918 374.085 245.487C359.707 255.903 362.057 263.753 379.784 264.524C380.993 266.807 382.496 268.864 384.015 270.934C376.636 286.863 382.871 292.467 399.059 284.479C401.281 285.805 403.558 286.945 405.92 287.953C407.757 305.077 416.157 306.869 426.24 292.31C428.899 292.375 431.553 292.437 434.286 292.135C444.722 305.619 452.985 303.145 454.294 286.148Z" fill="white"/>
</g>
</svg>
