<svg width="310" height="221" viewBox="0 0 310 221" fill="none" xmlns="http://www.w3.org/2000/svg">
<path d="M2.19639 58.6378C0.983357 51.0015 6.1904 43.8278 13.8266 42.6148L268.267 2.19638C275.903 0.98335 283.077 6.19038 284.29 13.8266L307.766 161.612C308.979 169.248 303.772 176.422 296.135 177.635L41.6955 218.054C34.0593 219.267 26.8855 214.06 25.6725 206.423L2.19639 58.6378Z" fill="url(#paint0_radial_201_173)"/>
<g style="mix-blend-mode:color-dodge">
<mask id="mask0_201_173" style="mask-type:alpha" maskUnits="userSpaceOnUse" x="2" y="2" width="306" height="217">
<rect y="44.8112" width="285.63" height="177.639" rx="14" transform="rotate(-9.02615 0 44.8112)" fill="url(#paint1_radial_201_173)"/>
</mask>
<g mask="url(#mask0_201_173)">
<path d="M197.209 149.999L232.32 175.5L289.015 97.3447L264.437 79.4943L225.579 133.061L190.468 107.561L126.766 195.375L82.8765 163.499L16.6266 254.826L41.2046 272.677L89.618 205.938L133.507 237.814L197.209 149.999Z" fill="#388E3C"/>
<path d="M292.651 66.4657L224.485 77.2941L303.486 134.671L292.651 66.4657Z" fill="#388E3C"/>
</g>
</g>
<rect x="3.19189" y="64.9054" width="285.63" height="39.1274" transform="rotate(-9.02615 3.19189 64.9054)" fill="url(#paint2_linear_201_173)"/>
<rect x="16.3728" y="107.976" width="223.809" height="25.8241" rx="4" transform="rotate(-9.02615 16.3728 107.976)" fill="white"/>
<rect x="243.593" y="71.8817" width="43.0402" height="25.8241" rx="4" transform="rotate(-9.02615 243.593 71.8817)" fill="white"/>
<path d="M276.392 76.7277L272.93 77.2777C272.542 77.3393 272.297 77.3402 272.195 77.2804C272.017 77.1733 271.911 77.0085 271.876 76.786C271.835 76.5304 271.896 76.3305 272.059 76.1863C272.141 76.1142 272.363 76.0493 272.726 75.9917L276.423 75.4044C276.695 75.3611 276.852 75.3404 276.895 75.3421C277.072 75.3393 277.215 75.3884 277.324 75.4894C277.433 75.5904 277.51 75.7852 277.556 76.0738C277.63 76.5354 277.599 76.9544 277.464 77.3308C277.387 77.5374 277.118 77.9985 276.657 78.7141C276.114 79.5526 275.749 80.3162 275.563 81.0051C275.385 81.6926 275.357 82.4238 275.481 83.1988L275.549 83.6316C275.603 83.9696 275.604 84.1891 275.553 84.2903C275.458 84.4405 275.312 84.5314 275.114 84.5628C274.908 84.5955 274.731 84.5434 274.582 84.4064C274.513 84.3414 274.452 84.144 274.399 83.8142L274.332 83.3938C274.056 81.6544 274.494 79.886 275.645 78.0888C275.984 77.5617 276.18 77.2517 276.233 77.1588C276.305 77.029 276.358 76.8853 276.392 76.7277Z" fill="#595959"/>
<path d="M268.977 77.9055L265.515 78.4555C265.128 78.517 264.883 78.5179 264.78 78.4581C264.603 78.3511 264.496 78.1863 264.461 77.9637C264.42 77.7081 264.481 77.5082 264.644 77.364C264.726 77.2919 264.948 77.227 265.311 77.1694L269.008 76.5821C269.28 76.5389 269.437 76.5181 269.48 76.5198C269.657 76.517 269.8 76.5662 269.909 76.6672C270.018 76.7682 270.096 76.963 270.141 77.2515C270.215 77.7131 270.184 78.1321 270.049 78.5085C269.972 78.7151 269.703 79.1762 269.242 79.8918C268.699 80.7303 268.335 81.4939 268.148 82.1828C267.97 82.8703 267.943 83.6016 268.066 84.3765L268.134 84.8093C268.188 85.1473 268.189 85.3669 268.138 85.468C268.043 85.6183 267.897 85.7091 267.699 85.7405C267.493 85.7733 267.316 85.7211 267.167 85.5841C267.098 85.5191 267.037 85.3217 266.984 84.992L266.918 84.5715C266.641 82.8321 267.079 81.0638 268.23 79.2666C268.569 78.7395 268.765 78.4294 268.818 78.3365C268.89 78.2067 268.943 78.063 268.977 77.9055Z" fill="#595959"/>
<path d="M261.563 79.0833L258.101 79.6333C257.713 79.6949 257.468 79.6957 257.366 79.636C257.188 79.5289 257.082 79.3641 257.046 79.1416C257.006 78.886 257.067 78.6861 257.23 78.5419C257.311 78.4698 257.534 78.4049 257.896 78.3473L261.594 77.7599C261.866 77.7167 262.023 77.696 262.065 77.6977C262.243 77.6949 262.386 77.744 262.495 77.845C262.604 77.946 262.681 78.1408 262.727 78.4293C262.8 78.891 262.77 79.31 262.635 79.6864C262.558 79.893 262.289 80.3541 261.828 81.0697C261.285 81.9081 260.92 82.6718 260.734 83.3607C260.556 84.0482 260.528 84.7794 260.651 85.5544L260.72 85.9872C260.774 86.3251 260.775 86.5447 260.723 86.6459C260.629 86.7961 260.483 86.887 260.285 86.9184C260.079 86.9511 259.901 86.899 259.753 86.762C259.683 86.697 259.622 86.4996 259.57 86.1698L259.503 85.7494C259.227 84.01 259.664 82.2416 260.816 80.4444C261.155 79.9173 261.35 79.6073 261.403 79.5144C261.476 79.3845 261.529 79.2409 261.563 79.0833Z" fill="#595959"/>
<path d="M288.51 147.255L278.772 146.337C278.665 146.334 278.56 146.351 278.459 146.386C278.371 146.387 278.283 146.401 278.199 146.428L269.172 150.326C268.599 150.571 268.132 151.013 267.851 151.572C267.571 152.132 267.496 152.774 267.641 153.385L269.338 160.537C270.013 163.374 271.446 165.972 273.481 168.049C275.517 170.127 278.076 171.604 280.882 172.321L282.108 172.638C282.262 172.676 282.422 172.682 282.579 172.657C282.736 172.633 282.886 172.577 283.02 172.493L284.088 171.812C286.534 170.261 288.509 168.063 289.801 165.457C291.092 162.851 291.649 159.937 291.412 157.03L290.81 149.704C290.765 149.092 290.512 148.514 290.092 148.067C289.673 147.621 289.114 147.334 288.51 147.255ZM284.903 155.748L280.525 161.831C280.424 161.973 280.295 162.094 280.147 162.186C279.999 162.278 279.834 162.339 279.662 162.367C279.49 162.394 279.314 162.387 279.144 162.345C278.975 162.304 278.815 162.229 278.675 162.125L275.651 159.911C275.366 159.703 275.175 159.389 275.12 159.039C275.064 158.689 275.149 158.332 275.355 158.046C275.561 157.759 275.872 157.567 276.219 157.512C276.566 157.457 276.921 157.543 277.205 157.752L279.157 159.193L282.756 154.176C282.962 153.89 283.273 153.698 283.62 153.643C283.967 153.588 284.322 153.674 284.606 153.882C284.891 154.091 285.082 154.404 285.138 154.754C285.193 155.104 285.109 155.461 284.903 155.748Z" fill="white"/>
<g opacity="0.74">
<path d="M227.283 91.1052C226.797 91.1247 226.323 91.128 225.84 91.1616C225.599 91.1854 225.349 91.2396 225.121 91.3477C224.392 91.7374 223.667 92.1551 222.929 92.5751C222.124 93.0344 221.322 93.5077 220.488 93.9573C219.995 94.2084 219.478 94.305 218.985 94.0951C218.801 94.0235 218.622 93.8934 218.499 93.7543C218.36 93.6035 218.246 93.6072 218.077 93.7206C217.725 93.9494 217.368 94.1501 217.033 94.3908C215.988 95.1477 214.945 95.9185 213.873 96.6798C213.445 96.9783 213.021 97.2908 212.487 97.3755C212.137 97.4312 211.805 97.4262 211.531 97.2392C211.224 97.0285 211.118 96.541 211.317 96.1635C211.688 95.5136 212.09 94.8734 212.464 94.2375C212.499 94.1887 212.518 94.128 212.537 94.0673C212.469 94.0925 212.385 94.1059 212.333 94.1429C211.433 94.9056 210.522 95.6845 209.626 96.4753C208.907 97.1084 208.222 97.7792 207.524 98.4522C206.339 99.5916 205.142 100.747 203.916 101.908C203.004 102.773 202.082 103.669 201.111 104.529C200.38 105.179 199.619 105.818 198.807 106.409C198.036 106.992 197.192 107.472 196.231 107.668C195.101 107.891 194.379 107.602 194.039 106.82C193.839 106.376 193.857 105.855 193.961 105.334C193.993 105.17 194.013 105.023 194.03 104.861C194.035 104.803 194.012 104.749 194.018 104.691C193.952 104.73 193.882 104.741 193.832 104.792C193.579 105.005 193.331 105.261 193.061 105.462C192.402 105.927 191.733 106.423 191.02 106.824C190.398 107.168 189.807 106.887 189.823 106.351C189.824 106.178 189.902 106.036 190.083 105.906C190.731 105.458 191.395 105.021 192.006 104.52C192.668 103.983 193.282 103.41 193.896 102.836C194.361 102.417 194.824 101.983 195.271 101.537C195.396 101.416 195.5 101.256 195.576 101.1C195.827 100.599 196.032 100.076 196.299 99.5868C196.86 98.5898 197.437 97.6046 198.002 96.6357C198.387 95.9836 198.759 95.3337 199.163 94.7075C199.614 94.0161 200.095 93.3344 200.562 92.6549C200.902 92.1685 201.226 91.6704 201.566 91.184C201.998 90.5534 202.43 89.9227 202.88 89.3179C203.687 88.2386 204.479 87.1616 205.29 86.1104C205.613 85.6988 205.936 85.2872 206.275 84.8874C207.307 83.6859 208.308 82.4748 209.349 81.3295C210.255 80.3353 211.215 79.4046 212.146 78.4784C213.068 77.5825 214.009 76.7126 214.937 75.8589C215.339 75.4924 215.79 75.1614 216.211 74.8207C216.3 74.7489 216.385 74.649 216.474 74.5771C216.909 74.2343 217.329 73.8937 217.754 73.5812C218.731 72.8495 219.698 72.1482 220.737 71.5364C221.225 71.2572 221.713 70.9779 222.207 70.7409C222.423 70.649 222.684 70.6651 222.937 70.625C223.021 70.6116 223.119 70.596 223.208 70.6107C223.562 70.6697 223.84 70.9714 223.941 71.3302C224.043 71.7031 223.926 72.0531 223.809 72.4032C223.537 73.2246 223.099 74.0003 222.582 74.731C221.926 75.671 221.256 76.6134 220.539 77.5343C219.844 78.4085 219.088 79.2636 218.318 80.1209C217.4 81.1314 216.452 82.1324 215.492 83.1496C214.826 83.8463 214.129 84.5333 213.449 85.2322C212.842 85.8475 212.238 86.4768 211.617 87.0942C211.245 87.4703 210.841 87.8228 210.469 88.1989C210.071 88.5935 209.676 89.0022 209.267 89.4131C208.721 89.961 208.147 90.5133 207.589 91.0775C207.107 91.572 206.627 92.0806 206.133 92.5915C205.589 93.1534 205.029 93.7035 204.472 94.2677C203.615 95.1243 202.75 96.0112 201.882 96.8841C200.94 97.8406 199.985 98.7994 199.004 99.7767C198.273 100.513 197.513 101.253 196.769 102.005C196.659 102.124 196.597 102.278 196.547 102.415C196.285 103.12 196.007 103.813 195.803 104.522C195.666 105.02 195.602 105.52 195.566 106.016C195.535 106.366 195.707 106.454 196.11 106.361C196.624 106.251 197.086 105.99 197.511 105.678C198.234 105.159 198.941 104.629 199.613 104.061C200.261 103.526 200.845 102.943 201.461 102.384C201.863 102.018 202.279 101.649 202.679 101.268C203.255 100.73 203.831 100.192 204.405 99.6394C205.204 98.8783 205.985 98.0913 206.787 97.3442C207.525 96.6505 208.28 95.9686 209.023 95.3029C209.514 94.8646 210.003 94.4122 210.513 93.9998C211.493 93.1956 212.444 92.3959 213.523 91.7634C213.866 91.5649 214.221 91.4507 214.609 91.4467C214.868 91.4488 214.984 91.6322 215.099 91.8157C215.196 91.9732 215.195 92.1463 215.126 92.3447C214.832 93.2128 214.29 93.9619 213.751 94.7391C213.633 94.902 213.53 95.0626 213.412 95.2255C213.388 95.258 213.383 95.3165 213.362 95.3631C213.415 95.3402 213.457 95.3335 213.511 95.3105C213.976 94.9772 214.411 94.6344 214.88 94.3293C215.802 93.7072 216.702 93.0311 217.691 92.5569C218.038 92.3865 218.4 92.3145 218.757 92.3876C219.053 92.4414 219.255 92.6255 219.381 92.8792C219.448 93.0271 219.532 93.0138 219.668 92.9634C220.553 92.6498 221.302 92.1129 222.09 91.6419C222.878 91.1708 223.662 90.6716 224.482 90.3108C225.032 90.0648 225.579 90.0644 226.144 90.09C226.737 90.1111 227.333 90.0597 227.921 90.0526C228.064 90.0444 228.239 90.0598 228.325 90.1471C228.48 90.3098 228.381 90.4985 228.15 90.6792C227.88 90.8806 227.592 90.9696 227.284 91.0186C227.293 91.0748 227.281 91.0911 227.283 91.1052ZM222.795 71.4545C222.739 71.4634 222.699 71.4842 222.643 71.4931C221.925 71.6792 221.306 72.037 220.71 72.4488C219.919 72.9923 219.132 73.564 218.35 74.1638C217.735 74.6363 217.122 75.1228 216.543 75.647C215.812 76.2964 215.086 76.9738 214.373 77.6491C213.811 78.1851 213.249 78.7212 212.708 79.2971C211.71 80.3492 210.689 81.4338 209.7 82.542C208.93 83.3993 208.164 84.2847 207.448 85.2056C206.382 86.5566 205.352 87.9453 204.311 89.3644C203.533 90.4392 202.791 91.5658 202.036 92.6946C201.375 93.6932 200.716 94.7058 200.075 95.7443C199.584 96.5429 199.111 97.3675 198.638 98.1921C198.616 98.2387 198.597 98.2994 198.576 98.346C198.627 98.309 198.695 98.2838 198.733 98.249C199.231 97.7662 199.716 97.2857 200.201 96.8052C200.847 96.1693 201.478 95.5214 202.113 94.9017C203.033 93.9918 203.943 93.1122 204.839 92.2349C205.512 91.5804 206.171 90.9281 206.831 90.2899C207.269 89.8746 207.72 89.457 208.158 89.0416C208.447 88.7795 208.738 88.5315 209.027 88.2693C209.415 87.9051 209.801 87.5267 210.187 87.1484C210.636 86.7168 211.071 86.2873 211.506 85.8579C212.066 85.3078 212.628 84.7718 213.174 84.2239C213.819 83.5739 214.447 82.912 215.075 82.2501C215.508 81.8067 215.939 81.3491 216.372 80.9056C216.753 80.4992 217.118 80.0809 217.5 79.6745C217.806 79.3376 218.126 78.9986 218.416 78.6499C218.993 77.9385 219.57 77.2271 220.117 76.506C220.511 75.9967 220.907 75.5015 221.254 74.9708C221.693 74.2957 222.084 73.5851 222.507 72.8982C222.76 72.4978 222.922 72.0685 222.993 71.6105C222.982 71.4536 222.922 71.4344 222.795 71.4545Z" fill="#3D3D3D"/>
<path d="M180.938 82.11C179.014 82.4012 177.061 82.8701 175.111 83.5402C174.073 83.8923 173.013 84.2769 171.975 84.7156C170.183 85.4759 168.423 86.3464 166.66 87.2894C164.885 88.2486 163.172 89.3278 161.501 90.4867C159.456 91.9212 157.5 93.457 155.713 95.1532C154.852 95.9817 154.082 96.839 153.359 97.7178C152.696 98.5291 152.095 99.3597 151.626 100.212C151.158 101.065 150.916 101.896 150.912 102.689C150.905 103.007 150.816 103.353 150.329 103.632C149.827 103.914 148.88 104.021 148.912 103.497C148.956 102.87 149.026 102.225 149.239 101.572C149.461 100.888 149.767 100.191 150.176 99.5059C150.668 98.7072 151.218 97.9137 151.889 97.1586C152.734 96.2317 153.549 95.2952 154.58 94.454C155.128 94.0067 155.582 93.5166 156.118 93.0857C157.06 92.3163 158.006 91.5751 158.985 90.8575C159.849 90.2303 160.776 89.6363 161.677 89.0608C162.043 88.8298 162.458 88.6342 162.826 88.4171C163.129 88.2394 163.396 88.0239 163.685 87.8484C165.545 86.7026 167.477 85.7328 169.421 84.8474C170.213 84.491 171.01 84.1628 171.804 83.8204C173.015 83.2966 174.242 82.8711 175.466 82.5181C176.428 82.2356 177.378 81.9694 178.337 81.7594C179.184 81.5673 180.03 81.4617 180.872 81.328C182.427 81.0665 183.931 81.0294 185.357 81.1343C186.419 81.2106 187.412 81.3986 188.276 81.7658C188.923 82.0377 189.484 82.3955 189.943 82.8414C190.302 83.2022 190.678 83.5749 190.957 83.9772C191.35 84.5489 191.532 85.2406 191.63 85.9457C191.745 86.7632 191.664 87.612 191.457 88.4808C191.091 89.98 190.319 91.4574 189.225 92.8994C188.702 93.5878 188.211 94.2999 187.627 94.9692C186.847 95.8568 186.023 96.7371 185.155 97.61C184.2 98.5687 183.196 99.492 182.183 100.446C181.769 100.828 181.325 101.202 180.881 101.575C180.728 101.7 180.711 101.775 180.799 101.876C181.237 102.369 181.155 103.03 180.937 103.742C180.889 103.894 180.9 104.051 180.88 104.198C181.042 104.129 181.22 104.072 181.377 103.975C182.031 103.568 182.684 103.147 183.338 102.741C184.148 102.223 184.941 101.694 185.755 101.204C186.069 101.01 186.449 100.863 186.769 100.798C187.232 100.724 187.657 100.772 187.817 101.15C187.978 101.528 187.992 101.526 188.545 101.294C188.99 101.108 189.433 100.908 189.878 100.722C190.054 100.651 190.236 100.622 190.428 100.563C190.524 100.533 190.646 100.485 190.737 100.427C191.068 100.158 191.358 99.8961 191.802 99.7967C192.01 99.7492 192.236 99.5404 192.459 99.4041C192.919 99.1294 193.157 99.0915 193.367 99.4184C193.462 99.5619 193.433 99.7395 193.258 99.9112C193.084 100.083 192.892 100.229 192.702 100.389C192.664 100.424 192.628 100.472 192.591 100.507C192.635 100.515 192.677 100.508 192.722 100.515C192.92 100.498 193.119 100.481 193.32 100.478C193.579 100.48 193.582 100.681 193.567 100.857C193.57 101.058 193.389 101.187 193.206 101.303C193.077 101.396 192.934 101.49 192.823 101.609C192.56 101.852 192.232 101.962 191.916 102.056C191.476 102.183 191.056 102.25 190.721 102.044C190.609 101.975 190.387 102.025 190.238 101.991C190.119 101.966 190.014 101.94 189.933 101.881C189.837 101.824 189.765 101.821 189.605 101.904C189.209 102.125 188.801 102.363 188.394 102.514C187.576 102.803 186.991 102.651 186.654 102.157C186.576 102.025 186.466 102.057 186.306 102.14C185.519 102.524 184.793 103.029 184.07 103.547C183.282 104.105 182.479 104.664 181.66 105.212C180.864 105.728 179.808 105.78 179.412 105.368C179.097 105.014 179.152 104.544 179.303 104.045C179.406 103.697 179.455 103.372 179.53 103.029C179.537 102.984 179.5 102.933 179.479 102.893C179.413 102.932 179.332 102.959 179.268 103.013C177.971 104.083 176.681 105.196 175.328 106.276C174.029 107.333 172.683 108.368 171.326 109.419C170.187 110.306 169.036 111.21 167.854 112.104C166.906 112.831 165.927 113.548 164.933 114.268C163.541 115.282 162.137 116.312 160.684 117.307C158.645 118.683 156.526 120.014 154.241 121.112C153.173 121.627 152.086 122.117 151.017 122.272C150.566 122.33 150.054 122.368 149.747 122.244C149.44 122.119 149.224 121.851 149.398 121.405C149.534 121.081 149.557 120.775 149.681 120.467C149.923 119.823 150.472 119.203 150.979 118.589C151.933 117.443 153.101 116.378 154.248 115.36C155.219 114.5 156.287 113.711 157.323 112.897C158.04 112.337 158.756 111.776 159.509 111.268C160.91 110.31 162.3 109.369 163.712 108.481C164.824 107.786 165.978 107.17 167.101 106.545C167.999 106.042 168.902 105.567 169.806 105.107C171.096 104.441 172.389 103.803 173.706 103.305C174.371 103.056 175.027 102.75 175.692 102.5C176.767 102.113 177.824 101.801 178.879 101.648C178.949 101.637 179.04 101.579 179.092 101.542C180.065 100.696 181.04 99.8633 181.971 99.0237C182.888 98.1863 183.772 97.3252 184.631 96.4827C185.191 95.9326 185.737 95.3847 186.236 94.8154C186.773 94.2113 187.305 93.5791 187.767 92.958C188.487 91.9646 189.209 90.9853 189.648 89.9499C189.9 89.3622 190.122 88.765 190.273 88.1789C190.658 86.6189 190.507 85.2161 189.675 84.0513C189.21 83.3901 188.515 82.9096 187.644 82.5868C186.056 82.0032 184.216 81.9208 182.232 82.1062C182.005 82.1278 181.793 82.1472 181.566 82.1688C181.375 82.055 181.165 82.0884 180.938 82.11ZM152.123 120.54C152.151 120.536 152.275 120.502 152.38 120.442C153.435 119.928 154.503 119.499 155.488 118.91C156.909 118.079 158.351 117.288 159.668 116.344C160.546 115.715 161.461 115.137 162.33 114.538C163.004 114.07 163.631 113.582 164.288 113.103C164.469 112.973 164.647 112.829 164.826 112.686C165.509 112.188 166.195 111.704 166.864 111.209C167.315 110.878 167.733 110.523 168.17 110.195C169.029 109.539 169.903 108.882 170.748 108.228C171.363 107.756 171.962 107.272 172.578 106.799C172.733 106.688 172.922 106.615 173.061 106.492C173.378 106.225 173.665 105.949 173.968 105.685C174.936 104.897 175.904 104.109 176.846 103.34C176.884 103.305 176.905 103.258 176.943 103.224C176.885 103.218 176.84 103.211 176.784 103.22C176.618 103.261 176.468 103.313 176.304 103.368C174.843 103.86 173.407 104.506 171.964 105.196C170.063 106.089 168.187 107.136 166.306 108.242C163.436 109.909 160.629 111.796 157.918 113.927C156.321 115.19 154.765 116.532 153.4 117.988C152.725 118.715 152.065 119.454 151.658 120.239C151.466 120.659 151.514 120.695 152.123 120.54Z" fill="#3D3D3D"/>
<path d="M156.068 101.467C155.877 102.434 155.687 103.415 155.512 104.394C155.296 105.567 155.11 106.75 154.853 107.943C154.552 109.303 154.168 110.689 153.842 112.081C153.732 112.56 153.677 113.03 153.594 113.504C153.57 113.624 153.571 113.724 153.547 113.843C153.484 114.17 153.256 114.365 152.828 114.476C152.18 114.651 151.951 114.572 151.828 114.16C151.568 113.336 151.804 112.376 152.068 111.412C152.188 110.99 152.293 110.569 152.385 110.151C152.631 109.161 152.888 108.155 153.093 107.185C153.363 105.802 153.576 104.428 153.819 103.063C153.921 102.528 153.981 102 154.125 101.458C154.176 101.234 154.367 100.988 154.534 100.774C154.593 100.692 154.799 100.631 154.935 100.58C155.579 100.377 156.121 100.622 156.064 101.078C156.044 101.226 156.008 101.361 155.975 101.51C156.012 101.476 156.04 101.471 156.068 101.467Z" fill="#3D3D3D"/>
</g>
<path opacity="0.4" d="M263.359 12.1753L262.677 16.5544L261.878 16.6813L260.333 13.6495L259.812 17.0095L259.022 17.1351L257.017 13.1827L257.833 13.0531L259.259 16.0514L259.268 16.0501L259.797 12.7411L260.604 12.6128L262.133 15.595L262.141 15.5936L262.56 12.3022L263.359 12.1753Z" fill="black"/>
<path opacity="0.4" d="M252.877 15.9757C252.776 15.3353 252.893 14.7734 253.228 14.2901C253.57 13.8058 254.049 13.5147 254.667 13.4165C255.285 13.3184 255.828 13.4471 256.297 13.8025C256.772 14.1571 257.06 14.6546 257.162 15.2951C257.265 15.9412 257.145 16.5035 256.803 16.9821C256.467 17.4654 255.99 17.7561 255.372 17.8543C254.754 17.9524 254.208 17.8242 253.733 17.4696C253.264 17.1141 252.979 16.6162 252.877 15.9757ZM253.66 15.8515C253.731 16.2992 253.919 16.6412 254.223 16.8775C254.528 17.1138 254.873 17.2014 255.259 17.1402C255.644 17.0789 255.945 16.8888 256.162 16.5696C256.378 16.2505 256.451 15.8671 256.38 15.4193C256.31 14.9772 256.122 14.6381 255.817 14.4018C255.506 14.1607 255.16 14.0703 254.781 14.1306C254.401 14.191 254.1 14.384 253.879 14.7097C253.662 15.0288 253.589 15.4094 253.66 15.8515Z" fill="black"/>
<path opacity="0.4" d="M251.397 18.3462L250.615 18.4705L249.953 14.3048L250.702 14.1859L250.81 14.866L250.844 14.8606C250.888 14.627 251.02 14.4143 251.239 14.2225C251.463 14.0242 251.694 13.9062 251.932 13.8684C252.159 13.8324 252.357 13.8358 252.527 13.8786L252.409 14.673C252.306 14.6486 252.15 14.6531 251.94 14.6864C251.646 14.7332 251.407 14.8932 251.223 15.1664C251.046 15.4386 250.982 15.7334 251.033 16.0508L251.397 18.3462Z" fill="black"/>
<path opacity="0.4" d="M247.495 18.3734C247.881 18.3122 248.173 18.1234 248.373 17.8069C248.584 17.4887 248.654 17.1057 248.582 16.658C248.513 16.2216 248.328 15.8819 248.028 15.6391C247.734 15.3953 247.397 15.3036 247.017 15.3639C246.643 15.4233 246.351 15.615 246.141 15.9389C245.931 16.2628 245.861 16.6429 245.93 17.0793C246 17.5214 246.185 17.861 246.484 18.0982C246.784 18.3411 247.121 18.4328 247.495 18.3734ZM247.875 20.9279C247.643 20.9648 247.419 20.9683 247.205 20.9383C246.992 20.9141 246.792 20.8616 246.605 20.7809C246.424 20.6994 246.262 20.5943 246.119 20.4659C245.977 20.3374 245.86 20.1875 245.769 20.016L246.46 19.5925C246.584 19.8227 246.762 19.9948 246.995 20.1089C247.228 20.2229 247.484 20.2579 247.761 20.2138C248.187 20.1462 248.498 19.966 248.695 19.6732C248.893 19.3803 248.956 19.01 248.885 18.5623L248.822 18.1627L248.787 18.1681C248.675 18.4126 248.502 18.6202 248.268 18.7911C248.038 18.9554 247.776 19.061 247.481 19.1078C246.937 19.1942 246.436 19.0559 245.977 18.693C245.522 18.3178 245.246 17.8213 245.148 17.2036C245.05 16.5858 245.159 16.0309 245.476 15.539C245.799 15.0461 246.232 14.7565 246.776 14.67C247.071 14.6232 247.353 14.6452 247.623 14.7359C247.898 14.8201 248.127 14.961 248.309 15.1586L248.343 15.1532L248.252 14.5751L249 14.4563L249.633 18.4434C249.739 19.1122 249.633 19.6666 249.313 20.1067C248.989 20.5533 248.51 20.827 247.875 20.9279Z" fill="black"/>
<path opacity="0.4" d="M240.729 19.4482C241.114 19.387 241.407 19.1982 241.607 18.8818C241.817 18.5635 241.887 18.1806 241.816 17.7328C241.747 17.2964 241.562 16.9568 241.262 16.7139C240.968 16.4701 240.631 16.3784 240.251 16.4387C239.877 16.4982 239.585 16.6898 239.375 17.0137C239.165 17.3376 239.094 17.7178 239.164 18.1542C239.234 18.5962 239.419 18.9359 239.718 19.1731C240.018 19.4159 240.355 19.5077 240.729 19.4482ZM240.715 20.1826C240.171 20.2691 239.669 20.128 239.21 19.7593C238.755 19.3842 238.479 18.8905 238.382 18.2784C238.284 17.6663 238.394 17.1114 238.71 16.6138C239.033 16.121 239.466 15.8313 240.01 15.7449C240.316 15.6963 240.604 15.7173 240.874 15.8081C241.15 15.8979 241.373 16.0397 241.543 16.2335L241.577 16.2281L241.451 15.6554L241.146 13.734L241.928 13.6098L242.895 19.6968L242.147 19.8157L242.055 19.2376L242.021 19.243C241.919 19.48 241.751 19.6839 241.517 19.8547C241.288 20.0247 241.021 20.134 240.715 20.1826Z" fill="black"/>
<path opacity="0.4" d="M233.681 16.8897L234.429 16.7708L234.521 17.3489L234.555 17.3435C234.642 17.1206 234.796 16.9218 235.018 16.747C235.246 16.5714 235.493 16.4624 235.76 16.4201C236.27 16.3391 236.684 16.4243 237.003 16.6758C237.327 16.9207 237.531 17.3124 237.617 17.8508L238.033 20.4693L237.25 20.5935L236.843 18.0261C236.718 17.3487 236.321 17.0631 235.652 17.1693C235.34 17.2188 235.1 17.3878 234.931 17.6761C234.76 17.9588 234.703 18.2759 234.759 18.6273L235.125 20.9311L234.343 21.0554L233.681 16.8897Z" fill="black"/>
<path opacity="0.4" d="M230.376 20.3781C230.409 20.5821 230.521 20.7386 230.712 20.8476C230.91 20.9558 231.125 20.9914 231.357 20.9545C231.686 20.9022 231.958 20.734 232.174 20.4498C232.396 20.1647 232.481 19.8577 232.429 19.529C232.155 19.375 231.799 19.3327 231.363 19.402C231.046 19.4524 230.791 19.5713 230.6 19.7585C230.415 19.9449 230.34 20.1514 230.376 20.3781ZM230.907 17.1909C231.485 17.099 231.966 17.1824 232.35 17.441C232.733 17.6939 232.967 18.0896 233.053 18.628L233.461 21.1955L232.713 21.3143L232.621 20.7362L232.587 20.7416C232.339 21.269 231.947 21.5755 231.408 21.661C230.949 21.7339 230.542 21.6591 230.187 21.4366C229.838 21.2132 229.631 20.8974 229.566 20.4894C229.498 20.0586 229.605 19.6901 229.887 19.3837C230.175 19.0765 230.591 18.8796 231.136 18.7932C231.6 18.7194 231.996 18.7436 232.324 18.8659L232.295 18.6874C232.252 18.4153 232.108 18.2029 231.863 18.0501C231.617 17.8916 231.349 17.8353 231.06 17.8812C230.624 17.9505 230.308 18.1897 230.111 18.5986L229.354 18.2744C229.647 17.67 230.165 17.3088 230.907 17.1909Z" fill="black"/>
<path opacity="0.4" d="M226.969 17.9559L225.312 24.3726L224.505 24.5009L225.14 22.247L222.803 18.6177L223.653 18.4826L225.37 21.278L225.387 21.2753L226.119 18.091L226.969 17.9559Z" fill="black"/>
<path opacity="0.4" d="M220.023 22.0227C220.056 22.2267 220.168 22.3832 220.36 22.4922C220.557 22.6004 220.772 22.636 221.004 22.599C221.333 22.5468 221.605 22.3786 221.822 22.0944C222.044 21.8093 222.129 21.5023 222.076 21.1736C221.802 21.0196 221.447 20.9773 221.01 21.0466C220.693 21.097 220.439 21.2159 220.248 21.4031C220.062 21.5894 219.987 21.796 220.023 22.0227ZM220.554 18.8355C221.132 18.7436 221.614 18.827 221.997 19.0856C222.38 19.3385 222.615 19.7342 222.7 20.2726L223.108 22.8401L222.36 22.9589L222.268 22.3808L222.234 22.3862C221.987 22.9136 221.594 23.2201 221.055 23.3056C220.596 23.3785 220.189 23.3037 219.834 23.0812C219.485 22.8578 219.278 22.542 219.213 22.134C219.145 21.7032 219.252 21.3347 219.534 21.0283C219.823 20.7211 220.239 20.5242 220.783 20.4378C221.248 20.3639 221.644 20.3882 221.971 20.5105L221.943 20.332C221.899 20.0599 221.755 19.8475 221.51 19.6947C221.264 19.5362 220.997 19.4799 220.708 19.5258C220.271 19.5951 219.955 19.8343 219.758 20.2432L219.001 19.919C219.294 19.3146 219.812 18.9534 220.554 18.8355Z" fill="black"/>
<path opacity="0.4" d="M216.578 23.2847C216.963 23.2235 217.256 23.0346 217.455 22.7182C217.666 22.4 217.736 22.017 217.665 21.5692C217.596 21.1328 217.411 20.7932 217.111 20.5503C216.817 20.3066 216.48 20.2148 216.1 20.2752C215.726 20.3346 215.434 20.5262 215.224 20.8501C215.014 21.174 214.943 21.5542 215.013 21.9906C215.083 22.4327 215.268 22.7723 215.567 23.0095C215.867 23.2524 216.204 23.3441 216.578 23.2847ZM216.564 24.0191C216.02 24.1055 215.518 23.9644 215.058 23.5958C214.604 23.2206 214.328 22.7269 214.231 22.1148C214.133 21.5027 214.243 20.9479 214.559 20.4502C214.881 19.9574 215.315 19.6677 215.859 19.5813C216.165 19.5327 216.453 19.5537 216.723 19.6445C216.999 19.7343 217.222 19.8761 217.392 20.0699L217.426 20.0645L217.3 19.4918L216.995 17.5705L217.777 17.4462L218.744 23.5333L217.996 23.6521L217.904 23.074L217.87 23.0794C217.768 23.3164 217.6 23.5203 217.366 23.6912C217.137 23.8611 216.87 23.9704 216.564 24.0191Z" fill="black"/>
<path opacity="0.4" d="M209.474 22.8705C209.372 22.2301 209.489 21.6682 209.825 21.1849C210.166 20.7007 210.646 20.4095 211.263 20.3114C211.881 20.2132 212.425 20.3419 212.894 20.6974C213.368 21.052 213.657 21.5495 213.758 22.1899C213.861 22.836 213.741 23.3984 213.399 23.8769C213.063 24.3602 212.586 24.651 211.968 24.7491C211.351 24.8472 210.804 24.719 210.33 24.3644C209.861 24.009 209.575 23.511 209.474 22.8705ZM210.256 22.7463C210.327 23.194 210.515 23.5361 210.82 23.7724C211.124 24.0087 211.47 24.0962 211.855 24.035C212.24 23.9738 212.541 23.7836 212.758 23.4645C212.975 23.1453 213.047 22.7619 212.976 22.3142C212.906 21.8721 212.718 21.5329 212.414 21.2966C212.102 21.0555 211.757 20.9652 211.377 21.0255C210.997 21.0858 210.697 21.2788 210.475 21.6045C210.259 21.9236 210.185 22.3042 210.256 22.7463Z" fill="black"/>
<path opacity="0.4" d="M208.739 25.1924C208.399 25.2464 208.098 25.1866 207.838 25.0129C207.584 24.8383 207.424 24.5644 207.359 24.1912L206.989 21.8618L206.258 21.978L206.145 21.2639L206.876 21.1477L206.673 19.8725L207.455 19.7483L207.658 21.0235L208.678 20.8614L208.792 21.5755L207.771 21.7376L208.101 23.812C208.145 24.0897 208.229 24.271 208.353 24.3559C208.476 24.4351 208.605 24.464 208.741 24.4423C208.804 24.4324 208.862 24.4173 208.917 24.397C208.977 24.3701 209.03 24.3412 209.078 24.3105L209.435 24.9684C209.243 25.0745 209.011 25.1492 208.739 25.1924Z" fill="black"/>
<path opacity="0.4" d="M204.346 24.6351C204.404 24.9978 204.294 25.3291 204.016 25.6289C203.738 25.9287 203.358 26.1168 202.876 26.1933C202.457 26.26 202.072 26.2108 201.72 26.0458C201.367 25.8752 201.095 25.6222 200.902 25.2867L201.552 24.8784C201.694 25.1116 201.872 25.2837 202.087 25.3948C202.307 25.4993 202.533 25.5331 202.766 25.4962C203.015 25.4566 203.213 25.3699 203.361 25.2361C203.514 25.1014 203.578 24.9604 203.555 24.813C203.513 24.5467 203.278 24.3835 202.85 24.3237L202.107 24.2586C201.264 24.1833 200.797 23.8566 200.705 23.2785C200.645 22.8988 200.75 22.5712 201.02 22.2959C201.294 22.014 201.673 21.8348 202.155 21.7583C202.523 21.6998 202.868 21.7349 203.191 21.8638C203.519 21.9918 203.766 22.1937 203.932 22.4695L203.281 22.8693C203.174 22.7062 203.022 22.5909 202.825 22.5234C202.633 22.4492 202.427 22.4297 202.206 22.4649C202.002 22.4973 201.826 22.5775 201.677 22.7057C201.535 22.8329 201.475 22.9702 201.499 23.1175C201.537 23.3556 201.788 23.49 202.251 23.5209L202.906 23.5825C203.766 23.6551 204.246 24.006 204.346 24.6351Z" fill="black"/>
<path opacity="0.4" d="M200.431 26.4423L199.683 26.5612L199.591 25.9831L199.557 25.9885C199.471 26.2114 199.313 26.4107 199.086 26.5863C198.864 26.7611 198.619 26.8696 198.353 26.9119C197.843 26.993 197.426 26.911 197.102 26.6661C196.784 26.4146 196.581 26.0196 196.496 25.4812L196.08 22.8627L196.862 22.7385L197.27 25.3059C197.395 25.9833 197.792 26.2689 198.461 26.1627C198.772 26.1132 199.013 25.9471 199.183 25.6644C199.352 25.376 199.409 25.0562 199.353 24.7048L198.987 22.4009L199.769 22.2766L200.431 26.4423Z" fill="black"/>
<path opacity="0.4" d="M189.638 23.886L190.386 23.7671L190.478 24.3452L190.512 24.3398C190.599 24.1169 190.753 23.918 190.975 23.7433C191.203 23.5677 191.45 23.4587 191.716 23.4164C192.226 23.3353 192.641 23.4206 192.96 23.6721C193.283 23.917 193.488 24.3087 193.573 24.8471L193.989 27.4656L193.207 27.5898L192.799 25.0224C192.674 24.345 192.277 24.0594 191.609 24.1656C191.297 24.2151 191.057 24.3841 190.887 24.6724C190.717 24.9551 190.66 25.2721 190.716 25.6235L191.082 27.9274L190.3 28.0517L189.638 23.886Z" fill="black"/>
<path opacity="0.4" d="M188.554 22.5853C188.578 22.7383 188.545 22.8772 188.454 23.002C188.364 23.1268 188.242 23.2013 188.089 23.2257C187.936 23.25 187.797 23.2168 187.672 23.1263C187.547 23.0357 187.473 22.9139 187.448 22.7608C187.424 22.6078 187.457 22.4689 187.548 22.3441C187.638 22.2193 187.76 22.1448 187.913 22.1205C188.066 22.0962 188.205 22.1293 188.33 22.2199C188.455 22.3105 188.529 22.4323 188.554 22.5853ZM188.62 24.0477L189.282 28.2134L188.5 28.3376L187.838 24.1719L188.62 24.0477Z" fill="black"/>
<path opacity="0.4" d="M183.189 27.0459C183.087 26.4055 183.204 25.8436 183.54 25.3602C183.881 24.876 184.361 24.5848 184.979 24.4867C185.597 24.3886 186.14 24.5172 186.609 24.8727C187.084 25.2273 187.372 25.7248 187.474 26.3653C187.576 27.0114 187.456 27.5737 187.114 28.0523C186.778 28.5356 186.302 28.8263 185.684 28.9245C185.066 29.0226 184.52 28.8944 184.045 28.5398C183.576 28.1843 183.291 27.6863 183.189 27.0459ZM183.971 26.9217C184.042 27.3694 184.23 27.7114 184.535 27.9477C184.84 28.184 185.185 28.2716 185.57 28.2103C185.956 28.1491 186.257 27.9589 186.473 27.6398C186.69 27.3207 186.763 26.9373 186.691 26.4895C186.621 26.0474 186.434 25.7082 186.129 25.4719C185.818 25.2309 185.472 25.1405 185.092 25.2008C184.713 25.2611 184.412 25.4542 184.191 25.7799C183.974 26.099 183.901 26.4796 183.971 26.9217Z" fill="black"/>
<path opacity="0.4" d="M181.028 29.664C180.569 29.737 180.152 29.6753 179.778 29.479C179.404 29.2828 179.114 28.9744 178.908 28.5539L179.599 28.1304C179.894 28.7459 180.331 29.0077 180.909 28.9159C181.226 28.8655 181.464 28.7144 181.622 28.4628C181.784 28.2046 181.837 27.8969 181.78 27.5399L181.102 23.2722L181.884 23.1479L182.551 27.3476C182.651 27.9767 182.563 28.4992 182.286 28.9151C182.014 29.3243 181.595 29.574 181.028 29.664Z" fill="black"/>
<path opacity="0.4" d="M177.049 29.6162C177.075 29.7749 177.039 29.9199 176.944 30.0513C176.854 30.1817 176.727 30.26 176.563 30.2861C176.404 30.3113 176.259 30.2762 176.128 30.1809C175.997 30.0856 175.918 29.9585 175.893 29.7998C175.867 29.6355 175.902 29.4905 175.998 29.3648C176.094 29.2334 176.221 29.1551 176.379 29.1299C176.544 29.1038 176.689 29.1389 176.814 29.2351C176.945 29.3248 177.023 29.4518 177.049 29.6162Z" fill="black"/>
<path opacity="0.4" d="M174.125 24.3805L175.092 30.4675L174.31 30.5917L173.343 24.5047L174.125 24.3805Z" fill="black"/>
<path opacity="0.4" d="M170.343 29.9145C170.376 30.1185 170.488 30.2751 170.679 30.3841C170.876 30.4922 171.091 30.5278 171.324 30.4909C171.652 30.4387 171.925 30.2704 172.141 29.9862C172.363 29.7011 172.448 29.3942 172.396 29.0655C172.122 28.9115 171.766 28.8691 171.33 28.9385C171.012 28.9889 170.758 29.1077 170.567 29.295C170.382 29.4813 170.307 29.6878 170.343 29.9145ZM170.874 26.7273C171.452 26.6355 171.933 26.7188 172.317 26.9774C172.7 27.2304 172.934 27.6261 173.02 28.1645L173.428 30.7319L172.68 30.8508L172.588 30.2727L172.554 30.2781C172.306 30.8055 171.913 31.1119 171.375 31.1975C170.916 31.2704 170.509 31.1956 170.154 30.9731C169.805 30.7496 169.598 30.4339 169.533 30.0258C169.464 29.5951 169.571 29.2265 169.854 28.9202C170.142 28.6129 170.558 28.416 171.102 28.3296C171.567 28.2558 171.963 28.28 172.291 28.4023L172.262 28.2238C172.219 27.9518 172.075 27.7393 171.83 27.5865C171.584 27.428 171.316 27.3717 171.027 27.4177C170.591 27.487 170.274 27.7261 170.078 28.135L169.32 27.8108C169.614 27.2064 170.132 26.8452 170.874 26.7273Z" fill="black"/>
<path opacity="0.4" d="M168.714 31.5505C168.374 31.6045 168.074 31.5447 167.814 31.371C167.559 31.1964 167.399 30.9225 167.334 30.5493L166.964 28.2199L166.233 28.3361L166.12 27.622L166.851 27.5058L166.648 26.2306L167.43 26.1064L167.633 27.3816L168.653 27.2195L168.767 27.9336L167.746 28.0957L168.076 30.17C168.12 30.4478 168.204 30.6291 168.328 30.714C168.451 30.7932 168.581 30.822 168.717 30.8004C168.779 30.7905 168.837 30.7754 168.892 30.7551C168.952 30.7282 169.006 30.6993 169.053 30.6686L169.41 31.3265C169.218 31.4326 168.986 31.5073 168.714 31.5505Z" fill="black"/>
<path opacity="0.4" d="M165.349 26.2714C165.373 26.4245 165.34 26.5634 165.25 26.6882C165.159 26.813 165.037 26.8875 164.884 26.9118C164.731 26.9361 164.592 26.903 164.467 26.8124C164.343 26.7218 164.268 26.6 164.244 26.447C164.219 26.294 164.253 26.1551 164.343 26.0303C164.434 25.9055 164.556 25.8309 164.709 25.8066C164.862 25.7823 165.001 25.8155 165.125 25.906C165.25 25.9966 165.325 26.1184 165.349 26.2714ZM165.416 27.7338L166.077 31.8995L165.295 32.0238L164.634 27.8581L165.416 27.7338Z" fill="black"/>
<path opacity="0.4" d="M162.352 31.8986C162.726 31.8392 163.018 31.6475 163.228 31.3236C163.439 31.0054 163.51 30.6252 163.439 30.1831C163.37 29.7467 163.185 29.4071 162.885 29.1642C162.585 28.9214 162.248 28.8296 161.874 28.8891C161.494 28.9494 161.199 29.1415 160.989 29.4654C160.785 29.7884 160.718 30.1681 160.787 30.6045C160.857 31.0466 161.039 31.3895 161.334 31.6333C161.633 31.8705 161.972 31.9589 162.352 31.8986ZM162.593 32.5924C162.287 32.6411 161.996 32.6204 161.72 32.5306C161.45 32.4399 161.23 32.2976 161.06 32.1038L161.026 32.1092L161.152 32.6819L161.443 34.5183L160.661 34.6425L159.708 28.6405L160.456 28.5216L160.548 29.0997L160.582 29.0943C160.684 28.8574 160.849 28.6539 161.078 28.4839C161.312 28.313 161.582 28.2033 161.888 28.1547C162.438 28.0674 162.937 28.2089 163.385 28.5793C163.845 28.9536 164.124 29.4468 164.221 30.0589C164.32 30.6767 164.207 31.232 163.885 31.7248C163.573 32.2159 163.143 32.5051 162.593 32.5924Z" fill="black"/>
<path opacity="0.4" d="M156.437 32.1235C156.469 32.3275 156.581 32.4841 156.773 32.5931C156.97 32.7012 157.185 32.7368 157.417 32.6999C157.746 32.6477 158.019 32.4794 158.235 32.1952C158.457 31.9101 158.542 31.6032 158.49 31.2744C158.215 31.1205 157.86 31.0781 157.424 31.1475C157.106 31.1979 156.852 31.3167 156.661 31.5039C156.476 31.6903 156.401 31.8968 156.437 32.1235ZM156.968 28.9363C157.546 28.8444 158.027 28.9278 158.411 29.1864C158.794 29.4394 159.028 29.835 159.114 30.3735L159.521 32.9409L158.773 33.0597L158.681 32.4816L158.647 32.487C158.4 33.0144 158.007 33.3209 157.469 33.4064C157.01 33.4794 156.603 33.4046 156.248 33.182C155.898 32.9586 155.691 32.6429 155.627 32.2348C155.558 31.8041 155.665 31.4355 155.948 31.1291C156.236 30.8219 156.652 30.625 157.196 30.5386C157.661 30.4648 158.057 30.489 158.384 30.6113L158.356 30.4328C158.313 30.1608 158.169 29.9483 157.924 29.7955C157.678 29.637 157.41 29.5807 157.121 29.6266C156.685 29.696 156.368 29.9351 156.172 30.344L155.414 30.0198C155.707 29.4154 156.225 29.0542 156.968 28.9363Z" fill="black"/>
<path opacity="0.4" d="M153.065 34.106C152.164 34.2491 151.362 34.0656 150.659 33.5555C149.962 33.0445 149.541 32.3356 149.397 31.4288C149.253 30.522 149.434 29.7205 149.939 29.0243C150.443 28.3167 151.148 27.8909 152.055 27.7469C152.973 27.601 153.771 27.8142 154.449 28.3864L153.974 29.0196C153.454 28.5618 152.854 28.387 152.174 28.495C151.499 28.6022 150.971 28.9184 150.59 29.4439C150.213 29.9627 150.082 30.5821 150.197 31.3019C150.311 32.0217 150.627 32.5699 151.146 32.9465C151.672 33.3279 152.272 33.465 152.946 33.3578C153.655 33.2453 154.222 32.8501 154.649 32.1721L155.307 32.6343C155.072 33.0259 154.761 33.3514 154.372 33.6107C153.982 33.8644 153.547 34.0294 153.065 34.106Z" fill="black"/>
<path opacity="0.4" d="M145.112 29.7563L145.96 35.0952L145.178 35.2195L144.33 29.8806L142.629 30.1507L142.51 29.4025L146.693 28.7381L146.812 29.4862L145.112 29.7563Z" fill="black"/>
<path opacity="0.4" d="M142.658 35.6197L141.876 35.7439L140.909 29.6569L141.692 29.5326L142.658 35.6197Z" fill="black"/>
<path opacity="0.4" d="M134.298 30.7072L135.08 30.5829L135.385 32.5042L135.443 33.0877L135.477 33.0823C135.563 32.8594 135.718 32.6606 135.94 32.4858C136.168 32.3102 136.415 32.2012 136.681 32.1589C137.191 32.0779 137.606 32.1631 137.924 32.4146C138.248 32.6595 138.453 33.0512 138.538 33.5896L138.954 36.2081L138.172 36.3323L137.78 33.8669C137.662 33.1188 137.271 32.7974 136.607 32.9027C136.29 32.9531 136.042 33.1291 135.863 33.4306C135.689 33.7255 135.63 34.0487 135.686 34.4001L136.047 36.6699L135.265 36.7942L134.298 30.7072Z" fill="black"/>
<path opacity="0.4" d="M133.878 37.0842C133.538 37.1382 133.238 37.0784 132.978 36.9047C132.723 36.7301 132.564 36.4562 132.498 36.0831L132.128 33.7537L131.397 33.8698L131.284 33.1557L132.015 33.0396L131.812 31.7644L132.595 31.6401L132.797 32.9153L133.817 32.7533L133.931 33.4674L132.911 33.6294L133.24 35.7038C133.284 35.9815 133.368 36.1628 133.492 36.2477C133.615 36.327 133.745 36.3558 133.881 36.3342C133.943 36.3243 134.002 36.3092 134.056 36.2888C134.116 36.2619 134.17 36.2331 134.217 36.2023L134.574 36.8603C134.382 36.9664 134.15 37.041 133.878 37.0842Z" fill="black"/>
<path opacity="0.4" d="M130.513 31.8052C130.537 31.9582 130.504 32.0971 130.413 32.2219C130.323 32.3467 130.201 32.4213 130.048 32.4456C129.895 32.4699 129.756 32.4367 129.631 32.3462C129.506 32.2556 129.432 32.1338 129.408 31.9808C129.383 31.8277 129.416 31.6888 129.507 31.564C129.598 31.4392 129.719 31.3647 129.872 31.3404C130.025 31.3161 130.164 31.3492 130.289 31.4398C130.414 31.5304 130.488 31.6522 130.513 31.8052ZM130.58 33.2676L131.241 37.4333L130.459 37.5575L129.797 33.3918L130.58 33.2676Z" fill="black"/>
<path opacity="0.4" d="M129.22 33.4835L128.539 37.8626L127.74 37.9895L126.195 34.9578L125.674 38.3177L124.883 38.4433L122.878 34.491L123.694 34.3613L125.121 37.3597L125.129 37.3583L125.658 34.0494L126.466 33.9211L127.994 36.9032L128.003 36.9018L128.421 33.6105L129.22 33.4835Z" fill="black"/>
<path opacity="0.4" d="M120.769 39.1666C120.429 39.2206 120.128 39.1608 119.868 38.9871C119.614 38.8125 119.454 38.5386 119.389 38.1655L119.019 35.8361L118.288 35.9522L118.175 35.2381L118.906 35.122L118.703 33.8467L119.485 33.7225L119.688 34.9977L120.708 34.8357L120.822 35.5498L119.801 35.7118L120.131 37.7862C120.175 38.0639 120.259 38.2452 120.383 38.3301C120.506 38.4094 120.635 38.4382 120.771 38.4166C120.834 38.4067 120.892 38.3916 120.947 38.3712C121.007 38.3443 121.06 38.3155 121.108 38.2847L121.465 38.9427C121.273 39.0488 121.041 39.1234 120.769 39.1666Z" fill="black"/>
<path opacity="0.4" d="M114.055 35.8926L114.803 35.7737L114.895 36.3518L114.929 36.3464C115.016 36.1235 115.17 35.9246 115.392 35.7499C115.62 35.5743 115.867 35.4653 116.133 35.423C116.643 35.3419 117.058 35.4272 117.377 35.6787C117.7 35.9236 117.905 36.3153 117.99 36.8537L118.406 39.4722L117.624 39.5964L117.216 37.029C117.091 36.3515 116.694 36.066 116.026 36.1722C115.714 36.2217 115.474 36.3907 115.304 36.679C115.134 36.9617 115.077 37.2787 115.133 37.6301L115.499 39.934L114.717 40.0583L114.055 35.8926Z" fill="black"/>
<path opacity="0.4" d="M112.051 40.6213C111.439 40.7185 110.901 40.5889 110.437 40.2325C109.974 39.8762 109.692 39.3778 109.59 38.7373C109.489 38.1025 109.598 37.5448 109.917 37.0642C110.235 36.5779 110.694 36.2871 111.295 36.1916C111.912 36.0935 112.435 36.2168 112.861 36.5616C113.293 36.8998 113.566 37.4288 113.68 38.1486L113.685 38.235L110.412 38.7549C110.488 39.1612 110.676 39.4683 110.977 39.6762C111.277 39.8842 111.608 39.9594 111.971 39.9017C112.47 39.8225 112.821 39.511 113.026 38.9673L113.777 39.1966C113.645 39.5777 113.428 39.894 113.126 40.1455C112.828 40.396 112.47 40.5546 112.051 40.6213ZM110.369 38.0993L112.758 37.7198C112.689 37.4344 112.532 37.2153 112.287 37.0624C112.047 36.9031 111.748 36.8517 111.391 36.9084C111.096 36.9553 110.856 37.0865 110.669 37.302C110.488 37.5167 110.388 37.7825 110.369 38.0993Z" fill="black"/>
<path opacity="0.4" d="M103.701 41.808L102.919 41.9323L102.257 37.7666L103.006 37.6477L103.097 38.2258L103.131 38.2204C103.218 37.9975 103.372 37.7987 103.594 37.6239C103.822 37.4483 104.058 37.3411 104.302 37.3024C104.608 37.2538 104.888 37.2819 105.143 37.3866C105.398 37.4914 105.599 37.6599 105.746 37.8922C106.007 37.3045 106.444 36.9621 107.056 36.8648C107.538 36.7883 107.933 36.8767 108.24 37.13C108.548 37.3833 108.745 37.782 108.831 38.3261L109.244 40.9275L108.462 41.0518L108.068 38.5694C108.006 38.1783 107.89 37.909 107.722 37.7615C107.552 37.6083 107.3 37.5582 106.966 37.6114C106.665 37.6591 106.433 37.8267 106.27 38.1141C106.106 38.4016 106.052 38.7182 106.107 39.0639L106.473 41.3678L105.691 41.492L105.296 39.0096C105.234 38.6185 105.119 38.3492 104.95 38.2017C104.78 38.0485 104.528 37.9985 104.194 38.0516C103.894 38.0993 103.662 38.2669 103.498 38.5544C103.335 38.8418 103.28 39.1584 103.335 39.5041L103.701 41.808Z" fill="black"/>
<path opacity="0.4" d="M101.533 42.2224C101.192 42.2764 100.892 42.2166 100.632 42.0429C100.378 41.8683 100.218 41.5944 100.153 41.2213L99.7832 38.8919L99.0521 39.008L98.9387 38.2939L99.6698 38.1778L99.4672 36.9025L100.249 36.7783L100.452 38.0535L101.472 37.8915L101.586 38.6056L100.565 38.7676L100.895 40.842C100.939 41.1197 101.023 41.301 101.147 41.3859C101.27 41.4652 101.399 41.494 101.535 41.4724C101.598 41.4625 101.656 41.4473 101.711 41.427C101.771 41.4001 101.824 41.3713 101.872 41.3405L102.229 41.9984C102.037 42.1045 101.805 42.1792 101.533 42.2224Z" fill="black"/>
<path opacity="0.4" d="M99.0494 41.3617C99.107 41.7244 98.9969 42.0557 98.7191 42.3555C98.4414 42.6553 98.0616 42.8434 97.5798 42.92C97.1604 42.9866 96.7749 42.9374 96.4233 42.7725C96.0708 42.6018 95.7982 42.3488 95.6055 42.0134L96.2553 41.6051C96.397 41.8382 96.5754 42.0104 96.7906 42.1214C97.0106 42.226 97.2367 42.2598 97.4691 42.2228C97.7185 42.1832 97.9168 42.0965 98.0641 41.9627C98.217 41.828 98.2817 41.687 98.2583 41.5397C98.216 41.2733 97.9809 41.1102 97.553 41.0503L96.8106 40.9852C95.9677 40.9099 95.5003 40.5832 95.4085 40.0051C95.3482 39.6254 95.453 39.2979 95.7231 39.0225C95.9979 38.7406 96.3762 38.5614 96.8579 38.4849C97.2263 38.4264 97.5718 38.4616 97.8944 38.5904C98.2227 38.7184 98.4698 38.9203 98.6356 39.1961L97.9844 39.5959C97.8772 39.4328 97.7252 39.3175 97.5285 39.25C97.3366 39.1759 97.1302 39.1564 96.9091 39.1915C96.7051 39.2239 96.529 39.3042 96.3808 39.4323C96.2384 39.5595 96.1788 39.6968 96.2022 39.8442C96.24 40.0822 96.4909 40.2167 96.9549 40.2476L97.6096 40.3092C98.4695 40.3817 98.9494 40.7326 99.0494 41.3617Z" fill="black"/>
<path opacity="0.4" d="M93.3375 43.5939C92.7254 43.6911 92.1876 43.5615 91.7243 43.2051C91.2609 42.8488 90.9784 42.3503 90.8766 41.7099C90.7758 41.0751 90.8848 40.5174 91.2036 40.0368C91.5214 39.5505 91.9808 39.2596 92.5815 39.1642C93.1993 39.0661 93.7215 39.1894 94.1482 39.5342C94.5796 39.8724 94.8524 40.4014 94.9668 41.1212L94.9718 41.2076L91.6987 41.7275C91.7749 42.1338 91.9631 42.4409 92.2635 42.6488C92.5638 42.8568 92.8953 42.932 93.258 42.8743C93.7568 42.7951 94.1082 42.4836 94.3124 41.9398L95.0635 42.1692C94.9323 42.5503 94.7153 42.8666 94.4124 43.1181C94.1152 43.3686 93.7569 43.5272 93.3375 43.5939ZM91.6556 41.0719L94.0445 40.6924C93.9759 40.407 93.8191 40.1879 93.574 40.035C93.3337 39.8756 93.035 39.8243 92.678 39.881C92.3832 39.9279 92.1426 40.059 91.956 40.2746C91.7752 40.4893 91.675 40.7551 91.6556 41.0719Z" fill="black"/>
<path opacity="0.4" d="M89.3593 44.0864L88.5772 44.2106L86.2322 40.3123L87.0823 40.1773L88.8197 43.2133L88.8367 43.2106L89.5647 39.7829L90.3979 39.6506L89.3593 44.0864Z" fill="black"/>
<path opacity="0.4" d="M82.2325 40.9476L82.9807 40.8288L83.0725 41.4069L83.1065 41.4015C83.1931 41.1785 83.3475 40.9797 83.5696 40.8049C83.7973 40.6293 84.0444 40.5203 84.3108 40.478C84.8209 40.397 85.2354 40.4822 85.5542 40.7337C85.8778 40.9787 86.0824 41.3703 86.168 41.9088L86.5839 44.5272L85.8018 44.6515L85.3939 42.084C85.2689 41.4066 84.872 41.121 84.2032 41.2273C83.8915 41.2768 83.651 41.4457 83.4818 41.7341C83.3118 42.0167 83.2546 42.3338 83.3104 42.6852L83.6764 44.9891L82.8943 45.1133L82.2325 40.9476Z" fill="black"/>
<path opacity="0.4" d="M81.148 39.6469C81.1724 39.8 81.1392 39.9389 81.0486 40.0637C80.9581 40.1884 80.8363 40.263 80.6832 40.2873C80.5302 40.3116 80.3913 40.2785 80.2665 40.1879C80.1417 40.0973 80.0672 39.9755 80.0429 39.8225C80.0186 39.6695 80.0517 39.5306 80.1423 39.4058C80.2328 39.281 80.3546 39.2064 80.5077 39.1821C80.6607 39.1578 80.7996 39.1909 80.9244 39.2815C81.0492 39.3721 81.1237 39.4939 81.148 39.6469ZM81.2147 41.1093L81.8765 45.275L81.0943 45.3993L80.4326 41.2336L81.2147 41.1093Z" fill="black"/>
<path opacity="0.4" d="M76.4925 46.2697C75.8804 46.3669 75.3427 46.2374 74.8793 45.881C74.416 45.5246 74.1334 45.0262 74.0317 44.3857C73.9308 43.751 74.0398 43.1933 74.3586 42.7126C74.6765 42.2264 75.1358 41.9355 75.7366 41.8401C76.3543 41.7419 76.8765 41.8652 77.3032 42.21C77.7346 42.5482 78.0075 43.0772 78.1218 43.797L78.1268 43.8834L74.8538 44.4033C74.9299 44.8096 75.1182 45.1167 75.4185 45.3247C75.7188 45.5326 76.0503 45.6078 76.4131 45.5502C76.9118 45.471 77.2633 45.1595 77.4674 44.6157L78.2186 44.845C78.0874 45.2261 77.8703 45.5424 77.5674 45.7939C77.2702 46.0445 76.9119 46.2031 76.4925 46.2697ZM74.8106 43.7478L77.1995 43.3683C77.131 43.0828 76.9741 42.8637 76.729 42.7109C76.4887 42.5515 76.19 42.5002 75.833 42.5569C75.5383 42.6037 75.2976 42.7349 75.1111 42.9505C74.9302 43.1651 74.83 43.4309 74.8106 43.7478Z" fill="black"/>
<path opacity="0.4" d="M72.5516 46.7563L71.7695 46.8806L71.1078 42.7148L71.8559 42.596L71.9639 43.2761L71.9979 43.2707C72.0422 43.0371 72.174 42.8244 72.3934 42.6326C72.6176 42.4343 72.8487 42.3163 73.0867 42.2785C73.3134 42.2425 73.5115 42.2458 73.681 42.2886L73.5632 43.0831C73.4605 43.0587 73.3043 43.0632 73.0946 43.0965C72.7999 43.1433 72.5609 43.3033 72.3777 43.5765C72.2002 43.8487 72.1366 44.1435 72.187 44.4609L72.5516 46.7563Z" fill="black"/>
<path opacity="0.4" d="M70.8174 47.0318L70.0693 47.1507L69.9775 46.5726L69.9435 46.578C69.8568 46.8009 69.6997 47.0002 69.4719 47.1758C69.2498 47.3506 69.0056 47.4591 68.7392 47.5014C68.2291 47.5824 67.8122 47.5005 67.4886 47.2555C67.1697 47.004 66.9675 46.6091 66.882 46.0707L66.4661 43.4522L67.2482 43.328L67.656 45.8954C67.7811 46.5728 68.178 46.8584 68.8468 46.7522C69.1585 46.7026 69.3994 46.5365 69.5695 46.2539C69.7387 45.9655 69.7954 45.6456 69.7395 45.2942L69.3736 42.9903L70.1557 42.8661L70.8174 47.0318Z" fill="black"/>
<path opacity="0.4" d="M64.6459 48.1516C64.0281 48.2497 63.4819 48.1215 63.0072 47.7669C62.5364 47.4001 62.251 46.9021 62.1511 46.273C62.0493 45.6326 62.1663 45.0707 62.5021 44.5874C62.8436 44.1031 63.3232 43.812 63.9409 43.7138C64.366 43.6463 64.7544 43.695 65.106 43.86C65.4567 44.0192 65.7411 44.2733 65.9592 44.6222L65.2923 45.0332C64.9885 44.5469 64.5588 44.3478 64.0034 44.436C63.6463 44.4928 63.3604 44.6864 63.1456 45.0168C62.9365 45.3464 62.8657 45.7237 62.9332 46.1488C63.0007 46.5738 63.185 46.9106 63.4859 47.1592C63.7925 47.4068 64.1244 47.5023 64.4814 47.4456C65.0539 47.3546 65.4149 47.03 65.5644 46.4717L66.3088 46.6585C66.2152 47.0568 66.0211 47.3898 65.7266 47.6574C65.4369 47.9184 65.0766 48.0831 64.6459 48.1516Z" fill="black"/>
<path opacity="0.4" d="M60.0125 48.8876C59.4004 48.9849 58.8627 48.8553 58.3993 48.4989C57.936 48.1425 57.6534 47.6441 57.5517 47.0037C57.4509 46.3689 57.5598 45.8112 57.8786 45.3306C58.1965 44.8443 58.6558 44.5534 59.2566 44.458C59.8743 44.3598 60.3966 44.4832 60.8232 44.8279C61.2546 45.1662 61.5275 45.6952 61.6418 46.4149L61.6468 46.5013L58.3738 47.0212C58.4499 47.4275 58.6382 47.7346 58.9385 47.9426C59.2388 48.1506 59.5704 48.2257 59.9331 48.1681C60.4318 48.0889 60.7833 47.7774 60.9874 47.2336L61.7386 47.4629C61.6074 47.844 61.3903 48.1603 61.0874 48.4118C60.7902 48.6624 60.4319 48.821 60.0125 48.8876ZM58.3307 46.3657L60.7196 45.9862C60.651 45.7008 60.4941 45.4816 60.2491 45.3288C60.0088 45.1694 59.7101 45.1181 59.353 45.1748C59.0583 45.2216 58.8177 45.3528 58.6311 45.5684C58.4502 45.7831 58.3501 46.0488 58.3307 46.3657Z" fill="black"/>
<path opacity="0.4" d="M57.2146 48.0072C57.2723 48.3699 57.1622 48.7012 56.8844 49.001C56.6066 49.3008 56.2269 49.4889 55.7451 49.5655C55.3257 49.6321 54.9402 49.5829 54.5886 49.418C54.2361 49.2474 53.9635 48.9943 53.7708 48.6589L54.4206 48.2506C54.5622 48.4837 54.7407 48.6559 54.9559 48.767C55.1758 48.8715 55.402 48.9053 55.6344 48.8684C55.8838 48.8287 56.0821 48.742 56.2293 48.6082C56.3823 48.4735 56.447 48.3325 56.4236 48.1852C56.3813 47.9188 56.1462 47.7557 55.7183 47.6958L54.9758 47.6307C54.133 47.5554 53.6656 47.2287 53.5738 46.6506C53.5135 46.2709 53.6183 45.9434 53.8884 45.668C54.1632 45.3862 54.5414 45.2069 55.0232 45.1304C55.3916 45.0719 55.7371 45.1071 56.0597 45.236C56.388 45.3639 56.6351 45.5658 56.8009 45.8416L56.1497 46.2414C56.0425 46.0783 55.8905 45.963 55.6938 45.8955C55.5019 45.8214 55.2954 45.8019 55.0744 45.837C54.8704 45.8694 54.6943 45.9497 54.5461 46.0778C54.4036 46.205 54.3441 46.3423 54.3675 46.4897C54.4053 46.7277 54.6562 46.8622 55.1201 46.8931L55.7749 46.9547C56.6348 47.0273 57.1147 47.3781 57.2146 48.0072Z" fill="black"/>
<path opacity="0.4" d="M49.6763 50.5295C49.0642 50.6268 48.5265 50.4972 48.0632 50.1408C47.5998 49.7844 47.3172 49.286 47.2155 48.6456C47.1147 48.0108 47.2236 47.4531 47.5424 46.9725C47.8603 46.4862 48.3196 46.1953 48.9204 46.0999C49.5382 46.0017 50.0604 46.1251 50.487 46.4699C50.9184 46.8081 51.1913 47.3371 51.3057 48.0569L51.3107 48.1432L48.0376 48.6632C48.1138 49.0694 48.302 49.3765 48.6023 49.5845C48.9027 49.7925 49.2342 49.8676 49.5969 49.81C50.0957 49.7308 50.4471 49.4193 50.6513 48.8755L51.4024 49.1048C51.2712 49.4859 51.0541 49.8022 50.7513 50.0537C50.4541 50.3043 50.0957 50.4629 49.6763 50.5295ZM47.9945 48.0076L50.3834 47.6281C50.3148 47.3427 50.158 47.1235 49.9129 46.9707C49.6726 46.8113 49.3739 46.76 49.0168 46.8167C48.7221 46.8635 48.4815 46.9947 48.2949 47.2103C48.114 47.425 48.0139 47.6907 47.9945 48.0076Z" fill="black"/>
<path opacity="0.4" d="M45.077 51.2601C44.4649 51.3574 43.9271 51.2278 43.4638 50.8714C43.0004 50.515 42.7179 50.0166 42.6161 49.3762C42.5153 48.7414 42.6243 48.1837 42.9431 47.7031C43.2609 47.2168 43.7203 46.9259 44.321 46.8305C44.9388 46.7323 45.461 46.8557 45.8877 47.2004C46.3191 47.5387 46.592 48.0677 46.7063 48.7874L46.7113 48.8738L43.4382 49.3937C43.5144 49.8 43.7026 50.1071 44.003 50.3151C44.3033 50.523 44.6348 50.5982 44.9975 50.5406C45.4963 50.4614 45.8477 50.1499 46.0519 49.6061L46.803 49.8354C46.6718 50.2165 46.4548 50.5328 46.1519 50.7843C45.8547 51.0349 45.4964 51.1935 45.077 51.2601ZM43.3951 48.7382L45.784 48.3587C45.7154 48.0732 45.5586 47.8541 45.3135 47.7013C45.0732 47.5419 44.7745 47.4906 44.4175 47.5473C44.1227 47.5941 43.8821 47.7253 43.6955 47.9409C43.5147 48.1556 43.4145 48.4213 43.3951 48.7382Z" fill="black"/>
<path opacity="0.4" d="M41.1361 51.7467L40.354 51.871L39.6922 47.7053L40.4404 47.5864L40.5484 48.2665L40.5824 48.2611C40.6267 48.0275 40.7585 47.8148 40.9779 47.6231C41.202 47.4248 41.4331 47.3067 41.6712 47.2689C41.8979 47.2329 42.096 47.2363 42.2655 47.2791L42.1476 48.0735C42.045 48.0491 41.8888 48.0536 41.6791 48.0869C41.3844 48.1337 41.1454 48.2937 40.9622 48.5669C40.7846 48.8391 40.7211 49.1339 40.7715 49.4513L41.1361 51.7467Z" fill="black"/>
<path opacity="0.4" d="M38.1677 45.9079C38.4511 45.8629 38.6911 45.8742 38.8878 45.9417L38.7847 46.6641C38.6378 46.6177 38.4794 46.608 38.3094 46.635C38.1167 46.6656 37.9688 46.7588 37.8657 46.9147C37.7674 47.0639 37.7358 47.2491 37.7709 47.4701L37.8546 47.9972L38.9428 47.8243L39.0563 48.5385L37.9681 48.7113L38.5164 52.1629L37.7342 52.2871L37.1859 48.8356L36.4038 48.9598L36.2904 48.2457L37.0725 48.1214L36.9766 47.5178C36.9109 47.1041 36.9881 46.749 37.2083 46.4525C37.4342 46.1552 37.754 45.9736 38.1677 45.9079Z" fill="black"/>
<path opacity="0.4" d="M35.9076 50.2065L33.1871 50.6387L33.0845 49.9926L35.8049 49.5604L35.9076 50.2065Z" fill="black"/>
<path opacity="0.4" d="M33.1091 53.0218L32.1654 53.1717L30.5527 51.4145L30.0151 52.1449L30.2271 53.4796L29.445 53.6039L28.478 47.5168L29.2602 47.3926L29.8557 51.1417L31.3677 49.0276L32.3708 48.8683L32.3762 48.9023L31.0091 50.7755L33.1037 52.9878L33.1091 53.0218Z" fill="black"/>
<path opacity="0.4" d="M28.5804 52.5558C28.638 52.9185 28.5279 53.2498 28.2501 53.5496C27.9724 53.8494 27.5926 54.0375 27.1109 54.1141C26.6915 54.1807 26.3059 54.1315 25.9544 53.9666C25.6019 53.7959 25.3292 53.5429 25.1365 53.2075L25.7863 52.7992C25.928 53.0323 26.1064 53.2045 26.3216 53.3155C26.5416 53.42 26.7677 53.4538 27.0001 53.4169C27.2495 53.3773 27.4478 53.2906 27.5951 53.1568C27.748 53.0221 27.8127 52.8811 27.7893 52.7337C27.747 52.4674 27.5119 52.3042 27.084 52.2444L26.3416 52.1793C25.4987 52.104 25.0313 51.7773 24.9395 51.1992C24.8792 50.8195 24.984 50.4919 25.2541 50.2166C25.5289 49.9347 25.9072 49.7555 26.3889 49.679C26.7573 49.6205 27.1028 49.6557 27.4254 49.7845C27.7537 49.9125 28.0008 50.1144 28.1666 50.3902L27.5154 50.79C27.4082 50.6269 27.2562 50.5116 27.0595 50.4441C26.8676 50.37 26.6612 50.3505 26.4401 50.3856C26.2361 50.418 26.06 50.4983 25.9118 50.6264C25.7694 50.7536 25.7098 50.8909 25.7332 51.0383C25.771 51.2763 26.0219 51.4108 26.4859 51.4417L27.1406 51.5032C28.0005 51.5758 28.4804 51.9267 28.5804 52.5558Z" fill="black"/>
<path opacity="0.4" d="M23.8297 48.752C23.854 48.9051 23.8209 49.044 23.7303 49.1688C23.6397 49.2935 23.5179 49.3681 23.3649 49.3924C23.2118 49.4167 23.0729 49.3836 22.9481 49.293C22.8234 49.2024 22.7488 49.0806 22.7245 48.9276C22.7002 48.7746 22.7333 48.6357 22.8239 48.5109C22.9145 48.3861 23.0363 48.3115 23.1893 48.2872C23.3423 48.2629 23.4812 48.296 23.606 48.3866C23.7308 48.4772 23.8054 48.599 23.8297 48.752ZM23.8964 50.2144L24.5581 54.3801L23.776 54.5044L23.1143 50.3387L23.8964 50.2144Z" fill="black"/>
<path opacity="0.4" d="M18.8631 49.8112L19.2035 51.9536L20.4617 51.7537C20.7791 51.7033 21.0321 51.5585 21.2207 51.3193C21.4084 51.0745 21.478 50.7991 21.4293 50.493C21.3843 50.2097 21.2403 49.9798 20.9973 49.8034C20.7591 49.6204 20.4841 49.5537 20.1724 49.6032L18.8631 49.8112ZM19.7112 55.1501L18.9291 55.2743L17.9622 49.1873L20.0365 48.8578C20.5636 48.7741 21.0393 48.8786 21.4635 49.1715C21.8924 49.4578 22.1475 49.856 22.2285 50.3661C22.2951 50.7855 22.2157 51.1816 21.9902 51.5545C21.7694 51.9207 21.4566 52.1825 21.0516 52.3398L21.0386 52.368L23.1404 54.5705L23.1458 54.6045L22.2192 54.7517L20.1867 52.5469L19.3196 52.6847L19.7112 55.1501Z" fill="black"/>
<defs>
<radialGradient id="paint0_radial_201_173" cx="0" cy="0" r="1" gradientUnits="userSpaceOnUse" gradientTransform="translate(2.45543 60.2683) rotate(18.5347) scale(322.193 518.063)">
<stop stop-color="#A8F847"/>
<stop offset="0.36" stop-color="#B6FF63"/>
<stop offset="1" stop-color="#8AEA16"/>
</radialGradient>
<radialGradient id="paint1_radial_201_173" cx="0" cy="0" r="1" gradientUnits="userSpaceOnUse" gradientTransform="translate(2.10754e-05 60.4621) rotate(27.5609) scale(322.193 518.063)">
<stop stop-color="#A8F847"/>
<stop offset="0.36" stop-color="#B6FF63"/>
<stop offset="1" stop-color="#8AEA16"/>
</radialGradient>
<linearGradient id="paint2_linear_201_173" x1="7.10464" y1="34.7773" x2="309.083" y2="100.122" gradientUnits="userSpaceOnUse">
<stop stop-color="#1E1E1E"/>
<stop offset="0.295" stop-color="#3C3C3C"/>
<stop offset="0.44" stop-color="#1E1E1E"/>
<stop offset="1" stop-color="#292929"/>
</linearGradient>
</defs>
</svg>
