<svg width="282" height="347" viewBox="0 0 282 347" fill="none" xmlns="http://www.w3.org/2000/svg">
<g style="mix-blend-mode:luminosity" opacity="0.08">
<path d="M212.447 62.4176C211.892 62.7648 216.51 60.3345 220.919 59.3971C222.967 49.6409 227.585 37.8711 230.293 33.7048C232.446 30.4064 239.563 26.4484 244.285 30.6495C249.319 35.163 250.465 46.3426 246.611 52.349C241.091 60.9247 236.612 75.6457 228.279 77.3122C225.363 77.9024 219.461 74.8124 216.128 75.5762C213.593 73.007 211.128 65.9243 212.413 62.4176H212.447Z" fill="#CFDEFF"/>
<path d="M223.835 215.078C223.835 215.078 224.182 217.891 225.05 220.842C225.918 223.793 224.842 227.89 224.842 227.89C224.842 227.89 224.217 229.695 221.474 230.251C218.94 230.737 216.891 230.147 216.891 230.147C216.891 230.147 214.392 233.167 211.128 235.459C207.864 237.785 200.643 239.555 198.698 239.278C195.539 238.792 193.838 236.327 194.081 234.729C194.324 233.132 198.039 228.723 201.094 226.848C203.073 225.598 207.587 221.432 208.941 219.974C211.197 217.578 212.829 214.905 212.829 214.905L223.8 215.113L223.835 215.078Z" fill="#305F00"/>
<path d="M226.196 95.019C226.196 95.019 217.03 118.385 215.607 127.829C214.183 137.272 209.913 145.536 208.212 157.444C206.51 169.353 207.934 187.025 208.732 198.656C209.045 203.274 208.628 210.495 207.76 217.057C215.19 223.48 224.148 220.39 227.134 219.106C227.863 216.05 230.432 191.469 231.231 182.894C231.994 174.353 229.981 168.207 229.981 168.207C229.981 168.207 242.445 141.508 246.819 131.023C251.194 120.503 248.208 107.518 248.208 107.518L226.196 95.0885V95.019Z" fill="#6BBF00"/>
<path d="M268.866 241.535C268.866 241.535 270.568 247.819 270.359 251.43C270.151 255.075 269.283 255.908 268.172 257.158C267.061 258.373 265.776 257.853 265.776 257.853C265.776 257.853 265.255 265.352 261.714 268.373C258.173 271.393 251.75 271.671 248.764 270.595C245.813 269.484 247.757 264.137 250.639 258.894C253.52 253.652 257.235 247.992 258.138 243.236C265.221 242.264 268.832 241.569 268.832 241.569L268.866 241.535Z" fill="#305F00"/>
<path d="M258.971 104.706C258.971 104.706 263.45 111.059 267.026 122.204C269.526 130.051 269.144 148.834 269.144 148.834C269.144 148.834 269.804 167.339 268.589 173.762C267.408 180.151 267.512 181.47 267.512 181.47C267.512 181.47 272.72 191.33 271.922 209.489C271.123 227.647 272.963 243.166 272.963 243.166C272.963 243.166 268.589 250.041 263.901 250.041C253.625 250.041 251.507 244.52 251.507 244.52C251.507 244.52 248.764 209.107 245.882 200.323C243 191.573 241.924 181.47 241.924 181.47L236.022 138.314C236.022 138.314 224.356 130.711 230.328 111.511C234.078 99.4979 258.971 104.706 258.971 104.706Z" fill="#90CC47"/>
<path d="M274.491 59.1888C273.588 54.5712 272.963 51.3076 269.422 48.1134C262.478 41.8639 247.722 34.4687 239.459 35.6492C233.487 40.4057 229.043 44.0512 226.891 49.7452C224.946 54.9184 223.349 58.9111 223.349 67.3479C223.349 83.6659 220.572 102.032 219.183 108.212C220.294 110.33 223.87 114.254 225.432 115.851C227.064 114.844 228.349 112.691 230.397 111.476C232.307 116.198 234.182 120.26 235.848 120.503C246.889 122.17 266.332 119.184 267.755 115.851C266.922 105.018 268.866 90.6445 273.414 78.3886C275.845 71.8267 275.949 66.3757 274.525 59.1541L274.491 59.1888Z" fill="#B4FF59"/>
<path d="M242.063 30.5454C242.063 30.5454 243.243 38.4614 240.362 41.2042C237.48 43.9471 237.445 49.5716 243.243 51.4464C250.291 53.7379 255.256 48.6689 259.631 45.1622C257.721 41.1348 256.819 41.1695 256.819 29.9205C256.819 20.7546 242.063 30.5454 242.063 30.5454Z" fill="#FFB9A4"/>
<path d="M249.805 52.8353C245.118 56.8627 240.709 68.077 237.55 72.4169C234.39 76.7916 231.439 78.3887 230.224 73.4585C228.696 67.1743 230.814 51.9673 235.397 46.0303C237.376 47.3496 238.904 50.3702 241.577 51.2035C245.361 52.3839 249.007 50.3355 249.771 52.8005L249.805 52.8353Z" fill="#CFDEFF"/>
<path d="M238.452 57.8C238.452 57.8 237.897 65.5424 237.584 71.0627C237.584 71.3405 237.584 71.8265 237.549 72.4515C235.813 74.986 233.939 77.4164 232.064 79.8467C231.404 77.7635 230.779 75.6457 230.258 73.5278C230.362 72.9723 230.467 72.4515 230.571 72.0001C232.098 64.6397 233.209 61.2024 234.182 56.9667C233.209 53.0434 235.293 48.6341 235.293 48.6341C237.237 47.2106 243.591 49.6062 243.278 51.5158C242.584 55.5432 238.487 57.8694 238.487 57.8694L238.452 57.8Z" fill="#305F00"/>
<path d="M257.062 37.4197C257.062 37.4197 255.708 42.2109 252.062 44.9538C247.688 48.2521 239.424 48.8076 239.424 51.0644C241.82 51.0644 242.271 51.2032 242.271 52.9392C242.271 56.1681 243.209 56.9319 243.209 56.9319C243.209 56.9319 249.18 55.2307 253.451 53.46C258.832 51.2032 261.263 43.7733 261.263 43.7733C261.263 43.7733 260.221 37.1766 257.027 37.4544L257.062 37.4197Z" fill="#A2C5F9"/>
<path d="M247.444 97.5535L262.096 107.032L259.631 109.775L245.118 100.643L247.444 97.5535Z" fill="#305F00"/>
<path d="M239.424 37.6627C239.424 37.6627 235.952 41.4471 234.459 43.1831C232.966 44.9191 233.834 48.1479 233.105 49.5714C232.342 51.0296 232.029 52.0018 232.029 52.0018C232.029 52.0018 235.154 51.3768 235.744 49.5714C236.334 47.766 239.459 51.0296 239.459 51.0296L241.646 49.2242C241.646 49.2242 238.313 47.1064 239.459 44.8496C240.57 42.5929 242.445 39.607 242.445 39.607L239.459 37.6974L239.424 37.6627Z" fill="#A2C5F9"/>
<path d="M254.805 11.033C250.43 6.20701 238.938 4.22801 234.841 11.3107C231.751 16.6228 231.612 26.1012 232.446 30.4411C234.216 39.5723 241.716 45.0232 250.361 38.0099C258.589 31.3091 262.339 19.3656 254.805 11.0677V11.033Z" fill="#FFC9B6"/>
<path d="M233.14 7.66536C236.751 3.46433 237.515 2.17971 242.41 0.929819C248.069 -0.528391 262.061 3.88096 259.631 13.1857C266.089 16.241 264.11 23.4279 262.408 26.3443C260.707 29.3302 256.853 35.1978 256.853 35.1978C256.853 35.1978 253.208 30.7884 252.062 19.0533C249.319 21.3795 242.41 22.5252 238.452 17.2826C232.584 18.0464 226.995 15.13 226.96 13.4288C226.96 13.4288 230.05 11.2415 233.14 7.63064V7.66536Z" fill="black"/>
<path d="M250.326 24.9556C250.326 24.9556 252.861 21.1365 255.083 24.0529C257.339 26.9693 252.722 29.7816 252.722 29.7816L250.326 24.9556Z" fill="#FFC9B6"/>
<path d="M273.276 96.7551C266.783 90.2279 259.909 74.7431 258.867 70.2296C257.235 63.008 258.034 56.4807 262.096 51.3423C266.262 46.0302 267.859 43.9818 274.664 49.398C282.65 55.7516 283.032 60.7859 285.184 70.7504C285.844 73.7709 293.552 88.2836 291.399 95.783C291.399 100.435 285.948 101.72 280.983 103.699C277.963 104.879 276.227 99.7757 273.241 96.7898L273.276 96.7551Z" fill="#CFDEFF"/>
<path d="M234.182 34.0521C234.182 34.0521 236.161 33.2883 237.237 31.0663C237.897 33.323 241.612 35.2326 241.612 35.2326C241.612 35.2326 239.146 37.8713 237.237 36.795C235.327 35.7187 234.182 34.0521 234.182 34.0521Z" fill="#FFC9B6"/>
<path d="M210.781 63.5287C206.441 63.3899 188.595 71.5142 188.595 71.5142L189.776 78.1108C189.776 78.1108 212.517 78.6316 215.329 76.5485C218.107 74.4306 219.148 63.8065 210.781 63.5287Z" fill="#FFC9B6"/>
<path d="M207.309 64.0496C207.309 64.0496 212.239 56.0294 217.551 61.0637C219.877 63.251 225.675 69.6394 221.613 76.9304C219.565 78.84 209.739 77.2429 209.739 77.2429C209.739 77.2429 216.579 74.2917 215.26 69.813C214.392 66.8965 212.76 64.2579 210.815 63.5288C209.184 63.9454 207.309 64.0496 207.309 64.0496Z" fill="#A2C5F9"/>
<path d="M279.282 91.8249C272.998 92.1026 269.317 96.755 264.11 102.171C258.867 107.622 254.562 108.178 254.562 108.178C254.562 108.178 249.18 107.31 246.229 105.4C244.493 104.289 243.799 105.365 244.389 107.275C245.326 110.33 249.18 113.108 249.18 113.108C249.18 113.108 247.097 114.011 243.972 114.878C241.056 115.677 235.64 114.497 235.813 117.205C235.848 118.107 237.202 122.551 243.868 122.794C249.528 123.003 252.722 122.621 260.672 117.448C268.623 112.275 286.642 105.817 288.587 102.38C290.531 98.9423 285.011 91.5471 279.247 91.7901L279.282 91.8249Z" fill="#FFC9B6"/>
<path d="M283.275 84.6033C276.713 81.6522 273.831 84.3256 270.602 88.1794C267.373 92.0332 270.047 96.0954 270.047 96.0954C270.047 96.0954 272.894 92.554 277.338 94.1858C281.018 95.5052 283.553 99.0118 283.205 105.018C283.136 106.476 280.081 107.796 280.081 107.796C280.081 107.796 288.483 109.74 292.059 103.664C295.635 97.6231 292.719 88.8391 283.275 84.6033Z" fill="#A2C5F9"/>
<path d="M188.283 160.604C168.319 151.403 142.314 145.848 113.845 145.848C85.3748 145.848 59.37 151.403 39.4412 160.604L113.879 203.586L188.283 160.604Z" fill="#DCFFB3"/>
<path d="M39.4412 160.604V198.969L113.879 241.951V203.586L39.4412 160.604Z" fill="#B4FF59"/>
<path d="M188.283 160.604V257.887L113.879 300.87V203.586L188.283 160.604Z" fill="#9BDB4D"/>
<path d="M0.034668 244.763V303.752C0.034668 320.66 13.0891 335.971 34.129 346.942V272.817L0.034668 244.763Z" fill="#272459"/>
<path d="M252.722 301.495V242.506L218.627 267.261V344.685C239.667 333.714 252.722 318.403 252.722 301.495Z" fill="#5749C5"/>
<path d="M218.627 285.732C239.667 274.761 252.722 259.45 252.722 242.541C252.722 224.244 237.445 207.857 213.315 196.746L138.912 239.729L218.627 285.767V285.732Z" fill="#8383FF"/>
<path d="M138.912 239.694V298.648L218.627 344.685V285.732L138.912 239.694Z" fill="#736CF4"/>
<path d="M34.1292 316.737V346.942C54.6483 357.671 82.8056 364.302 113.845 364.302C144.884 364.302 173.041 357.671 193.595 346.942V316.737H34.1292Z" fill="#CFDEFF"/>
<path d="M0.0347193 244.763C0.0347193 261.672 13.0892 276.983 34.1291 287.954L113.845 241.916L39.4064 198.934C15.2765 210.044 0 226.432 0 244.729L0.0347193 244.763Z" fill="#3F3C7A"/>
<path d="M34.1292 316.737C54.683 327.465 82.8056 334.096 113.845 334.096C144.884 334.096 173.041 327.465 193.595 316.737L113.879 270.699L34.1639 316.737H34.1292Z" fill="white"/>
<path d="M113.879 241.951V270.699L34.1292 316.737V287.989L113.879 241.951Z" fill="#17162D"/>
<path d="M218.384 227.091C213.871 225.112 208.073 223.897 201.754 223.897C195.435 223.897 189.637 225.112 185.123 227.091H175.68V237.75C175.68 245.388 187.345 251.603 201.754 251.603C216.162 251.603 227.828 245.388 227.828 237.75V227.091H218.384Z" fill="#FFD31A"/>
<g opacity="0.5">
<path d="M221.856 227.091H218.384C217.898 226.883 217.343 226.709 216.822 226.501V249.034C218.697 248.305 220.363 247.471 221.822 246.534V227.091H221.856Z" fill="#FFB133"/>
</g>
<path opacity="0.7" d="M185.193 227.056C185.193 227.056 185.193 227.056 185.158 227.056H180.888V245.978C182.138 246.881 183.596 247.68 185.193 248.374V227.022V227.056Z" fill="#FFEC9C"/>
<path d="M201.754 213.238C187.345 213.238 175.68 219.453 175.68 227.091C175.68 234.73 187.345 240.944 201.754 240.944C216.162 240.944 227.828 234.73 227.828 227.091C227.828 219.453 216.162 213.238 201.754 213.238Z" fill="#FFE161"/>
<path d="M201.754 238.028C213.661 238.028 223.314 233.131 223.314 227.091C223.314 221.051 213.661 216.155 201.754 216.155C189.846 216.155 180.193 221.051 180.193 227.091C180.193 233.131 189.846 238.028 201.754 238.028Z" fill="#FFB133"/>
<path d="M201.754 217.023C213.385 217.023 222.828 221.675 223.28 227.543C223.28 227.404 223.314 227.265 223.314 227.126C223.314 221.085 213.663 216.189 201.754 216.189C189.845 216.189 180.193 221.085 180.193 227.126C180.193 227.265 180.193 227.404 180.228 227.543C180.644 221.71 190.123 217.023 201.754 217.023Z" fill="#FFB133"/>
<path d="M201.754 238.028C213.385 238.028 222.828 233.375 223.28 227.508C222.863 221.675 213.385 216.988 201.754 216.988C190.123 216.988 180.679 221.64 180.228 227.508C180.644 233.341 190.123 238.028 201.754 238.028Z" fill="#FFD833"/>
<g opacity="0.5">
<path d="M201.754 238.028C213.385 238.028 222.828 233.375 223.28 227.508C222.863 221.675 213.385 216.988 201.754 216.988C190.123 216.988 180.679 221.64 180.228 227.508C180.644 233.341 190.123 238.028 201.754 238.028Z" fill="#FFB133"/>
</g>
<path d="M208.351 225.529C207.17 225.321 206.094 225.321 205.087 225.494C204.115 225.668 203.039 225.946 201.858 226.362C201.823 226.362 201.754 226.362 201.719 226.397C201.685 226.432 201.615 226.397 201.58 226.432C201.546 226.432 201.476 226.432 201.442 226.466C201.407 226.466 201.372 226.466 201.303 226.501C200.296 226.848 199.497 227.091 198.838 227.265C198.178 227.439 197.518 227.473 196.824 227.439C196.129 227.404 195.435 227.161 194.741 226.779C193.734 226.189 193.248 225.598 193.282 225.008C193.282 224.418 193.838 223.828 194.914 223.203C195.47 222.89 196.129 222.613 196.928 222.439C197.727 222.231 198.629 222.126 199.671 222.022L198.803 219.835C197.865 219.904 196.997 220.009 196.199 220.182C195.4 220.356 194.637 220.529 193.977 220.772C193.664 220.877 193.387 221.05 193.109 221.154L190.748 219.8L188.318 221.224L190.713 222.613C190.227 223.029 189.845 223.411 189.637 223.828C189.255 224.557 189.29 225.321 189.741 226.084C190.192 226.848 191.13 227.612 192.449 228.376C193.838 229.174 195.123 229.661 196.338 229.834C197.553 230.008 198.629 229.973 199.601 229.765C200.539 229.556 201.685 229.209 202.969 228.723C203.004 228.723 203.073 228.688 203.108 228.654C203.177 228.654 203.212 228.619 203.247 228.584H203.316C203.316 228.584 203.351 228.584 203.386 228.584C204.219 228.272 204.913 228.063 205.538 227.925C206.163 227.786 206.788 227.751 207.448 227.82C208.108 227.89 208.767 228.098 209.427 228.48C210.469 229.105 210.955 229.695 210.92 230.32C210.885 230.945 210.295 231.57 209.149 232.23C208.316 232.716 207.379 233.028 206.268 233.202C205.156 233.376 203.941 233.41 202.553 233.271L203.212 235.528C204.393 235.598 205.469 235.563 206.511 235.493C207.552 235.424 208.524 235.216 209.427 234.938C210.33 234.66 210.781 234.521 210.781 234.521C210.781 234.521 210.85 234.487 210.955 234.417L213.177 235.702L215.607 234.278L213.246 232.924C213.836 232.473 214.288 232.021 214.565 231.57C215.017 230.806 215.017 230.077 214.565 229.313C214.114 228.55 213.281 227.82 211.996 227.057C210.677 226.293 209.427 225.807 208.247 225.598L208.351 225.529Z" fill="#FFE161"/>
<path d="M138.461 297.919C133.947 295.94 128.149 294.725 121.83 294.725C115.511 294.725 109.713 295.94 105.2 297.919H95.7559V308.578C95.7559 316.216 107.422 322.431 121.83 322.431C136.239 322.431 147.904 316.216 147.904 308.578V297.919H138.461Z" fill="#FFD31A"/>
<g opacity="0.5">
<path d="M141.932 297.919H138.461C137.974 297.711 137.419 297.537 136.898 297.329V319.861C138.773 319.132 140.44 318.299 141.898 317.362V297.919H141.932Z" fill="#FFB133"/>
</g>
<path opacity="0.7" d="M105.234 297.884C105.234 297.884 105.234 297.884 105.199 297.884H100.929V316.806C102.179 317.709 103.637 318.507 105.234 319.202V297.849V297.884Z" fill="#FFEC9C"/>
<path d="M121.83 284.031C107.422 284.031 95.7559 290.246 95.7559 297.884C95.7559 305.522 107.422 311.737 121.83 311.737C136.239 311.737 147.904 305.522 147.904 297.884C147.904 290.246 136.239 284.031 121.83 284.031Z" fill="#FFE161"/>
<path d="M121.83 286.982C109.921 286.982 100.269 291.877 100.269 297.919C100.269 303.96 109.921 308.855 121.83 308.855C133.739 308.855 143.391 303.96 143.391 297.919C143.391 291.877 133.739 286.982 121.83 286.982Z" fill="#FFB133"/>
<path d="M121.795 287.85C133.426 287.85 142.87 292.502 143.321 298.37C143.321 298.231 143.356 298.092 143.356 297.953C143.356 291.912 133.704 287.017 121.795 287.017C109.887 287.017 100.235 291.912 100.235 297.953C100.235 298.092 100.235 298.231 100.269 298.37C100.686 292.537 110.164 287.85 121.795 287.85Z" fill="#FFB133"/>
<path d="M121.795 308.855C133.426 308.855 142.87 304.203 143.321 298.335C142.905 292.502 133.426 287.815 121.795 287.815C110.164 287.815 100.721 292.468 100.269 298.335C100.686 304.168 110.164 308.855 121.795 308.855Z" fill="#FFD833"/>
<g opacity="0.5">
<path d="M121.795 308.855C133.426 308.855 142.87 304.203 143.321 298.335C142.905 292.502 133.426 287.815 121.795 287.815C110.164 287.815 100.721 292.468 100.269 298.335C100.686 304.168 110.164 308.855 121.795 308.855Z" fill="#FFB133"/>
</g>
<path d="M128.392 296.356C127.211 296.148 126.135 296.148 125.128 296.322C124.156 296.495 123.08 296.773 121.899 297.19C121.865 297.19 121.795 297.19 121.761 297.224C121.726 297.224 121.656 297.224 121.622 297.259C121.587 297.259 121.517 297.259 121.483 297.294C121.448 297.294 121.413 297.294 121.344 297.329C120.337 297.676 119.538 297.919 118.879 298.092C118.219 298.266 117.56 298.301 116.865 298.266C116.171 298.231 115.476 297.988 114.782 297.606C113.775 297.016 113.289 296.426 113.324 295.836C113.324 295.245 113.879 294.655 114.956 294.03C115.511 293.718 116.171 293.44 116.969 293.266C117.768 293.058 118.671 292.954 119.712 292.85L118.844 290.663C117.907 290.732 117.039 290.836 116.24 291.01C115.442 291.183 114.678 291.357 114.018 291.6C113.706 291.704 113.428 291.878 113.15 291.982L110.789 290.628L108.359 292.051L110.755 293.44C110.268 293.857 109.887 294.239 109.678 294.655C109.296 295.384 109.331 296.148 109.782 296.912C110.234 297.676 111.171 298.44 112.49 299.203C113.879 300.002 115.164 300.488 116.379 300.662C117.594 300.835 118.671 300.801 119.643 300.592C120.58 300.384 121.726 300.037 123.01 299.551C123.045 299.551 123.115 299.516 123.149 299.481C123.184 299.447 123.253 299.447 123.288 299.412H123.358C123.358 299.412 123.392 299.412 123.427 299.412C124.26 299.099 124.955 298.891 125.58 298.752C126.205 298.613 126.83 298.579 127.489 298.648C128.149 298.717 128.809 298.926 129.468 299.308C130.51 299.933 130.996 300.523 130.961 301.148C130.926 301.773 130.336 302.398 129.19 303.057C128.357 303.543 127.42 303.856 126.309 304.029C125.198 304.203 123.983 304.238 122.594 304.099L123.253 306.356C124.434 306.425 125.51 306.425 126.552 306.321C127.593 306.217 128.566 306.043 129.468 305.765C130.371 305.488 130.822 305.349 130.822 305.349C130.822 305.349 130.892 305.314 130.996 305.245L133.218 306.529L135.648 305.106L133.287 303.752C133.878 303.3 134.329 302.849 134.607 302.398C135.058 301.634 135.058 300.905 134.607 300.141C134.19 299.377 133.322 298.648 132.037 297.884C130.718 297.12 129.468 296.634 128.288 296.426L128.392 296.356Z" fill="#FFE161"/>
<path d="M73.5702 234.764C69.0567 232.785 63.2586 231.57 56.9397 231.57C50.6208 231.57 44.8226 232.785 40.3091 234.764H30.8655V245.423C30.8655 253.061 42.5312 259.276 56.9397 259.276C71.3482 259.276 83.0139 253.061 83.0139 245.423V234.764H73.5702Z" fill="#FFD31A"/>
<g opacity="0.5">
<path d="M77.0421 234.764H73.5702C73.0841 234.556 72.5286 234.383 72.0078 234.174V256.707C73.8827 255.978 75.5492 255.145 77.0074 254.207V234.764H77.0421Z" fill="#FFB133"/>
</g>
<path opacity="0.7" d="M40.3787 234.764C40.3787 234.764 40.3787 234.764 40.344 234.764H36.0735V253.686C37.3234 254.589 38.7816 255.387 40.3787 256.082V234.729V234.764Z" fill="#FFEC9C"/>
<path d="M56.9397 220.911C42.5312 220.911 30.8655 227.126 30.8655 234.764C30.8655 242.403 42.5312 248.617 56.9397 248.617C71.3482 248.617 83.0139 242.403 83.0139 234.764C83.0139 227.126 71.3482 220.911 56.9397 220.911Z" fill="#FFE161"/>
<path d="M56.9396 223.862C45.0309 223.862 35.3789 228.758 35.3789 234.799C35.3789 240.84 45.0309 245.736 56.9396 245.736C68.8483 245.736 78.5003 240.84 78.5003 234.799C78.5003 228.758 68.8483 223.862 56.9396 223.862Z" fill="#FFB133"/>
<path d="M56.9396 224.696C68.5705 224.696 78.0142 229.348 78.4656 235.216C78.4656 235.077 78.5003 234.938 78.5003 234.799C78.5003 228.758 68.8483 223.862 56.9396 223.862C45.0309 223.862 35.3789 228.758 35.3789 234.799C35.3789 234.938 35.3789 235.077 35.4136 235.216C35.8303 229.383 45.3086 224.696 56.9396 224.696Z" fill="#FFB133"/>
<path d="M56.9395 245.735C68.5705 245.735 78.0141 241.083 78.4655 235.215C78.0489 229.383 68.5705 224.696 56.9395 224.696C45.3086 224.696 35.8649 229.348 35.4136 235.215C35.8302 241.048 45.3086 245.735 56.9395 245.735Z" fill="#FFD833"/>
<g opacity="0.5">
<path d="M56.9395 245.735C68.5705 245.735 78.0141 241.083 78.4655 235.215C78.0489 229.383 68.5705 224.696 56.9395 224.696C45.3086 224.696 35.8649 229.348 35.4136 235.215C35.8302 241.048 45.3086 245.735 56.9395 245.735Z" fill="#FFB133"/>
</g>
<path d="M63.5365 233.237C62.356 233.028 61.2797 233.028 60.2728 233.202C59.3007 233.376 58.2244 233.653 57.0439 234.07C57.0092 234.07 56.9398 234.07 56.9051 234.105C56.8703 234.139 56.8009 234.105 56.7662 234.139C56.7315 234.139 56.662 234.139 56.6273 234.174C56.5926 234.174 56.5579 234.174 56.4884 234.209C55.4816 234.556 54.683 234.799 54.0234 234.973C53.3637 235.146 52.704 235.181 52.0096 235.146C51.3153 235.112 50.6209 234.869 49.9265 234.487C48.9196 233.896 48.4336 233.306 48.4683 232.716C48.4683 232.126 49.0238 231.536 50.1001 230.911C50.6556 230.598 51.3153 230.32 52.1138 230.147C52.9123 229.973 53.815 229.834 54.8566 229.73L53.9886 227.543C53.0512 227.612 52.1832 227.716 51.3847 227.89C50.5862 228.064 49.8223 228.237 49.1627 228.48C48.8502 228.584 48.5724 228.758 48.2947 228.862L45.9338 227.508L43.5034 228.932L45.899 230.32C45.413 230.737 45.0311 231.119 44.8227 231.536C44.4408 232.265 44.4756 233.028 44.9269 233.792C45.3783 234.556 46.281 235.32 47.635 236.084C49.0238 236.882 50.3084 237.368 51.5236 237.542C52.7387 237.716 53.815 237.681 54.7872 237.473C55.7593 237.264 56.8703 236.917 58.155 236.431C58.1897 236.431 58.2591 236.396 58.2938 236.361C58.3633 236.361 58.398 236.327 58.4327 236.292H58.5022C58.5022 236.292 58.5369 236.292 58.5716 236.292C59.4049 235.98 60.0992 235.771 60.7242 235.632C61.3491 235.494 61.9741 235.459 62.6337 235.528C63.2934 235.598 63.9531 235.806 64.6127 236.188C65.6543 236.813 66.1404 237.403 66.1057 238.028C66.071 238.653 65.4807 239.278 64.335 239.938C63.5017 240.424 62.5643 240.736 61.4533 240.91C60.3423 241.083 59.1271 241.118 57.7383 240.979L58.398 243.236C59.5784 243.305 60.6547 243.271 61.6963 243.201C62.7379 243.097 63.71 242.923 64.6127 242.646C65.5154 242.368 65.9668 242.229 65.9668 242.229C65.9668 242.229 66.0362 242.194 66.1404 242.125L68.3624 243.41L70.7928 241.986L68.4319 240.632C69.0221 240.181 69.4734 239.729 69.7512 239.278C70.2026 238.514 70.2026 237.785 69.7512 237.021C69.2999 236.257 68.4666 235.528 67.182 234.764C65.8626 234.001 64.6127 233.515 63.4323 233.306L63.5365 233.237Z" fill="#FFE161"/>
<path d="M61.6615 214.627C57.148 212.648 51.3499 211.433 45.031 211.433C38.7121 211.433 32.9139 212.648 28.4004 214.627H18.9568V225.286C18.9568 232.924 30.6225 239.139 45.031 239.139C59.4395 239.139 71.1052 232.924 71.1052 225.286V214.627H61.6615Z" fill="#FFD31A"/>
<g opacity="0.5">
<path d="M65.1334 214.627H61.6615C61.1754 214.419 60.6199 214.245 60.0991 214.037V236.57C61.974 235.841 63.6405 235.007 65.0987 234.07V214.627H65.1334Z" fill="#FFB133"/>
</g>
<path opacity="0.7" d="M28.4351 214.592C28.4351 214.592 28.4351 214.592 28.4004 214.592H24.1299V233.514C25.3798 234.417 26.838 235.216 28.4351 235.91V214.558V214.592Z" fill="#FFEC9C"/>
<path d="M45.031 200.774C30.6572 200.774 18.9568 206.989 18.9568 214.627C18.9568 222.265 30.6225 228.48 45.031 228.48C59.4395 228.48 71.1052 222.265 71.1052 214.627C71.1052 206.989 59.4395 200.774 45.031 200.774Z" fill="#FFE161"/>
<path d="M45.0309 203.691C33.1222 203.691 23.4702 208.586 23.4702 214.627C23.4702 220.668 33.1222 225.564 45.0309 225.564C56.9396 225.564 66.5916 220.668 66.5916 214.627C66.5916 208.586 56.9396 203.691 45.0309 203.691Z" fill="#FFB133"/>
<path d="M44.9962 204.558C56.6272 204.558 66.0708 209.211 66.5222 215.078C66.5222 214.94 66.5569 214.801 66.5569 214.662C66.5569 208.621 56.9049 203.725 44.9962 203.725C33.0875 203.725 23.4355 208.621 23.4355 214.662C23.4355 214.801 23.4355 214.94 23.4703 215.078C23.8869 209.246 33.3653 204.558 44.9962 204.558Z" fill="#FFB133"/>
<path d="M44.9962 225.564C56.6271 225.564 66.0708 220.911 66.5221 215.044C66.1055 209.211 56.6271 204.524 44.9962 204.524C33.3652 204.524 23.9216 209.176 23.4702 215.044C23.8868 220.876 33.3652 225.564 44.9962 225.564Z" fill="#FFD833"/>
<g opacity="0.5">
<path d="M44.9962 225.564C56.6271 225.564 66.0708 220.911 66.5221 215.044C66.1055 209.211 56.6271 204.524 44.9962 204.524C33.3652 204.524 23.9216 209.176 23.4702 215.044C23.8868 220.876 33.3652 225.564 44.9962 225.564Z" fill="#FFB133"/>
</g>
<path d="M51.593 213.065C50.4126 212.856 49.3363 212.856 48.3294 213.03C47.3573 213.204 46.281 213.481 45.1005 213.898C45.0658 213.898 44.9964 213.898 44.9617 213.933C44.9269 213.933 44.8575 213.933 44.8228 213.967C44.7881 213.967 44.7186 213.967 44.6839 214.002C44.6492 214.002 44.6145 214.002 44.545 214.037C43.5382 214.384 42.7396 214.627 42.08 214.801C41.4203 214.974 40.7606 215.009 40.0662 214.974C39.3718 214.94 38.6775 214.697 37.9831 214.315C36.9762 213.724 36.4901 213.134 36.5249 212.544C36.5249 211.954 37.0804 211.363 38.1567 210.739C38.7122 210.426 39.3718 210.148 40.1704 209.975C40.9689 209.801 41.8716 209.662 42.9132 209.558L42.0452 207.371C41.1078 207.44 40.2398 207.544 39.4413 207.718C38.6427 207.892 37.8789 208.065 37.2193 208.308C36.9068 208.412 36.629 208.586 36.3513 208.69L34.0251 207.336L31.5947 208.76L33.9904 210.148C33.5043 210.565 33.1224 210.947 32.9141 211.363C32.5321 212.093 32.5669 212.856 33.0182 213.62C33.4696 214.384 34.3723 215.148 35.7263 215.912C37.1151 216.71 38.3997 217.196 39.6149 217.37C40.8301 217.544 41.9064 217.509 42.8785 217.301C43.8159 217.092 44.9617 216.745 46.2463 216.259C46.281 216.259 46.3504 216.224 46.3851 216.189C46.4546 216.189 46.4893 216.155 46.524 216.12H46.5935C46.5935 216.12 46.6282 216.12 46.6629 216.12C47.4962 215.808 48.1905 215.599 48.8155 215.46C49.4404 215.321 50.0654 215.287 50.7251 215.356C51.3847 215.426 52.0444 215.634 52.7041 216.016C53.7456 216.641 54.2317 217.231 54.197 217.856C54.1623 218.481 53.572 219.106 52.4263 219.766C51.593 220.252 50.6556 220.564 49.5446 220.738C48.4336 220.911 47.2184 220.946 45.8296 220.807L46.4893 223.064C47.6698 223.133 48.7461 223.099 49.7876 223.029C50.8292 222.96 51.8014 222.751 52.7041 222.474C53.6068 222.196 54.0581 222.057 54.0581 222.057C54.0581 222.057 54.1275 222.022 54.2317 221.953L56.4537 223.238L58.8841 221.814L56.5232 220.46C57.1134 220.009 57.5648 219.557 57.8425 219.106C58.2939 218.342 58.2939 217.613 57.8425 216.849C57.4259 216.085 56.5579 215.356 55.2733 214.592C53.954 213.829 52.7041 213.343 51.5236 213.134L51.593 213.065Z" fill="#FFE161"/>
<path d="M201.58 69.6393L200.157 70.4378L211.024 95.9218L212.447 95.1232L201.58 69.6393Z" fill="#CFDEFF"/>
<path d="M181.443 59.6055L182.832 58.8417L201.58 69.6394L200.157 70.4379L181.443 59.6055Z" fill="#CFDEFF"/>
<path d="M192.137 90.1933L214.461 103.074L201.511 72.66L179.152 59.7792L192.137 90.1933Z" fill="#B4FF59"/>
<path d="M203.212 71.7225L201.511 72.66L214.461 103.074L216.162 102.137L203.212 71.7225Z" fill="#9BDB4D"/>
<path d="M179.152 59.7791L180.853 58.8417L203.212 71.7225L201.511 72.66L179.152 59.7791Z" fill="#DCFFB3"/>
<path d="M185.054 73.5974C185.054 73.5974 183.248 76.0625 184.359 76.8957C185.436 77.729 186.061 78.1456 186.061 78.1456C186.061 78.1456 184.984 79.7774 186.061 80.5413C187.137 81.3051 187.866 81.444 187.866 81.444C187.866 81.444 186.651 82.1731 187.866 83.6313C189.081 85.0895 192.692 86.6519 194.15 85.5756C195.608 84.4993 192.935 83.5271 192.935 83.5271C192.935 83.5271 195.608 83.7354 194.22 82.0342C193.109 80.6454 190.401 79.6038 190.401 79.6038C190.401 79.6038 193.143 79.708 192.414 78.1804C191.685 76.6874 185.818 75.2987 185.818 75.2987C185.54 74.5348 185.089 73.5974 185.089 73.5974H185.054Z" fill="#FFC9B6"/>
<path fill-rule="evenodd" clip-rule="evenodd" d="M109.227 92.936C109.227 89.3946 106.38 86.5476 102.838 86.5476C99.2971 86.5476 96.4501 89.3946 96.4501 92.936V96.1301H90.0617C86.5204 96.1301 83.6734 98.9771 83.6734 102.518C83.6734 106.06 86.5204 108.907 90.0617 108.907H96.4501V140.814H90.0617C86.5204 140.814 83.6734 143.661 83.6734 147.202C83.6734 150.744 86.5204 153.591 90.0617 153.591H96.4501V156.785C96.4501 160.326 99.2971 163.173 102.838 163.173C106.38 163.173 109.227 160.326 109.227 156.785V153.591H115.615V156.785C115.615 160.326 118.462 163.173 122.003 163.173C125.545 163.173 128.392 160.326 128.392 156.785V153.348C132.593 152.723 136.134 150.882 138.808 148.105C142.037 144.702 143.564 140.293 143.564 136.023C143.564 132.134 142.28 128.107 139.606 124.843C142.28 121.579 143.564 117.587 143.564 113.663C143.564 109.393 142.037 104.984 138.808 101.581C136.169 98.8035 132.593 96.9634 128.392 96.3385V92.9012C128.392 89.3599 125.545 86.5129 122.003 86.5129C118.462 86.5129 115.615 89.3599 115.615 92.9012V96.0954H109.227V92.9012V92.936ZM51.7664 124.843C51.7664 89.6029 80.3403 61.0289 115.58 61.0289C150.821 61.0289 179.394 89.6029 179.394 124.843C179.394 160.083 150.821 188.657 115.58 188.657C80.3403 188.657 51.7664 160.083 51.7664 124.843Z" fill="#736CF4"/>
<path fill-rule="evenodd" clip-rule="evenodd" d="M109.227 118.489V108.907H125.198C127.593 108.907 128.878 109.705 129.538 110.4C130.301 111.198 130.753 112.379 130.753 113.663C130.753 114.948 130.267 116.128 129.538 116.927C128.843 117.656 127.593 118.42 125.198 118.42H109.227V118.489Z" fill="#736CF4"/>
<path fill-rule="evenodd" clip-rule="evenodd" d="M125.163 140.814C127.559 140.814 128.843 140.015 129.503 139.321C130.267 138.522 130.718 137.342 130.718 136.057C130.718 134.773 130.232 133.592 129.503 132.794C128.809 132.065 127.559 131.301 125.163 131.301H109.192V140.883H125.163V140.814Z" fill="#736CF4"/>
</g>
</svg>
