<svg width="135" height="106" viewBox="0 0 135 106" fill="none" xmlns="http://www.w3.org/2000/svg">
<path d="M134.981 60.791C134.792 62.6736 133.064 63.6149 131.592 64.4707C130.223 65.2579 128.854 66.0623 127.502 66.8496C125.311 68.1161 123.137 69.3825 120.947 70.649C118.208 72.2407 115.487 73.8323 112.749 75.4069C109.737 77.1525 106.725 78.9153 103.695 80.661C100.666 82.4238 97.6367 84.1866 94.5903 85.9494C91.8007 87.5753 89.0281 89.1841 86.2384 90.81C83.9622 92.1278 81.7031 93.4456 79.4268 94.7634C77.9379 95.6192 76.4489 96.492 74.9599 97.3477C73.8303 97.9981 72.7692 98.6484 71.4856 99.025C68.1483 99.9834 64.4516 99.6582 61.4394 97.9125C60.3612 97.2793 59.2658 96.6632 58.1876 96.0299C56.2023 94.8832 54.2342 93.7537 52.2489 92.607C49.6475 91.1009 47.046 89.5948 44.4446 88.1059C41.4838 86.3944 38.5059 84.683 35.5451 82.9715C32.4816 81.2087 29.418 79.4288 26.3545 77.666C23.4622 75.9888 20.5698 74.3286 17.6603 72.6514L10.2668 68.3899C8.50404 67.363 6.72412 66.3533 4.96132 65.3264C4.15694 64.8643 3.35255 64.4022 2.54817 63.923C1.28169 63.1871 0.0323273 62.0233 0.0323273 60.4487C0.0323273 61.8864 0.0323275 63.324 0.015213 64.7787C0.015213 65.2922 -0.0190162 65.8227 0.015213 66.3533C0.1179 67.7395 1.21323 68.8177 2.35991 69.5023C3.06161 69.9302 3.78042 70.3238 4.49923 70.7346C6.3476 71.7957 8.19598 72.8739 10.0444 73.935C12.7142 75.4753 15.367 77.0156 18.0369 78.5559C21.203 80.3872 24.3864 82.2185 27.5526 84.0497C30.8557 85.9665 34.1588 87.8663 37.479 89.7831C40.6281 91.5972 43.76 93.4114 46.9091 95.2255C49.5277 96.7316 52.1291 98.2377 54.7476 99.7438C56.5104 100.771 58.2903 101.78 60.0531 102.807C61.08 103.389 62.0898 104.057 63.2022 104.467C66.6765 105.734 70.7497 105.46 73.9502 103.595C75.1653 102.893 76.3804 102.174 77.5956 101.472C79.8376 100.172 82.0796 98.8709 84.3045 97.5702C87.2311 95.8759 90.1405 94.1815 93.0671 92.4701C96.336 90.5704 99.6049 88.6707 102.857 86.7709L112.663 81.0718C115.59 79.3603 118.516 77.666 121.46 75.9545C123.736 74.6367 126.013 73.3189 128.289 71.9839C129.538 71.248 130.805 70.5292 132.054 69.7933C132.431 69.5708 132.824 69.3483 133.184 69.0916C134.142 68.3728 134.895 67.3801 134.912 66.1308C134.929 65.4975 134.912 64.8814 134.912 64.2482C134.912 62.9988 134.912 61.7323 134.929 60.483C134.998 60.6199 134.998 60.7054 134.981 60.791C134.998 60.7568 134.981 60.8424 134.981 60.791Z" fill="#7A9EFD"/>
<path d="M132.55 57.1114C135.802 58.994 135.819 62.0575 132.585 63.9401L73.6421 98.1863C70.4075 100.069 65.1191 100.069 61.8673 98.1863L2.5311 63.9401C-0.720663 62.0575 -0.73778 58.994 2.49687 57.1114L61.4394 22.848C64.6741 20.9654 69.9625 20.9654 73.2143 22.848L132.55 57.1114Z" fill="#E4ECF9"/>
<path d="M64.366 59.9695L63.1338 57.2141L60.6008 55.7422L61.8331 58.4976C61.9358 58.7201 62.0898 58.8913 62.2781 58.994L64.811 60.4658C64.6228 60.3631 64.4687 60.192 64.366 59.9695ZM87.967 15.2491C88.0355 15.2149 88.1039 15.1978 88.1724 15.1807C88.2066 15.1807 88.2237 15.1636 88.258 15.1636C88.2922 15.1636 88.3093 15.1464 88.3435 15.1464C88.3778 15.1464 88.412 15.1293 88.4462 15.1293H88.6516C88.6858 15.1293 88.7372 15.1464 88.7714 15.1464H88.8056C88.8399 15.1464 88.8741 15.1636 88.8912 15.1807C88.9083 15.1807 88.9083 15.1807 88.9254 15.1978C88.9597 15.2149 89.011 15.232 89.0452 15.2491L86.5123 13.7773H86.4952C86.4609 13.7602 86.4438 13.743 86.4096 13.7259H86.3925C86.3754 13.7259 86.3754 13.7259 86.3583 13.7088C86.3411 13.7088 86.324 13.6917 86.3069 13.6917C86.2898 13.6917 86.2727 13.6917 86.2556 13.6746H86.2213H86.2042C86.17 13.6746 86.1358 13.6575 86.1015 13.6575H85.9646H85.8277H85.8106C85.7764 13.6575 85.7593 13.6746 85.725 13.6746C85.7079 13.6746 85.6908 13.6746 85.6737 13.6917H85.6566C85.5881 13.7088 85.5196 13.7259 85.4512 13.7602C85.3827 13.7773 85.3314 13.8115 85.2629 13.8457L82.2508 15.4203L84.7837 16.8921L87.7959 15.3176C87.8472 15.3005 87.8986 15.2834 87.967 15.2491ZM76.5687 21.359C76.5858 21.359 76.5858 21.359 76.5687 21.359C76.5858 21.2392 76.5858 21.1365 76.603 21.0339C76.6372 20.1781 76.3462 19.5791 75.867 19.3053L73.3341 17.8334C73.8133 18.1073 74.1042 18.7234 74.07 19.562C74.07 19.6647 74.0529 19.7674 74.0358 19.8701C74.0358 19.9043 74.0187 19.9214 74.0187 19.9556C74.0015 20.0412 74.0015 20.1097 73.9844 20.1952C73.9673 20.2637 73.9502 20.3322 73.9331 20.4177C73.9331 20.452 73.916 20.4691 73.916 20.5033C73.8817 20.606 73.8646 20.6916 73.8304 20.7942C73.8304 20.8114 73.8133 20.8456 73.8133 20.8627C73.779 20.9312 73.7619 21.0167 73.7277 21.0852C73.7106 21.1194 73.7106 21.1365 73.6935 21.1708C73.6593 21.2563 73.625 21.3419 73.5737 21.4275V21.4446C73.5223 21.5302 73.4881 21.6329 73.4368 21.7184C73.4196 21.7355 73.4025 21.7698 73.4025 21.7869C73.3683 21.8553 73.317 21.9238 73.2827 21.9923C73.2656 22.0094 73.2485 22.0436 73.2314 22.0607C73.18 22.1463 73.1287 22.2319 73.0773 22.3003L73.0602 22.3174C72.9918 22.403 72.9404 22.4886 72.872 22.5742C72.8377 22.6255 72.7864 22.6768 72.7522 22.7282C72.7179 22.7624 72.6837 22.8138 72.6495 22.848C72.5639 22.9507 72.4612 23.0534 72.3757 23.1389C72.3414 23.1732 72.2901 23.2245 72.2387 23.2587L72.136 23.3614C72.0847 23.4128 72.0334 23.447 71.982 23.4812C71.9478 23.5155 71.9136 23.5326 71.8793 23.5668C71.828 23.6181 71.7595 23.6524 71.7082 23.6866C71.674 23.7037 71.6568 23.7208 71.6226 23.7551C71.537 23.8064 71.4515 23.8749 71.3659 23.9262C71.3145 23.9604 71.2632 23.9776 71.2119 24.0118C71.1263 24.0631 71.0236 24.0974 70.938 24.1316C70.8353 24.1829 70.7327 24.2172 70.63 24.2343C70.5957 24.2514 70.5444 24.2514 70.5102 24.2685C70.4588 24.2856 70.4246 24.2856 70.3733 24.3027C70.3219 24.3027 70.2706 24.3198 70.2192 24.3198H69.9112C69.8598 24.3198 69.7914 24.3027 69.74 24.3027C69.7229 24.3027 69.7058 24.3027 69.6887 24.2856C69.6373 24.2685 69.6031 24.2685 69.5518 24.2514C69.5346 24.2514 69.5175 24.2343 69.5004 24.2343C69.4491 24.2172 69.3806 24.1829 69.3293 24.1487L71.8622 25.6206H71.8793C71.9307 25.6377 71.9649 25.6719 72.0162 25.689H72.0334C72.0505 25.689 72.0676 25.7061 72.0847 25.7061C72.1018 25.7232 72.1361 25.7232 72.1532 25.7404C72.1703 25.7404 72.1874 25.7575 72.2216 25.7575C72.2387 25.7575 72.2558 25.7746 72.273 25.7746H72.3072C72.3585 25.7746 72.3928 25.7917 72.4441 25.7917H72.7522C72.7864 25.7917 72.8206 25.7917 72.872 25.7746H72.9062C72.9575 25.7746 72.9918 25.7575 73.0431 25.7404C73.0773 25.7404 73.1116 25.7232 73.1287 25.7232C73.1458 25.7232 73.1458 25.7232 73.1629 25.7061L73.471 25.6034C73.5566 25.5692 73.6421 25.5179 73.7277 25.4836C73.779 25.4494 73.8304 25.4323 73.8817 25.3981C73.9673 25.3467 74.0529 25.2954 74.1385 25.2269C74.1727 25.2098 74.1898 25.1927 74.224 25.1585C74.2754 25.1242 74.3438 25.0729 74.3952 25.0387C74.4294 25.0044 74.4636 24.9873 74.4979 24.9531C74.5492 24.9189 74.6005 24.8675 74.6519 24.8333L74.7546 24.7306L74.8573 24.6279C74.8573 24.6279 74.8744 24.6108 74.8744 24.5937C74.9771 24.491 75.0626 24.4054 75.1482 24.3027C75.1824 24.2685 75.1996 24.2343 75.2338 24.2C75.268 24.1487 75.3194 24.0974 75.3536 24.046L75.3707 24.0289C75.4392 23.9433 75.4905 23.8578 75.559 23.7893L75.5761 23.7722C75.6274 23.7037 75.6788 23.6353 75.713 23.5668C75.713 23.5497 75.7301 23.5497 75.7301 23.5326C75.7472 23.5155 75.7643 23.4812 75.7815 23.4641C75.7986 23.4299 75.8328 23.3957 75.8499 23.3614C75.867 23.3272 75.8841 23.293 75.9013 23.2759C75.9184 23.2587 75.9355 23.2245 75.9355 23.2074C75.9526 23.1903 75.9526 23.1732 75.9697 23.1561C76.0039 23.0876 76.0382 23.0191 76.0724 22.9336V22.9165C76.1066 22.848 76.1409 22.7795 76.158 22.7111C76.1751 22.694 76.1751 22.6768 76.1751 22.6426C76.1922 22.6084 76.1922 22.5913 76.2093 22.557C76.2264 22.5228 76.2264 22.5057 76.2435 22.4715C76.2607 22.4201 76.2778 22.3859 76.2949 22.3346C76.2949 22.3174 76.312 22.2832 76.312 22.2661C76.312 22.249 76.312 22.249 76.3291 22.2319C76.3633 22.1463 76.3805 22.0607 76.3976 21.9752V21.958C76.3976 21.9238 76.4147 21.9067 76.4147 21.8725C76.4318 21.804 76.4489 21.7527 76.466 21.6842V21.6671C76.4831 21.5815 76.5003 21.5131 76.5003 21.4275C76.5687 21.4104 76.5687 21.3933 76.5687 21.359Z" fill="#8AEA16"/>
<path d="M79.1873 10.5939L76.6543 9.12207C76.9281 9.24187 77.202 9.37879 77.4587 9.53282L79.9916 11.0047C79.7349 10.8506 79.4611 10.7137 79.1873 10.5939Z" fill="#A35F0F"/>
<path d="M79.9917 11.0046L77.4587 9.53271C77.493 9.54983 77.5443 9.58406 77.5785 9.60117L80.1115 11.073C80.0773 11.0388 80.0259 11.0217 79.9917 11.0046Z" fill="#9E5C0E"/>
<path d="M79.0504 0.119801C79.0332 0.119801 79.0161 0.102688 78.999 0.102688C78.9648 0.0855739 78.9134 0.0684588 78.8792 0.0513442C78.8621 0.0513442 78.845 0.0342286 78.845 0.0342286H78.7765C78.7423 0.0342286 78.7081 0.0171156 78.6738 0.0171156C78.6567 0.0171156 78.6225 0.0171146 78.6054 0H78.5369C78.4856 0 78.4513 0.0171156 78.4 0.0171156C78.3658 0.0171156 78.3487 0.017114 78.3144 0.0342286C78.2973 0.0342286 78.2802 0.0342297 78.2631 0.0513442C78.246 0.0513442 78.2288 0.0684598 78.2117 0.0684598C78.1433 0.0855744 78.0577 0.102688 77.9721 0.136917H77.955C76.8939 0.581896 75.5419 1.19802 74.07 2.05375C73.8304 2.19066 73.6079 2.32758 73.3683 2.48161C73.317 2.51584 73.2827 2.53296 73.2314 2.56719C72.9918 2.7041 72.7693 2.85813 72.5297 3.01217C72.4784 3.04639 72.4441 3.06351 72.3928 3.09774C72.1532 3.25177 71.9307 3.4058 71.6911 3.57695C71.674 3.59406 71.6569 3.59406 71.6397 3.61118C71.4001 3.78232 71.1434 3.95346 70.9038 4.14173C70.8525 4.17595 70.8011 4.21019 70.7498 4.26153C70.5102 4.44979 70.2535 4.63805 70.0139 4.82631C69.9796 4.86054 69.9283 4.89477 69.8941 4.929C69.6545 5.11726 69.432 5.30552 69.1924 5.51089C69.1581 5.54512 69.1239 5.56223 69.1068 5.59646C68.8501 5.80184 68.6105 6.02433 68.3709 6.24682C68.3195 6.29816 68.2682 6.34951 68.2168 6.38373C67.9772 6.60622 67.7205 6.84583 67.4809 7.08543L67.4467 7.11966L67.3611 7.20523C67.19 7.37638 67.0017 7.56464 66.8305 7.7529C66.7792 7.82136 66.7107 7.8727 66.6594 7.94116C66.454 8.16365 66.2315 8.40325 66.0262 8.64286C65.9919 8.65997 65.9406 8.67709 65.8721 8.6942C65.855 8.6942 65.8379 8.71132 65.8208 8.71132C65.7694 8.72843 65.7181 8.74555 65.6496 8.77977H65.6325C65.5812 8.79689 65.5298 8.83112 65.4614 8.84823C65.4443 8.84823 65.4272 8.86535 65.4272 8.86535C65.3929 8.88246 65.3587 8.88246 65.3416 8.89958C65.2902 8.91669 65.2389 8.95092 65.1704 8.96804L65.0677 9.01938C64.9993 9.05361 64.9479 9.07072 64.8795 9.10495L64.7768 9.1563C64.6912 9.19053 64.6057 9.24187 64.503 9.2761C64.4859 9.29321 64.4687 9.29321 64.4516 9.31033C64.3318 9.36167 64.212 9.43013 64.0922 9.48147C64.058 9.49859 64.0066 9.5157 63.9724 9.53281C63.8868 9.58416 63.8013 9.61839 63.6986 9.66973C63.6472 9.68685 63.5959 9.72108 63.5445 9.73819C63.459 9.78954 63.3734 9.82376 63.2707 9.87511C63.2194 9.90934 63.168 9.92645 63.1167 9.96068L62.8086 10.1147C62.7573 10.1318 62.723 10.1661 62.6717 10.1832C62.5348 10.2516 62.3979 10.3201 62.261 10.4057C62.2438 10.4228 62.2267 10.4228 62.2096 10.4399C62.0556 10.5255 61.8844 10.611 61.7304 10.6966C61.6791 10.7308 61.6277 10.748 61.5764 10.7822C61.4566 10.8506 61.3368 10.902 61.217 10.9704C61.1485 11.0047 61.0972 11.0389 61.0287 11.0731C60.9089 11.1416 60.8062 11.1929 60.6864 11.2614C60.618 11.2956 60.5666 11.3298 60.4982 11.3641C60.3784 11.4325 60.2414 11.501 60.1216 11.5694C60.0703 11.6037 60.0018 11.6379 59.9505 11.6721C59.7622 11.7748 59.574 11.8775 59.3857 11.9973C55.2953 14.3591 50.1096 17.6965 46.0192 21.2221C45.831 21.3932 45.6256 21.5644 45.4373 21.7184C45.3689 21.7868 45.3004 21.8382 45.232 21.9067C45.1122 22.0093 44.9924 22.112 44.8897 22.2147C44.8041 22.2832 44.7356 22.3516 44.6672 22.4201C44.5645 22.5057 44.4618 22.6083 44.3762 22.6939C44.3078 22.7624 44.2393 22.8308 44.1537 22.8993C44.0682 22.9849 43.9655 23.0704 43.8799 23.156L43.8628 23.1731L43.7601 23.2758C43.6403 23.3956 43.5205 23.5154 43.4178 23.6352C43.3665 23.6866 43.3151 23.755 43.2638 23.8064C43.1782 23.9091 43.0755 23.9946 42.99 24.0973C42.9386 24.1658 42.8701 24.2171 42.8188 24.2856C42.7332 24.3711 42.6477 24.4567 42.5792 24.5594C42.5279 24.6279 42.4594 24.6792 42.4081 24.7477C42.3567 24.799 42.3054 24.8504 42.2711 24.9188C42.254 24.9359 42.2369 24.9702 42.2027 24.9873C42.0829 25.1242 41.9631 25.2611 41.8604 25.398C41.8262 25.4323 41.7919 25.4836 41.7577 25.5178C41.6037 25.689 41.4668 25.8772 41.3298 26.0484L41.3127 26.0655C41.2956 26.0826 41.2956 26.0997 41.2785 26.0997C41.0389 26.4078 40.8164 26.6987 40.611 27.0068C40.611 27.0239 40.5939 27.0239 40.5939 27.041C40.5768 27.0581 40.5597 27.0753 40.5597 27.1095C40.3714 27.3833 40.1832 27.6571 40.012 27.931L39.9949 27.9481C39.9778 27.9652 39.9778 27.9823 39.9607 27.9994C39.7895 28.2733 39.6184 28.5471 39.4643 28.8209C39.4301 28.8723 39.413 28.9065 39.3788 28.9579C39.2761 29.1119 39.1905 29.283 39.1049 29.4371C39.0023 29.6253 38.8996 29.7965 38.7969 29.9847C38.6942 30.173 38.5915 30.3441 38.4888 30.5324C38.3861 30.7207 38.2834 30.8918 38.1979 31.0801C38.1808 31.0972 38.1808 31.1314 38.1636 31.1485C38.0438 31.3881 37.9069 31.6277 37.7871 31.8673C37.7358 31.9529 37.6844 32.0556 37.6502 32.1412L37.1368 33.168C37.1368 33.168 37.1368 33.1852 37.1197 33.1852C37.0854 33.2536 37.0683 33.305 37.0341 33.3734C36.8972 33.6472 36.7602 33.9382 36.6404 34.212L36.4864 34.5714C36.418 34.7426 36.3324 34.8966 36.2639 35.0678C36.2468 35.1191 36.2126 35.1876 36.1955 35.2389C36.1441 35.3587 36.0928 35.4956 36.0414 35.6154C35.9559 35.8208 35.8703 36.0433 35.7847 36.2487C35.7334 36.3856 35.682 36.5054 35.6307 36.6423L35.528 36.899C35.4767 37.0188 35.4424 37.1386 35.3911 37.2755C35.3397 37.4124 35.2884 37.5322 35.2542 37.6692C35.1686 37.8917 35.1001 38.1141 35.0146 38.3366C34.9803 38.4564 34.929 38.5591 34.8948 38.6789C34.8776 38.7132 34.8776 38.7303 34.8605 38.7645L34.6552 39.432C34.6209 39.5175 34.5867 39.6202 34.5696 39.7058C34.4669 40.031 34.3642 40.3733 34.2786 40.6984V40.7156C34.2102 40.938 34.1588 41.1605 34.1075 41.383L34.0048 41.7938C33.9363 42.0505 33.885 42.2901 33.8337 42.5468C33.8165 42.6495 33.7823 42.7522 33.7652 42.8378C33.6796 43.2485 33.5941 43.6422 33.5256 44.0529C33.5085 44.1727 33.4914 44.2925 33.4571 44.4294C33.4058 44.7204 33.3716 44.9942 33.3202 45.2851C33.3031 45.3536 33.3031 45.4221 33.286 45.5076C33.2689 45.6788 33.2518 45.8328 33.2346 46.004C32.841 49.5124 33.1662 52.6615 34.1759 55.1603C36.2468 60.2262 39.1563 64.6075 41.809 69.0915C41.9117 69.2456 42.0315 69.3825 42.1856 69.468L44.7185 70.9399C44.5645 70.8543 44.4447 70.7345 44.342 70.5634C41.6892 66.0794 38.7798 61.698 36.7089 56.6321C35.682 54.1334 35.3569 50.9843 35.7676 47.4758C35.8018 47.2362 35.8189 47.0137 35.8532 46.7741C35.8874 46.4832 35.9387 46.2093 35.9901 45.9184C36.0072 45.7986 36.0243 45.6788 36.0586 45.5419C36.127 45.1311 36.2126 44.7375 36.2982 44.3267C36.3153 44.224 36.3495 44.1214 36.3666 44.0187C36.418 43.762 36.4864 43.5224 36.5378 43.2656L36.6404 42.8549C36.6918 42.6324 36.7602 42.4099 36.8116 42.2045C36.8972 41.8622 36.9999 41.5371 37.1025 41.1948C37.1368 41.1092 37.171 41.0065 37.1881 40.9209C37.2737 40.6813 37.3421 40.4246 37.4277 40.185C37.4619 40.0652 37.5133 39.9625 37.5475 39.8427C37.616 39.6202 37.7016 39.3977 37.7871 39.1753C37.8385 39.0383 37.8898 38.9185 37.924 38.7816C38.0096 38.5762 38.0781 38.3709 38.1636 38.1484C38.215 38.0115 38.2663 37.8917 38.3177 37.7547C38.4032 37.5494 38.4888 37.3269 38.5744 37.1215C38.6257 37.0017 38.6771 36.8648 38.7284 36.745C38.8311 36.5225 38.9167 36.3 39.0194 36.0775L39.1734 35.7181C39.2932 35.4443 39.4301 35.1533 39.567 34.8795C39.6013 34.811 39.6184 34.7597 39.6526 34.6912C39.8238 34.3489 39.9949 33.9895 40.166 33.6472C40.2174 33.5617 40.2687 33.459 40.303 33.3734C40.4399 33.1167 40.5768 32.86 40.7137 32.5861C40.8164 32.3979 40.9191 32.2267 41.0047 32.0385C41.1073 31.8502 41.21 31.6791 41.3127 31.4908C41.4154 31.3025 41.5181 31.1314 41.6208 30.9431L41.9802 30.327C42.1342 30.0532 42.3054 29.7794 42.4765 29.5055C42.4936 29.4713 42.5107 29.4542 42.5279 29.4199C42.699 29.1461 42.8873 28.8723 43.0755 28.5813C43.0926 28.5471 43.1098 28.5129 43.144 28.4958C43.3665 28.1877 43.589 27.8796 43.8114 27.5887C43.8286 27.5716 43.8457 27.5545 43.8628 27.5202C43.9997 27.3491 44.1366 27.1608 44.2907 26.9897C44.3249 26.9554 44.3591 26.9041 44.3933 26.8699C44.5132 26.733 44.6158 26.596 44.7356 26.4591C44.8041 26.3736 44.8726 26.3051 44.941 26.2195C44.9924 26.1511 45.0608 26.0997 45.1122 26.0313C45.1977 25.9457 45.2662 25.8601 45.3518 25.7574C45.4031 25.689 45.4716 25.6376 45.5229 25.5692C45.6085 25.4665 45.7112 25.3809 45.7967 25.2782C45.8481 25.2269 45.8994 25.1584 45.9679 25.1071C46.0706 24.9873 46.1904 24.8846 46.3102 24.7648L46.43 24.645C46.5156 24.5594 46.6182 24.4738 46.7038 24.3711C46.7723 24.3027 46.8407 24.2342 46.9263 24.1658C47.029 24.0802 47.1146 23.9775 47.2173 23.8919C47.2857 23.8235 47.3713 23.755 47.4397 23.6866C47.5424 23.5839 47.6451 23.4983 47.7649 23.3956C47.8334 23.3272 47.919 23.2587 47.9874 23.1902C48.1757 23.0191 48.3639 22.8651 48.5522 22.6939C52.6426 19.1683 57.8283 15.831 61.9187 13.4692C62.1069 13.3665 62.2952 13.2467 62.4834 13.144C62.5348 13.1098 62.6032 13.0755 62.6546 13.0413C62.7744 12.9728 62.9113 12.9044 63.0311 12.8359C63.0996 12.8017 63.168 12.7675 63.2194 12.7332C63.3392 12.6648 63.4419 12.6134 63.5617 12.545C63.6301 12.5108 63.6815 12.4765 63.7499 12.4423L64.1093 12.2369C64.1607 12.2027 64.212 12.1856 64.2462 12.1513C64.4174 12.0658 64.5714 11.9802 64.7426 11.8946C64.7597 11.8946 64.7597 11.8775 64.7768 11.8775C64.9308 11.7919 65.0677 11.7235 65.2047 11.655C65.256 11.6208 65.3074 11.6037 65.3587 11.5866C65.4614 11.5352 65.5641 11.4839 65.6496 11.4325C65.701 11.3983 65.7523 11.3812 65.8037 11.347C65.8892 11.2956 65.9919 11.2614 66.0775 11.21C66.1288 11.1929 66.1802 11.1587 66.2144 11.1416C66.3171 11.0902 66.4027 11.056 66.4883 11.0047L66.5909 10.9533C66.7107 10.8849 66.8305 10.8335 66.9503 10.7822C66.9675 10.7822 66.9846 10.7651 66.9846 10.7651C67.0873 10.7137 67.1728 10.6795 67.2755 10.6281L67.3782 10.5768C67.4467 10.5426 67.5151 10.5083 67.5836 10.4912L67.6863 10.4399C67.7547 10.4057 67.8061 10.3885 67.8574 10.3714C67.8916 10.3543 67.9088 10.3543 67.943 10.3372C68.0115 10.303 68.097 10.2687 68.1484 10.2516H68.1655C68.2339 10.2345 68.2853 10.2003 68.3366 10.1832C68.3537 10.1832 68.3709 10.1661 68.388 10.1661L68.542 10.1147C68.7474 9.8751 68.9699 9.65262 69.1752 9.41302C69.2266 9.34456 69.295 9.29321 69.3464 9.22475C69.5175 9.03649 69.7058 8.84823 69.8769 8.67709L69.9967 8.55728C70.2363 8.31768 70.4931 8.07808 70.7327 7.85559C70.784 7.80424 70.8354 7.7529 70.8867 7.71867C71.1263 7.49618 71.383 7.27369 71.6226 7.06832C71.6569 7.03409 71.6911 7.01697 71.7082 6.98274C71.9478 6.77737 72.1703 6.58911 72.4099 6.40085C72.4441 6.36662 72.4955 6.33239 72.5297 6.29816C72.7693 6.1099 73.026 5.92164 73.2656 5.73338C73.317 5.69915 73.3683 5.66492 73.4197 5.61358C73.6764 5.42532 73.916 5.25417 74.1556 5.08303C74.1727 5.06591 74.1898 5.06591 74.2069 5.0488C74.4465 4.87765 74.6861 4.72362 74.9086 4.56959C74.96 4.53536 74.9942 4.51825 75.0455 4.48402C75.2851 4.32999 75.5248 4.17596 75.7472 4.03904C75.7986 4.00481 75.8328 3.9877 75.8842 3.95347C76.1238 3.81655 76.3634 3.66252 76.5858 3.5256C78.0577 2.66987 79.4098 2.05375 80.4709 1.60877C80.4709 1.60877 80.488 1.60877 80.488 1.59166C80.5393 1.57454 80.5907 1.55743 80.6591 1.54031C80.6933 1.5232 80.7276 1.5232 80.7618 1.50608C80.7789 1.50608 80.796 1.50608 80.8131 1.48897C80.8987 1.47185 80.9843 1.45474 81.0528 1.45474H81.087C81.1726 1.45474 81.241 1.47185 81.3095 1.48897H81.3266C81.395 1.50608 81.4806 1.54031 81.532 1.57454L79.0504 0.119801Z" fill="#8AEA16"/>
<path d="M87.7787 15.3346C88.7885 14.8041 89.5757 15.2833 89.5244 16.3957L89.2163 23.8234C89.1821 24.5936 88.7713 25.4836 88.1552 26.1168L84.1675 30.3954C82.3363 36.2144 78.7764 42.2216 74.2068 47.4587L73.933 54.0478C73.8817 55.2971 72.9404 56.7861 71.8279 57.4365L66.2486 60.3459C65.4271 60.7909 64.6911 60.6369 64.3489 59.9523L63.1166 57.1969C62.432 57.6418 61.7474 58.0697 61.0457 58.4633C58.6326 59.8496 56.2365 60.9278 53.8918 61.6638L53.772 64.539C53.7207 65.7884 52.7794 67.2944 51.6498 67.9448L46.1047 70.8372C45.3346 71.2479 44.6329 71.1452 44.2735 70.5804C41.6207 66.0964 38.7112 61.7151 36.6404 56.6492C35.6135 54.1505 35.2883 51.0014 35.6991 47.4929C36.3323 41.9649 38.4887 36.2315 41.9459 30.327C43.452 27.7598 45.3859 25.398 48.535 22.6939C52.6254 19.1683 57.8111 15.8309 61.9015 13.4691C65.1704 11.5865 67.7547 10.3201 68.5248 10.0976C71.1776 7.10252 74.087 4.98031 76.62 3.52557C78.0919 2.66984 79.4439 2.05372 80.505 1.60874C81.7715 1.07819 82.4561 2.19063 81.857 3.73094L79.1701 10.5768C81.8057 11.7748 83.7397 13.9141 84.7494 16.9092L87.7787 15.3346ZM76.6029 21.0338C76.6713 19.3565 75.5075 18.6548 73.9843 19.4421C73.933 19.4763 73.8817 19.4935 73.8303 19.5277C72.3756 20.3663 71.1776 22.2831 71.1262 23.8919C71.0578 25.552 72.2216 26.2708 73.7448 25.4836C73.7961 25.4493 73.8474 25.4322 73.8988 25.398C75.3364 24.5765 76.5344 22.6597 76.6029 21.0338Z" fill="#B4FF59"/>
<path d="M59.7965 19.9385C61.3368 19.0485 62.9627 18.2955 64.5544 17.8676C65.0507 17.7307 65.3416 18.1414 65.2218 18.7918C65.1191 19.3395 64.7426 19.87 64.3319 20.0925C64.2463 20.1439 64.1778 20.1781 64.0923 20.1952C62.706 20.5717 61.2341 21.2392 59.8136 22.0607C57.4176 23.447 55.1242 25.2611 53.4299 26.7158C51.7355 28.1877 50.6402 29.3001 50.6402 29.3173C50.5204 29.4371 50.4177 29.5226 50.2979 29.5911C49.9214 29.7965 49.5791 29.7451 49.4422 29.42C49.2539 28.975 49.4764 28.2219 49.9556 27.7427C49.9899 27.7085 51.1365 26.5276 52.9336 24.9702C54.7135 23.3956 57.1609 21.4617 59.7965 19.9385Z" fill="#FDFDFF"/>
<path d="M71.6909 18.073C73.197 17.2002 74.4293 17.9019 74.4293 19.6304C74.4293 21.359 73.2141 23.4641 71.7081 24.3369C70.202 25.2098 68.9697 24.5081 68.9697 22.7795C68.9697 21.0509 70.1849 18.9458 71.6909 18.073Z" fill="#8AEA16"/>
<path d="M74.96 19.425C74.9942 19.4079 75.0456 19.4079 75.0798 19.3907C75.114 19.3736 75.1482 19.3736 75.1996 19.3736C75.2509 19.3565 75.3023 19.3565 75.3365 19.3565H75.6275C75.6959 19.3565 75.7644 19.3736 75.8328 19.3736C75.8499 19.3736 75.8671 19.3736 75.8842 19.3907L76.0382 19.4421C76.0553 19.4421 76.0724 19.4592 76.0896 19.4592C76.158 19.4763 76.2094 19.5105 76.2607 19.5448L74.4123 18.4666H74.3952C74.3439 18.4494 74.3096 18.4152 74.2583 18.3981C74.2412 18.3981 74.2412 18.3981 74.2241 18.381C74.2069 18.381 74.1898 18.3639 74.1727 18.3639C74.1556 18.3639 74.1214 18.3468 74.1043 18.3468C74.0871 18.3468 74.0529 18.3296 74.0187 18.3296C74.0016 18.3296 73.9845 18.3296 73.9673 18.3125H73.9331C73.8818 18.2954 73.8304 18.2954 73.762 18.2954H73.3683C73.3512 18.2954 73.317 18.3125 73.2999 18.3125C73.2656 18.3125 73.2314 18.3296 73.1801 18.3296C73.163 18.3296 73.1458 18.3296 73.1116 18.3468C73.0945 18.3468 73.0774 18.3639 73.0432 18.3639C72.9747 18.381 72.9234 18.3981 72.8549 18.4323C72.8378 18.4494 72.8035 18.4494 72.7864 18.4494C72.7693 18.4494 72.7522 18.4666 72.7522 18.4666C72.6324 18.5179 72.5297 18.5692 72.4099 18.6377C72.3243 18.689 72.2388 18.7404 72.1532 18.8088C72.119 18.826 72.1019 18.8431 72.0676 18.8773C72.0163 18.9115 71.9478 18.9629 71.8965 19.0142C71.8623 19.0313 71.828 19.0656 71.8109 19.0998C71.7596 19.1511 71.7082 19.1854 71.6569 19.2367C71.6226 19.2709 71.5884 19.2881 71.5713 19.3223L71.52 19.3736C71.5028 19.3907 71.4857 19.4079 71.4686 19.4421L71.2804 19.6303C71.2632 19.6475 71.2461 19.6646 71.229 19.6988L71.1777 19.7501C71.1434 19.7844 71.1092 19.8357 71.075 19.8871C71.0579 19.9213 71.0236 19.9384 71.0065 19.9726C70.9894 19.9898 70.9723 20.024 70.9552 20.0411C70.9381 20.0753 70.9038 20.1096 70.8867 20.1438C70.8696 20.1609 70.8525 20.1951 70.8354 20.2122C70.8011 20.2465 70.784 20.2978 70.7498 20.332C70.7327 20.3663 70.7156 20.3834 70.6985 20.4176C70.6985 20.4347 70.6813 20.4347 70.6813 20.4518C70.63 20.5203 70.5787 20.6059 70.5444 20.6914C70.5444 20.6914 70.5444 20.7086 70.5273 20.7086C70.5102 20.7257 70.5102 20.7428 70.4931 20.7599C70.4589 20.8113 70.4246 20.8626 70.4075 20.9311C70.3904 20.9653 70.3733 20.9824 70.3733 21.0166C70.3562 21.0509 70.3391 21.068 70.3391 21.1022C70.3219 21.1193 70.3219 21.1535 70.3048 21.1707C70.2706 21.2391 70.2535 21.2905 70.2192 21.3589C70.2192 21.376 70.2021 21.376 70.2021 21.3931V21.4103C70.1679 21.4958 70.1337 21.5814 70.0995 21.6499C70.0995 21.667 70.0823 21.6841 70.0823 21.7012C70.0652 21.7354 70.0652 21.7697 70.0481 21.7868C70.031 21.821 70.0139 21.8724 69.9968 21.9066C69.9796 21.9408 69.9796 21.975 69.9625 22.0093C69.9454 22.0435 69.9454 22.0777 69.9283 22.1291C69.9283 22.1462 69.9112 22.1804 69.9112 22.1975C69.8941 22.2318 69.8941 22.2831 69.877 22.3173C69.8598 22.3687 69.8599 22.4029 69.8427 22.4542C69.8427 22.4714 69.8427 22.4885 69.8256 22.5056C69.8256 22.5398 69.8085 22.574 69.8085 22.6083C69.7914 22.6767 69.7743 22.7452 69.7743 22.8308C69.7743 22.8479 69.7743 22.865 69.7572 22.8992C69.7572 22.9506 69.74 22.9848 69.74 23.0361C69.74 23.0704 69.74 23.1046 69.7229 23.1388C69.7229 23.2415 69.7058 23.3442 69.7058 23.4469C69.7058 24.3026 70.0139 24.9187 70.5102 25.1926L72.3586 26.2708C71.8622 25.9799 71.5713 25.3808 71.5542 24.5251C71.5542 24.4224 71.5542 24.3197 71.5713 24.2171C71.5713 24.1828 71.5713 24.1486 71.5884 24.1144C71.5884 24.0459 71.6055 23.9774 71.6055 23.9261C71.6226 23.8576 71.6227 23.7892 71.6398 23.7036C71.6569 23.6523 71.6569 23.6009 71.674 23.5496C71.6911 23.4982 71.6911 23.464 71.7082 23.4127C71.7253 23.3442 71.7424 23.2757 71.7596 23.2244C71.7767 23.1902 71.7767 23.1559 71.7938 23.1046C71.8109 23.0361 71.8451 22.9506 71.8623 22.8821C71.8794 22.8479 71.8794 22.8137 71.8965 22.7965C71.9307 22.6939 71.982 22.5912 72.0163 22.5056C72.0163 22.4885 72.0334 22.4885 72.0334 22.4714C72.0676 22.3858 72.119 22.3002 72.1532 22.2146C72.1703 22.1804 72.1874 22.1633 72.1874 22.1291C72.2217 22.0435 72.273 21.9579 72.3243 21.8895C72.3415 21.8724 72.3415 21.8552 72.3586 21.8381C72.4099 21.7354 72.4784 21.6499 72.5297 21.5643C72.5468 21.5301 72.564 21.5129 72.5811 21.4787C72.6324 21.4103 72.6666 21.3418 72.718 21.2905C72.7351 21.2562 72.7693 21.222 72.7864 21.1878C72.8207 21.1364 72.872 21.0851 72.9062 21.0337C72.9405 20.9824 72.9747 20.9482 73.0089 20.8968C73.0432 20.8626 73.0774 20.8113 73.1116 20.777C73.163 20.7086 73.2314 20.6401 73.2999 20.5888C73.3341 20.5545 73.3683 20.5032 73.4197 20.469C73.4539 20.4347 73.4881 20.4176 73.5052 20.3834C73.5566 20.332 73.6079 20.2978 73.6593 20.2465C73.6935 20.2122 73.7277 20.1951 73.7449 20.1609C73.7962 20.1096 73.8647 20.0753 73.916 20.024C73.9502 20.0069 73.9673 19.9897 74.0016 19.9555C74.0871 19.9042 74.1727 19.8357 74.2583 19.7844C74.3781 19.7159 74.4808 19.6646 74.6006 19.6132L74.7033 19.5619C74.8231 19.4763 74.8915 19.4421 74.96 19.425Z" fill="#ACC5EA"/>
<path d="M74.3096 19.7161C75.8157 18.8432 77.0479 19.5449 77.0479 21.2735C77.0479 23.0021 75.8328 25.1072 74.3267 25.98C72.8206 26.8528 71.5884 26.1511 71.5884 24.4226C71.5884 22.694 72.8035 20.5889 74.3096 19.7161Z" fill="#FDFDFF"/>
<path d="M105.253 60.6027C105.253 60.6712 105.253 60.7397 105.236 60.8081C105.236 60.8766 105.218 60.9279 105.218 60.9964C105.201 61.0648 105.201 61.1333 105.184 61.2017C105.167 61.2702 105.167 61.3216 105.15 61.39L105.099 61.5954C105.082 61.6638 105.064 61.7152 105.047 61.7836C105.03 61.8521 105.013 61.9206 104.979 61.989C104.962 62.0404 104.927 62.1088 104.91 62.1602C104.876 62.2286 104.859 62.2971 104.825 62.3655C104.791 62.4169 104.773 62.4853 104.739 62.5367L104.637 62.7421C104.602 62.7934 104.568 62.8447 104.551 62.9132C104.5 62.9988 104.448 63.0672 104.397 63.1528L104.294 63.3068C104.226 63.3924 104.174 63.478 104.106 63.5807C104.072 63.6149 104.055 63.6663 104.02 63.7005C103.918 63.8374 103.798 63.9743 103.661 64.1112L103.558 64.2139L103.25 64.522C103.199 64.5733 103.148 64.6075 103.096 64.6589C103.028 64.7102 102.959 64.7787 102.891 64.83C102.822 64.8814 102.771 64.9327 102.703 64.9841C102.634 65.0354 102.566 65.1039 102.48 65.1552L102.275 65.3092C102.206 65.3606 102.121 65.4119 102.035 65.4804C101.967 65.5317 101.898 65.5831 101.813 65.6344L101.556 65.7885C101.453 65.8569 101.351 65.9254 101.231 65.9767C101.025 66.0965 100.82 66.2163 100.597 66.319C100.529 66.3532 100.478 66.3875 100.409 66.4046C100.238 66.4902 100.067 66.5586 99.8958 66.6442C99.8444 66.6784 99.776 66.6955 99.7246 66.7298C99.5022 66.8324 99.2797 66.918 99.0401 67.0036C99.0058 67.0207 98.9545 67.0378 98.9203 67.0549C98.732 67.1234 98.5266 67.1919 98.3212 67.2603C98.2357 67.2945 98.1501 67.3117 98.0645 67.3459C97.9618 67.3801 97.842 67.4143 97.7222 67.4486C97.6195 67.4828 97.534 67.4999 97.4313 67.5341C97.3115 67.5684 97.2088 67.6026 97.089 67.6197C96.9863 67.6368 96.9007 67.6711 96.7981 67.6882C96.6783 67.7224 96.5585 67.7395 96.4558 67.7737C96.3531 67.7909 96.2675 67.8251 96.1648 67.8422C96.045 67.8593 95.9252 67.8935 95.8054 67.9107C95.7198 67.9278 95.6171 67.9449 95.5316 67.962C95.2749 68.0133 95.0181 68.0476 94.7614 68.0818C94.7272 68.0818 94.693 68.0989 94.6416 68.0989C94.4191 68.1331 94.1966 68.1503 93.957 68.1845C93.8715 68.2016 93.7859 68.2016 93.7003 68.2187C93.5463 68.2358 93.4094 68.253 93.2553 68.253C93.1698 68.253 93.0671 68.2701 92.9815 68.2701C92.8275 68.2872 92.6734 68.2872 92.5194 68.2872C92.4338 68.2872 92.3483 68.2872 92.2627 68.3043H90.9106C90.7737 68.3043 90.6539 68.2872 90.517 68.2872C90.4314 68.2872 90.3287 68.2872 90.2432 68.2701C90.1062 68.2701 89.9522 68.253 89.8153 68.2358C89.7297 68.2358 89.6613 68.2187 89.5757 68.2187L89.0623 68.1674C89.0109 68.1674 88.9596 68.1503 88.9082 68.1503C88.6857 68.1332 88.4633 68.0989 88.2579 68.0647C88.2237 68.0647 88.1894 68.0476 88.1552 68.0476C87.9669 68.0133 87.7787 67.9962 87.5904 67.962C87.522 67.9449 87.4364 67.9278 87.3679 67.9278C87.231 67.8935 87.077 67.8764 86.9401 67.8422C86.8716 67.8251 86.8031 67.808 86.7176 67.7909L86.2555 67.6882C86.1699 67.6711 86.0843 67.6539 85.9988 67.6197L85.588 67.517C85.5024 67.4999 85.434 67.4657 85.3484 67.4486C85.1259 67.3801 84.9205 67.3116 84.6981 67.2432C84.6638 67.2261 84.6125 67.2261 84.5782 67.209L83.8594 66.9522C83.8081 66.9351 83.7568 66.918 83.7054 66.8838C83.3973 66.764 83.0893 66.6271 82.7983 66.4902C82.7641 66.473 82.747 66.4559 82.7128 66.4388C82.4047 66.2848 82.0966 66.1307 81.8057 65.9596C80.6248 65.275 79.7006 64.5049 79.0331 63.6662C78.4683 62.9474 78.0747 62.2115 77.8865 61.4414C77.8522 61.3216 77.8351 61.1846 77.8009 61.0648C77.7667 60.8081 77.7324 60.5514 77.7324 60.2947V63.2213C77.7324 65.275 79.0845 67.3288 81.7886 68.8862C82.0795 69.0573 82.3876 69.2114 82.6956 69.3654C82.7299 69.3825 82.747 69.3996 82.7812 69.4167C83.0722 69.5537 83.3802 69.6906 83.6883 69.8104C83.7225 69.8275 83.7396 69.8275 83.7739 69.8446C83.791 69.8617 83.8252 69.8617 83.8423 69.8617C84.0819 69.9473 84.3215 70.05 84.5611 70.1184C84.5954 70.1356 84.6467 70.1356 84.6809 70.1527C84.8863 70.2211 85.1088 70.2896 85.3313 70.358C85.3655 70.3752 85.3997 70.3752 85.434 70.3923C85.4682 70.4094 85.5196 70.4094 85.5538 70.4265L85.9645 70.5292C86.0501 70.5463 86.1357 70.5805 86.2212 70.5977L86.6833 70.7003C86.7347 70.7174 86.8031 70.7346 86.8545 70.7346C86.8716 70.7346 86.8887 70.7346 86.9058 70.7517C87.0427 70.7859 87.1968 70.803 87.3337 70.8372C87.4021 70.8544 87.4877 70.8715 87.5562 70.8715C87.7444 70.9057 87.9327 70.9399 88.121 70.9571C88.1552 70.9571 88.1894 70.9742 88.2236 70.9742C88.4461 71.0084 88.6686 71.0255 88.874 71.0597C88.9253 71.0597 88.9596 71.0597 89.0109 71.0769C89.1821 71.094 89.3532 71.1111 89.5415 71.1282H89.5586C89.6442 71.1282 89.7126 71.1453 89.7982 71.1453C89.9351 71.1624 90.072 71.1624 90.2261 71.1795C90.3116 71.1795 90.4143 71.1795 90.4999 71.1967C90.6368 71.1967 90.7566 71.2138 90.8935 71.2138H92.3311C92.3996 71.2138 92.451 71.2138 92.5194 71.1967C92.6734 71.1967 92.8275 71.1795 92.9815 71.1795C93.0671 71.1795 93.1698 71.1624 93.2553 71.1624C93.4094 71.1453 93.5463 71.1453 93.7003 71.1282C93.7517 71.1282 93.803 71.1282 93.8543 71.1111C93.8886 71.1111 93.9228 71.094 93.957 71.094C94.1795 71.0769 94.4191 71.0426 94.6416 71.0084C94.6758 71.0084 94.7101 70.9913 94.7443 70.9913C95.001 70.9571 95.2577 70.9057 95.5145 70.8715C95.5316 70.8715 95.5658 70.8715 95.5829 70.8544C95.6514 70.8373 95.7198 70.8201 95.7883 70.8201C95.9081 70.803 96.0279 70.7688 96.1477 70.7517C96.2504 70.7346 96.336 70.7175 96.4386 70.6832C96.5584 70.649 96.6783 70.6319 96.7981 70.5977C96.9007 70.5805 96.9863 70.5463 97.089 70.5292C97.2088 70.495 97.3115 70.4778 97.4313 70.4436C97.534 70.4094 97.6195 70.3923 97.7222 70.358C97.842 70.3238 97.9447 70.2896 98.0474 70.2554L98.2014 70.204C98.2357 70.1869 98.2699 70.1869 98.3041 70.1698C98.5095 70.1013 98.6978 70.0329 98.9031 69.9644C98.9374 69.9473 98.9887 69.9302 99.0229 69.9131C99.2626 69.8275 99.485 69.7248 99.7075 69.6392C99.7589 69.6221 99.8273 69.5879 99.8787 69.5537C100.05 69.4681 100.221 69.3996 100.392 69.3141C100.461 69.2798 100.512 69.2456 100.58 69.2285C100.803 69.1258 101.008 69.006 101.214 68.8862C101.265 68.852 101.333 68.8177 101.385 68.7835L101.539 68.6808L101.795 68.5268C101.864 68.4754 101.95 68.4241 102.018 68.3728C102.104 68.3214 102.172 68.2701 102.258 68.2016L102.463 68.0476C102.531 67.9962 102.6 67.9278 102.685 67.8764C102.754 67.8251 102.805 67.7737 102.874 67.7224C102.942 67.6711 103.011 67.6026 103.079 67.5513C103.113 67.5341 103.13 67.4999 103.165 67.4828L103.233 67.4143L103.541 67.1063L103.644 67.0036L104.003 66.5928L104.02 66.5757C104.038 66.5415 104.072 66.5073 104.089 66.473C104.157 66.3875 104.226 66.3019 104.277 66.1992L104.38 66.0452C104.431 65.9596 104.482 65.8911 104.534 65.8056C104.551 65.7885 104.568 65.7542 104.568 65.7371L104.619 65.6344L104.722 65.429C104.756 65.3777 104.773 65.3092 104.808 65.2579C104.842 65.1894 104.876 65.121 104.893 65.0525C104.91 65.0183 104.927 64.9841 104.927 64.967C104.945 64.9327 104.945 64.9156 104.962 64.8814C104.979 64.8129 105.013 64.7445 105.03 64.676C105.047 64.6075 105.064 64.5562 105.081 64.4877L105.133 64.2824C105.133 64.2481 105.15 64.2139 105.167 64.1797C105.167 64.1626 105.167 64.1283 105.184 64.1112C105.201 64.0428 105.201 63.9743 105.218 63.9058C105.218 63.8374 105.236 63.786 105.236 63.7176C105.236 63.6491 105.253 63.5807 105.253 63.5122C105.253 63.478 105.253 63.4266 105.27 63.3924V60.346C105.27 60.4487 105.27 60.5343 105.253 60.6027Z" fill="#C68620"/>
<path d="M101.214 54.6981C106.588 57.7958 106.622 62.8446 101.282 65.9423C95.9424 69.0401 87.2482 69.0401 81.8742 65.9423C76.5003 62.8275 76.466 57.7958 81.8058 54.6981C87.1455 51.6003 95.8397 51.6003 101.214 54.6981Z" fill="#FFCD2E"/>
<path d="M105.253 56.6836C105.253 56.752 105.253 56.8205 105.236 56.8889C105.236 56.9574 105.218 57.0087 105.218 57.0772C105.201 57.1457 105.201 57.2141 105.184 57.2826C105.167 57.351 105.167 57.4024 105.15 57.4708L105.099 57.6762C105.082 57.7447 105.064 57.796 105.047 57.8645C105.03 57.9329 105.013 58.0014 104.979 58.0698C104.962 58.1212 104.927 58.1896 104.91 58.241C104.876 58.3094 104.859 58.3779 104.825 58.4464C104.791 58.4977 104.773 58.5662 104.739 58.6175L104.637 58.8229C104.602 58.8742 104.568 58.9256 104.551 58.994C104.5 59.0796 104.448 59.1481 104.397 59.2336L104.294 59.3877C104.226 59.4732 104.174 59.5588 104.106 59.6615C104.072 59.6957 104.055 59.7471 104.02 59.7813C103.918 59.9182 103.798 60.0551 103.661 60.192L103.558 60.2947L103.25 60.6028C103.199 60.6541 103.148 60.6884 103.096 60.7397C103.028 60.791 102.959 60.8595 102.891 60.9108C102.822 60.9622 102.771 61.0135 102.703 61.0649C102.634 61.1162 102.566 61.1847 102.48 61.236L102.275 61.3901C102.206 61.4414 102.121 61.4928 102.035 61.5612C101.967 61.6126 101.898 61.6639 101.813 61.7152L101.556 61.8693C101.453 61.9377 101.351 62.0062 101.231 62.0575C101.025 62.1773 100.82 62.2971 100.597 62.3998C100.529 62.434 100.478 62.4683 100.409 62.4854C100.238 62.571 100.067 62.6394 99.8958 62.725C99.8444 62.7592 99.776 62.7763 99.7246 62.8106C99.5022 62.9133 99.2797 62.9988 99.0401 63.0844C99.0058 63.1015 98.9545 63.1186 98.9203 63.1357C98.732 63.2042 98.5266 63.2727 98.3212 63.3411C98.2357 63.3753 98.1501 63.3925 98.0645 63.4267C97.9618 63.4609 97.842 63.4952 97.7222 63.5294C97.6195 63.5636 97.534 63.5807 97.4313 63.615C97.3115 63.6492 97.2088 63.6834 97.089 63.7005C96.9863 63.7176 96.9007 63.7519 96.7981 63.769C96.6783 63.8032 96.5585 63.8203 96.4558 63.8546C96.3531 63.8717 96.2675 63.9059 96.1648 63.923C96.045 63.9401 95.9252 63.9744 95.8054 63.9915C95.7198 64.0086 95.6171 64.0257 95.5316 64.0428C95.2749 64.0942 95.0181 64.1284 94.7614 64.1626C94.7272 64.1626 94.693 64.1797 94.6416 64.1797C94.4191 64.214 94.1966 64.2311 93.957 64.2653C93.8715 64.2824 93.7859 64.2824 93.7003 64.2995C93.5463 64.3167 93.4094 64.3338 93.2553 64.3338C93.1698 64.3338 93.0671 64.3509 92.9815 64.3509C92.8275 64.368 92.6734 64.368 92.5194 64.368C92.4338 64.368 92.3483 64.368 92.2627 64.3851H90.9106C90.7737 64.3851 90.6539 64.368 90.517 64.368C90.4314 64.368 90.3287 64.368 90.2432 64.3509C90.1062 64.3509 89.9522 64.3338 89.8153 64.3167C89.7297 64.3167 89.6613 64.2995 89.5757 64.2995L89.0623 64.2482C89.0109 64.2482 88.9596 64.2311 88.9082 64.2311C88.6857 64.214 88.4633 64.1797 88.2579 64.1455C88.2237 64.1455 88.1894 64.1284 88.1552 64.1284C87.9669 64.0942 87.7787 64.0771 87.5904 64.0428C87.522 64.0257 87.4364 64.0086 87.3679 64.0086C87.231 63.9744 87.077 63.9572 86.9401 63.923C86.8716 63.9059 86.8031 63.8888 86.7176 63.8717L86.2555 63.769C86.1699 63.7519 86.0843 63.7348 85.9988 63.7005L85.588 63.5978C85.5024 63.5807 85.434 63.5465 85.3484 63.5294C85.1259 63.4609 84.9205 63.3925 84.6981 63.324C84.6638 63.3069 84.6125 63.3069 84.5782 63.2898L83.8594 63.0331C83.8081 63.0159 83.7568 62.9988 83.7054 62.9646C83.3973 62.8448 83.0893 62.7079 82.7983 62.571C82.7641 62.5538 82.747 62.5367 82.7128 62.5196C82.4047 62.3656 82.0966 62.2116 81.8057 62.0404C80.6248 61.3558 79.7006 60.5857 79.0331 59.7471C78.4683 59.0282 78.0747 58.2923 77.8865 57.5222C77.8522 57.4024 77.8351 57.2654 77.8009 57.1456C77.7667 56.8889 77.7324 56.6322 77.7324 56.3755V59.3021C77.7324 61.3558 79.0845 63.4096 81.7886 64.967C82.0795 65.1382 82.3876 65.2922 82.6956 65.4462C82.7299 65.4633 82.747 65.4804 82.7812 65.4976C83.0722 65.6345 83.3802 65.7714 83.6883 65.8912C83.7225 65.9083 83.7396 65.9083 83.7739 65.9254C83.791 65.9425 83.8252 65.9425 83.8423 65.9425C84.0819 66.0281 84.3215 66.1308 84.5611 66.1993C84.5954 66.2164 84.6467 66.2164 84.6809 66.2335C84.8863 66.3019 85.1088 66.3704 85.3313 66.4389C85.3655 66.456 85.3997 66.456 85.434 66.4731C85.4682 66.4902 85.5196 66.4902 85.5538 66.5073L85.9645 66.61C86.0501 66.6271 86.1357 66.6613 86.2212 66.6785L86.6833 66.7812C86.7347 66.7983 86.8031 66.8154 86.8545 66.8154C86.8716 66.8154 86.8887 66.8154 86.9058 66.8325C87.0427 66.8667 87.1968 66.8838 87.3337 66.9181C87.4021 66.9352 87.4877 66.9523 87.5562 66.9523C87.7444 66.9865 87.9327 67.0208 88.121 67.0379C88.1552 67.0379 88.1894 67.055 88.2236 67.055C88.4461 67.0892 88.6686 67.1063 88.874 67.1406C88.9253 67.1406 88.9596 67.1406 89.0109 67.1577C89.1821 67.1748 89.3532 67.1919 89.5415 67.209H89.5586C89.6442 67.209 89.7126 67.2261 89.7982 67.2261C89.9351 67.2432 90.072 67.2432 90.2261 67.2604C90.3116 67.2604 90.4143 67.2604 90.4999 67.2775C90.6368 67.2775 90.7566 67.2946 90.8935 67.2946H92.3311C92.3996 67.2946 92.451 67.2946 92.5194 67.2775C92.6734 67.2775 92.8275 67.2604 92.9815 67.2604C93.0671 67.2604 93.1698 67.2432 93.2553 67.2432C93.4094 67.2261 93.5463 67.2261 93.7003 67.209C93.7517 67.209 93.803 67.209 93.8543 67.1919C93.8886 67.1919 93.9228 67.1748 93.957 67.1748C94.1795 67.1577 94.4191 67.1234 94.6416 67.0892C94.6758 67.0892 94.7101 67.0721 94.7443 67.0721C95.001 67.0379 95.2577 66.9865 95.5145 66.9523C95.5316 66.9523 95.5658 66.9523 95.5829 66.9352C95.6514 66.9181 95.7198 66.9009 95.7883 66.9009C95.9081 66.8838 96.0279 66.8496 96.1477 66.8325C96.2504 66.8154 96.336 66.7983 96.4386 66.764C96.5584 66.7298 96.6783 66.7127 96.7981 66.6785C96.9007 66.6613 96.9863 66.6271 97.089 66.61C97.2088 66.5758 97.3115 66.5587 97.4313 66.5244C97.534 66.4902 97.6195 66.4731 97.7222 66.4389C97.842 66.4046 97.9447 66.3704 98.0474 66.3362L98.2014 66.2848C98.2357 66.2677 98.2699 66.2677 98.3041 66.2506C98.5095 66.1821 98.6978 66.1137 98.9031 66.0452C98.9374 66.0281 98.9887 66.011 99.0229 65.9939C99.2626 65.9083 99.485 65.8056 99.7075 65.72C99.7589 65.7029 99.8273 65.6687 99.8787 65.6345C100.05 65.5489 100.221 65.4804 100.392 65.3949C100.461 65.3606 100.512 65.3264 100.58 65.3093C100.803 65.2066 101.008 65.0868 101.214 64.967C101.265 64.9328 101.333 64.8986 101.385 64.8643L101.539 64.7616L101.795 64.6076C101.864 64.5563 101.95 64.5049 102.018 64.4536C102.104 64.4022 102.172 64.3509 102.258 64.2824L102.463 64.1284C102.531 64.0771 102.6 64.0086 102.685 63.9573C102.754 63.9059 102.805 63.8546 102.874 63.8032C102.942 63.7519 103.011 63.6834 103.079 63.6321C103.113 63.615 103.13 63.5807 103.165 63.5636L103.233 63.4952L103.541 63.1871L103.644 63.0844L104.003 62.6737L104.02 62.6565C104.038 62.6223 104.072 62.5881 104.089 62.5539C104.157 62.4683 104.226 62.3827 104.277 62.28L104.38 62.126C104.431 62.0404 104.482 61.972 104.534 61.8864C104.551 61.8693 104.568 61.835 104.568 61.8179L104.619 61.7152L104.722 61.5099C104.756 61.4585 104.773 61.3901 104.808 61.3387C104.842 61.2703 104.876 61.2018 104.893 61.1333C104.91 61.0991 104.927 61.0649 104.927 61.0478C104.945 61.0135 104.945 60.9964 104.962 60.9622C104.979 60.8937 105.013 60.8253 105.03 60.7568C105.047 60.6884 105.064 60.637 105.081 60.5686L105.133 60.3632C105.133 60.329 105.15 60.2947 105.167 60.2605C105.167 60.2434 105.167 60.2092 105.184 60.192C105.201 60.1236 105.201 60.0551 105.218 59.9867C105.218 59.9182 105.236 59.8669 105.236 59.7984C105.236 59.7299 105.253 59.6615 105.253 59.593C105.253 59.5588 105.253 59.5075 105.27 59.4732V56.4268C105.27 56.5295 105.27 56.598 105.253 56.6836Z" fill="#C68620"/>
<path d="M101.214 50.7789C106.588 53.8766 106.622 58.9254 101.282 62.0231C95.9424 65.1209 87.2482 65.1209 81.8742 62.0231C76.5003 58.9083 76.466 53.8766 81.8058 50.7789C87.1455 47.6811 95.8397 47.6811 101.214 50.7789Z" fill="#FFCD2E"/>
<path d="M105.253 52.4389C105.253 52.5074 105.253 52.5758 105.236 52.6443C105.236 52.7128 105.218 52.7641 105.218 52.8326C105.201 52.901 105.201 52.9695 105.184 53.0379C105.167 53.1064 105.167 53.1577 105.15 53.2262L105.099 53.4316C105.082 53.5 105.064 53.5514 105.047 53.6198C105.03 53.6883 105.013 53.7567 104.979 53.8252C104.962 53.8765 104.927 53.945 104.91 53.9964C104.876 54.0648 104.859 54.1333 104.825 54.2017C104.791 54.2531 104.773 54.3215 104.739 54.3729L104.637 54.5782C104.602 54.6296 104.568 54.6809 104.551 54.7494C104.5 54.835 104.448 54.9034 104.397 54.989L104.294 55.143C104.226 55.2286 104.174 55.3142 104.106 55.4169C104.072 55.4511 104.055 55.5024 104.02 55.5367C103.918 55.6736 103.798 55.8105 103.661 55.9474L103.558 56.0501L103.25 56.3582C103.199 56.4095 103.148 56.4437 103.096 56.4951C103.028 56.5464 102.959 56.6149 102.891 56.6662C102.822 56.7176 102.771 56.7689 102.703 56.8203C102.634 56.8716 102.566 56.9401 102.48 56.9914L102.275 57.1454C102.206 57.1968 102.121 57.2481 102.035 57.3166C101.967 57.3679 101.898 57.4193 101.813 57.4706L101.556 57.6246C101.453 57.6931 101.351 57.7616 101.231 57.8129C101.025 57.9327 100.82 58.0525 100.597 58.1552C100.529 58.1894 100.478 58.2236 100.409 58.2408C100.238 58.3263 100.067 58.3948 99.8958 58.4804C99.8444 58.5146 99.776 58.5317 99.7246 58.5659C99.5022 58.6686 99.2797 58.7542 99.0401 58.8398C99.0058 58.8569 98.9545 58.874 98.9203 58.8911C98.732 58.9596 98.5266 59.028 98.3212 59.0965C98.2357 59.1307 98.1501 59.1478 98.0645 59.1821C97.9618 59.2163 97.842 59.2505 97.7222 59.2847C97.6195 59.319 97.534 59.3361 97.4313 59.3703C97.3115 59.4045 97.2088 59.4388 97.089 59.4559C96.9863 59.473 96.9007 59.5072 96.7981 59.5244C96.6783 59.5586 96.5585 59.5757 96.4558 59.6099C96.3531 59.627 96.2675 59.6613 96.1648 59.6784C96.045 59.6955 95.9252 59.7297 95.8054 59.7468C95.7198 59.764 95.6171 59.7811 95.5316 59.7982C95.2749 59.8495 95.0181 59.8838 94.7614 59.918C94.7272 59.918 94.693 59.9351 94.6416 59.9351C94.4191 59.9693 94.1966 59.9865 93.957 60.0207C93.8715 60.0378 93.7859 60.0378 93.7003 60.0549C93.5463 60.072 93.4094 60.0891 93.2553 60.0891C93.1698 60.0891 93.0671 60.1063 92.9815 60.1063C92.8275 60.1234 92.6734 60.1234 92.5194 60.1234C92.4338 60.1234 92.3483 60.1234 92.2627 60.1405H90.9106C90.7737 60.1405 90.6539 60.1234 90.517 60.1234C90.4314 60.1234 90.3287 60.1234 90.2432 60.1063C90.1062 60.1063 89.9522 60.0891 89.8153 60.072C89.7297 60.072 89.6613 60.0549 89.5757 60.0549L89.0623 60.0036C89.0109 60.0036 88.9596 59.9865 88.9082 59.9865C88.6857 59.9693 88.4633 59.9351 88.2579 59.9009C88.2237 59.9009 88.1894 59.8838 88.1552 59.8838C87.9669 59.8495 87.7787 59.8324 87.5904 59.7982C87.522 59.7811 87.4364 59.764 87.3679 59.764C87.231 59.7297 87.077 59.7126 86.9401 59.6784C86.8716 59.6613 86.8031 59.6442 86.7176 59.627L86.2555 59.5244C86.1699 59.5072 86.0843 59.4901 85.9988 59.4559L85.588 59.3532C85.5024 59.3361 85.434 59.3019 85.3484 59.2847C85.1259 59.2163 84.9205 59.1478 84.6981 59.0794C84.6638 59.0623 84.6125 59.0623 84.5782 59.0451L83.8594 58.7884C83.8081 58.7713 83.7568 58.7542 83.7054 58.72C83.3973 58.6002 83.0893 58.4633 82.7983 58.3263C82.7641 58.3092 82.747 58.2921 82.7128 58.275C82.4047 58.121 82.0966 57.9669 81.8057 57.7958C80.6248 57.1112 79.7006 56.341 79.0331 55.5024C78.4683 54.7836 78.0747 54.0477 77.8865 53.2775C77.8522 53.1577 77.8351 53.0208 77.8009 52.901C77.7667 52.6443 77.7324 52.3876 77.7324 52.1309V55.0575C77.7324 57.1112 79.0845 59.1649 81.7886 60.7224C82.0795 60.8935 82.3876 61.0476 82.6956 61.2016C82.7299 61.2187 82.747 61.2358 82.7812 61.2529C83.0722 61.3898 83.3802 61.5268 83.6883 61.6466C83.7225 61.6637 83.7396 61.6637 83.7739 61.6808C83.791 61.6979 83.8252 61.6979 83.8423 61.6979C84.0819 61.7835 84.3215 61.8862 84.5611 61.9546C84.5954 61.9717 84.6467 61.9717 84.6809 61.9889C84.8863 62.0573 85.1088 62.1258 85.3313 62.1942C85.3655 62.2113 85.3997 62.2113 85.434 62.2285C85.4682 62.2456 85.5196 62.2456 85.5538 62.2627L85.9645 62.3654C86.0501 62.3825 86.1357 62.4167 86.2212 62.4338L86.6833 62.5365C86.7347 62.5536 86.8031 62.5707 86.8545 62.5707C86.8716 62.5707 86.8887 62.5708 86.9058 62.5879C87.0427 62.6221 87.1968 62.6392 87.3337 62.6734C87.4021 62.6906 87.4877 62.7077 87.5562 62.7077C87.7444 62.7419 87.9327 62.7761 88.121 62.7932C88.1552 62.7932 88.1894 62.8104 88.2236 62.8104C88.4461 62.8446 88.6686 62.8617 88.874 62.8959C88.9253 62.8959 88.9596 62.8959 89.0109 62.913C89.1821 62.9302 89.3532 62.9473 89.5415 62.9644H89.5586C89.6442 62.9644 89.7126 62.9815 89.7982 62.9815C89.9351 62.9986 90.072 62.9986 90.2261 63.0157C90.3116 63.0157 90.4143 63.0157 90.4999 63.0328C90.6368 63.0328 90.7566 63.05 90.8935 63.05H92.3311C92.3996 63.05 92.451 63.05 92.5194 63.0328C92.6734 63.0328 92.8275 63.0157 92.9815 63.0157C93.0671 63.0157 93.1698 62.9986 93.2553 62.9986C93.4094 62.9815 93.5463 62.9815 93.7003 62.9644C93.7517 62.9644 93.803 62.9644 93.8543 62.9473C93.8886 62.9473 93.9228 62.9302 93.957 62.9302C94.1795 62.913 94.4191 62.8788 94.6416 62.8446C94.6758 62.8446 94.7101 62.8275 94.7443 62.8275C95.001 62.7932 95.2577 62.7419 95.5145 62.7077C95.5316 62.7077 95.5658 62.7077 95.5829 62.6906C95.6514 62.6734 95.7198 62.6563 95.7883 62.6563C95.9081 62.6392 96.0279 62.605 96.1477 62.5879C96.2504 62.5708 96.336 62.5536 96.4386 62.5194C96.5584 62.4852 96.6783 62.4681 96.7981 62.4338C96.9007 62.4167 96.9863 62.3825 97.089 62.3654C97.2088 62.3311 97.3115 62.314 97.4313 62.2798C97.534 62.2456 97.6195 62.2285 97.7222 62.1942C97.842 62.16 97.9447 62.1258 98.0474 62.0915L98.2014 62.0402C98.2357 62.0231 98.2699 62.0231 98.3041 62.006C98.5095 61.9375 98.6978 61.869 98.9031 61.8006C98.9374 61.7835 98.9887 61.7664 99.0229 61.7492C99.2626 61.6637 99.485 61.561 99.7075 61.4754C99.7589 61.4583 99.8273 61.4241 99.8787 61.3898C100.05 61.3043 100.221 61.2358 100.392 61.1502C100.461 61.116 100.512 61.0818 100.58 61.0647C100.803 60.962 101.008 60.8422 101.214 60.7224C101.265 60.6881 101.333 60.6539 101.385 60.6197L101.539 60.517L101.795 60.363C101.864 60.3116 101.95 60.2603 102.018 60.2089C102.104 60.1576 102.172 60.1063 102.258 60.0378L102.463 59.8838C102.531 59.8324 102.6 59.764 102.685 59.7126C102.754 59.6613 102.805 59.6099 102.874 59.5586C102.942 59.5072 103.011 59.4388 103.079 59.3874C103.113 59.3703 103.13 59.3361 103.165 59.319L103.233 59.2505L103.541 58.9425L103.644 58.8398L104.003 58.429L104.02 58.4119C104.038 58.3777 104.072 58.3435 104.089 58.3092C104.157 58.2237 104.226 58.1381 104.277 58.0354L104.38 57.8814C104.431 57.7958 104.482 57.7273 104.534 57.6418C104.551 57.6246 104.568 57.5904 104.568 57.5733L104.619 57.4706L104.722 57.2652C104.756 57.2139 104.773 57.1454 104.808 57.0941C104.842 57.0256 104.876 56.9572 104.893 56.8887C104.91 56.8545 104.927 56.8202 104.927 56.8031C104.945 56.7689 104.945 56.7518 104.962 56.7176C104.979 56.6491 105.013 56.5807 105.03 56.5122C105.047 56.4437 105.064 56.3924 105.081 56.3239L105.133 56.1186C105.133 56.0843 105.15 56.0501 105.167 56.0159C105.167 55.9988 105.167 55.9645 105.184 55.9474C105.201 55.8789 105.201 55.8105 105.218 55.742C105.218 55.6736 105.236 55.6222 105.236 55.5538C105.236 55.4853 105.253 55.4169 105.253 55.3484C105.253 55.3142 105.253 55.2628 105.27 55.2286V52.1822C105.27 52.2678 105.27 52.3534 105.253 52.4389Z" fill="#C68620"/>
<path d="M101.214 46.5346C106.588 49.6324 106.622 54.6812 101.282 57.7789C95.9424 60.8766 87.2482 60.8766 81.8742 57.7789C76.5003 54.664 76.466 49.6324 81.8058 46.5346C87.1455 43.4198 95.8397 43.4198 101.214 46.5346Z" fill="#FFCD2E"/>
<path d="M105.253 48.5026C105.253 48.5711 105.253 48.6396 105.236 48.708C105.236 48.7765 105.218 48.8278 105.218 48.8963C105.201 48.9647 105.201 49.0332 105.184 49.1017C105.167 49.1701 105.167 49.2215 105.15 49.2899L105.099 49.4953C105.082 49.5637 105.064 49.6151 105.047 49.6835C105.03 49.752 105.013 49.8205 104.979 49.8889C104.962 49.9403 104.927 50.0087 104.91 50.0601C104.876 50.1285 104.859 50.197 104.825 50.2654C104.791 50.3168 104.773 50.3852 104.739 50.4366L104.637 50.642C104.602 50.6933 104.568 50.7447 104.551 50.8131C104.5 50.8987 104.448 50.9671 104.397 51.0527L104.294 51.2067C104.226 51.2923 104.174 51.3779 104.106 51.4806C104.072 51.5148 104.055 51.5662 104.02 51.6004C103.918 51.7373 103.798 51.8742 103.661 52.0111L103.558 52.1138L103.25 52.4219C103.199 52.4732 103.148 52.5075 103.096 52.5588C103.028 52.6101 102.959 52.6786 102.891 52.7299C102.822 52.7813 102.771 52.8326 102.703 52.884C102.634 52.9353 102.566 53.0038 102.48 53.0551L102.275 53.2091C102.206 53.2605 102.121 53.3118 102.035 53.3803C101.967 53.4316 101.898 53.483 101.813 53.5343L101.556 53.6884C101.453 53.7568 101.351 53.8253 101.231 53.8766C101.025 53.9964 100.82 54.1162 100.597 54.2189C100.529 54.2531 100.478 54.2874 100.409 54.3045C100.238 54.3901 100.067 54.4585 99.8958 54.5441C99.8444 54.5783 99.776 54.5954 99.7246 54.6297C99.5022 54.7324 99.2797 54.8179 99.0401 54.9035C99.0058 54.9206 98.9545 54.9377 98.9203 54.9548C98.732 55.0233 98.5266 55.0918 98.3212 55.1602C98.2357 55.1944 98.1501 55.2116 98.0645 55.2458C97.9618 55.28 97.842 55.3142 97.7222 55.3485C97.6195 55.3827 97.534 55.3998 97.4313 55.434C97.3115 55.4683 97.2088 55.5025 97.089 55.5196C96.9863 55.5367 96.9007 55.571 96.7981 55.5881C96.6783 55.6223 96.5585 55.6394 96.4558 55.6736C96.3531 55.6908 96.2675 55.725 96.1648 55.7421C96.045 55.7592 95.9252 55.7934 95.8054 55.8106C95.7198 55.8277 95.6171 55.8448 95.5316 55.8619C95.2749 55.9132 95.0181 55.9475 94.7614 55.9817C94.7272 55.9817 94.693 55.9988 94.6416 55.9988C94.4191 56.0331 94.1966 56.0502 93.957 56.0844C93.8715 56.1015 93.7859 56.1015 93.7003 56.1186C93.5463 56.1357 93.4094 56.1529 93.2553 56.1529C93.1698 56.1529 93.0671 56.17 92.9815 56.17C92.8275 56.1871 92.6734 56.1871 92.5194 56.1871C92.4338 56.1871 92.3483 56.1871 92.2627 56.2042H90.9106C90.7737 56.2042 90.6539 56.1871 90.517 56.1871C90.4314 56.1871 90.3287 56.1871 90.2432 56.17C90.1062 56.17 89.9522 56.1529 89.8153 56.1357C89.7297 56.1357 89.6613 56.1186 89.5757 56.1186L89.0623 56.0673C89.0109 56.0673 88.9596 56.0502 88.9082 56.0502C88.6857 56.0331 88.4633 55.9988 88.2579 55.9646C88.2237 55.9646 88.1894 55.9475 88.1552 55.9475C87.9669 55.9132 87.7787 55.8961 87.5904 55.8619C87.522 55.8448 87.4364 55.8277 87.3679 55.8277C87.231 55.7935 87.077 55.7763 86.9401 55.7421C86.8716 55.725 86.8031 55.7079 86.7176 55.6908L86.2555 55.5881C86.1699 55.571 86.0843 55.5538 85.9988 55.5196L85.588 55.4169C85.5024 55.3998 85.434 55.3656 85.3484 55.3485C85.1259 55.28 84.9205 55.2116 84.6981 55.1431C84.6638 55.126 84.6125 55.126 84.5782 55.1089L83.8594 54.8522C83.8081 54.835 83.7568 54.8179 83.7054 54.7837C83.3973 54.6639 83.0893 54.527 82.7983 54.3901C82.7641 54.3729 82.747 54.3558 82.7128 54.3387C82.4047 54.1847 82.0966 54.0307 81.8057 53.8595C80.6248 53.1749 79.7006 52.4048 79.0331 51.5662C78.4683 50.8473 78.0747 50.1114 77.8865 49.3413C77.8522 49.2215 77.8351 49.0845 77.8009 48.9647C77.7667 48.708 77.7324 48.4513 77.7324 48.1946V51.1212C77.7324 53.1749 79.0845 55.2287 81.7886 56.7861C82.0795 56.9572 82.3876 57.1113 82.6956 57.2653C82.7299 57.2824 82.747 57.2995 82.7812 57.3166C83.0722 57.4536 83.3802 57.5905 83.6883 57.7103C83.7225 57.7274 83.7396 57.7274 83.7739 57.7445C83.791 57.7616 83.8252 57.7616 83.8423 57.7616C84.0819 57.8472 84.3215 57.9499 84.5611 58.0183C84.5954 58.0355 84.6467 58.0355 84.6809 58.0526C84.8863 58.121 85.1088 58.1895 85.3313 58.2579C85.3655 58.2751 85.3997 58.2751 85.434 58.2922C85.4682 58.3093 85.5196 58.3093 85.5538 58.3264L85.9645 58.4291C86.0501 58.4462 86.1357 58.4804 86.2212 58.4976L86.6833 58.6002C86.7347 58.6174 86.8031 58.6345 86.8545 58.6345C86.8716 58.6345 86.8887 58.6345 86.9058 58.6516C87.0427 58.6858 87.1968 58.7029 87.3337 58.7372C87.4021 58.7543 87.4877 58.7714 87.5562 58.7714C87.7444 58.8056 87.9327 58.8398 88.121 58.857C88.1552 58.857 88.1894 58.8741 88.2236 58.8741C88.4461 58.9083 88.6686 58.9254 88.874 58.9596C88.9253 58.9596 88.9596 58.9596 89.0109 58.9768C89.1821 58.9939 89.3532 59.011 89.5415 59.0281H89.5586C89.6442 59.0281 89.7126 59.0452 89.7982 59.0452C89.9351 59.0623 90.072 59.0623 90.2261 59.0795C90.3116 59.0795 90.4143 59.0794 90.4999 59.0966C90.6368 59.0966 90.7566 59.1137 90.8935 59.1137H92.3311C92.3996 59.1137 92.451 59.1137 92.5194 59.0966C92.6734 59.0966 92.8275 59.0795 92.9815 59.0795C93.0671 59.0795 93.1698 59.0623 93.2553 59.0623C93.4094 59.0452 93.5463 59.0452 93.7003 59.0281C93.7517 59.0281 93.803 59.0281 93.8543 59.011C93.8886 59.011 93.9228 58.9939 93.957 58.9939C94.1795 58.9768 94.4191 58.9425 94.6416 58.9083C94.6758 58.9083 94.7101 58.8912 94.7443 58.8912C95.001 58.857 95.2577 58.8056 95.5145 58.7714C95.5316 58.7714 95.5658 58.7714 95.5829 58.7543C95.6514 58.7372 95.7198 58.72 95.7883 58.72C95.9081 58.7029 96.0279 58.6687 96.1477 58.6516C96.2504 58.6345 96.336 58.6174 96.4386 58.5831C96.5584 58.5489 96.6783 58.5318 96.7981 58.4976C96.9007 58.4804 96.9863 58.4462 97.089 58.4291C97.2088 58.3949 97.3115 58.3777 97.4313 58.3435C97.534 58.3093 97.6195 58.2922 97.7222 58.2579C97.842 58.2237 97.9447 58.1895 98.0474 58.1553L98.2014 58.1039C98.2357 58.0868 98.2699 58.0868 98.3041 58.0697C98.5095 58.0012 98.6978 57.9328 98.9031 57.8643C98.9374 57.8472 98.9887 57.8301 99.0229 57.813C99.2626 57.7274 99.485 57.6247 99.7075 57.5391C99.7589 57.522 99.8273 57.4878 99.8787 57.4536C100.05 57.368 100.221 57.2995 100.392 57.214C100.461 57.1797 100.512 57.1455 100.58 57.1284C100.803 57.0257 101.008 56.9059 101.214 56.7861C101.265 56.7519 101.333 56.7176 101.385 56.6834L101.539 56.5807L101.795 56.4267C101.864 56.3753 101.95 56.324 102.018 56.2727C102.104 56.2213 102.172 56.17 102.258 56.1015L102.463 55.9475C102.531 55.8961 102.6 55.8277 102.685 55.7763C102.754 55.725 102.805 55.6737 102.874 55.6223C102.942 55.571 103.011 55.5025 103.079 55.4512C103.113 55.434 103.13 55.3998 103.165 55.3827L103.233 55.3142L103.541 55.0062L103.644 54.9035L104.003 54.4927L104.02 54.4756C104.038 54.4414 104.072 54.4072 104.089 54.3729C104.157 54.2874 104.226 54.2018 104.277 54.0991L104.38 53.9451C104.431 53.8595 104.482 53.791 104.534 53.7055C104.551 53.6884 104.568 53.6541 104.568 53.637L104.619 53.5343L104.722 53.329C104.756 53.2776 104.773 53.2091 104.808 53.1578C104.842 53.0893 104.876 53.0209 104.893 52.9524C104.91 52.9182 104.927 52.884 104.927 52.8669C104.945 52.8326 104.945 52.8155 104.962 52.7813C104.979 52.7128 105.013 52.6444 105.03 52.5759C105.047 52.5075 105.064 52.4561 105.081 52.3876L105.133 52.1823C105.133 52.148 105.15 52.1138 105.167 52.0796C105.167 52.0625 105.167 52.0282 105.184 52.0111C105.201 51.9427 105.201 51.8742 105.218 51.8058C105.218 51.7373 105.236 51.686 105.236 51.6175C105.236 51.549 105.253 51.4806 105.253 51.4121C105.253 51.3779 105.253 51.3265 105.27 51.2923V48.2459C105.27 48.3486 105.27 48.4342 105.253 48.5026Z" fill="#C68620"/>
<path d="M101.214 42.6152C106.588 45.7129 106.622 50.7617 101.282 53.8595C95.9424 56.9572 87.2482 56.9572 81.8742 53.8595C76.5003 50.7446 76.466 45.7129 81.8058 42.6152C87.1455 39.5003 95.8397 39.5003 101.214 42.6152Z" fill="#FFCD2E"/>
</svg>
