<svg width="224" height="50" viewBox="0 0 224 50" fill="none" xmlns="http://www.w3.org/2000/svg">
<g id="Logotype">
<path id="IT Capital" d="M55.688 39V16.984H62.76V39H55.688ZM80.4775 22.616V39H73.4055V22.616H66.1735V16.984H87.6775V22.616H80.4775ZM112.052 16.6C115.316 16.6 117.897 17.4213 119.796 19.064C121.694 20.6853 122.644 23.0107 122.644 26.04H115.892C115.892 24.76 115.55 23.7467 114.868 23C114.206 22.2533 113.257 21.88 112.02 21.88C110.59 21.88 109.534 22.328 108.852 23.224C108.19 24.12 107.86 25.368 107.86 26.968V29.016C107.86 30.5947 108.19 31.8427 108.852 32.76C109.534 33.656 110.569 34.104 111.956 34.104C113.321 34.104 114.356 33.752 115.06 33.048C115.764 32.344 116.116 31.352 116.116 30.072H122.644C122.644 33.08 121.716 35.384 119.86 36.984C118.025 38.584 115.422 39.384 112.052 39.384C108.297 39.384 105.449 38.424 103.508 36.504C101.588 34.584 100.628 31.7467 100.628 27.992C100.628 24.2373 101.588 21.4 103.508 19.48C105.449 17.56 108.297 16.6 112.052 16.6ZM134.366 21.72C136.947 21.72 139.048 22.1573 140.67 23.032C142.291 23.8853 143.102 25.2827 143.102 27.224V33.816C143.102 34.1787 143.187 34.4773 143.358 34.712C143.528 34.9467 143.784 35.064 144.126 35.064H145.278V38.744C145.214 38.7867 145.043 38.8613 144.766 38.968C144.51 39.0533 144.136 39.1387 143.646 39.224C143.155 39.3307 142.59 39.384 141.95 39.384C140.712 39.384 139.688 39.2027 138.878 38.84C138.088 38.456 137.544 37.9333 137.246 37.272C136.435 37.912 135.528 38.424 134.526 38.808C133.523 39.192 132.35 39.384 131.006 39.384C127.038 39.384 125.054 37.8053 125.054 34.648C125.054 33.0053 125.491 31.7573 126.366 30.904C127.262 30.0293 128.542 29.432 130.206 29.112C131.87 28.792 134.046 28.632 136.734 28.632V27.8C136.734 27.1387 136.499 26.6373 136.03 26.296C135.582 25.9547 134.995 25.784 134.27 25.784C133.608 25.784 133.032 25.9013 132.542 26.136C132.072 26.3707 131.838 26.744 131.838 27.256V27.384H125.566C125.544 27.2773 125.534 27.128 125.534 26.936C125.534 25.336 126.291 24.0667 127.806 23.128C129.342 22.1893 131.528 21.72 134.366 21.72ZM136.734 31.64C134.92 31.64 133.576 31.8427 132.702 32.248C131.848 32.632 131.422 33.1547 131.422 33.816C131.422 34.8827 132.147 35.416 133.598 35.416C134.43 35.416 135.155 35.192 135.774 34.744C136.414 34.296 136.734 33.7413 136.734 33.08V31.64ZM158.806 21.72C161.089 21.72 162.849 22.4667 164.086 23.96C165.323 25.4533 165.942 27.6613 165.942 30.584C165.942 33.4853 165.323 35.6827 164.086 37.176C162.849 38.648 161.089 39.384 158.806 39.384C156.843 39.384 155.265 38.744 154.07 37.464V45.304H147.702V22.104H152.886L153.43 24.504C154.667 22.648 156.459 21.72 158.806 21.72ZM156.822 26.424C155.883 26.424 155.179 26.7547 154.71 27.416C154.241 28.0773 154.006 28.9413 154.006 30.008V31.064C154.006 32.1307 154.241 33.0053 154.71 33.688C155.179 34.3493 155.883 34.68 156.822 34.68C158.657 34.68 159.574 33.5813 159.574 31.384V29.688C159.574 27.512 158.657 26.424 156.822 26.424ZM169.238 20.12V15.8H175.606V20.12H169.238ZM169.238 39V22.104H175.606V39H169.238ZM190.934 22.104V26.424H187.35V32.856C187.35 33.624 187.478 34.1893 187.734 34.552C187.99 34.8933 188.459 35.064 189.142 35.064H190.934V38.808C190.422 38.9787 189.761 39.1173 188.95 39.224C188.139 39.3307 187.435 39.384 186.838 39.384C184.961 39.384 183.51 39.0427 182.486 38.36C181.483 37.6773 180.982 36.5147 180.982 34.872V26.424H178.614V22.104H181.238L182.614 16.984H187.35V22.104H190.934ZM202.241 21.72C204.822 21.72 206.923 22.1573 208.545 23.032C210.166 23.8853 210.977 25.2827 210.977 27.224V33.816C210.977 34.1787 211.062 34.4773 211.233 34.712C211.403 34.9467 211.659 35.064 212.001 35.064H213.153V38.744C213.089 38.7867 212.918 38.8613 212.641 38.968C212.385 39.0533 212.011 39.1387 211.521 39.224C211.03 39.3307 210.465 39.384 209.825 39.384C208.587 39.384 207.563 39.2027 206.753 38.84C205.963 38.456 205.419 37.9333 205.121 37.272C204.31 37.912 203.403 38.424 202.401 38.808C201.398 39.192 200.225 39.384 198.881 39.384C194.913 39.384 192.929 37.8053 192.929 34.648C192.929 33.0053 193.366 31.7573 194.241 30.904C195.137 30.0293 196.417 29.432 198.081 29.112C199.745 28.792 201.921 28.632 204.609 28.632V27.8C204.609 27.1387 204.374 26.6373 203.905 26.296C203.457 25.9547 202.87 25.784 202.145 25.784C201.483 25.784 200.907 25.9013 200.417 26.136C199.947 26.3707 199.713 26.744 199.713 27.256V27.384H193.441C193.419 27.2773 193.409 27.128 193.409 26.936C193.409 25.336 194.166 24.0667 195.681 23.128C197.217 22.1893 199.403 21.72 202.241 21.72ZM204.609 31.64C202.795 31.64 201.451 31.8427 200.577 32.248C199.723 32.632 199.297 33.1547 199.297 33.816C199.297 34.8827 200.022 35.416 201.473 35.416C202.305 35.416 203.03 35.192 203.649 34.744C204.289 34.296 204.609 33.7413 204.609 33.08V31.64ZM215.457 39V15.8H221.825V39H215.457Z" fill="white"/>
<g id="Logo">
<g id="Logo_2">
<g id="Group 3">
<path id="Vector" d="M12.1072 46.2406H18.5643C18.5643 46.2406 18.5321 30.0008 18.5643 23.2773C15.7313 22.8979 12.1072 23.5759 12.1072 23.5759V46.2406Z" fill="#97FF1A"/>
<path id="Vector_2" d="M23.4072 18.4828L29.8644 14.4471V45.9258H23.4072V18.4828Z" fill="#97FF1A"/>
<path id="Vector_3" d="M7.77285 21.219C7.57107 21.1383 8.54771 20.0244 8.65264 19.8469C12.7772 14.3906 17.8864 13.7691 23.3346 12.8973C28.5327 12.0337 32.189 9.82211 35.7405 6.01238L39.7439 1C41.0273 7.11817 37.3386 14.1888 32.0034 17.2398C25.4897 20.9607 20.6711 18.7653 14.0282 19.7984C12.0669 20.1052 9.83108 20.4361 7.99885 21.1948L7.77285 21.219Z" fill="#97FF1A"/>
<path id="Vector_4" d="M26.4825 8.7244C24.731 8.24818 22.8826 7.98989 20.9858 7.98989C9.39519 7.98989 0 17.3851 0 28.9757H5.65003C5.65003 27.2888 5.93253 25.6745 6.43296 24.1651C6.77196 23.132 7.23203 22.1472 7.77282 21.219C7.58718 21.1302 8.54768 20.0244 8.65261 19.8469C8.78175 19.6693 8.91897 19.5159 9.05618 19.3464C9.11268 19.2738 9.16918 19.2012 9.23376 19.1285C10.953 17.0784 12.8336 15.7869 14.8354 14.9314C14.9806 14.8668 15.1179 14.8103 15.2631 14.7538C15.6183 14.6085 15.9734 14.4794 16.3366 14.3583C16.377 14.3421 16.4174 14.326 16.4577 14.3179C18.6532 13.6157 20.9616 13.2767 23.3346 12.8973C26.1193 12.4373 28.4519 11.5736 30.5747 10.2983C29.2833 9.63647 27.9192 9.10376 26.4905 8.71633L26.4825 8.7244Z" fill="#4170FF"/>
<path id="Vector_5" d="M33.3755 37.9835C30.5908 41.8093 26.087 44.3115 20.9858 44.3115C12.5188 44.3115 5.65002 37.4427 5.65002 28.9757H0C0 40.5663 9.39518 49.9615 20.9858 49.9615C27.6044 49.9615 33.4966 46.8944 37.3467 42.108L33.3755 37.9835Z" fill="#4170FF"/>
</g>
</g>
</g>
</g>
</svg>
