<svg width="331" height="131" viewBox="0 0 331 131" fill="none" xmlns="http://www.w3.org/2000/svg">
<path d="M305.102 71.5417L309.784 60.4153L298.049 30.8665V30.7449H308.933C310.067 33.947 311.121 37.1694 312.094 40.4121C313.107 43.6547 313.918 46.9785 314.526 50.3833H314.648C315.256 47.019 316.026 43.7155 316.958 40.4729C317.931 37.2302 319.025 33.9875 320.241 30.7449H330.699V30.9273L315.073 71.6633H305.102V71.5417Z" fill="white"/>
<path d="M285.222 30.4407C288.221 30.4407 290.593 31.4337 292.336 33.4199C294.119 35.406 295.011 38.8513 295.011 43.7559V60.3543H285.283L285.222 44.9719C285.222 42.9858 284.918 41.5468 284.31 40.6551C283.742 39.7633 282.607 39.3175 280.905 39.3175C279.203 39.3175 278.047 39.7633 277.439 40.6551C276.872 41.5468 276.588 42.9858 276.588 44.9719V60.3543H266.86L266.799 44.9719C266.799 42.9858 266.495 41.5468 265.887 40.6551C265.32 39.7633 264.185 39.3175 262.483 39.3175C260.78 39.3175 259.625 39.7633 259.017 40.6551C258.45 41.5468 258.166 42.9858 258.166 44.9719V60.3543H248.438V30.7447H257.679L258.166 36.1559H258.348C258.875 34.3724 259.787 32.974 261.084 31.9607C262.422 30.9473 264.307 30.4407 266.739 30.4407C269.171 30.4407 271.076 30.9473 272.454 31.9607C273.873 32.974 274.785 34.3724 275.19 36.1559H275.372C275.899 34.3319 276.913 32.9335 278.412 31.9607C279.953 30.9473 282.222 30.4407 285.222 30.4407Z" fill="white"/>
<path d="M241.746 59.3815C240.611 59.7868 239.03 60.1516 237.004 60.4759C235.017 60.7596 232.646 60.9015 229.89 60.9015C226.404 60.9015 223.425 60.4556 220.952 59.5639C218.52 58.6316 216.676 57.0711 215.42 54.8823C214.163 52.653 213.535 49.5724 213.535 45.6407C213.535 40.2903 214.751 36.4193 217.183 34.0279C219.655 31.6364 223.465 30.4407 228.613 30.4407C232.302 30.4407 235.2 30.9676 237.308 32.0215C239.456 33.0753 240.976 34.5751 241.868 36.5207C242.8 38.4257 243.266 40.6956 243.266 43.3303C243.266 44.1004 243.225 44.9314 243.144 45.8231C243.104 46.7148 243.003 47.5863 242.84 48.4375L242.597 48.6807H222.594C222.878 50.4642 223.709 51.6396 225.087 52.2071C226.505 52.7746 228.796 53.0583 231.957 53.0583C234.065 53.0583 235.808 53.0178 237.186 52.9367C238.605 52.8151 240.044 52.653 241.503 52.4503L241.746 52.6327V59.3815ZM234.815 42.2967C234.815 41.3239 234.653 40.493 234.328 39.8039C234.045 39.0743 233.457 38.5271 232.565 38.1623C231.673 37.7569 230.356 37.5543 228.613 37.5543C226.06 37.5543 224.377 38.0001 223.567 38.8919C222.797 39.7431 222.412 40.878 222.412 42.2967H234.815Z" fill="white"/>
<path d="M199.115 60.3547L198.75 56.0379H198.507C197.818 57.6592 196.825 58.8752 195.528 59.6859C194.271 60.4966 192.427 60.9019 189.995 60.9019C186.063 60.9019 183.185 59.767 181.361 57.4971C179.537 55.1867 178.585 51.7211 178.503 47.1003C178.463 42.9659 178.889 39.6827 179.78 37.2507C180.672 34.8187 182.07 33.0758 183.976 32.0219C185.881 30.968 188.313 30.4411 191.272 30.4411C192.812 30.4411 194.21 30.583 195.467 30.8667C196.723 31.1099 197.737 31.4544 198.507 31.9003L198.628 31.8395V19.4363H208.356V60.3547H199.115ZM193.156 52.6331C194.778 52.6331 196.095 52.1264 197.108 51.1131C198.122 50.0998 198.628 48.4176 198.628 46.0667V39.6827C197.129 39.0747 195.365 38.7707 193.339 38.7707C191.434 38.7707 190.056 39.2368 189.204 40.1691C188.394 41.0608 187.988 42.8848 187.988 45.6411C187.988 47.992 188.313 49.7552 188.961 50.9307C189.65 52.0656 191.049 52.6331 193.156 52.6331Z" fill="white"/>
<path d="M157.917 30.4407C161.808 30.4407 164.95 30.846 167.341 31.6567C169.732 32.4673 171.475 33.9671 172.57 36.1559C173.705 38.3041 174.272 41.4252 174.272 45.5191V60.3543H165.456L165.152 57.5575H164.97C164.2 58.5708 163.004 59.3815 161.383 59.9895C159.761 60.5975 157.654 60.9015 155.059 60.9015C148.047 60.9015 144.541 57.6183 144.541 51.0519C144.541 48.2551 145.453 46.0663 147.277 44.4855C149.142 42.8642 152.06 42.0535 156.032 42.0535H165.031C164.747 40.3511 164.017 39.2161 162.842 38.6487C161.666 38.0407 159.66 37.7367 156.823 37.7367C155.039 37.7367 153.276 37.8785 151.533 38.1623C149.831 38.4055 148.331 38.6892 147.034 39.0135L146.851 38.8919L146.912 31.8391C147.723 31.5959 148.756 31.3729 150.013 31.1703C151.27 30.9271 152.587 30.7447 153.965 30.6231C155.384 30.5015 156.701 30.4407 157.917 30.4407ZM157.552 53.7271C160.065 53.7271 161.95 53.4231 163.207 52.8151C164.463 52.1666 165.112 51.1532 165.152 49.7751V48.2551H158.282C156.498 48.2551 155.242 48.5186 154.512 49.0455C153.823 49.5319 153.479 50.2007 153.479 51.0519C153.479 52.0652 153.843 52.7746 154.573 53.1799C155.303 53.5447 156.296 53.7271 157.552 53.7271Z" fill="white"/>
<path d="M141.212 51.7815V59.6855C140.199 60.0908 138.699 60.3948 136.713 60.5975C134.727 60.8002 132.619 60.9015 130.39 60.9015C127.188 60.9015 124.512 60.4556 122.364 59.5639C120.256 58.6722 118.676 57.1319 117.622 54.9431C116.608 52.7543 116.081 49.7143 116.041 45.8231C116.041 41.8103 116.588 38.6892 117.682 36.4599C118.817 34.2305 120.459 32.67 122.607 31.7783C124.756 30.8865 127.329 30.4407 130.329 30.4407C132.112 30.4407 133.997 30.5623 135.983 30.8055C137.969 31.0487 139.591 31.3729 140.847 31.7783L140.908 39.9255L140.726 40.0471C139.51 39.8039 138.213 39.6215 136.835 39.4999C135.456 39.3783 134.099 39.3175 132.761 39.3175C130.045 39.3175 128.16 39.8241 127.107 40.8375C126.053 41.8508 125.526 43.5532 125.526 45.9447C125.526 47.7687 125.749 49.1266 126.194 50.0183C126.64 50.91 127.39 51.4978 128.444 51.7815C129.498 52.0652 130.937 52.2071 132.761 52.2071C134.18 52.2071 135.537 52.1463 136.835 52.0247C138.132 51.9031 139.51 51.7612 140.969 51.5991L141.212 51.7815Z" fill="white"/>
<path d="M113.889 60.1724V60.3548H103.553C103.269 59.382 102.925 58.2674 102.52 57.0108C102.155 55.7543 101.749 54.4167 101.304 52.998H88.1708C87.3601 55.8354 86.6103 58.2876 85.9212 60.3548H75.5852V60.2332L88.0492 21.8684H101.425L113.889 60.1724ZM94.6156 28.7996C94.2103 30.8668 93.6226 33.3799 92.8524 36.3388C92.0823 39.2978 91.2716 42.3175 90.4204 45.398H99.1148C98.2231 42.3175 97.3922 39.2978 96.622 36.3388C95.8519 33.3799 95.2642 30.8668 94.8588 28.7996H94.6156Z" fill="white"/>
<path d="M32.3937 121.044H49.6703C49.6703 121.044 49.5839 77.5935 49.6703 59.6042C42.0902 58.5892 32.3937 60.4033 32.3937 60.4033V121.044Z" fill="url(#paint0_linear_201_957)"/>
<path d="M62.6278 46.7762L79.9044 35.9783V120.202H62.6278V46.7762Z" fill="url(#paint1_linear_201_957)"/>
<path d="M20.7967 54.0974C20.2568 53.8815 22.8699 50.9012 23.1507 50.4261C34.1861 35.8274 47.8563 34.1645 62.4334 31.8322C76.3411 29.5214 86.124 23.6042 95.6261 13.411L106.338 0C109.771 16.3696 99.9021 35.2875 85.6273 43.4507C68.1995 53.4064 55.3068 47.5323 37.5335 50.2966C32.2857 51.1172 26.3037 52.0026 21.4014 54.0326L20.7967 54.0974Z" fill="url(#paint2_linear_201_957)"/>
<path d="M70.8558 20.6669C66.1695 19.3927 61.224 18.7017 56.149 18.7017C25.1375 18.7017 0 43.8392 0 74.8507H15.117C15.117 70.3372 15.8729 66.018 17.2118 61.9796C18.1189 59.2153 19.3498 56.5807 20.7967 54.0971C20.3 53.8596 22.8699 50.901 23.1507 50.4259C23.4962 49.9508 23.8633 49.5404 24.2305 49.0869C24.3816 48.8926 24.5328 48.6982 24.7056 48.5038C29.3055 43.0185 34.3373 39.5632 39.693 37.274C40.0818 37.1013 40.4489 36.9501 40.8376 36.7989C41.7878 36.4102 42.738 36.0647 43.7099 35.7407C43.8178 35.6975 43.9258 35.6543 44.0338 35.6328C49.9078 33.7539 56.0842 32.8469 62.4334 31.8319C69.8839 30.6009 76.1251 28.2902 81.8048 24.8781C78.3495 23.1072 74.6998 21.6819 70.8773 20.6453L70.8558 20.6669Z" fill="white"/>
<path d="M89.2985 98.9517C81.848 109.188 69.7976 115.883 56.149 115.883C33.4951 115.883 15.117 97.5048 15.117 74.8508H0C0 105.862 25.1375 131 56.149 131C73.8576 131 89.6225 122.793 99.9237 109.987L89.2985 98.9517Z" fill="white"/>
<defs>
<linearGradient id="paint0_linear_201_957" x1="41.032" y1="59.2957" x2="41.032" y2="121.044" gradientUnits="userSpaceOnUse">
<stop stop-color="#A2EA5C"/>
<stop offset="0.475" stop-color="#5CE695"/>
<stop offset="1" stop-color="#20D0AD"/>
</linearGradient>
<linearGradient id="paint1_linear_201_957" x1="71.2661" y1="35.9783" x2="71.2661" y2="120.202" gradientUnits="userSpaceOnUse">
<stop stop-color="#CEED37"/>
<stop offset="0.495" stop-color="#61E693"/>
<stop offset="1" stop-color="#00C6B9"/>
</linearGradient>
<linearGradient id="paint2_linear_201_957" x1="63.8732" y1="0" x2="63.8732" y2="54.0974" gradientUnits="userSpaceOnUse">
<stop stop-color="#00B6BF"/>
<stop offset="0.49" stop-color="#59E696"/>
<stop offset="1" stop-color="#D0EE39"/>
</linearGradient>
</defs>
</svg>
