<svg width="136" height="104" viewBox="0 0 136 104" fill="none" xmlns="http://www.w3.org/2000/svg">
<path d="M135.321 59.4342C135.132 61.3216 133.399 62.2652 131.924 63.1231C130.551 63.9124 129.178 64.7188 127.823 65.508C125.627 66.7777 123.448 68.0474 121.252 69.317C118.506 70.9127 115.778 72.5084 113.033 74.0869C110.013 75.837 106.994 77.6042 103.957 79.3543C100.92 81.1215 97.8828 82.8888 94.8287 84.656C92.032 86.286 89.2525 87.8988 86.4558 89.5288C84.1738 90.85 81.909 92.1711 79.627 93.4923C78.1343 94.3501 76.6415 95.2252 75.1488 96.0831C74.0164 96.7351 72.9526 97.387 71.6658 97.7645C68.3201 98.7253 64.614 98.3993 61.5942 96.6493C60.5133 96.0144 59.4152 95.3968 58.3343 94.7619C56.344 93.6124 54.3708 92.4799 52.3806 91.3304C49.7726 89.8205 47.1646 88.3106 44.5566 86.8179C41.5884 85.1021 38.6029 83.3864 35.6346 81.6706C32.5634 79.9034 29.4922 78.1189 26.421 76.3517C23.5213 74.6703 20.6217 73.006 17.7048 71.3245L10.2927 67.0522C8.52547 66.0228 6.74107 65.0105 4.97383 63.981C4.16742 63.5178 3.361 63.0545 2.55459 62.5741C1.28492 61.8363 0.03241 60.6696 0.03241 59.0911C0.03241 60.5323 0.032409 61.9736 0.0152513 63.432C0.0152513 63.9467 -0.0190641 64.4786 0.0152513 65.0105C0.118198 66.4002 1.21629 67.4812 2.36586 68.1675C3.06932 68.5964 3.78995 68.9911 4.51057 69.4028C6.3636 70.4666 8.21663 71.5476 10.0697 72.6113C12.7463 74.1555 15.4057 75.6997 18.0823 77.2439C21.2565 79.0798 24.4478 80.9157 27.622 82.7515C30.9334 84.6732 34.2449 86.5777 37.5735 88.4994C40.7305 90.3181 43.8703 92.1368 47.0274 93.9555C49.6525 95.4654 52.2605 96.9753 54.8856 98.4851C56.6528 99.5146 58.4372 100.527 60.2045 101.556C61.2339 102.14 62.2462 102.809 63.3615 103.221C66.8445 104.49 70.928 104.216 74.1365 102.346C75.3547 101.642 76.5729 100.922 77.7911 100.218C80.0388 98.9141 82.2864 97.6101 84.5169 96.3061C87.4509 94.6075 90.3677 92.9089 93.3017 91.1931C96.5788 89.2886 99.8559 87.3841 103.116 85.4796L112.947 79.7661C115.881 78.0503 118.815 76.3517 121.766 74.6359C124.048 73.3148 126.33 71.9936 128.612 70.6553C129.865 69.9176 131.134 69.1969 132.387 68.4592C132.764 68.2361 133.159 68.0131 133.519 67.7557C134.48 67.0351 135.235 66.0399 135.252 64.7874C135.269 64.1526 135.252 63.5349 135.252 62.9001C135.252 61.6476 135.252 60.3779 135.269 59.1254C135.338 59.2455 135.321 59.3484 135.321 59.4342C135.321 59.3827 135.304 59.4685 135.321 59.4342Z" fill="#7A9EFD"/>
<path d="M132.867 55.7281C136.127 57.6155 136.144 60.6867 132.902 62.574L73.8276 96.9238C70.5848 98.8111 65.2831 98.8111 62.0231 96.9238L2.52019 62.574C-0.739776 60.6867 -0.756933 57.6155 2.48587 55.7281L61.577 21.3784C64.8198 19.4911 70.1215 19.4911 73.3815 21.3784L132.867 55.7281Z" fill="#E4ECF9"/>
<path d="M39.7868 65.1304V64.4098L36.9729 62.7798V63.5004C36.9729 64.324 37.1273 65.0103 37.3847 65.5765C37.642 66.1427 38.0195 66.5545 38.4828 66.829L41.2966 68.459C40.3701 67.9099 39.8039 66.7604 39.7868 65.1304Z" fill="#8AEA16"/>
<path d="M39.7867 64.4097L36.99 62.7798L76.1953 40.1316L79.0092 41.7616L39.7867 64.4097Z" fill="#8AEA16"/>
<path d="M79.0093 41.7617V42.4823C79.0265 45.7766 76.7102 49.7744 73.8277 51.4387L45.0027 68.0816C42.1374 69.7459 39.804 68.4076 39.804 65.1133V64.3927L79.0093 41.7617Z" fill="#B4FF59"/>
<path d="M81.2398 1.93882C81.3084 1.90451 81.3599 1.88735 81.4285 1.87019C81.5315 1.83587 81.6172 1.80156 81.703 1.76724C81.7545 1.75009 81.8231 1.73293 81.8746 1.71577C81.9261 1.69861 81.9776 1.69861 82.029 1.68146C82.0977 1.6643 82.1663 1.6643 82.2349 1.64714C82.2692 1.64714 82.3036 1.64714 82.3379 1.62998H82.6295C82.7325 1.62998 82.8183 1.64714 82.9041 1.6643C82.9212 1.6643 82.9555 1.68146 82.9727 1.68146L83.1786 1.73293C83.1958 1.73293 83.2129 1.75009 83.2472 1.75009C83.333 1.7844 83.4188 1.81872 83.4874 1.87019L80.6736 0.240207C80.6736 0.240207 80.6564 0.240208 80.6564 0.223051C80.5878 0.188735 80.5363 0.15442 80.4677 0.137262C80.4505 0.137262 80.4505 0.137261 80.4334 0.120103C80.4162 0.120103 80.399 0.102945 80.3647 0.102945C80.3304 0.0857869 80.2961 0.0857875 80.2618 0.0686298C80.2275 0.0514721 80.1931 0.0514736 80.1588 0.0514736C80.1417 0.0514736 80.1074 0.0343149 80.0902 0.0343149H80.0559C79.9873 0.0171572 79.9015 0.0171577 79.8328 0H79.524C79.4897 0 79.4554 -1.57109e-06 79.4211 0.0171561C79.3867 0.0171561 79.3524 0.0171572 79.3181 0.0343149C79.2838 0.0343149 79.2495 0.0514736 79.2152 0.0514736C79.1637 0.0686313 79.1122 0.0686308 79.0607 0.0857885C79.0264 0.0857885 79.0093 0.102945 78.975 0.102945C78.9406 0.102945 78.9235 0.120104 78.8892 0.137262C78.8034 0.171578 78.7004 0.188734 78.6146 0.240207C78.5803 0.257364 78.546 0.257364 78.5289 0.274522L78.4259 0.325995C78.3916 0.343153 78.3573 0.36031 78.3401 0.36031C78.22 0.411783 78.0999 0.480415 77.9798 0.549046C77.9112 0.583361 77.8426 0.634834 77.7739 0.669149C77.6023 0.772096 77.4308 0.892201 77.2763 1.02946C77.2763 1.02946 77.2592 1.02946 77.2592 1.04662L76.7959 1.4584L76.7788 1.47556L76.7616 1.49272C76.6244 1.62998 76.4871 1.76724 76.3498 1.92166C76.3498 1.93882 76.3327 1.93882 76.3327 1.95598C76.3155 1.97313 76.2984 2.00745 76.264 2.02461C76.1954 2.1104 76.1096 2.19618 76.041 2.29913C75.9895 2.3506 75.9552 2.41923 75.9209 2.47071C75.9037 2.50502 75.8694 2.53934 75.8523 2.5565C75.8351 2.57365 75.8179 2.60797 75.8008 2.62513C75.7322 2.72808 75.6464 2.84818 75.5777 2.95112C75.5606 2.98544 75.5263 3.01975 75.5091 3.07123C75.4919 3.10554 75.4748 3.1227 75.4576 3.15702C75.4405 3.19133 75.4062 3.2428 75.389 3.27712C75.3204 3.38007 75.2689 3.48301 75.2174 3.58596L75.1659 3.68891C75.1488 3.70606 75.1316 3.74038 75.1316 3.75754C75.1145 3.79185 75.0802 3.84332 75.063 3.87764C75.0115 3.98059 74.9601 4.08353 74.9257 4.18648C74.9086 4.22079 74.8914 4.27227 74.8743 4.30658C74.8571 4.3409 74.8571 4.35805 74.8399 4.39237C74.8228 4.42669 74.8056 4.47816 74.7885 4.51248C74.737 4.63258 74.7027 4.73553 74.6684 4.85563L74.6169 5.01005C74.5997 5.09584 74.5654 5.16447 74.5483 5.25026C74.5483 5.26741 74.5483 5.28457 74.5311 5.30173C74.4968 5.42183 74.4625 5.54194 74.4453 5.66204C74.4453 5.6792 74.4453 5.69636 74.4282 5.71352C74.3939 5.88509 74.3595 6.03951 74.3424 6.19393C74.3424 6.21109 74.3424 6.22824 74.3252 6.2454V6.29688C74.3081 6.4513 74.2909 6.58856 74.2909 6.72582V7.24055C74.2909 7.36065 74.3081 7.49791 74.3252 7.61802C74.3252 7.63518 74.3252 7.65234 74.3424 7.68665C74.3595 7.7896 74.3767 7.89254 74.411 7.99549C74.411 8.01265 74.4282 8.0298 74.4282 8.06412L74.5311 8.37296C74.5483 8.39012 74.5483 8.40727 74.5654 8.44159C74.5997 8.52738 74.6512 8.61317 74.7027 8.69895C74.7027 8.71611 74.7198 8.71611 74.7198 8.73327C74.7713 8.81906 74.8228 8.90485 74.8914 8.97348L74.9429 9.02495L75.1488 9.23084L74.7713 11.3412C74.737 11.5471 74.6855 11.7359 74.6512 11.9418C74.6169 12.0962 74.5826 12.2506 74.5311 12.405C74.4968 12.5423 74.4625 12.6624 74.4282 12.7996L74.3252 13.16C74.2737 13.3144 74.2223 13.4516 74.1708 13.6061L74.0679 13.9149C73.9992 14.0865 73.9478 14.2409 73.8791 14.3953L73.7762 14.6527C73.6904 14.8757 73.5874 15.0816 73.4845 15.3047C73.4673 15.3218 73.4673 15.3561 73.4502 15.3733C73.3301 15.6135 73.21 15.8537 73.0899 16.0768C73.0555 16.1454 73.0041 16.214 72.9698 16.2998C72.884 16.4542 72.7982 16.6258 72.6952 16.7802L72.5408 17.0376L72.2835 17.4494C72.2148 17.5523 72.1462 17.6381 72.0947 17.7411L71.8374 18.1014C71.7516 18.2043 71.6829 18.3244 71.5971 18.4274C71.5114 18.5303 71.4427 18.6333 71.3569 18.7362C71.254 18.8735 71.1339 19.0107 71.0138 19.148L70.7049 19.5083C70.6535 19.5598 70.6192 19.6113 70.5677 19.6627C70.3961 19.8515 70.2245 20.023 70.053 20.1946C69.9329 20.2976 69.8299 20.4177 69.7098 20.5206C69.624 20.6064 69.5382 20.675 69.4524 20.7608L69.0921 21.0697C69.0063 21.1383 68.9205 21.2069 68.8519 21.2755C68.7147 21.3785 68.5774 21.4814 68.423 21.5844L68.2171 21.7388C68.0112 21.8761 67.7881 22.0133 67.5651 22.1506C67.4107 22.2364 67.2562 22.3222 67.0847 22.408C67.0332 22.4251 66.9989 22.4594 66.9474 22.4766C66.8273 22.5281 66.7072 22.5967 66.5871 22.6482C66.5528 22.6653 66.5013 22.6825 66.467 22.6996C66.3469 22.7511 66.2439 22.7854 66.141 22.8197C66.1238 22.8369 66.0895 22.8369 66.0724 22.8541C65.9351 22.9055 65.7978 22.9398 65.6777 22.9742C65.6091 22.9913 65.5233 23.0085 65.4547 23.0256C65.4204 23.0428 65.3689 23.0428 65.3346 23.06L65.0257 23.1114H65.0086C64.837 23.1457 64.6654 23.1457 64.511 23.1629H63.8933C63.7732 23.1457 63.6703 23.1457 63.5673 23.1286C63.533 23.1286 63.4987 23.1114 63.4644 23.1114C63.3443 23.0943 63.207 23.06 63.0869 23.0256H63.0698C62.9497 22.9913 62.8467 22.957 62.7438 22.9055C62.7095 22.8884 62.6751 22.8712 62.6408 22.8712C62.555 22.8369 62.4521 22.7854 62.3663 22.734C62.332 22.7168 62.3148 22.6996 62.2805 22.6825L65.0944 24.3125C65.1115 24.3125 65.1287 24.3296 65.1287 24.3296C65.1459 24.3468 65.163 24.3468 65.1802 24.3468C65.266 24.3983 65.3689 24.4326 65.4547 24.484C65.4718 24.484 65.489 24.5012 65.5062 24.5012C65.5233 24.5012 65.5405 24.5184 65.5576 24.5184C65.6606 24.5698 65.7807 24.6041 65.8836 24.6385H65.9008C66.0209 24.6728 66.141 24.7071 66.2783 24.7242C66.2954 24.7242 66.3126 24.7242 66.3126 24.7414H66.3812C66.4841 24.7586 66.6043 24.7757 66.7072 24.7757H66.7758C66.9131 24.7757 67.0675 24.7929 67.2048 24.7757H67.2906C67.4621 24.7586 67.6166 24.7586 67.7881 24.7242H67.8053C67.9082 24.7071 68.0112 24.6899 68.1313 24.6728C68.1656 24.6728 68.1999 24.6556 68.2514 24.6385L68.4573 24.587H68.4744C68.6117 24.5527 68.7318 24.5184 68.8691 24.4669C68.8862 24.4669 68.9205 24.4497 68.9377 24.4326C69.0407 24.3983 69.1607 24.3468 69.2637 24.3125C69.2809 24.3125 69.298 24.2953 69.298 24.2953C69.3323 24.2781 69.3495 24.2782 69.3838 24.261C69.5039 24.2095 69.624 24.158 69.7441 24.0894C69.7956 24.0723 69.8299 24.0379 69.8814 24.0208C70.0358 23.935 70.1902 23.8664 70.3618 23.7634C70.5848 23.6433 70.7907 23.5061 71.0138 23.3516L71.2197 23.1972C71.3569 23.0943 71.4942 22.9913 71.6486 22.8884C71.7344 22.8197 71.8202 22.7511 71.8888 22.6825L72.2491 22.3736C72.3349 22.305 72.4207 22.2192 72.5065 22.1334C72.6266 22.0305 72.7296 21.9275 72.8497 21.8074L72.8668 21.7903C73.0384 21.6187 73.1928 21.4471 73.3644 21.2755C73.4159 21.2241 73.4502 21.1726 73.5016 21.1211C73.5703 21.0525 73.6217 20.9839 73.6904 20.9152C73.7419 20.8638 73.7762 20.8123 73.8105 20.7608C73.9306 20.6236 74.0335 20.4863 74.1536 20.349C74.2051 20.2976 74.2394 20.2461 74.2909 20.1775C74.3252 20.126 74.3595 20.0745 74.3939 20.0402C74.4796 19.9373 74.5483 19.8171 74.6341 19.7142L74.7885 19.5083C74.8228 19.4568 74.8571 19.4054 74.8914 19.3367C74.96 19.2338 75.0287 19.148 75.0802 19.045C75.1145 18.9764 75.166 18.9249 75.2003 18.8563C75.2517 18.7877 75.2861 18.7019 75.3375 18.6333L75.4919 18.3759C75.5263 18.3244 75.5434 18.2901 75.5777 18.2386C75.6464 18.1185 75.6978 18.0156 75.7665 17.8955C75.8008 17.8269 75.8523 17.7582 75.8866 17.6724C75.9037 17.6553 75.9037 17.621 75.9209 17.6038C76.0238 17.3979 76.1439 17.192 76.2469 16.969V16.9518C76.264 16.9347 76.264 16.9003 76.2812 16.8832C76.367 16.6944 76.4528 16.5057 76.5386 16.3341C76.5557 16.2998 76.5557 16.2655 76.5729 16.2483L76.6758 15.991C76.7273 15.888 76.7616 15.7679 76.8131 15.665C76.8302 15.6135 76.8474 15.562 76.8646 15.4934L76.9675 15.1846C77.0018 15.0988 77.019 15.0301 77.0533 14.9444C77.0705 14.8757 77.0876 14.8071 77.1219 14.7385L77.2249 14.3782C77.242 14.3095 77.2592 14.258 77.2763 14.1894L77.3278 13.9835C77.3621 13.8291 77.4136 13.6747 77.4479 13.5203C77.4651 13.4516 77.4822 13.383 77.4994 13.3315C77.5337 13.1943 77.5509 13.057 77.5852 12.9369L77.9627 10.8265L77.7568 10.6206L77.7053 10.5691C77.6367 10.5005 77.5852 10.4147 77.5337 10.3289C77.5337 10.3118 77.5166 10.3118 77.5166 10.2946C77.4651 10.2088 77.4308 10.123 77.3793 10.0373C77.3621 10.0201 77.3621 10.0029 77.345 9.96862C77.3107 9.86568 77.2592 9.76273 77.242 9.65979C77.242 9.64263 77.2249 9.62547 77.2249 9.59116C77.1906 9.48821 77.1734 9.38526 77.1562 9.28232C77.1562 9.26516 77.1562 9.248 77.1391 9.21369C77.1219 9.09358 77.1048 8.97348 77.1048 8.83621V8.75043V8.37296V8.32148C77.1048 8.18422 77.1219 8.0298 77.1391 7.89254C77.1391 7.85823 77.1562 7.82391 77.1562 7.7896C77.1734 7.63518 77.2077 7.48076 77.242 7.30918C77.242 7.29202 77.2592 7.27487 77.2592 7.25771C77.2935 7.1376 77.3107 7.0175 77.345 6.8974C77.3793 6.79445 77.3965 6.70866 77.4308 6.60572C77.4994 6.39982 77.568 6.19393 77.6538 5.98804C77.671 5.95372 77.671 5.93656 77.6881 5.90225L77.9455 5.33604C77.9627 5.31889 77.9626 5.28457 77.9798 5.26741C78.0828 5.07868 78.1857 4.9071 78.2887 4.71837C78.3058 4.68405 78.323 4.66689 78.3401 4.63258C78.4431 4.461 78.5632 4.28943 78.6833 4.11785C78.7004 4.08353 78.7347 4.04922 78.7519 4.03206C78.8548 3.87764 78.975 3.74038 79.0951 3.58596C79.1122 3.5688 79.1294 3.53449 79.1637 3.51733C79.301 3.34575 79.4554 3.19133 79.6098 3.03691L79.6269 3.01975C79.7814 2.86533 79.9358 2.72807 80.0902 2.60797C80.0902 2.60797 80.1074 2.60797 80.1074 2.59081C80.2789 2.45355 80.4334 2.33345 80.6049 2.2305C80.6736 2.17903 80.7422 2.14471 80.8108 2.1104C80.9309 2.04177 81.051 1.97314 81.1711 1.92166C81.1883 1.97314 81.2055 1.95598 81.2398 1.93882ZM53.5644 16.8832L53.2041 22.4594C53.1869 22.734 53.1526 23.0085 53.1183 23.3002C53.1183 23.3345 53.1011 23.3859 53.1011 23.4203C53.0668 23.6776 53.0154 23.935 52.9639 24.1752C52.9639 24.1924 52.9639 24.2095 52.9467 24.2267C52.8953 24.4669 52.8438 24.6899 52.7751 24.9301C52.758 24.9816 52.7408 25.0502 52.7237 25.1017C52.655 25.3762 52.5521 25.6508 52.4663 25.9424C52.4492 26.0111 52.4148 26.0797 52.3805 26.1655C52.3119 26.3714 52.2261 26.5601 52.1575 26.766L52.0545 27.0234C51.9687 27.2293 51.8829 27.418 51.7972 27.6239C51.7628 27.6925 51.7457 27.7612 51.7114 27.8298C51.5913 28.0872 51.454 28.3445 51.3339 28.6019C51.2996 28.6534 51.2824 28.7048 51.2481 28.7563C51.1452 28.9622 51.0251 29.1509 50.905 29.3568C50.8535 29.4426 50.802 29.5112 50.7505 29.597C50.6476 29.7686 50.5275 29.9402 50.4245 30.1118C50.3731 30.1976 50.3216 30.2833 50.253 30.352C50.1329 30.5236 50.0128 30.678 49.8927 30.8495C49.8412 30.9353 49.7725 31.004 49.7211 31.0898C49.6181 31.2099 49.5152 31.33 49.4294 31.4672C49.3265 31.5873 49.2407 31.7074 49.1377 31.8275C48.9661 32.0334 48.7774 32.2222 48.6058 32.4109C48.5715 32.4624 48.52 32.4967 48.4686 32.5482C48.3313 32.6854 48.194 32.8227 48.0568 32.9428C47.971 33.0286 47.8852 33.1144 47.7994 33.183C47.6622 33.3031 47.542 33.406 47.4048 33.5261L47.1474 33.732C46.993 33.8521 46.8557 33.9551 46.7013 34.058C46.6327 34.1095 46.5469 34.161 46.4783 34.2125C46.2552 34.3669 46.015 34.5213 45.792 34.6414C45.6375 34.7272 45.466 34.813 45.3115 34.8988C45.2601 34.9159 45.2258 34.9502 45.1743 34.9674C45.0542 35.036 44.9341 35.0875 44.7968 35.139L44.6939 35.1904C44.5738 35.2419 44.4537 35.2934 44.3336 35.3277C44.3164 35.3277 44.2992 35.3449 44.2992 35.3449C44.162 35.3963 44.0247 35.4307 43.9046 35.465L43.6987 35.5164C43.6472 35.5336 43.6129 35.5336 43.5615 35.5508C43.4757 35.5679 43.3899 35.5851 43.3213 35.6022C43.2869 35.6022 43.2526 35.6194 43.2355 35.6194H43.2183C43.0467 35.6365 42.8923 35.6537 42.7379 35.6709H42.1202C42.0001 35.6537 41.8972 35.6537 41.7942 35.6365C41.7599 35.6365 41.7256 35.6194 41.6913 35.6194C41.5712 35.6022 41.4339 35.5679 41.3138 35.5336C41.2966 35.5336 41.2966 35.5336 41.2795 35.5164C41.1765 35.4821 41.0564 35.4478 40.9535 35.3963C40.9192 35.3792 40.8849 35.362 40.8505 35.362C40.7648 35.3277 40.6618 35.2762 40.576 35.2248C40.5417 35.2076 40.5074 35.1904 40.4902 35.1733L43.3041 36.8033C43.3213 36.8033 43.3384 36.8204 43.3384 36.8204C43.3556 36.8376 43.3727 36.8376 43.3899 36.8376C43.4757 36.8891 43.5786 36.9234 43.6644 36.9748C43.6816 36.9748 43.6987 36.992 43.7159 36.992C43.733 36.992 43.7502 37.0092 43.7674 37.0092C43.8703 37.0435 43.9732 37.095 44.0934 37.1293C44.1105 37.1293 44.1105 37.1293 44.1277 37.1464C44.2478 37.1807 44.3679 37.2151 44.5051 37.2322C44.5223 37.2322 44.5395 37.2322 44.5395 37.2494H44.6081C44.711 37.2665 44.8311 37.2837 44.9341 37.2837H45.0027C45.14 37.2837 45.2944 37.3008 45.4317 37.2837H45.5174C45.6719 37.2665 45.8434 37.2665 45.9979 37.2322H46.015C46.0493 37.2322 46.0836 37.2151 46.1008 37.2151C46.1866 37.1979 46.2552 37.1807 46.341 37.1636C46.3925 37.1464 46.4268 37.1464 46.4783 37.1293C46.5469 37.1121 46.5984 37.095 46.667 37.0778H46.7013C46.8386 37.0435 46.9587 37.0092 47.0959 36.9577C47.1131 36.9577 47.1303 36.9405 47.1303 36.9405C47.2504 36.9062 47.3705 36.8547 47.4906 36.8033C47.5077 36.8033 47.5077 36.8033 47.5249 36.7861C47.542 36.769 47.5764 36.769 47.5935 36.7518C47.7136 36.7003 47.8337 36.6488 47.971 36.5802C48.0225 36.5631 48.0568 36.5459 48.1083 36.5116C48.2627 36.4258 48.4171 36.34 48.5887 36.2542C48.8117 36.117 49.0519 35.9797 49.275 35.8253C49.3436 35.7738 49.4294 35.7223 49.498 35.6709C49.6524 35.5679 49.7897 35.4478 49.9441 35.3449L50.2015 35.139C50.3388 35.036 50.4589 34.9159 50.5961 34.7958C50.6819 34.71 50.7677 34.6414 50.8535 34.5556C50.9221 34.487 51.0079 34.4184 51.0765 34.3497C51.1452 34.2811 51.2138 34.2125 51.2653 34.1438L51.4025 34.0066C51.5741 33.835 51.7457 33.6463 51.9001 33.4575C51.9173 33.4404 51.9173 33.4232 51.9344 33.406C52.0374 33.2859 52.1403 33.1658 52.2261 33.0457C52.3119 32.9428 52.3977 32.8398 52.4835 32.7197C52.5006 32.7026 52.5006 32.6854 52.5178 32.6683C52.5693 32.5825 52.6379 32.5138 52.6894 32.4281C52.7923 32.3079 52.8781 32.1707 52.981 32.0334C52.9982 31.9991 53.0325 31.9648 53.0497 31.9305C53.1011 31.8447 53.1526 31.7589 53.2212 31.6903C53.2899 31.5873 53.3585 31.5015 53.41 31.3986C53.4615 31.33 53.4958 31.2613 53.5472 31.1755C53.5987 31.0898 53.6502 31.0211 53.7017 30.9353C53.736 30.8839 53.7703 30.8152 53.8046 30.7638C53.8904 30.6265 53.959 30.4721 54.0448 30.3348C54.0791 30.2833 54.0963 30.2319 54.1306 30.1804C54.1306 30.1632 54.1478 30.1461 54.1649 30.1289C54.2679 29.923 54.388 29.7 54.4909 29.4941C54.5081 29.4598 54.5081 29.4426 54.5252 29.4083C54.5595 29.3397 54.5939 29.271 54.611 29.2024C54.6625 29.0823 54.7311 28.9622 54.7826 28.8421C54.8169 28.7735 54.8512 28.6877 54.8855 28.619L54.9885 28.3617C55.0056 28.2931 55.04 28.2416 55.0571 28.1729L55.2115 27.7612C55.2287 27.6925 55.263 27.6239 55.2973 27.5381C55.2973 27.521 55.3145 27.4866 55.3145 27.4695C55.4003 27.2121 55.4689 26.9548 55.5547 26.7145C55.5719 26.6631 55.589 26.5944 55.6062 26.543C55.6576 26.3199 55.7263 26.0969 55.7777 25.8738V25.8395C55.7777 25.8223 55.7777 25.8052 55.7949 25.788C55.8464 25.5307 55.8979 25.2733 55.9322 25.0331C55.9322 24.9988 55.9493 24.9473 55.9493 24.913C55.9493 24.8787 55.9493 24.8615 55.9665 24.8272C56.0008 24.5698 56.018 24.3125 56.0351 24.0723L56.3954 18.496L53.5644 16.8832Z" fill="#8AEA16"/>
<path d="M60.5648 4.61528C60.6678 4.58096 60.7879 4.54665 60.8908 4.52949C61.0109 4.49518 61.131 4.47802 61.234 4.46086C61.2683 4.46086 61.2855 4.4437 61.3198 4.4437C61.457 4.42654 61.5771 4.40939 61.6972 4.40939H62.0575C62.1262 4.40939 62.212 4.42654 62.2806 4.4437C62.3149 4.4437 62.3492 4.4437 62.3835 4.46086C62.4865 4.47802 62.5894 4.49518 62.6924 4.52949C62.7095 4.52949 62.7439 4.54665 62.761 4.56381C62.8296 4.58096 62.9154 4.61528 62.9841 4.64959L63.087 4.70107C63.1556 4.73538 63.2071 4.75254 63.2757 4.78686L60.4619 3.15687C60.4447 3.15687 60.4447 3.13972 60.4276 3.13972C60.3761 3.1054 60.3246 3.08824 60.2731 3.07109L60.1702 3.01961H60.153C60.0844 2.9853 60.0158 2.96814 59.93 2.95098C59.9128 2.95098 59.8785 2.93382 59.8614 2.93382C59.7584 2.89951 59.6555 2.88235 59.5525 2.86519C59.5182 2.86519 59.4839 2.86519 59.4496 2.84804C59.3809 2.83088 59.2952 2.83088 59.2265 2.81372H58.8834C58.7633 2.81372 58.626 2.83088 58.5059 2.84804H58.4887C58.4716 2.84804 58.4373 2.86519 58.4201 2.86519C58.3 2.88235 58.1971 2.91667 58.077 2.93382C58.0598 2.93382 58.0426 2.93383 58.0255 2.95098C57.9397 2.96814 57.8368 3.00246 57.751 3.03677C57.6137 3.08824 57.4936 3.12256 57.3735 3.17403C57.322 3.19119 57.2706 3.22551 57.2191 3.24266C57.1676 3.25982 57.1333 3.27698 57.0818 3.3113C56.9102 3.39708 56.7215 3.48287 56.5499 3.58582C56.3784 3.68876 56.1896 3.80887 56.018 3.91182C55.9666 3.94613 55.9151 3.9976 55.8465 4.03192C55.7264 4.11771 55.6063 4.2035 55.5033 4.28928C55.4347 4.34076 55.3832 4.39223 55.3146 4.4437C55.2116 4.52949 55.1087 4.61528 55.0057 4.71823C54.9371 4.7697 54.8856 4.83833 54.817 4.8898C54.7827 4.92412 54.7312 4.95843 54.6969 4.99275L54.5768 5.11285C54.4567 5.23296 54.3366 5.37022 54.2165 5.50748L54.0964 5.62759C54.0621 5.6619 54.0277 5.69622 54.0106 5.74769L53.8047 6.00505C53.7532 6.05653 53.7189 6.108 53.6674 6.17663L53.5645 6.33105L53.4101 6.53694C53.3758 6.58841 53.3414 6.62273 53.3071 6.6742C53.2556 6.75999 53.187 6.84578 53.1355 6.93157L53.0326 7.08599C53.0154 7.10315 52.9983 7.1203 52.9811 7.15462C52.8782 7.30904 52.7924 7.46346 52.6894 7.61788C52.6894 7.63504 52.6723 7.63503 52.6723 7.65219L52.6208 7.75514C52.5522 7.85809 52.5007 7.97819 52.4321 8.08113C52.3978 8.13261 52.3806 8.18408 52.3463 8.25271C52.312 8.30418 52.2948 8.35566 52.2605 8.42429C52.2433 8.47576 52.209 8.51008 52.1919 8.56155C52.1232 8.69882 52.0718 8.83607 52.0031 8.95618C51.986 8.97334 51.986 8.99049 51.9688 9.02481V9.04197C51.9002 9.21354 51.8316 9.36796 51.7629 9.53954C51.7458 9.57385 51.7458 9.60817 51.7286 9.62533C51.7115 9.69396 51.6771 9.74543 51.66 9.81406C51.6257 9.89985 51.5914 9.96848 51.5742 10.0543C51.557 10.1229 51.5399 10.1915 51.5227 10.243C51.5056 10.3116 51.4712 10.3974 51.4541 10.4661C51.4369 10.5175 51.4198 10.5518 51.4198 10.6033C51.4026 10.6891 51.3855 10.7749 51.3511 10.8607C51.334 10.9465 51.2997 11.0494 51.2825 11.1352C51.2825 11.1695 51.2654 11.2038 51.2654 11.2382C51.2482 11.3068 51.2482 11.3754 51.231 11.444C51.1967 11.5985 51.1796 11.7357 51.1624 11.8901C51.1624 11.9245 51.1453 11.9759 51.1453 12.0102C51.1281 12.096 51.1281 12.199 51.1109 12.2848C51.1109 12.3534 51.0938 12.422 51.0938 12.4735C51.0766 12.6794 51.0766 12.8853 51.0766 13.0912C51.0766 14.8241 51.6943 16.0423 52.6894 16.6257L55.5033 18.2557C54.5082 17.6723 53.8905 16.4541 53.8905 14.7212C53.8905 14.5153 53.9076 14.3094 53.9076 14.1035C53.9076 14.0349 53.9248 13.9662 53.9248 13.9148C53.942 13.7775 53.9591 13.6574 53.9763 13.5201C53.9934 13.3657 54.0277 13.2284 54.0449 13.074C54.0621 12.9711 54.0792 12.8681 54.0964 12.7823C54.1135 12.6966 54.1478 12.5936 54.165 12.5078C54.1993 12.3706 54.2336 12.2505 54.268 12.1132C54.2851 12.0446 54.3194 11.9588 54.3366 11.8901C54.3881 11.7357 54.4395 11.5985 54.491 11.444C54.5082 11.3754 54.5253 11.3239 54.5596 11.2553C54.6283 11.0494 54.7141 10.8435 54.7998 10.6548C54.817 10.6376 54.817 10.6205 54.8342 10.6033C54.9199 10.4146 55.0057 10.243 55.0915 10.0543C55.1258 10.0028 55.143 9.95132 55.1773 9.88269C55.2631 9.71112 55.3489 9.5567 55.4347 9.38512L55.4861 9.28217C55.5891 9.09344 55.7092 8.90471 55.8293 8.71597L55.9323 8.56155C56.018 8.42429 56.121 8.30418 56.2068 8.16692L56.3612 7.96103C56.447 7.85809 56.5328 7.75514 56.6014 7.63504L56.8073 7.37767C56.8759 7.29188 56.9446 7.22325 57.0132 7.13746C57.1333 7.0002 57.2534 6.8801 57.3735 6.74284L57.6137 6.50263C57.6823 6.45115 57.7338 6.38252 57.8024 6.33105C57.9054 6.24526 58.0083 6.14232 58.1113 6.05653C58.1799 6.00505 58.2314 5.95358 58.3 5.90211C58.4201 5.81632 58.5231 5.73053 58.6432 5.64474C58.6946 5.61043 58.7461 5.55895 58.8147 5.52464C58.9863 5.40453 59.1579 5.30159 59.3466 5.19864C59.5182 5.0957 59.6898 5.00991 59.8785 4.92412C59.93 4.90696 59.9643 4.8898 60.0158 4.85549C60.2217 4.73538 60.3933 4.66675 60.5648 4.61528ZM39.907 62.3166L37.0931 60.6866L33.6787 34.401L36.4926 36.0482L39.907 62.3166Z" fill="#8AEA16"/>
<path d="M59.3808 5.14714C59.7754 4.92409 60.1701 4.73535 60.5818 4.59809C62.6579 3.91178 64.3394 4.85545 64.7855 6.96585C65.3174 9.43656 64.2536 12.5936 62.4692 14.9957L62.8638 20.143C63.1898 24.4152 66.4326 25.9937 70.3274 23.7461C73.7933 21.7558 76.7787 17.2948 77.568 12.971L77.9454 10.8607C77.1219 10.14 76.813 8.66447 77.4135 6.69133C77.9626 4.92409 79.2151 3.174 80.6049 2.29896C80.6735 2.24748 80.7421 2.21317 80.8108 2.17885C83.2128 0.78908 84.9458 2.24748 84.5683 5.0785C84.3453 6.67417 83.5045 8.33847 82.3893 9.55667L79.1293 39.6684L39.9068 62.3166L36.4924 36.0482C35.3772 36.1168 34.5193 35.4476 34.2962 34.0922C33.8845 31.7244 35.6002 28.2586 38.0195 26.8688C38.0881 26.8345 38.1567 26.8002 38.2254 26.7487C39.598 26.0281 40.8676 26.3197 41.4167 27.4521C42.0344 28.7218 41.7427 30.5577 40.9191 32.222L41.3137 33.8863C42.1202 37.2835 45.1399 38.2787 48.5886 36.2884C52.4834 34.0407 55.7091 28.739 56.0007 24.0892L56.361 18.513C54.8683 18.2385 53.8732 16.8658 53.8732 14.6525C53.8732 11.1695 56.3267 6.91438 59.3808 5.14714Z" fill="#B4FF59"/>
<path d="M35.3259 35.7908L32.512 34.1608C31.9973 33.8519 31.6198 33.2857 31.4826 32.4622C31.4139 32.0161 31.4139 31.5357 31.4654 31.0381L34.2793 32.6681C34.2106 33.1656 34.2106 33.6461 34.2964 34.0922C34.4337 34.9157 34.794 35.4819 35.3259 35.7908Z" fill="#8AEA16"/>
<path d="M34.2792 32.6683L31.4653 31.0383C31.4825 30.8667 31.5168 30.678 31.5511 30.5064L34.365 32.1364C34.3307 32.308 34.2964 32.4795 34.2792 32.6683ZM34.365 32.1192L31.5511 30.4892C31.5854 30.352 31.6198 30.1976 31.6541 30.0603L34.4679 31.6903C34.4336 31.8447 34.3993 31.982 34.365 32.1192Z" fill="#8AEA16"/>
<path d="M34.4679 31.6903L31.6541 30.0603C31.6884 29.9402 31.7227 29.803 31.7742 29.6829L34.588 31.3128C34.5537 31.4329 34.5194 31.5702 34.4679 31.6903Z" fill="#8AEA16"/>
<path d="M34.588 31.3127L31.7742 29.6827C31.8085 29.5626 31.86 29.4425 31.8943 29.3224L34.7081 30.9524C34.6738 31.0725 34.6395 31.1926 34.588 31.3127ZM34.7253 30.9524L31.9114 29.3224C31.9629 29.2023 31.9972 29.0994 32.0487 28.9792L34.8626 30.6092C34.8111 30.7293 34.7596 30.8494 34.7253 30.9524Z" fill="#8AEA16"/>
<path d="M34.8624 30.6264L32.0486 28.9964C32.1001 28.8935 32.1515 28.7734 32.203 28.6704L35.0169 30.3004C34.9482 30.4033 34.9139 30.5063 34.8624 30.6264Z" fill="#8AEA16"/>
<path d="M34.9999 30.3005L32.186 28.6705C32.2375 28.5676 32.289 28.4647 32.3405 28.3446L35.1543 29.9745C35.12 30.0775 35.0685 30.1804 34.9999 30.3005ZM35.1715 29.9745L32.3576 28.3446C32.4091 28.2416 32.4777 28.1387 32.5292 28.0357L35.3431 29.6657C35.2916 29.7686 35.2229 29.8716 35.1715 29.9745ZM35.3431 29.6485L32.5292 28.0186C32.5978 27.9156 32.6493 27.8127 32.7179 27.7097L35.5318 29.3397C35.4803 29.4426 35.4117 29.5456 35.3431 29.6485Z" fill="#8AEA16"/>
<path d="M35.5316 29.3397L32.7178 27.7097C32.7864 27.6067 32.855 27.4866 32.9408 27.3837L35.7547 29.0137C35.6861 29.1166 35.6174 29.2367 35.5316 29.3397ZM35.7547 29.0137L32.9408 27.3837C33.0266 27.2636 33.1124 27.1606 33.1982 27.0405L36.0121 28.6705C35.9263 28.7906 35.8405 28.8936 35.7547 29.0137Z" fill="#8AEA16"/>
<path d="M36.0121 28.6705L33.1982 27.0405L33.5071 26.6802L36.3209 28.3102C36.2008 28.4303 36.0979 28.5504 36.0121 28.6705Z" fill="#8AEA16"/>
<path d="M36.3039 28.3101L33.49 26.6801C33.6273 26.5257 33.7645 26.3884 33.9018 26.234L36.7156 27.864C36.5784 28.0184 36.4411 28.1557 36.3039 28.3101ZM36.7156 27.864L33.9018 26.234C34.2964 25.8394 34.7425 25.4962 35.1886 25.2389C35.2572 25.2046 35.3259 25.1703 35.3945 25.1188L35.7033 24.9644L38.5172 26.5943C38.4143 26.6458 38.3113 26.6801 38.2084 26.7488C38.1397 26.7831 38.0711 26.8174 38.0025 26.8689C37.5564 27.1434 37.1274 27.4694 36.7156 27.864Z" fill="#8AEA16"/>
<path d="M38.5343 26.6115L35.7205 24.9815C35.8577 24.93 36.0121 24.8786 36.1494 24.8442L38.9633 26.4742C38.826 26.5085 38.6716 26.56 38.5343 26.6115Z" fill="#8AEA16"/>
<path d="M38.9633 26.4742L36.1494 24.8442C36.2524 24.8099 36.3725 24.7928 36.4754 24.7756L39.2893 26.4056C39.1692 26.4056 39.0662 26.4399 38.9633 26.4742ZM39.2893 26.3884L36.4754 24.7584C36.5784 24.7413 36.6641 24.7413 36.7499 24.7241L39.5638 26.3541C39.478 26.3713 39.3751 26.3884 39.2893 26.3884Z" fill="#8AEA16"/>
<path d="M39.5639 26.3712L36.75 24.7412H37.0074L39.8212 26.3712H39.5639Z" fill="#8AEA16"/>
<path d="M39.8039 26.3712L36.99 24.7412C37.0758 24.7412 37.1444 24.7584 37.213 24.7755L40.0269 26.4055C39.9583 26.3884 39.8896 26.3712 39.8039 26.3712ZM40.0441 26.4055L37.2302 24.7755L37.4361 24.827L40.25 26.457C40.1813 26.4227 40.1127 26.4055 40.0441 26.4055ZM40.25 26.4398L37.4361 24.8098C37.5047 24.827 37.5733 24.8613 37.642 24.8785L40.4558 26.5085C40.3872 26.4913 40.3186 26.4741 40.25 26.4398Z" fill="#8AEA16"/>
<path d="M40.456 26.5086L37.6421 24.8787C37.7107 24.913 37.7622 24.9301 37.8308 24.9645L40.6447 26.5944C40.5761 26.5773 40.5074 26.543 40.456 26.5086Z" fill="#8AEA16"/>
<path d="M40.6447 26.6117L37.8308 24.9817C37.8308 24.9817 37.848 24.9817 37.848 24.9988L40.6618 26.6288L40.6447 26.6117Z" fill="#8AEA16"/>
<path d="M61.9031 31.45L59.8613 30.2661L66.2783 33.9207L68.3201 35.1046L61.9031 31.45Z" fill="#9E9E9E"/>
<path d="M59.4153 29.4082L65.8323 33.0628L59.4668 44.1123L53.0498 40.4578L59.4153 29.4082Z" fill="#8AEA16"/>
<path d="M55.5376 42.4824L53.4958 41.2985L59.8614 30.2661L61.9031 31.45L55.5376 42.4824Z" fill="#ACC5EA"/>
<path d="M61.9031 31.45L68.3201 35.1045L61.9546 46.1541L55.5376 42.4824L61.9031 31.45Z" fill="white"/>
<path d="M71.7687 76.403C71.8717 76.5746 72.0089 76.6947 72.1634 76.7805L74.7027 78.2732C74.2909 78.033 74.0164 77.5183 74.0164 76.7805L71.4771 75.3049C71.4771 75.751 71.58 76.1285 71.7687 76.403Z" fill="#C68620"/>
<path d="M102.979 36.889C102.927 36.8547 102.893 36.8376 102.841 36.8204H102.824C102.807 36.8204 102.79 36.8032 102.79 36.8032C102.773 36.8032 102.756 36.7861 102.721 36.7861C102.704 36.7861 102.67 36.7689 102.653 36.7689C102.636 36.7689 102.618 36.7689 102.618 36.7518H102.601C102.55 36.7518 102.515 36.7346 102.464 36.7346H102.138C102.121 36.7346 102.104 36.7346 102.086 36.7518C102.052 36.7518 102.018 36.7689 101.984 36.7689C101.966 36.7689 101.949 36.7689 101.932 36.7861C101.915 36.7861 101.898 36.8032 101.881 36.8032C101.829 36.8204 101.778 36.8376 101.709 36.8547C101.692 36.8547 101.675 36.8719 101.658 36.8719C101.64 36.8719 101.64 36.889 101.623 36.889C101.52 36.9234 101.434 36.9748 101.332 37.0263L73.742 52.9487C73.6219 53.0173 73.5018 53.1031 73.3816 53.1889C73.3645 53.206 73.3473 53.2232 73.313 53.2403C73.2101 53.3261 73.09 53.4291 72.987 53.532C72.9699 53.532 72.9699 53.5492 72.9527 53.5492L72.9012 53.6006C72.8498 53.6521 72.7983 53.7036 72.7468 53.7722L72.6953 53.8237C72.6782 53.8408 72.661 53.858 72.661 53.8752C72.6267 53.9095 72.5924 53.9438 72.5752 53.9781C72.5581 53.9953 72.5409 54.0296 72.5238 54.0467C72.5066 54.0639 72.4894 54.0811 72.4723 54.1154C72.4551 54.1497 72.4208 54.1668 72.4037 54.2012L72.3522 54.2526C72.335 54.2869 72.3007 54.3213 72.2836 54.3556C72.2664 54.3727 72.2492 54.4071 72.2321 54.4242C72.2321 54.4414 72.2149 54.4414 72.2149 54.4585C72.1806 54.5272 72.1291 54.5958 72.0948 54.6644V54.6816C72.0948 54.6987 72.0777 54.7159 72.0777 54.7159C72.0434 54.7674 72.0262 54.8188 71.9919 54.8532C71.9747 54.8703 71.9747 54.9046 71.9576 54.9218C71.9404 54.9389 71.9404 54.9733 71.9232 54.9904C71.9061 55.0076 71.9061 55.0247 71.8889 55.059C71.8718 55.1105 71.8375 55.162 71.8203 55.2135C71.8203 55.2306 71.8031 55.2306 71.8031 55.2478V55.2649C71.7688 55.3336 71.7517 55.4022 71.7173 55.4708C71.7173 55.488 71.7174 55.488 71.7002 55.5051C71.683 55.5223 71.683 55.5566 71.6659 55.5738C71.6487 55.6081 71.6316 55.6424 71.6316 55.6767C71.6144 55.711 71.6144 55.7282 71.6144 55.7625C71.5972 55.7968 71.5972 55.8311 71.5801 55.8655C71.5801 55.8826 71.5629 55.8998 71.5629 55.9341C71.5458 55.9684 71.5458 56.0027 71.5458 56.037C71.5286 56.0714 71.5286 56.1228 71.5115 56.1571C71.5115 56.1743 71.5115 56.1915 71.4943 56.2086C71.4943 56.2429 71.4771 56.2601 71.4771 56.2944C71.46 56.363 71.46 56.4145 71.4428 56.4831C71.4428 56.5003 71.4428 56.5174 71.4257 56.5346V56.5861C71.4085 56.7233 71.3914 56.8606 71.3914 56.9979L71.4428 75.3051L73.9822 76.7807L73.9307 58.4734C73.9307 58.3362 73.9479 58.1989 73.965 58.0616C73.965 58.0273 73.965 57.993 73.9822 57.9587C73.9993 57.8901 73.9993 57.8386 74.0165 57.77C74.0165 57.7356 74.0336 57.6842 74.0336 57.6327C74.0508 57.5984 74.0508 57.5469 74.068 57.5126C74.0851 57.4611 74.1023 57.4096 74.1194 57.341C74.1366 57.3067 74.1366 57.2724 74.1537 57.2381C74.1709 57.1694 74.1881 57.118 74.2224 57.0493C74.2395 57.0322 74.2395 56.9979 74.2567 56.9807L74.3596 56.7233C74.3596 56.7062 74.3768 56.7062 74.3768 56.689C74.4111 56.6204 74.4454 56.5346 74.4797 56.466C74.4969 56.4488 74.4969 56.4145 74.5141 56.3973C74.5484 56.3287 74.5827 56.2601 74.6342 56.1915C74.6342 56.1743 74.6513 56.1571 74.6513 56.1571C74.7028 56.0713 74.7543 56.0027 74.8057 55.9169C74.8229 55.8998 74.8401 55.8655 74.8572 55.8483C74.8915 55.7968 74.9258 55.7453 74.9773 55.6767C74.9945 55.6424 75.0288 55.6252 75.0459 55.5909C75.0803 55.5395 75.1146 55.5051 75.1489 55.4537C75.1832 55.4194 75.2175 55.385 75.2347 55.3336C75.269 55.2992 75.2861 55.2649 75.3205 55.2306C75.3719 55.1791 75.4234 55.1277 75.4749 55.059C75.492 55.0247 75.5264 55.0076 75.5607 54.9733C75.6636 54.8703 75.7666 54.7674 75.8867 54.6816C75.9038 54.6644 75.921 54.6473 75.9553 54.6301C76.0754 54.5443 76.1955 54.4585 76.3156 54.3899L103.871 38.5362C103.974 38.4847 104.06 38.4332 104.163 38.3989C104.197 38.3818 104.231 38.3818 104.248 38.3646L104.403 38.3131C104.437 38.296 104.471 38.296 104.506 38.2788C104.54 38.2788 104.574 38.2617 104.609 38.2617C104.643 38.2617 104.694 38.2445 104.729 38.2445H104.986C105.038 38.2445 105.106 38.2617 105.158 38.2617C105.175 38.2617 105.192 38.2617 105.192 38.2788C105.244 38.296 105.278 38.296 105.312 38.3131C105.329 38.3131 105.346 38.3303 105.346 38.3303C105.398 38.3474 105.449 38.3818 105.501 38.3989L102.979 36.889Z" fill="#C68620"/>
<path d="M103.871 38.5362C105.158 37.7984 106.204 38.3989 106.204 39.8573L106.256 58.1646C106.256 59.6401 105.209 61.4417 103.939 62.1795L76.3498 78.1018C75.0629 78.8396 74.0163 78.2391 74.0163 76.7807L73.9648 58.4734C73.9648 56.9978 75.0115 55.1963 76.2811 54.4585L103.871 38.5362Z" fill="#FFCD2E"/>
<path d="M106.221 42.3108V45.9825L73.982 64.5643L73.9648 60.8926L106.221 42.3108Z" fill="white"/>
<path d="M94.0737 55.6595C95.2575 54.9732 96.0125 55.4365 96.0125 56.6547C96.0125 57.8729 95.2575 59.194 94.0737 59.8803L92.7011 60.6696V63.3976L91.7917 63.9295L91.7745 56.9807L94.0737 55.6595ZM94.0394 58.9366C94.6742 58.5763 95.1031 57.89 95.1031 57.1694C95.1031 56.4316 94.6742 56.26 94.0222 56.6203L92.7011 57.3924V59.7087L94.0394 58.9366ZM89.6985 58.1817L89.7156 65.1306L88.8063 65.6625L88.7891 58.7136L89.6985 58.1817ZM87.4336 59.4857L85.4605 67.5841L84.7399 67.9959L82.7324 62.1966L83.6933 61.6476L85.1002 65.9027L86.4728 60.0519L87.4336 59.4857Z" fill="#C68620"/>
<path d="M97.5912 58.1303L95.4979 56.9121C95.6695 57.0151 95.7724 57.2381 95.7724 57.5813C95.7724 57.6671 95.7724 57.7528 95.7553 57.8386V57.8729C95.7381 57.9587 95.721 58.0274 95.7038 58.1131V58.1303C95.6867 58.2161 95.6523 58.2847 95.618 58.3705V58.3877C95.5837 58.4735 95.5494 58.5421 95.4979 58.6107V58.6279C95.4465 58.6965 95.4121 58.7651 95.3607 58.8338L95.3435 58.8509C95.292 58.9196 95.2406 58.971 95.1719 59.0397C95.1205 59.0911 95.0861 59.1254 95.0347 59.1598C95.0175 59.1769 94.9832 59.1941 94.966 59.2112C94.8974 59.2627 94.8116 59.3142 94.7258 59.3657L96.8191 60.5839C96.9049 60.5324 96.9735 60.4809 97.0593 60.4294C97.0764 60.4123 97.1108 60.3951 97.1279 60.378C97.1794 60.3437 97.2309 60.2922 97.2652 60.2579L97.3853 60.1378L97.4367 60.0863L97.4539 60.0691L97.4711 60.052C97.4882 60.0177 97.5054 60.0005 97.5397 59.9662C97.5568 59.949 97.574 59.9147 97.5912 59.8976C97.5912 59.8804 97.6083 59.8804 97.6083 59.8632V59.8461C97.6083 59.8289 97.6255 59.8289 97.6255 59.8118C97.6426 59.7946 97.6598 59.7603 97.6598 59.7431C97.677 59.726 97.677 59.6917 97.6941 59.6745C97.6941 59.6573 97.7113 59.6402 97.7113 59.623V59.6059V59.5887C97.7284 59.5544 97.7284 59.5372 97.7456 59.5029C97.7627 59.4686 97.7627 59.4514 97.7799 59.4171C97.7799 59.4 97.7971 59.3828 97.7971 59.3485V59.3313V59.3142C97.8142 59.2799 97.8142 59.2456 97.8314 59.1941C97.8314 59.1598 97.8485 59.1255 97.8485 59.0911V59.0568V59.0397C97.8657 58.9539 97.8657 58.8852 97.8657 58.7995C97.8657 58.4391 97.7627 58.2161 97.5912 58.1303Z" fill="#E8CFAC"/>
<path d="M93.3702 60.1032L95.4634 61.3214L96.8017 60.5664L94.6913 59.3482L93.3702 60.1032ZM97.2135 57.0834C97.2821 57.0663 97.3336 57.0319 97.3851 57.0148C97.4023 57.0148 97.4194 56.9976 97.4366 56.9976C97.4709 56.9976 97.488 56.9805 97.5224 56.9805C97.5567 56.9805 97.591 56.9633 97.6253 56.9633H97.8484C97.8998 56.9633 97.9341 56.9633 97.9856 56.9805C98.0371 56.9805 98.0714 56.9976 98.1229 57.0148C98.14 57.0148 98.14 57.0148 98.1572 57.0319C98.1915 57.0491 98.243 57.0663 98.2773 57.0834L96.1841 55.8652H96.1669C96.1326 55.8481 96.1154 55.8309 96.0811 55.8309C96.0639 55.8309 96.064 55.8309 96.0468 55.8137C96.0296 55.8137 96.0296 55.8137 96.0125 55.7966C95.9953 55.7966 95.9953 55.7966 95.9782 55.7794C95.9438 55.7623 95.9095 55.7623 95.8752 55.7623C95.8409 55.7623 95.8066 55.7451 95.7723 55.7451H95.5321H95.5149C95.4806 55.7451 95.4634 55.7623 95.4291 55.7623C95.3948 55.7623 95.3776 55.7794 95.3433 55.7794H95.3262C95.309 55.7794 95.2919 55.7966 95.2747 55.7966C95.2232 55.8137 95.1546 55.8309 95.1031 55.8652C95.086 55.8652 95.086 55.8652 95.0688 55.8824C95.0516 55.8824 95.0516 55.8995 95.0345 55.8995C94.9315 55.951 94.8286 55.9853 94.7256 56.054L92.4265 57.3751L94.5198 58.5933L96.8189 57.2721C96.9218 57.2035 97.0248 57.152 97.1277 57.1177C97.1792 57.1006 97.1964 57.1006 97.2135 57.0834Z" fill="#E8CFAC"/>
<path d="M94.5713 65.5423L92.4609 64.3241L92.4438 57.3752L94.537 58.5934L94.5713 65.5423ZM91.5516 67.2752L89.4583 66.057L89.4412 59.1082L91.5344 60.3264L91.5516 67.2752Z" fill="#E8CFAC"/>
<path d="M91.5343 60.3263L89.4411 59.1081L90.3505 58.5762L92.4609 59.8115L91.5343 60.3263ZM87.8454 67.5325L85.7522 66.2971L87.1248 60.4464L89.218 61.6646L87.8454 67.5325Z" fill="#E8CFAC"/>
<path d="M89.2181 61.6648L87.1249 60.4466L88.1029 59.8804L90.1961 61.1157L89.2181 61.6648ZM85.4949 63.8266L83.3845 62.6084L84.3454 62.0594L86.4386 63.2776L85.4949 63.8266ZM87.5024 69.6259L85.392 68.4078L83.3845 62.6084L85.4949 63.8266L87.5024 69.6259Z" fill="#E8CFAC"/>
<path d="M96.8361 57.2723C98.02 56.586 98.7749 57.0493 98.7749 58.2675C98.7749 59.4857 98.02 60.8068 96.8361 61.4931L95.4635 62.2824V65.0104L94.5541 65.5423L94.537 58.5935L96.8361 57.2723ZM96.8018 60.5666C97.4366 60.2063 97.8656 59.52 97.8656 58.7994C97.8656 58.0616 97.4366 57.89 96.7846 58.2503L95.4635 59.0224V61.3387L96.8018 60.5666ZM92.4609 59.8117L92.478 66.7434L91.5515 67.2753L91.5344 60.3264L92.4609 59.8117ZM90.1961 61.1156L88.2058 69.2141L87.5023 69.6259L85.4949 63.8266L86.4385 63.2775L87.8455 67.5326L89.2181 61.6647L90.1961 61.1156Z" fill="white"/>
</svg>
