<svg width="390" height="358" viewBox="0 0 390 358" fill="none" xmlns="http://www.w3.org/2000/svg">
<g style="mix-blend-mode:luminosity" opacity="0.07">
<path d="M352.813 35.6456C352.813 35.6456 345.888 38.8981 341.05 48.2574C337.637 54.8952 331.276 68.8345 330.149 74.4434C323.821 77.0985 315.703 85.263 310.202 90.8719C313.582 92.2658 316.697 94.6554 318.784 97.6092C322.561 95.8502 326.107 94.1576 327.333 93.4274C328.758 92.5977 332.966 89.9094 335.318 88.4491C337.969 86.7896 340.123 86.0927 341.216 85.0638C344.397 82.0768 343.138 77.6627 349.334 69.5646C355.165 61.898 363.979 40.5908 363.979 40.5908L352.813 35.6788V35.6456Z" fill="#FFC9B6"/>
<path d="M331.209 59.6743C333.695 54.4637 338.598 49.5185 340.421 45.6686C345.722 34.4176 356.292 35.7452 356.292 35.7452L359.904 41.5532L348.274 68.6353C343.502 68.8676 336.246 65.5156 331.209 59.6743Z" fill="#6BBF00"/>
<path d="M395.225 227.344C395.887 228.075 398.107 230.132 398.439 232.323C398.77 234.546 399.466 236.405 398.439 239.624C397.412 242.844 395.788 242.313 395.788 242.313C395.788 242.313 394.893 248.287 392.508 251.838C390.122 255.389 383.86 256.75 380.811 256.75C375.543 256.75 376.173 253.198 379.155 247.756C382.302 241.981 384.522 237.6 384.357 233.252C384.191 228.904 384.357 223.959 384.357 223.959L395.225 227.278V227.344Z" fill="#305F00"/>
<path d="M349.268 204.112C349.268 204.112 350.659 206.635 352.084 209.256C353.542 211.878 352.879 212.874 353.012 216.359C353.144 219.844 346.981 221.038 346.981 221.038L345.325 219.976C345.325 219.976 344.596 221.835 339.526 224.822C334.457 227.809 328.393 228.041 325.875 226.647C323.357 225.253 321.998 224.59 326.935 219.91C331.872 215.23 337.207 208.394 337.207 208.394L349.234 204.112H349.268Z" fill="#305F00"/>
<path d="M371.004 122.999C371.004 122.999 361.295 137.403 357.187 146.762C353.078 156.088 343.668 163.622 344.231 165.016C345.556 168.368 352.979 179.752 351.189 189.941C349.533 199.366 351.189 207.63 351.189 207.63C351.189 207.63 341.647 213.173 337.24 208.427C335.384 199.267 324.549 160.933 322.826 157.847C325.775 149.55 332.435 138.033 337.24 122.501C342.044 107.002 347.114 97.1113 347.578 96.7462C348.042 96.4144 363.747 106.106 363.747 106.106L371.004 122.999Z" fill="#6BBF00"/>
<path d="M387.239 104.844C387.239 104.844 391.911 112.843 392.939 123.729C393.966 134.615 391.713 141.717 390.089 155.325C388.962 164.75 386.279 175.835 386.279 175.835C386.279 175.835 395.722 191.368 396.848 205.606C397.975 219.844 396.749 229.203 396.749 229.203C396.749 229.203 395.159 232.455 392.21 233.119C388.068 234.082 384.224 231.593 384.224 231.593C384.224 231.593 368.916 191.7 363.747 184.133C362.024 170.127 359.639 158.478 359.208 150.91C358.777 143.377 361.329 133.586 361.329 133.586C361.329 133.586 351.587 126.483 356.458 106.172C361.329 85.8603 387.239 104.911 387.239 104.911V104.844Z" fill="#90CC47"/>
<path d="M375.046 41.7855C372.462 40.9558 360.401 33.256 359.374 33.7538C352.084 37.3714 343.867 51.5099 342.806 61.1014C342.376 65.0509 343.237 75.4058 345.59 81.7449C343.138 85.6944 345.192 88.6814 345.325 89.843C345.557 91.8011 344.563 98.3061 343.801 100.165C342.376 103.716 341.05 106.106 342.475 107.499C345.987 110.918 354.934 115.83 366.166 117.722C378.094 119.713 386.113 112.478 389.824 107.499C390.719 106.338 389.294 100.032 386.676 98.3725C388.664 92.299 390.719 84.6987 392.673 77.3972C395.622 66.4117 400.593 53.5676 391.282 48.8216C387.306 46.797 380.646 43.6109 375.013 41.7523L375.046 41.7855Z" fill="#B4FF59"/>
<path d="M363.979 38.2674C358.612 42.7811 351.852 53.6671 359.075 61.566C363.747 61.7652 368.386 57.8489 374.151 52.5386C378.625 48.4232 382.899 44.9716 382.899 44.9716L377.432 42.3829L364.012 38.2343L363.979 38.2674Z" fill="#6BBF00"/>
<path d="M373.886 28.1117C373.886 28.1117 364.874 40.0929 361.726 45.0712C358.578 50.0495 358.379 52.6382 360.401 58.5127C363.747 58.1808 366.067 56.8864 371.004 51.6094C374.218 48.1909 377.432 45.8345 380.347 43.7436C377.266 42.051 373.886 28.0785 373.886 28.0785V28.1117Z" fill="#FFB9A4"/>
<path d="M350.096 26.7177C350.262 22.4695 351.189 17.1593 354.436 14.1391C357.651 11.1521 363.184 10.8534 367.359 11.1521C373.82 11.6168 378.392 18.7856 377.233 27.0828C376.173 34.7494 371.07 46.5315 362.554 48.1577C353.078 49.9499 349.831 33.1895 350.096 26.7509V26.7177Z" fill="#FFC9B6"/>
<path d="M361.361 104.645C356.458 103.119 350.063 100.828 350.063 100.828C350.063 100.828 355.762 106.172 360.268 107.101C364.807 108.03 371.799 107.101 371.799 107.101C371.799 107.101 366.265 106.172 361.328 104.612L361.361 104.645Z" fill="#6BBF00"/>
<path d="M350.063 92.5312C350.063 92.5312 356.159 93.3942 359.473 94.3898C362.819 95.4187 369.678 98.4721 369.678 98.4721C369.678 98.4721 362.985 97.576 358.744 96.7462C354.503 95.9165 350.063 92.5312 350.063 92.5312Z" fill="#6BBF00"/>
<path d="M376.206 15.2676C374.383 6.63846 366.365 7.53456 359.075 10.0901C348.605 13.7077 344.794 20.7105 347.081 23.6311C349.5 26.7177 352.217 27.0828 356.59 27.7798C359.374 28.2112 364.244 29.1073 366.961 26.95C367.359 28.9746 369.513 32.0279 370.54 33.7537C371.799 35.8446 372.395 35.8446 377.399 38.898C378.393 33.8865 379.055 32.0611 380.546 25.5893C381.043 23.4652 380.579 16.8606 376.173 15.2344L376.206 15.2676Z" fill="black"/>
<path d="M368.386 32.0944C368.386 32.0944 370.672 27.7466 373.224 30.4349C375.775 33.1232 372.196 37.5705 372.196 37.5705L368.386 32.0944Z" fill="#FFC9B6"/>
<path d="M382.899 175.902C382.899 175.902 380.48 174.74 378.459 177.063C376.438 179.386 376.206 180.814 376.206 180.814C376.206 180.814 380.082 178.889 380.878 178.225C381.673 177.561 382.899 175.935 382.899 175.935V175.902Z" fill="#6BBF00"/>
<path d="M383.727 179.154C383.727 179.154 382.7 182.606 381.905 185.029C381.109 187.451 381.905 190.04 381.905 190.04C381.905 190.04 382.998 186.323 383.727 184.597C385.351 180.78 383.727 179.154 383.727 179.154Z" fill="#6BBF00"/>
<path d="M340.52 110.254C323.854 87.2209 311.362 72.6178 311.362 72.6178L302.316 79.3883C302.316 79.3883 303.079 80.5499 304.404 82.6408L314.112 82.4085C314.112 82.4085 345.523 124.558 355.961 140.589C363.747 152.537 369.91 159.838 369.446 167.073C369.612 166.974 369.744 166.874 369.91 166.741C382.899 156.652 355.099 130.433 340.487 110.254H340.52Z" fill="#6BBF00"/>
<path d="M314.145 82.3752L304.437 82.6076C308.513 88.9798 318.155 104.081 329.155 121.936C344.529 146.894 357.319 175.536 369.479 167.04C369.943 159.805 363.814 152.503 355.994 140.555C345.557 124.525 314.145 82.3752 314.145 82.3752Z" fill="#B4FF59"/>
<path d="M330.315 25.3569C315.437 3.31951 289.46 -5.37597 270.806 4.8462H270.739L261.362 10.3887L261.893 11.8159C248.904 26.1866 248.606 51.0451 262.29 71.3567C274.881 90.042 295.491 99.1357 312.853 95.2526L313.814 96.5138L320.838 92.3984C322.131 91.7678 323.357 91.0376 324.582 90.2079C343.37 77.4966 345.921 48.4563 330.315 25.3237V25.3569Z" fill="#1B47CC"/>
<path d="M323.655 29.3064C339.261 52.4391 336.676 81.5125 317.923 94.1907C299.135 106.902 271.27 98.4388 255.663 75.3062C240.057 52.1736 242.642 23.1001 261.396 10.422C280.15 -2.25614 308.049 6.17382 323.655 29.3064Z" fill="#143496"/>
<path d="M262.787 70.4606C249.003 50.0163 250.594 24.5936 265.902 12.1146C265.107 12.5793 264.278 13.0107 263.483 13.5417C246.121 25.2906 243.735 52.1736 258.182 73.6136C272.628 95.0204 298.406 102.853 315.802 91.1041C316.597 90.5731 317.293 89.9757 318.022 89.4115C300.726 98.9698 276.604 90.9713 262.82 70.4938L262.787 70.4606Z" fill="#3F62CC"/>
<path d="M321.103 30.9991C320.474 30.0698 319.811 29.2069 319.149 28.344C317.326 25.9544 315.371 23.7639 313.317 21.7726C310.997 19.5489 308.579 17.5908 306.027 15.8981C299.666 11.65 292.707 9.09443 285.849 8.33109C284.291 8.16514 282.767 8.09877 281.21 8.13195C277.963 8.19833 274.782 8.66298 271.733 9.62545C269.712 10.256 267.757 11.0526 265.869 12.0814C255.697 20.3786 251.621 34.3843 254.04 48.8547C254.703 52.8041 255.862 56.7868 257.519 60.7031C258.248 62.3957 259.043 64.1215 259.938 65.781C260.799 67.3741 261.727 68.9339 262.754 70.4606C266.366 75.804 270.673 80.2845 275.378 83.8357C277.863 85.7275 280.481 87.3206 283.132 88.6481C285.584 89.8761 288.069 90.8718 290.587 91.6351C300.03 94.4562 309.738 93.9251 317.923 89.3783C333.231 76.8993 334.821 51.4766 321.037 31.0323L321.103 30.9991Z" fill="#4170FF"/>
<path opacity="0.5" d="M285.882 8.36426L260.004 65.8142C260.866 67.4072 261.793 68.9671 262.82 70.4938C266.432 75.8372 270.739 80.3177 275.445 83.8689L306.061 15.9313C299.699 11.6831 292.741 9.1276 285.882 8.36426Z" fill="white"/>
<path opacity="0.5" d="M271.767 9.65866L254.073 48.8879C254.736 52.8374 255.895 56.82 257.552 60.7363L281.243 8.16516C277.996 8.23154 274.815 8.69618 271.767 9.65866Z" fill="white"/>
<path opacity="0.5" d="M313.317 21.8057L283.198 88.648C285.65 89.876 288.135 90.8717 290.653 91.635L319.148 28.3771C317.326 25.9875 315.371 23.797 313.317 21.8057Z" fill="white"/>
<path d="M316.929 94.7216C316.929 94.7216 319.347 96.4474 316.929 99.9986C314.51 103.55 312.588 103.052 311.528 102.255C310.368 101.426 309.705 98.2396 309.705 98.2396C309.705 98.2396 315.968 95.2194 316.929 94.7216Z" fill="#FFC9B6"/>
<path d="M379.552 72.5846C379.552 72.5846 375.94 80.9814 374.019 85.9265C372.097 90.8716 371.003 94.6884 371.003 94.6884C371.003 94.6884 355.961 99.5007 348.207 104.18C343.303 105.342 333.529 100.696 333.529 100.696L336.113 104.18C336.113 104.18 331.905 105.773 328.227 108.628C323.29 112.411 327.465 117.091 332.336 116.759C337.207 116.427 341.912 115.498 346.915 111.515C348.075 111.216 370.738 107.698 376.736 105.973C382.733 104.247 382.369 101.26 385.914 95.1198C389.459 88.9799 392.74 77.397 392.74 77.397L379.552 72.5514V72.5846Z" fill="#FFC9B6"/>
<path d="M391.348 48.8546C387.637 47.3611 381.805 55.9902 378.591 64.1878C375.377 72.3855 374.052 78.9901 374.052 78.9901C374.052 78.9901 378.128 80.915 382.203 82.4085C389.393 84.964 393.833 84.9309 393.833 84.9309C393.833 84.9309 398.472 76.2022 397.312 68.6683C399.3 63.9887 401.321 52.9368 391.348 48.8546Z" fill="#6BBF00"/>
<path d="M277.201 338.527L67.1299 217.023L175.678 154.229L385.781 275.734L277.201 338.527Z" fill="#E6EFFF"/>
<path d="M278.062 333.449L75.8773 216.525L174.816 159.307L377.034 276.231L278.062 333.449Z" fill="#B4FF59"/>
<path d="M344.596 269.162L187.043 178.059C175.744 184.597 158.68 185.294 148.905 179.652L143.471 182.805L139.197 185.294L111.066 201.557C120.84 207.199 119.614 217.089 108.316 223.594L265.869 314.697C277.168 308.159 294.232 307.462 304.006 313.104L332.137 296.842L336.411 294.353L341.845 291.2C332.071 285.558 333.297 275.667 344.596 269.162Z" fill="#E6EFFF"/>
<path d="M252.449 261.496C232.635 272.946 204.769 275.435 190.223 267.005C175.677 258.575 179.952 242.478 199.766 231.028C219.58 219.578 247.446 217.089 261.992 225.519C276.538 233.949 272.264 250.045 252.449 261.496Z" fill="#61BCB8"/>
<path d="M249.202 259.604C231.608 269.76 206.89 271.983 194.001 264.516C181.111 257.048 184.889 242.744 202.483 232.588C220.077 222.432 244.795 220.209 257.685 227.676C270.574 235.144 266.797 249.448 249.202 259.604Z" fill="#B4FF59"/>
<path d="M179.654 215.496C171.271 220.341 158.58 220.872 151.291 216.657C144.034 212.442 144.929 205.108 153.312 200.262C161.695 195.417 174.385 194.886 181.675 199.101C188.931 203.316 188.037 210.65 179.654 215.496Z" fill="#B4FF59"/>
<path d="M175.711 213.206C169.846 216.591 160.966 216.956 155.863 214.036C150.794 211.082 151.423 205.971 157.288 202.552C163.153 199.134 172.033 198.802 177.135 201.722C182.205 204.676 181.575 209.787 175.711 213.206Z" fill="#B4FF59"/>
<path d="M301.355 287.383C292.972 292.228 280.282 292.76 272.993 288.545C265.736 284.33 266.631 276.995 275.014 272.149C283.397 267.304 296.087 266.773 303.377 270.988C310.633 275.203 309.738 282.537 301.355 287.383Z" fill="#B4FF59"/>
<path d="M297.413 285.126C291.548 288.511 282.668 288.876 277.565 285.956C272.496 283.002 273.125 277.891 278.99 274.472C284.855 271.087 293.735 270.722 298.837 273.643C303.907 276.596 303.277 281.708 297.413 285.126Z" fill="#B4FF59"/>
<path d="M158.116 245.631L115.539 221.038L117.626 219.844L160.171 244.437L158.116 245.631Z" fill="#B4FF59"/>
<path d="M147.547 231.36L122.795 217.023L120.708 218.217L145.492 232.555L147.547 231.36Z" fill="#B4FF59"/>
<path d="M152.981 228.274L128.196 213.936L126.142 215.131L150.926 229.468L152.981 228.274Z" fill="#B4FF59"/>
<path d="M67.1299 217.023V239.558L277.201 361.029V338.527L67.1299 217.023Z" fill="#CFDEFF"/>
<path d="M385.781 275.734V298.269L277.201 361.029V338.527L385.781 275.734Z" fill="#B6D0FC"/>
<path d="M267.923 345.862C261.661 341.514 254.471 338.295 247.711 334.81C241.681 331.723 235.65 328.371 229.255 326.114C229.09 326.048 229.024 326.28 229.156 326.38C235.518 330.595 242.642 333.781 249.401 337.332C255.431 340.485 261.329 344.069 267.625 346.592C268.056 346.758 268.288 346.094 267.923 345.862Z" fill="#B6D0FC"/>
<path d="M254.57 334.08C238.931 321.07 219.713 310.682 201.489 301.754C201.224 301.621 200.992 302.052 201.257 302.218C218.785 313.005 235.982 325.019 253.974 334.909C254.57 335.241 255.067 334.478 254.57 334.047V334.08Z" fill="#B6D0FC"/>
<path d="M124.121 264.317C115.671 258.276 106.593 253.165 97.6133 248.021C89.3961 243.308 81.1788 238.297 72.4314 234.546C72.1331 234.413 71.9343 234.878 72.1994 235.044C80.4167 240.553 89.3629 245.067 97.9115 250.012C106.493 254.991 114.909 260.301 123.723 264.914C124.121 265.113 124.518 264.582 124.121 264.317Z" fill="#B6D0FC"/>
<path d="M177.798 289.573C172.165 285.524 166.069 282.172 160.071 278.721C154.869 275.701 149.733 272.216 144.101 270.058C143.703 269.926 143.504 270.423 143.802 270.656C149.071 275.037 155.499 278.223 161.397 281.708C166.632 284.794 171.801 287.98 177.301 290.569C177.864 290.835 178.262 289.939 177.765 289.607L177.798 289.573Z" fill="#E0D7DC"/>
<path d="M101.821 243.275C97.5803 240.388 92.6764 238.429 88.137 236.073C83.5645 233.717 79.0583 231.061 74.3532 228.971C74.1544 228.871 73.8562 229.17 74.0881 229.336C81.8084 235.343 92.0137 241.483 101.457 244.171C102.02 244.337 102.285 243.574 101.821 243.275Z" fill="#B6D0FC"/>
<path d="M326.272 325.948C334.722 319.908 343.8 314.797 352.78 309.653C360.997 304.94 369.214 299.928 377.962 296.178C378.26 296.045 378.459 296.51 378.194 296.676C369.976 302.185 361.03 306.699 352.482 311.644C343.9 316.622 335.484 321.932 326.67 326.546C326.272 326.745 325.875 326.214 326.272 325.948Z" fill="#A2C5F9"/>
<path d="M348.572 304.907C352.813 302.019 357.717 300.061 362.256 297.705C366.829 295.348 371.335 292.693 376.04 290.602C376.239 290.503 376.537 290.801 376.305 290.967C368.585 296.974 358.379 303.114 348.936 305.803C348.373 305.969 348.108 305.205 348.572 304.907Z" fill="#A2C5F9"/>
<path d="M310.534 232.223L201.721 294.85L145.194 262.159L253.974 199.532L310.534 232.223Z" fill="#9BDB4D"/>
<path d="M304.702 228.871L195.923 291.498L149.767 264.814L258.546 202.154L304.702 228.871Z" fill="#B4FF59"/>
<path d="M201.721 294.85L145.194 262.159V284.695L201.721 317.386V294.85Z" fill="#9BDB4D"/>
<path d="M149.767 264.815V287.35L195.923 314.034V291.498L149.767 264.815Z" fill="#8FE328"/>
<path d="M210.734 197.939L208.182 196.445L199.501 201.457L201.622 202.685L200.131 203.548C198.739 203.017 197.612 202.785 196.386 202.652L194.829 201.756L206.095 195.251L203.842 193.956L205.797 192.828L212.688 196.811L210.734 197.939Z" fill="#B4FF59"/>
<path d="M197.38 195.682C192.907 198.271 189.064 198.735 186.678 197.375C184.292 196.014 185.154 193.757 189.594 191.202C194.067 188.613 198.01 188.082 200.396 189.443C202.781 190.803 201.82 193.093 197.38 195.682ZM191.582 192.33C187.838 194.487 187.44 195.649 188.567 196.28C189.66 196.91 191.648 196.678 195.392 194.52C199.137 192.363 199.634 191.135 198.54 190.505C197.447 189.874 195.326 190.14 191.582 192.33Z" fill="#B4FF59"/>
<path d="M188.169 190.339C183.696 192.927 179.852 193.392 177.467 192.031C175.081 190.671 175.943 188.414 180.383 185.858C184.856 183.269 188.799 182.738 191.184 184.099C193.57 185.46 192.609 187.75 188.136 190.339H188.169ZM182.371 186.987C178.626 189.144 178.229 190.306 179.355 190.936C180.449 191.567 182.437 191.368 186.181 189.177C189.925 187.02 190.422 185.792 189.329 185.161C188.235 184.531 186.115 184.796 182.371 186.987Z" fill="#B4FF59"/>
<path d="M266.565 310.35L223.987 285.723L226.075 284.529L268.619 309.155L266.565 310.35Z" fill="#B4FF59"/>
<path d="M273.655 306.301L248.871 291.996L246.817 293.191L271.568 307.529L273.655 306.301Z" fill="#B4FF59"/>
<path d="M279.089 303.247L254.305 288.91L252.218 290.104L277.002 304.442L279.089 303.247Z" fill="#B4FF59"/>
<path d="M332.833 269.494L330.282 268.001L321.601 273.012L323.721 274.24L322.23 275.103C320.839 274.572 319.712 274.34 318.486 274.207L316.929 273.311L328.194 266.806L325.941 265.512L327.896 264.383L334.788 268.366L332.833 269.494Z" fill="#B4FF59"/>
<path d="M319.48 267.237C315.007 269.826 311.163 270.291 308.778 268.93C306.392 267.569 307.253 265.312 311.693 262.757C316.166 260.168 320.109 259.637 322.495 260.998C324.881 262.359 323.92 264.649 319.48 267.237ZM313.681 263.885C309.937 266.043 309.54 267.204 310.666 267.835C311.76 268.465 313.748 268.233 317.492 266.076C321.236 263.919 321.733 262.691 320.64 262.06C319.546 261.429 317.426 261.695 313.681 263.885Z" fill="#B4FF59"/>
<path d="M310.236 261.894C305.762 264.483 301.919 264.947 299.533 263.587C297.148 262.226 298.009 259.969 302.449 257.413C306.922 254.825 310.865 254.294 313.251 255.654C315.636 257.015 314.676 259.305 310.202 261.894H310.236ZM304.47 258.542C300.726 260.699 300.328 261.861 301.455 262.491C302.548 263.122 304.536 262.923 308.281 260.732C312.025 258.575 312.522 257.347 311.428 256.716C310.335 256.086 308.214 256.351 304.47 258.542Z" fill="#B4FF59"/>
<path d="M287.539 226.647L195.657 279.816L166.93 263.188L258.811 210.02L287.539 226.647Z" fill="#CFDEFF"/>
<path d="M271.005 292.594L60.9338 171.122L169.481 108.329L379.585 229.833L271.005 292.594Z" fill="#E6EFFF"/>
<path d="M271.866 287.549L69.6813 170.624L168.653 113.374L370.838 230.298L271.866 287.549Z" fill="#B4FF59"/>
<path d="M338.4 223.262L180.846 132.159C169.548 138.697 152.484 139.394 142.709 133.752L137.275 136.905L133.001 139.394L104.87 155.656C114.644 161.298 113.418 171.189 102.12 177.694L259.673 268.797C270.972 262.259 288.036 261.562 297.81 267.204L325.941 250.941L330.215 248.452L335.649 245.299C325.875 239.657 327.101 229.767 338.4 223.262Z" fill="#E6EFFF"/>
<path d="M246.253 215.562C226.439 227.012 198.573 229.501 184.027 221.071C169.481 212.642 173.756 196.545 193.57 185.095C213.384 173.645 241.25 171.155 255.796 179.585C270.342 187.982 266.068 204.112 246.253 215.562Z" fill="#61BCB8"/>
<path d="M243.006 213.703C225.412 223.859 200.694 226.083 187.805 218.615C174.915 211.148 178.693 196.844 196.287 186.688C213.881 176.532 238.599 174.308 251.489 181.776C264.378 189.243 260.6 203.548 243.006 213.703Z" fill="#B4FF59"/>
<path d="M173.457 169.562C165.075 174.408 152.384 174.939 145.095 170.724C137.838 166.509 138.733 159.174 147.116 154.329C155.499 149.483 168.189 148.952 175.479 153.167C182.735 157.382 181.84 164.717 173.457 169.562Z" fill="#B4FF59"/>
<path d="M169.515 167.272C163.65 170.658 154.77 171.023 149.667 168.102C144.598 165.148 145.227 160.037 151.092 156.619C156.957 153.233 165.837 152.868 170.939 155.789C176.042 158.71 175.379 163.854 169.515 167.272Z" fill="#B4FF59"/>
<path d="M295.159 241.483C286.776 246.328 274.086 246.859 266.797 242.644C259.54 238.429 260.435 231.095 268.818 226.249C277.201 221.403 289.891 220.872 297.181 225.087C304.437 229.302 303.542 236.637 295.159 241.483Z" fill="#B4FF59"/>
<path d="M291.25 239.193C285.385 242.578 276.505 242.943 271.402 240.022C266.333 237.069 266.962 231.957 272.827 228.539C278.692 225.121 287.572 224.789 292.674 227.709C297.744 230.663 297.114 235.774 291.25 239.193Z" fill="#B4FF59"/>
<path d="M151.92 199.731L109.343 175.105L111.43 173.91L154.008 198.536L151.92 199.731Z" fill="#B4FF59"/>
<path d="M141.384 185.427L116.599 171.122L114.512 172.317L139.296 186.622L141.384 185.427Z" fill="#B4FF59"/>
<path d="M146.784 182.34L122.033 168.036L119.946 169.23L144.73 183.568L146.784 182.34Z" fill="#B4FF59"/>
<path d="M60.9338 171.122V193.624L271.005 315.129V292.593L60.9338 171.122Z" fill="#CFDEFF"/>
<path d="M379.585 229.833V252.335L271.005 315.129V292.594L379.585 229.833Z" fill="#B6D0FC"/>
<path d="M261.727 299.961C255.465 295.614 248.275 292.394 241.515 288.909C235.485 285.823 229.454 282.471 223.059 280.214C222.894 280.148 222.827 280.38 222.96 280.48C229.322 284.695 236.446 287.881 243.205 291.432C249.235 294.585 255.133 298.169 261.429 300.692C261.86 300.857 262.092 300.194 261.727 299.961Z" fill="#B6D0FC"/>
<path d="M248.407 288.179C232.768 275.169 213.55 264.781 195.326 255.853C195.061 255.721 194.829 256.152 195.094 256.318C212.622 267.104 229.819 279.119 247.811 289.009C248.374 289.341 248.904 288.578 248.407 288.146V288.179Z" fill="#B6D0FC"/>
<path d="M117.925 218.416C109.475 212.376 100.397 207.265 91.4173 202.121C83.2 197.408 74.9827 192.396 66.2353 188.646C65.9371 188.513 65.7383 188.978 66.0034 189.144C74.2207 194.653 83.1669 199.167 91.7155 204.112C100.297 209.09 108.713 214.401 117.527 219.014C117.925 219.213 118.322 218.682 117.925 218.416Z" fill="#B6D0FC"/>
<path d="M171.602 243.673C165.969 239.624 159.873 236.272 153.875 232.82C148.673 229.8 143.537 226.315 137.905 224.158C137.507 224.025 137.308 224.523 137.606 224.755C142.875 229.136 149.303 232.322 155.201 235.807C160.436 238.894 165.605 242.08 171.105 244.669C171.668 244.934 172.066 244.038 171.569 243.706L171.602 243.673Z" fill="#E0D7DC"/>
<path d="M95.6253 197.375C91.3841 194.487 86.4803 192.529 81.9409 190.173C77.3684 187.816 72.8621 185.161 68.1571 183.07C67.9251 182.971 67.66 183.269 67.892 183.435C75.6123 189.443 85.8176 195.582 95.2608 198.271C95.8241 198.437 96.0892 197.673 95.6253 197.375Z" fill="#B6D0FC"/>
<path d="M320.11 280.015C328.559 273.975 337.638 268.863 346.617 263.719C354.834 259.006 363.051 253.995 371.799 250.244C372.097 250.112 372.296 250.576 372.031 250.742C363.814 256.252 354.867 260.765 346.319 265.71C337.737 270.689 329.321 275.999 320.507 280.612C320.11 280.811 319.712 280.28 320.11 280.015Z" fill="#A2C5F9"/>
<path d="M342.376 258.973C346.617 256.086 351.521 254.128 356.06 251.771C360.633 249.415 365.139 246.76 369.844 244.669C370.043 244.569 370.341 244.868 370.109 245.034C362.389 251.041 352.183 257.181 342.74 259.869C342.177 260.035 341.912 259.272 342.376 258.973Z" fill="#A2C5F9"/>
<path d="M304.338 186.29L195.525 248.95L138.998 216.259L247.778 153.599L304.338 186.29Z" fill="#9BDB4D"/>
<path d="M298.506 182.937L189.726 245.598L143.571 218.881L252.383 156.254L298.506 182.937Z" fill="#B4FF59"/>
<path d="M195.525 248.95L138.998 216.259V238.761L195.525 271.452V248.95Z" fill="#9BDB4D"/>
<path d="M143.571 218.881V241.416L189.726 268.1V245.598L143.571 218.881Z" fill="#8FE328"/>
<path d="M204.537 152.039L201.986 150.545L193.305 155.557L195.426 156.785L193.935 157.647C192.543 157.116 191.416 156.884 190.19 156.751L188.633 155.855L199.899 149.35L197.646 148.056L199.6 146.927L206.492 150.91L204.537 152.039Z" fill="#B4FF59"/>
<path d="M191.184 149.782C186.711 152.37 182.868 152.835 180.482 151.474C178.096 150.114 178.958 147.857 183.398 145.301C187.871 142.712 191.814 142.181 194.2 143.542C196.585 144.903 195.624 147.193 191.184 149.782ZM185.419 146.43C181.675 148.587 181.277 149.749 182.404 150.379C183.497 151.01 185.485 150.777 189.229 148.62C192.974 146.463 193.471 145.235 192.377 144.604C191.284 143.974 189.163 144.239 185.419 146.43Z" fill="#B4FF59"/>
<path d="M181.973 144.438C177.5 147.027 173.656 147.492 171.271 146.131C168.885 144.77 169.747 142.513 174.187 139.958C178.66 137.369 182.603 136.838 184.988 138.199C187.374 139.56 186.413 141.85 181.94 144.438H181.973ZM176.175 141.086C172.43 143.244 172.033 144.405 173.159 145.036C174.253 145.666 176.241 145.467 179.985 143.277C183.729 141.119 184.226 139.891 183.133 139.261C182.039 138.63 179.919 138.896 176.175 141.086Z" fill="#B4FF59"/>
<path d="M260.369 264.416L217.791 239.823L219.879 238.595L262.423 263.221L260.369 264.416Z" fill="#B4FF59"/>
<path d="M267.459 260.4L242.675 246.063L240.621 247.258L265.405 261.595L267.459 260.4Z" fill="#B4FF59"/>
<path d="M272.893 257.314L248.109 242.976L246.055 244.171L270.806 258.509L272.893 257.314Z" fill="#B4FF59"/>
<path d="M326.637 223.594L324.085 222.1L315.404 227.112L317.525 228.34L316.034 229.203C314.642 228.672 313.516 228.44 312.29 228.307L310.732 227.411L321.998 220.906L319.745 219.611L321.7 218.483L328.592 222.466L326.637 223.594Z" fill="#B4FF59"/>
<path d="M313.284 221.304C308.811 223.893 304.967 224.357 302.582 222.997C300.196 221.636 301.057 219.379 305.497 216.823C309.97 214.235 313.913 213.704 316.299 215.064C318.685 216.425 317.724 218.715 313.284 221.304ZM307.485 217.985C303.741 220.142 303.344 221.304 304.47 221.935C305.564 222.565 307.552 222.333 311.296 220.176C315.04 218.018 315.537 216.79 314.444 216.16C313.35 215.529 311.23 215.795 307.485 217.985Z" fill="#B4FF59"/>
<path d="M304.072 215.994C299.599 218.582 295.756 219.047 293.37 217.686C290.984 216.326 291.846 214.069 296.286 211.513C300.759 208.924 304.702 208.393 307.088 209.754C309.473 211.115 308.512 213.405 304.039 215.994H304.072ZM298.274 212.642C294.53 214.799 294.132 215.96 295.259 216.591C296.352 217.222 298.34 217.022 302.084 214.832C305.829 212.675 306.326 211.447 305.232 210.816C304.139 210.186 302.018 210.451 298.274 212.642Z" fill="#B4FF59"/>
<path d="M281.343 180.714L189.461 233.882L160.767 217.288L252.615 164.119L281.343 180.714Z" fill="white"/>
<path d="M189.528 335.706L131.51 369.26L22.3324 169.33L80.3504 135.776L189.528 335.706Z" fill="#9BDB4D"/>
<path d="M196.353 331.989L138.335 365.543L29.1581 165.613L87.1761 132.059L196.353 331.989Z" fill="#B4FF59"/>
<path d="M109.906 121.007L6.82568 180.614L29.8208 99.7993L109.906 121.007Z" fill="#B4FF59"/>
<path d="M6.82564 180.614L0 184.365L22.9951 103.517L29.8208 99.7994L6.82564 180.614Z" fill="#9BDB4D"/>
<path d="M254.537 345.231C254.537 332.022 246.518 316.722 236.644 310.98C232.271 308.458 228.262 308.225 225.147 309.918L216.797 314.664L219.15 319.742C218.885 321.202 218.752 322.829 218.752 324.554C218.752 337.764 226.771 353.064 236.644 358.805C236.976 359.004 237.274 359.137 237.605 359.303L239.991 364.447C239.991 364.447 248.374 359.768 248.97 359.336C252.383 356.98 254.537 352.068 254.537 345.264V345.231Z" fill="#FFD31A"/>
<path opacity="0.7" d="M231.012 308.989L217.725 316.689L219.15 319.775C219.083 320.173 219.05 320.605 218.984 321.036L236.446 310.914C234.557 309.852 232.702 309.221 231.012 308.989Z" fill="#FFEC9C"/>
<g opacity="0.5">
<path d="M254.471 347.023L235.452 358.009C235.849 358.274 236.247 358.54 236.644 358.772C236.976 358.971 237.274 359.104 237.605 359.27L238.566 361.327L253.477 352.698C254.007 351.039 254.338 349.147 254.471 347.023Z" fill="#FFB133"/>
</g>
<path d="M245.988 350.076C245.988 363.286 237.97 369.326 228.096 363.618C218.222 357.909 210.203 342.576 210.203 329.367C210.203 316.157 218.222 310.117 228.096 315.826C237.97 321.534 245.988 336.867 245.988 350.076Z" fill="#FFE161"/>
<path d="M243.072 349.081C243.072 360.133 236.379 365.211 228.096 360.431C219.812 355.652 213.119 342.808 213.119 331.789C213.119 320.771 219.812 315.66 228.096 320.439C236.379 325.218 243.072 338.062 243.072 349.081Z" fill="#FFD833"/>
<g opacity="0.5">
<path d="M243.072 349.081C243.072 360.133 236.379 365.211 228.096 360.431C219.812 355.652 213.119 342.808 213.119 331.789C213.119 320.771 219.812 315.66 228.096 320.439C236.379 325.218 243.072 338.062 243.072 349.081Z" fill="#FFB133"/>
</g>
<path d="M229.123 359.734C220.839 354.955 214.146 342.111 214.146 331.093C214.146 325.683 215.77 321.733 218.354 319.642C215.14 321.468 213.119 325.716 213.119 331.789C213.119 342.841 219.812 355.652 228.096 360.431C232.304 362.887 236.114 362.721 238.864 360.531C236.247 362.024 232.867 361.859 229.123 359.734Z" fill="#FFB133"/>
<path d="M234.424 344.534C233.861 343.339 233.199 342.344 232.436 341.547C231.674 340.751 230.747 339.954 229.62 339.158C229.587 339.124 229.521 339.091 229.487 339.058C229.454 339.025 229.388 338.992 229.355 338.958C229.322 338.925 229.256 338.892 229.222 338.859C229.189 338.859 229.156 338.792 229.123 338.759C228.195 338.062 227.433 337.465 226.903 337C226.373 336.502 225.876 335.938 225.511 335.274C225.147 334.611 224.882 333.847 224.816 332.984C224.716 331.69 224.948 330.893 225.478 330.528C226.042 330.163 226.903 330.296 228.129 330.86C228.759 331.159 229.421 331.59 230.084 332.188C230.747 332.785 231.442 333.515 232.171 334.445L233.629 332.287C232.967 331.491 232.337 330.761 231.707 330.13C231.078 329.5 230.415 328.935 229.786 328.471C229.487 328.238 229.189 328.106 228.891 327.94L228.659 324.953L225.843 323.625L226.075 326.645C225.412 326.479 224.816 326.38 224.285 326.446C223.358 326.546 222.695 327.044 222.33 327.94C221.933 328.836 221.8 330.13 221.933 331.856C222.065 333.615 222.463 335.108 223.059 336.303C223.689 337.498 224.385 338.461 225.18 339.191C225.975 339.921 227.002 340.717 228.228 341.58C228.261 341.613 228.328 341.647 228.361 341.68C228.427 341.713 228.46 341.746 228.493 341.779C228.493 341.779 228.56 341.813 228.56 341.846C228.56 341.846 228.593 341.846 228.626 341.912C229.421 342.476 230.051 342.974 230.581 343.472C231.111 343.97 231.542 344.501 231.873 345.165C232.204 345.828 232.436 346.559 232.503 347.388C232.602 348.716 232.37 349.546 231.774 349.911C231.177 350.243 230.25 350.11 228.957 349.512C228.03 349.081 227.135 348.384 226.273 347.521C225.445 346.625 224.65 345.53 223.888 344.202L222.231 346.227C222.894 347.322 223.59 348.318 224.352 349.181C225.081 350.043 225.876 350.807 226.671 351.471C227.499 352.134 227.897 352.433 227.897 352.433C227.897 352.433 227.963 352.466 228.096 352.533L228.328 355.387L231.144 356.714L230.912 353.727C231.674 353.96 232.403 354.126 232.967 354.092C233.927 354.026 234.623 353.561 235.021 352.699C235.452 351.836 235.584 350.608 235.452 348.948C235.319 347.256 234.955 345.795 234.391 344.6L234.424 344.534Z" fill="#FFE161"/>
<path d="M201.357 360.963C196.685 358.905 190.654 357.644 184.094 357.644C177.533 357.644 171.503 358.905 166.831 360.963H157.023V372.081C157.023 380.046 169.15 386.518 184.094 386.518C199.037 386.518 211.164 380.046 211.164 372.081V360.963H201.357Z" fill="#FFD31A"/>
<path d="M184.094 346.559C169.15 346.559 157.023 353.03 157.023 360.996C157.023 368.961 169.15 375.433 184.094 375.433C199.037 375.433 211.164 368.961 211.164 360.996C211.164 353.03 199.037 346.559 184.094 346.559Z" fill="#FFE161"/>
<path d="M184.094 349.612C171.734 349.612 161.695 354.69 161.695 360.963C161.695 367.235 171.734 372.313 184.094 372.313C196.453 372.313 206.492 367.235 206.492 360.963C206.492 354.69 196.453 349.612 184.094 349.612Z" fill="#FFB133"/>
<path d="M184.06 350.508C196.154 350.508 205.962 355.354 206.426 361.427C206.426 361.294 206.459 361.128 206.459 360.996C206.459 354.723 196.42 349.645 184.06 349.645C171.701 349.645 161.662 354.723 161.662 360.996C161.662 361.128 161.662 361.294 161.695 361.427C162.159 355.354 171.966 350.508 184.06 350.508Z" fill="#FFB133"/>
<path d="M184.06 372.346C196.154 372.346 205.962 367.501 206.426 361.427C205.962 355.354 196.154 350.508 184.06 350.508C171.966 350.508 162.159 355.354 161.695 361.427C162.159 367.501 171.966 372.346 184.06 372.346Z" fill="#FFD833"/>
<g opacity="0.5">
<path d="M184.06 372.346C196.154 372.346 205.962 367.501 206.426 361.427C205.962 355.354 196.154 350.508 184.06 350.508C171.966 350.508 162.159 355.354 161.695 361.427C162.159 367.501 171.966 372.346 184.06 372.346Z" fill="#FFB133"/>
</g>
<path d="M190.919 359.37C189.693 359.17 188.567 359.137 187.54 359.336C186.512 359.502 185.386 359.801 184.16 360.233C184.094 360.233 184.061 360.266 184.027 360.299C183.994 360.299 183.928 360.332 183.895 360.365C183.829 360.365 183.795 360.398 183.762 360.398H183.63C182.603 360.797 181.741 361.062 181.078 361.228C180.416 361.394 179.72 361.461 178.991 361.394C178.262 361.328 177.533 361.095 176.837 360.697C175.81 360.1 175.28 359.469 175.313 358.872C175.313 358.241 175.909 357.644 177.003 356.98C177.566 356.648 178.262 356.383 179.09 356.183C179.919 355.984 180.88 355.852 181.94 355.752L181.045 353.462C180.084 353.528 179.19 353.661 178.328 353.794C177.467 353.927 176.705 354.159 176.009 354.391C175.678 354.524 175.412 354.657 175.081 354.79L172.629 353.396L170.078 354.856L172.563 356.283C172.066 356.714 171.668 357.113 171.436 357.544C171.039 358.308 171.072 359.104 171.536 359.901C172.033 360.697 172.961 361.494 174.352 362.29C175.777 363.12 177.135 363.618 178.395 363.784C179.654 363.95 180.78 363.916 181.774 363.684C182.768 363.452 183.928 363.087 185.286 362.589C185.353 362.589 185.386 362.556 185.452 362.523C185.518 362.523 185.552 362.489 185.618 362.456C185.651 362.456 185.684 362.456 185.684 362.456C185.684 362.456 185.717 362.456 185.75 362.456C186.612 362.157 187.341 361.925 188.003 361.759C188.666 361.626 189.329 361.593 189.992 361.66C190.687 361.726 191.35 361.958 192.046 362.357C193.139 362.987 193.636 363.618 193.603 364.282C193.57 364.912 192.94 365.576 191.748 366.273C190.886 366.771 189.892 367.103 188.766 367.269C187.639 367.435 186.347 367.468 184.922 367.335L185.618 369.691C186.844 369.758 187.97 369.758 189.064 369.625C190.157 369.492 191.151 369.326 192.079 369.028C193.007 368.729 193.504 368.596 193.504 368.596C193.504 368.596 193.57 368.563 193.669 368.497L195.989 369.857L198.54 368.397L196.088 366.97C196.685 366.505 197.182 366.041 197.447 365.543C197.911 364.746 197.911 363.983 197.48 363.186C197.049 362.39 196.154 361.626 194.796 360.83C193.437 360.033 192.112 359.536 190.886 359.303L190.919 359.37Z" fill="#FFE161"/>
<path d="M193.206 338.958C188.5 336.901 182.503 335.64 175.943 335.64C169.382 335.64 163.352 336.901 158.68 338.958H148.872V350.077C148.872 358.042 160.999 364.514 175.943 364.514C190.886 364.514 203.013 358.042 203.013 350.077V338.958H193.206Z" fill="#FFD31A"/>
<g opacity="0.5">
<path d="M196.817 338.958H193.205C192.708 338.726 192.112 338.56 191.582 338.361V361.826C193.537 361.095 195.26 360.199 196.784 359.204V338.958H196.817Z" fill="#FFB133"/>
</g>
<path opacity="0.7" d="M158.713 338.958C158.713 338.958 158.713 338.958 158.68 338.958H154.24V358.673C155.532 359.602 157.056 360.432 158.713 361.162V338.958Z" fill="#FFEC9C"/>
<path d="M175.943 324.521C160.999 324.521 148.872 330.993 148.872 338.958C148.872 346.924 160.999 353.396 175.943 353.396C190.886 353.396 203.013 346.924 203.013 338.958C203.013 330.993 190.886 324.521 175.943 324.521Z" fill="#FFE161"/>
<path d="M175.943 327.608C163.583 327.608 153.544 332.686 153.544 338.958C153.544 345.231 163.583 350.309 175.943 350.309C188.302 350.309 198.341 345.231 198.341 338.958C198.341 332.686 188.302 327.608 175.943 327.608Z" fill="#FFB133"/>
<path d="M175.909 328.471C188.003 328.471 197.811 333.316 198.275 339.39C198.275 339.257 198.308 339.091 198.308 338.958C198.308 332.686 188.269 327.608 175.909 327.608C163.55 327.608 153.511 332.686 153.511 338.958C153.511 339.091 153.511 339.257 153.544 339.39C154.008 333.316 163.815 328.471 175.909 328.471Z" fill="#FFB133"/>
<path d="M175.909 350.342C188.003 350.342 197.811 345.497 198.275 339.423C197.811 333.35 188.003 328.504 175.909 328.504C163.815 328.504 154.008 333.35 153.544 339.423C154.008 345.497 163.815 350.342 175.909 350.342Z" fill="#FFD833"/>
<g opacity="0.5">
<path d="M175.909 350.342C188.003 350.342 197.811 345.497 198.275 339.423C197.811 333.35 188.003 328.504 175.909 328.504C163.815 328.504 154.008 333.35 153.544 339.423C154.008 345.497 163.815 350.342 175.909 350.342Z" fill="#FFB133"/>
</g>
<path d="M182.768 337.332C181.542 337.133 180.416 337.1 179.388 337.299C178.361 337.465 177.235 337.764 176.009 338.195C175.943 338.195 175.909 338.228 175.876 338.261C175.843 338.261 175.777 338.295 175.744 338.328C175.677 338.328 175.644 338.361 175.611 338.361C175.578 338.361 175.512 338.361 175.479 338.394C174.451 338.759 173.59 339.025 172.927 339.191C172.265 339.357 171.569 339.423 170.84 339.357C170.111 339.29 169.382 339.058 168.686 338.66C167.659 338.062 167.129 337.432 167.162 336.834C167.162 336.204 167.758 335.606 168.852 334.943C169.415 334.611 170.111 334.345 170.939 334.146C171.768 333.947 172.729 333.814 173.822 333.715L172.927 331.425C171.966 331.491 171.072 331.624 170.21 331.756C169.382 331.922 168.587 332.121 167.891 332.354C167.56 332.487 167.295 332.619 166.963 332.752L164.544 331.358L161.993 332.818L164.478 334.246C163.981 334.677 163.583 335.075 163.352 335.507C162.954 336.27 162.987 337.067 163.451 337.863C163.948 338.66 164.876 339.456 166.267 340.253C167.692 341.082 169.051 341.58 170.31 341.746C171.569 341.912 172.695 341.879 173.689 341.647C174.683 341.414 175.843 341.049 177.202 340.551C177.268 340.551 177.301 340.518 177.367 340.485C177.434 340.485 177.467 340.452 177.533 340.419C177.566 340.419 177.599 340.419 177.599 340.419C177.599 340.419 177.632 340.419 177.699 340.419C178.56 340.12 179.289 339.888 179.952 339.722C180.614 339.556 181.277 339.556 181.94 339.622C182.636 339.689 183.298 339.921 183.994 340.319C185.088 340.95 185.585 341.58 185.551 342.244C185.518 342.875 184.889 343.538 183.696 344.235C182.834 344.733 181.84 345.065 180.714 345.231C179.587 345.397 178.295 345.43 176.87 345.297L177.566 347.654C178.792 347.72 179.919 347.72 181.012 347.588C182.106 347.455 183.1 347.289 184.027 346.99L185.452 346.559C185.452 346.559 185.518 346.525 185.618 346.459L187.937 347.82L190.488 346.36L188.037 344.932C188.633 344.468 189.13 344.003 189.395 343.505C189.859 342.709 189.859 341.945 189.428 341.149C188.997 340.352 188.103 339.589 186.744 338.792C185.386 337.996 184.06 337.498 182.834 337.266L182.768 337.332Z" fill="#FFE161"/>
</g>
</svg>
