<svg width="227" height="115" viewBox="0 0 227 115" fill="none" xmlns="http://www.w3.org/2000/svg">
<path d="M226.182 61.6482C224.652 59.4264 221.942 58.2132 219.511 57.2743C215.783 55.8333 211.827 54.9827 207.899 54.2855C202.934 53.4023 197.919 52.812 192.898 52.3472C182.16 51.3572 171.367 50.9621 160.587 50.7622C152.805 50.6181 145.028 50.6506 137.247 50.5716C133.105 50.5298 128.968 50.2137 124.835 49.9023C120.382 49.5676 115.933 49.1865 111.485 48.8007C123.12 47.1413 134.699 44.9102 146 41.6844C157.932 38.2773 169.674 33.7685 180.268 27.2332C189.789 21.3626 198.291 13.6885 204.101 4.05754C204.812 2.88156 205.473 1.68233 206.1 0.459868C206.351 -0.032836 205.263 -0.00959529 205.091 -0.000298982C194.99 0.357609 185.07 3.59737 175.82 7.45999C165.04 11.9641 154.753 17.5697 144.712 23.5147C135.02 29.2505 125.565 35.3629 116.087 41.4333C112.489 43.7388 108.877 46.0118 105.242 48.2568C104.447 48.1871 103.652 48.1174 102.857 48.0523C86.7686 46.6811 70.6243 45.533 54.4662 46.0025C39.3028 46.4441 23.6931 48.2522 9.55704 54.0717C6.40071 55.3732 3.342 56.8699 0.394854 58.599C0.148483 58.7431 -0.172263 59.0406 0.0927015 59.3102C2.96082 62.2617 6.71216 64.1861 10.5193 65.6409C15.2375 67.4491 20.2207 68.5414 25.1992 69.3502C36.853 71.242 48.716 71.6324 60.5046 71.7254C64.6371 71.7579 68.7742 71.7207 72.9114 71.6789C66.3756 76.8012 59.8026 81.8676 52.895 86.4833C51.4679 87.4361 50.0268 88.3704 48.5719 89.2815C47.9583 89.6673 48.1674 90.0577 48.7996 90.1367C49.6364 90.2436 50.6358 89.8764 51.3377 89.4581C67.3053 79.9061 85.797 75.3509 104.019 72.2599C107.626 72.4412 111.234 72.6271 114.845 72.7712C115.222 72.7852 115.599 72.7991 115.975 72.813C112.34 75.4625 108.844 78.2886 105.865 81.6864C105.191 82.458 106.855 82.3418 107.175 82.286C112.163 81.3982 116.849 79.525 121.553 77.7075C125.788 76.0714 130.12 74.5096 134.704 74.5189C134.523 76.9685 135.406 79.3902 135.09 81.8351C135.043 82.2116 135.383 82.286 135.708 82.2999C145.186 82.7043 153.089 77.5449 161.521 74.0913C161.712 74.0913 161.902 74.0959 162.088 74.1006C161.814 76.0621 162.204 77.9492 163.483 79.4738C158.416 80.2315 153.372 81.1239 148.375 82.272C138.795 84.4706 128.786 87.6081 121.019 93.8599C117.76 96.4814 114.994 99.7491 113.284 103.584C112.847 104.56 112.442 105.587 112.177 106.624C111.922 107.618 113.553 108.883 114.264 109.52C116.259 111.309 118.694 112.545 121.228 113.368C126.95 115.227 133.216 115.176 139.152 114.744C145.209 114.307 151.197 113.298 157.217 112.541C158.379 112.392 159.545 112.267 160.717 112.169C161.414 112.109 162.678 111.923 163.115 111.295C163.543 110.677 162.739 110.598 162.251 110.64C150.932 111.602 139.352 114.883 127.968 112.862C125.332 112.397 122.725 111.616 120.4 110.268C119.313 109.636 118.29 108.887 117.37 108.023C116.891 107.572 116.44 107.089 116.022 106.582C115.599 106.066 115.789 105.768 115.989 105.164C117.267 101.288 119.578 97.8945 122.557 95.1288C129.256 88.9143 138.469 85.9534 147.129 83.8524C152.917 82.4487 158.792 81.44 164.696 80.6034C167.299 82.5788 170.883 83.2156 174.039 83.5549C178.753 84.0569 183.55 83.7548 188.241 83.1691C193.47 82.5184 198.663 81.4214 203.715 79.9294C208.383 78.5489 213.012 76.8709 217.308 74.5608C220.478 72.8595 223.811 70.7865 225.842 67.728C227.088 65.8594 227.511 63.5772 226.177 61.6435L226.182 61.6482ZM114.664 44.292C123.775 38.505 132.803 32.5972 142.021 26.9776C151.82 21.0047 161.819 15.2921 172.259 10.4999C181.096 6.44204 190.551 2.74211 200.299 1.75206C200.954 1.68698 201.614 1.63585 202.27 1.59867C197.263 11.1227 189.649 18.9223 180.78 24.9417C171.111 31.5049 160.178 36.074 149.044 39.4811C136.889 43.2043 124.375 45.6399 111.801 47.4295C110.876 47.5596 109.946 47.6805 109.021 47.806C110.908 46.6393 112.795 45.4772 114.664 44.292ZM67.5238 70.2147C55.8189 70.2147 44.0582 69.9963 32.4323 68.5274C27.212 67.8674 21.9918 66.9378 16.9528 65.3992C12.904 64.1628 8.86441 62.5127 5.4989 59.8865C4.90854 59.4264 4.35537 58.929 3.8208 58.4038C15.7767 51.5849 29.8152 49.0796 43.3841 48.0337C58.938 46.8345 74.5802 47.5875 90.1108 48.7495C92.2631 48.9122 94.4153 49.0889 96.5676 49.2748C89.2183 50.0278 81.8551 50.6042 74.4826 51.0783C63.6795 51.7708 52.8624 52.2124 42.05 52.7934C40.9251 52.8539 39.8002 52.9189 38.6752 52.984C37.9872 53.0258 36.7043 53.2397 36.2766 53.8579C35.8443 54.4807 36.6578 54.5411 37.1412 54.5133C47.8792 53.8811 58.6312 53.4721 69.3692 52.826C80.428 52.1613 91.4775 51.2874 102.48 49.9767C96.9302 53.4581 91.5937 57.2743 86.3641 61.2205C82.4873 64.1489 78.6662 67.1562 74.8452 70.159C72.4001 70.1868 69.9596 70.2147 67.5191 70.2101L67.5238 70.2147ZM63.7725 81.7607C62.866 82.1279 61.9688 82.5137 61.0763 82.8995C66.1246 79.2879 71.038 75.4857 75.9283 71.6557C80.9626 71.6138 85.9969 71.5906 91.0266 71.7254C93.4206 71.7905 95.8192 71.8834 98.2132 71.9903C86.4571 74.2354 74.8545 77.2427 63.7771 81.7607H63.7725ZM111.875 71.0189C114.632 70.6098 117.393 70.224 120.159 69.8568C119.48 70.3309 118.806 70.8004 118.132 71.2792C116.045 71.1955 113.962 71.1118 111.88 71.0189H111.875ZM122.362 76.0203C118.313 77.5123 114.329 79.3065 110.141 80.3663C112.772 77.582 115.752 75.1882 118.839 72.9339C123.171 73.1012 127.508 73.25 131.84 73.3894C128.61 73.91 125.449 74.8815 122.362 76.0203ZM150.922 77.4705C147.06 79.2089 142.974 80.7939 138.688 80.78C138.874 78.3676 138.116 75.9924 138.297 73.58C139.892 73.6265 141.481 73.673 143.076 73.7148C148.147 73.8449 153.223 73.9565 158.3 74.0448C155.827 75.1511 153.391 76.3596 150.922 77.4705ZM165.765 76.1086C165.593 75.4625 165.542 74.8071 165.575 74.1564C176.833 74.3051 188.092 74.3469 199.35 74.2679C200.043 74.2633 200.736 74.254 201.424 74.2493C199.43 74.6677 197.421 75.0163 195.409 75.3277C190.681 76.0667 185.93 76.6245 181.18 77.1916C176.624 77.7354 172.068 78.2793 167.522 78.9021C166.704 78.1584 166.063 77.2427 165.76 76.1086H165.765ZM220.269 70.5866C217.521 73.0547 213.891 74.835 210.605 76.1876C201.921 79.7667 192.578 81.8491 183.081 82.2163C179.278 82.365 175.262 82.2302 171.576 81.0682C170.734 80.8032 169.884 80.4546 169.093 80.013C172.087 79.6272 175.081 79.2647 178.07 78.9068C187.023 77.8377 196.19 77.0568 204.924 74.6955C205.826 74.4538 206.718 74.1796 207.602 73.8914C207.904 73.7938 208.764 73.4498 208.754 73.0454C208.745 72.6085 208.02 72.669 207.736 72.6736C193.763 72.8316 179.785 72.7991 165.812 72.5946C165.849 72.4319 165.895 72.2692 165.942 72.1065C166.202 71.2094 163.813 71.8602 163.534 71.9531C162.995 72.1344 162.46 72.325 161.93 72.5249C158.565 72.4691 155.199 72.404 151.834 72.3296C141.551 72.0972 131.269 71.7765 120.991 71.3814C122.185 70.5355 123.389 69.7034 124.584 68.8668C125.723 68.0719 124.105 67.9929 123.52 68.0673C117.444 68.8528 111.345 69.7081 105.27 70.7214C102.257 70.5866 99.2498 70.4425 96.2422 70.2937C90.1341 69.9916 84.0074 70.0427 77.8853 70.1171C80.0515 68.4205 82.213 66.7193 84.3885 65.0367C89.8738 60.7836 95.4287 56.6142 101.207 52.7655C102.597 51.8406 104.005 50.9388 105.418 50.051C114.343 50.8598 123.269 51.6686 132.212 52.0451C138.232 52.3007 144.28 52.1334 150.304 52.1892C160.41 52.2821 170.521 52.5192 180.612 53.1281C190.272 53.7138 200.062 54.4807 209.517 56.6375C212.799 57.3858 216.173 58.2736 219.153 59.8819C220.985 60.8673 223.007 62.2757 223.383 64.4603C223.797 66.8541 221.951 69.0666 220.269 70.5773V70.5866Z" fill="#B4FF59"/>
</svg>
