<svg width="135" height="110" viewBox="0 0 135 110" fill="none" xmlns="http://www.w3.org/2000/svg">
<path d="M134.981 65.1724C134.792 67.055 133.064 67.9963 131.592 68.852C130.223 69.6393 128.854 70.4437 127.502 71.2309C125.311 72.4974 123.137 73.7639 120.947 75.0304C118.208 76.622 115.487 78.2137 112.749 79.7882C109.737 81.5339 106.725 83.2967 103.695 85.0424C100.666 86.8052 97.6367 88.568 94.5903 90.3308C91.8007 91.9567 89.0281 93.5654 86.2384 95.1913C83.9622 96.5091 81.7031 97.827 79.4268 99.1448C77.9379 100.001 76.4489 100.873 74.9599 101.729C73.8303 102.379 72.7692 103.03 71.4856 103.406C68.1483 104.365 64.4516 104.04 61.4394 102.294C60.3612 101.661 59.2658 101.044 58.1876 100.411C56.2023 99.2646 54.2342 98.135 52.2489 96.9883C49.6475 95.4823 47.046 93.9762 44.4446 92.4872C41.4838 90.7758 38.5059 89.0643 35.5451 87.3528C32.4816 85.59 29.418 83.8101 26.3545 82.0473C23.4622 80.3701 20.5698 78.71 17.6603 77.0328L10.2668 72.7712C8.50404 71.7444 6.72412 70.7346 4.96132 69.7077C4.15694 69.2456 3.35255 68.7835 2.54817 68.3043C1.28169 67.5684 0.0323273 66.4046 0.0323273 64.8301C0.0323273 66.2677 0.0323275 67.7053 0.015213 69.1601C0.015213 69.6735 -0.0190162 70.2041 0.015213 70.7346C0.1179 72.1209 1.21323 73.1991 2.35991 73.8837C3.06161 74.3115 3.78042 74.7052 4.49923 75.1159C6.3476 76.177 8.19598 77.2553 10.0444 78.3164C12.7142 79.8567 15.367 81.397 18.0369 82.9373C21.203 84.7685 24.3864 86.5998 27.5526 88.4311C30.8557 90.3479 34.1588 92.2476 37.479 94.1644C40.6281 95.9786 43.76 97.7927 46.9091 99.6069C49.5277 101.113 52.1291 102.619 54.7476 104.125C56.5104 105.152 58.2903 106.162 60.0531 107.189C61.08 107.771 62.0898 108.438 63.2022 108.849C66.6765 110.115 70.7497 109.841 73.9502 107.976C75.1653 107.274 76.3804 106.555 77.5956 105.854C79.8376 104.553 82.0796 103.252 84.3045 101.952C87.2311 100.257 90.1405 98.5629 93.0671 96.8514C96.336 94.9517 99.6049 93.052 102.857 91.1523L112.663 85.4531C115.59 83.7417 118.516 82.0473 121.46 80.3359C123.736 79.0181 126.013 77.7002 128.289 76.3653C129.538 75.6294 130.805 74.9106 132.054 74.1746C132.431 73.9521 132.824 73.7297 133.184 73.4729C134.142 72.7541 134.895 71.7615 134.912 70.5121C134.929 69.8789 134.912 69.2627 134.912 68.6295C134.912 67.3801 134.912 66.1137 134.929 64.8643C134.998 65.0012 134.981 65.0868 134.981 65.1724C134.981 65.2237 134.981 65.1381 134.981 65.1724Z" fill="#7A9EFD"/>
<path d="M132.55 61.4927C135.802 63.3753 135.819 66.4388 132.585 68.3214L73.6421 102.568C70.4075 104.45 65.1191 104.45 61.8673 102.568L2.5311 68.3214C-0.720663 66.4388 -0.73778 63.3753 2.49687 61.4927L61.4394 27.2293C64.6741 25.3467 69.9625 25.3467 73.2143 27.2293L132.55 61.4927Z" fill="#E4ECF9"/>
<path d="M65.4271 24.1144C65.564 24.046 65.7009 23.9775 65.8379 23.9262C65.9234 23.8919 65.9919 23.8577 66.0603 23.8235C66.1973 23.7721 66.3171 23.7208 66.454 23.6694C66.5396 23.6352 66.608 23.6181 66.6936 23.5839C66.8134 23.5496 66.9332 23.4983 67.053 23.4641C67.1386 23.4298 67.2241 23.4127 67.3097 23.3956C67.3782 23.3785 67.4466 23.3614 67.5322 23.3443C67.6349 23.3272 67.7376 23.2929 67.8231 23.2758C67.8916 23.2587 67.9601 23.2416 68.0285 23.2416L68.3879 23.1902C68.4222 23.1902 68.4564 23.1731 68.4906 23.1731C68.6446 23.156 68.7987 23.1389 68.9527 23.1389H69.5346C69.6544 23.1389 69.7571 23.156 69.8769 23.156C69.9111 23.156 69.9454 23.156 69.9796 23.1731C70.1165 23.1902 70.2534 23.2074 70.4075 23.2416C70.4417 23.2416 70.4759 23.2587 70.5101 23.2587C70.6128 23.2758 70.7326 23.31 70.8353 23.3272C70.8867 23.3443 70.9209 23.3443 70.9722 23.3614C71.0749 23.3956 71.1605 23.4127 71.2632 23.447C71.3145 23.4641 71.3488 23.4812 71.4001 23.4983C71.5199 23.5325 71.6226 23.5839 71.7424 23.6181C71.7595 23.6181 71.7766 23.6352 71.7937 23.6352C71.9306 23.6866 72.0676 23.755 72.2045 23.8235L72.3072 23.8748C72.4099 23.9262 72.5297 23.9946 72.6323 24.046L70.0994 22.5741C70.0823 22.557 70.0652 22.557 70.048 22.5399C69.9625 22.4885 69.8769 22.4372 69.7742 22.403L69.6715 22.3516C69.5346 22.2832 69.4148 22.2318 69.2779 22.1634H69.2608C69.2437 22.1634 69.2265 22.1463 69.2094 22.1463C69.0896 22.0949 68.9869 22.0607 68.8671 22.0093C68.8158 21.9922 68.7816 21.9751 68.7302 21.958L68.5762 21.9066C68.542 21.8895 68.4906 21.8895 68.4564 21.8724C68.405 21.8553 68.3708 21.8553 68.3195 21.8382C68.2168 21.804 68.1141 21.7868 67.9943 21.7697C67.9601 21.7697 67.9258 21.7526 67.8916 21.7526H67.8574C67.7205 21.7355 67.6007 21.7184 67.4637 21.7013C67.4295 21.7013 67.3953 21.7013 67.3611 21.6842C67.2926 21.6842 67.207 21.667 67.1386 21.667H66.4026C66.2657 21.667 66.1117 21.6842 65.9748 21.7013C65.9405 21.7013 65.9063 21.7184 65.855 21.7184C65.7694 21.7355 65.6838 21.7355 65.5983 21.7526C65.564 21.7526 65.5298 21.7697 65.5127 21.7697C65.4442 21.7868 65.3758 21.7868 65.3073 21.804C65.2046 21.8211 65.1019 21.8382 64.9992 21.8724L64.7939 21.9238C64.7425 21.9409 64.7083 21.9409 64.657 21.958C64.6227 21.9751 64.5714 21.9922 64.52 21.9922C64.4002 22.0265 64.2804 22.0607 64.1606 22.112C64.0751 22.1462 64.0066 22.1634 63.921 22.1976C63.8012 22.2489 63.6643 22.3003 63.5274 22.3516C63.476 22.3687 63.4247 22.3859 63.3562 22.4201C63.3391 22.4372 63.3049 22.4372 63.2878 22.4543C63.1509 22.5228 63.014 22.5741 62.877 22.6426L62.6717 22.7453C62.4663 22.8479 62.2438 22.9678 62.0384 23.0876L49.6646 30.2243C49.3908 30.3784 49.134 30.5495 48.8773 30.7207C48.8089 30.772 48.7404 30.8233 48.6548 30.8747C48.4495 31.0116 48.2441 31.1656 48.0387 31.3197C47.9874 31.3539 47.9189 31.4052 47.8676 31.4395C47.628 31.6277 47.3712 31.8331 47.1316 32.0385C47.0803 32.0898 47.0289 32.1412 46.9776 32.1754C46.7893 32.3465 46.6011 32.5177 46.4128 32.7059C46.3786 32.7402 46.3444 32.7744 46.293 32.8086L46.1903 32.9113C46.0705 33.0311 45.9507 33.1509 45.848 33.2707L45.6084 33.5103C45.4886 33.6472 45.3688 33.767 45.249 33.904C45.1977 33.9724 45.1463 34.0238 45.0779 34.0922L45.0265 34.1436L44.8212 34.4003C44.7185 34.5201 44.6329 34.6228 44.5302 34.7426C44.4618 34.8281 44.3933 34.9137 44.3077 35.0164C44.2393 35.102 44.1708 35.1704 44.1195 35.256C44.1024 35.2731 44.0852 35.3074 44.0681 35.3245C43.8285 35.6325 43.5889 35.9577 43.3664 36.2658C43.3493 36.3 43.3322 36.3171 43.3151 36.3342C43.2809 36.3685 43.2637 36.4198 43.2295 36.454C42.9899 36.7963 42.7674 37.1386 42.5278 37.498V37.5151C42.2882 37.8917 42.0486 38.2853 41.8261 38.6789C41.809 38.7132 41.7748 38.7474 41.7577 38.7816C41.7405 38.7987 41.7405 38.8158 41.7234 38.8501C41.4838 39.2437 41.2613 39.6545 41.0388 40.0652C41.0217 40.0994 41.0046 40.1337 40.9704 40.1679C40.9533 40.2021 40.9362 40.2192 40.919 40.2535C40.6794 40.7156 40.4398 41.1948 40.2002 41.674L40.1489 41.7767C40.1318 41.7938 40.1318 41.828 40.1147 41.8451C39.8237 42.4612 39.5328 43.0774 39.276 43.6935C39.276 43.7106 39.2589 43.7277 39.2589 43.7277C39.122 44.0529 38.9851 44.3781 38.8482 44.7204C38.814 44.8231 38.7626 44.9086 38.7284 45.0113C38.6086 45.3023 38.5059 45.5761 38.3861 45.867C38.369 45.9184 38.3519 45.9697 38.3176 46.0211C38.3176 46.0382 38.3005 46.0553 38.3005 46.0724C38.1294 46.5174 37.9753 46.9453 37.8213 47.3902C37.7871 47.4758 37.77 47.5443 37.7357 47.6298C37.5817 48.0577 37.4277 48.5027 37.2908 48.9306C37.2736 48.9648 37.2736 48.999 37.2565 49.0332C37.2394 49.0675 37.2394 49.1017 37.2223 49.1359C37.0169 49.7521 36.8287 50.3682 36.6404 50.9672C36.6233 51.0185 36.6062 51.0699 36.5891 51.1041C36.4008 51.7545 36.2125 52.3877 36.0243 53.0209V53.038C36.0243 53.0552 36.0072 53.0894 36.0072 53.1065C35.8702 53.6028 35.7333 54.0992 35.6135 54.5955V54.6126C35.4766 55.1089 35.3568 55.6052 35.237 56.0844C35.2199 56.1187 35.2199 56.1529 35.2028 56.2042C35.083 56.6663 34.9803 57.1284 34.8776 57.5905C34.8605 57.6419 34.8434 57.7103 34.8434 57.7617C34.7407 58.2066 34.6551 58.6345 34.5524 59.0624C34.5524 59.0966 34.5353 59.1308 34.5353 59.1651C34.5182 59.2164 34.5182 59.2678 34.5011 59.3191C34.484 59.4389 34.4497 59.5416 34.4326 59.6614C34.3984 59.7983 34.3813 59.9352 34.3471 60.055C34.3299 60.1748 34.2957 60.2775 34.2786 60.3802C34.2444 60.5171 34.2273 60.654 34.193 60.7738C34.1759 60.8765 34.1588 60.9963 34.1246 61.099C34.0903 61.2359 34.0732 61.3557 34.0561 61.4926L34.0048 61.8007C33.9876 61.9376 33.9534 62.0574 33.9363 62.1772L33.885 62.4853C33.8678 62.6051 33.8336 62.742 33.8165 62.8618C33.7994 62.9645 33.7823 63.0501 33.7652 63.1528C33.748 63.2726 33.7138 63.4095 33.6967 63.5293C33.6796 63.6148 33.6625 63.7175 33.6454 63.8031C33.6282 63.9229 33.594 64.0598 33.5769 64.1796C33.5598 64.2652 33.5427 64.3508 33.5427 64.4363C33.5255 64.5733 33.4913 64.6931 33.4742 64.83C33.4571 64.8985 33.4571 64.9669 33.44 65.0525C33.4229 65.2065 33.3886 65.3605 33.3715 65.4975C33.3715 65.5488 33.3544 65.583 33.3544 65.6344C33.3202 65.8226 33.3031 66.0109 33.2688 66.1992C33.2688 66.2505 33.2517 66.2847 33.2517 66.3361C33.2346 66.473 33.2175 66.6099 33.1833 66.7468C33.1661 66.8153 33.1661 66.8837 33.149 66.9522L33.0977 67.2603C33.0806 67.3287 33.0806 67.3972 33.0635 67.4827C33.0463 67.5683 33.0463 67.6539 33.0292 67.7395C33.0121 67.8079 33.0121 67.8764 32.995 67.9448C32.9779 68.0304 32.9779 68.116 32.9608 68.2016C32.9437 68.27 32.9437 68.3214 32.9437 68.3898C32.9437 68.4412 32.9265 68.4925 32.9265 68.5438V68.6123C32.9094 68.715 32.8923 68.8177 32.8923 68.9204C32.8923 68.9717 32.8752 69.0059 32.8752 69.0573C32.841 69.3482 32.8067 69.6049 32.7896 69.8274C32.7896 69.8617 32.7896 69.8959 32.7725 69.9301C32.7554 69.9986 32.7554 70.0842 32.7554 70.1526C32.7554 70.1868 32.7554 70.2211 32.7383 70.2553C32.7383 70.3066 32.7212 70.3751 32.7212 70.4264C32.7212 70.4607 32.7212 70.4949 32.7041 70.5291C32.7041 70.5805 32.6869 70.6147 32.6869 70.6661V70.7345C32.6869 70.7859 32.6698 70.8201 32.6698 70.8543V70.8885C32.6698 70.9399 32.6698 70.9741 32.6527 70.9912C32.6527 73.199 33.5084 74.9276 34.8605 75.7149L37.3934 77.1867C36.0414 76.3994 35.1857 74.6709 35.1857 72.4631C35.1857 72.4289 35.1857 72.3946 35.2028 72.3604V72.3091C35.2028 72.2748 35.2028 72.2406 35.2199 72.1893V72.1037C35.2199 72.0695 35.237 72.0181 35.237 71.9668C35.237 71.9325 35.237 71.8983 35.2541 71.8641C35.2541 71.8127 35.2712 71.7614 35.2712 71.6929C35.2712 71.6587 35.2712 71.6245 35.2884 71.5902C35.2884 71.5218 35.3055 71.4533 35.3055 71.3678C35.3055 71.3335 35.3055 71.2993 35.3226 71.2651C35.3568 71.0426 35.3739 70.7859 35.4082 70.4949C35.4082 70.4436 35.4253 70.4093 35.4253 70.358C35.4424 70.2553 35.4424 70.1526 35.4595 70.0499C35.4766 69.9815 35.4766 69.8959 35.4937 69.8274C35.4937 69.759 35.5108 69.7076 35.5108 69.6392C35.528 69.5536 35.528 69.468 35.5451 69.3825C35.5622 69.314 35.5622 69.2455 35.5793 69.1771C35.5964 69.0915 35.5964 69.0059 35.6135 68.9204C35.6306 68.8519 35.6306 68.7835 35.6478 68.6979L35.6991 68.3898C35.7162 68.3214 35.7162 68.2529 35.7333 68.1844C35.7504 68.0475 35.7676 67.9106 35.8018 67.7737C35.8018 67.7223 35.8189 67.6881 35.8189 67.6368C35.8531 67.4485 35.8702 67.2603 35.9045 67.072C35.9045 67.0207 35.9216 66.9864 35.9216 66.9351C35.9387 66.7811 35.9729 66.6441 35.9901 66.4901C36.0072 66.4216 36.0072 66.3532 36.0243 66.2676C36.0414 66.1307 36.0585 66.0109 36.0927 65.874C36.1099 65.7884 36.127 65.7028 36.127 65.6173C36.1441 65.4975 36.1612 65.3605 36.1954 65.2407C36.2125 65.1552 36.2297 65.0525 36.2468 64.9669C36.2639 64.8471 36.2981 64.7273 36.3152 64.5904C36.3323 64.4877 36.3495 64.4021 36.3666 64.2994C36.3837 64.1796 36.4179 64.0427 36.435 63.9229L36.4864 63.6148C36.5035 63.495 36.5377 63.3581 36.5548 63.2212L36.6062 62.9132C36.6233 62.7762 36.6575 62.6564 36.6746 62.5195C36.6917 62.4168 36.7089 62.297 36.7431 62.1943C36.7773 62.0574 36.7944 61.9376 36.8287 61.8007C36.8458 61.698 36.88 61.5782 36.8971 61.4755C36.9314 61.3386 36.9485 61.2017 36.9827 61.0648C36.9998 60.945 37.034 60.8423 37.0512 60.7225L37.1025 60.4658C37.1881 60.0379 37.2908 59.61 37.3934 59.1651C37.4106 59.1137 37.4277 59.0453 37.4277 58.9939C37.5304 58.5318 37.633 58.0868 37.7528 57.6076C37.77 57.5734 37.77 57.5392 37.7871 57.4878C37.9069 57.0086 38.0267 56.5123 38.1636 56.016V55.9989C38.2834 55.5025 38.4203 55.0062 38.5572 54.5099C38.5744 54.4757 38.5743 54.4414 38.5915 54.4072C38.7626 53.774 38.9509 53.1236 39.1562 52.4904C39.1734 52.439 39.1905 52.3877 39.2076 52.3535C39.3958 51.7373 39.5841 51.1212 39.7895 50.5222C39.8066 50.4537 39.8237 50.3853 39.8579 50.334C39.9949 49.9061 40.1489 49.4611 40.3029 49.0332C40.3371 48.9477 40.3543 48.8792 40.3885 48.7936C40.5425 48.3487 40.7137 47.9208 40.8677 47.4758C40.9019 47.4074 40.919 47.3389 40.9533 47.2704C41.056 46.9795 41.1758 46.7057 41.2956 46.4147C41.3298 46.312 41.3811 46.2265 41.4154 46.1238C41.5523 45.7986 41.6892 45.4563 41.8261 45.1311C41.8261 45.114 41.8432 45.0969 41.8432 45.0798C42.1171 44.4465 42.3909 43.8304 42.6818 43.2314C42.7161 43.1801 42.7332 43.1116 42.7674 43.0603C43.007 42.5811 43.2295 42.1018 43.4862 41.6397C43.5205 41.5713 43.5547 41.5028 43.5889 41.4515C43.8114 41.0407 44.0339 40.63 44.2735 40.2364C44.3077 40.185 44.342 40.1337 44.3762 40.0652C44.5987 39.6716 44.8383 39.2951 45.0779 38.9185V38.9014C45.3004 38.542 45.54 38.1997 45.7796 37.8574C45.8309 37.789 45.8652 37.7205 45.9165 37.6692C46.139 37.344 46.3786 37.0359 46.6182 36.7279C46.7038 36.6252 46.7893 36.5225 46.8578 36.4198C46.9263 36.3342 46.9947 36.2315 47.0803 36.146C47.183 36.0262 47.2686 35.9064 47.3712 35.8037L47.5766 35.547C47.6451 35.4614 47.7135 35.3929 47.782 35.3074C47.9018 35.1704 48.0216 35.0506 48.1414 34.9137L48.381 34.6741C48.5008 34.5543 48.6206 34.4345 48.7233 34.3147C48.7917 34.2463 48.8602 34.1778 48.9458 34.1093C49.134 33.9382 49.3223 33.7499 49.5106 33.5788C49.5619 33.5274 49.6132 33.4761 49.6646 33.4419C49.9042 33.2365 50.1438 33.0311 50.4005 32.8429C50.4519 32.7915 50.5203 32.7573 50.5717 32.7231C50.777 32.569 50.9824 32.4321 51.1707 32.2781C51.2391 32.2267 51.3076 32.1754 51.3932 32.124C51.6499 31.9529 51.9066 31.7818 52.1804 31.6277L64.5543 24.4909C64.7768 24.3711 64.9821 24.2513 65.1875 24.1487C65.2902 24.1829 65.3587 24.1487 65.4271 24.1144ZM66.5738 2.01952C66.6765 1.96817 66.7963 1.91683 66.899 1.8826C66.9161 1.8826 66.9332 1.86549 66.9332 1.86549C67.053 1.81414 67.1557 1.77991 67.2584 1.74569C67.2926 1.72857 67.3097 1.72857 67.3439 1.71146C67.4295 1.67723 67.5151 1.66011 67.6007 1.62588C67.6178 1.62588 67.6349 1.60877 67.652 1.60877C67.7889 1.57454 67.9087 1.54031 68.0456 1.5232H68.0799C68.1654 1.50608 68.2681 1.50608 68.3537 1.48897H68.6618C68.7302 1.48897 68.7987 1.50608 68.85 1.50608C68.8671 1.50608 68.8843 1.50608 68.9014 1.5232C68.9527 1.5232 68.9869 1.54031 69.0212 1.55742C69.0383 1.55742 69.0554 1.57454 69.0725 1.57454C69.1067 1.59165 69.141 1.59165 69.1752 1.60877C69.1923 1.60877 69.2094 1.62588 69.2265 1.62588L69.3292 1.67723C69.3463 1.67723 69.3635 1.69434 69.3806 1.69434L66.8476 0.222487C66.8476 0.222487 66.8305 0.222489 66.8305 0.205374C66.8134 0.205374 66.8134 0.188259 66.7963 0.188259L66.6936 0.136914C66.6936 0.136914 66.6765 0.136916 66.6765 0.119801C66.6594 0.119801 66.6594 0.1198 66.6422 0.102686C66.608 0.0855713 66.5738 0.0855718 66.5396 0.0684572C66.5224 0.0684572 66.5224 0.0684562 66.5053 0.0513416H66.4882C66.454 0.0342271 66.4026 0.0342276 66.3684 0.017113H66.3342H66.3171C66.2486 -1.56714e-06 66.1973 0 66.1288 0H65.855H65.8379C65.7523 0 65.6667 0.017114 65.564 0.0342286H65.5469H65.5298C65.41 0.0513432 65.2731 0.0855723 65.1362 0.119801H65.119C65.1019 0.119801 65.0848 0.136914 65.0848 0.136914C64.9992 0.154029 64.9137 0.188258 64.8281 0.222487C64.7939 0.239602 64.7768 0.239604 64.7425 0.256719C64.6398 0.290948 64.5372 0.342291 64.4174 0.37652C64.4002 0.37652 64.4002 0.393633 64.3831 0.393633C64.2804 0.444977 64.1777 0.479206 64.0579 0.53055L63.9553 0.581894C63.8355 0.650353 63.6985 0.701697 63.5787 0.770156C63.4932 0.821499 63.4076 0.855726 63.322 0.90707C63.0995 1.04399 62.877 1.1809 62.6717 1.31782L62.4663 1.47185C62.3294 1.57454 62.1925 1.66011 62.0727 1.7628C62.0042 1.83126 61.9186 1.8826 61.8502 1.95106C61.7304 2.03663 61.6277 2.13932 61.525 2.24201C61.4565 2.31047 61.371 2.37892 61.3025 2.44738C61.234 2.49872 61.1827 2.56718 61.1142 2.61853L60.9944 2.73833L60.8404 2.89236C60.7377 3.01216 60.6179 3.13197 60.5152 3.25177C60.481 3.30311 60.4297 3.33734 60.3954 3.38868L60.3441 3.44003C60.2585 3.54271 60.1558 3.6454 60.0702 3.76521C60.036 3.81655 59.9847 3.86789 59.9504 3.91924L59.5397 4.43267C59.3172 4.70651 59.1118 4.99745 58.9065 5.27129C58.7011 5.54512 58.4957 5.80184 58.3074 6.07567L57.948 6.53777C57.948 6.55488 57.9309 6.55488 57.9309 6.57199C57.8282 6.70891 57.7084 6.84583 57.5886 6.96563C57.4175 7.15389 57.2635 7.34215 57.0752 7.51329C56.9554 7.6331 56.8185 7.7529 56.6987 7.8727C56.6644 7.88982 56.6473 7.92404 56.6131 7.94116C56.5104 8.04385 56.3906 8.12942 56.2708 8.21499C56.2366 8.24922 56.1852 8.28345 56.151 8.30057C55.997 8.40325 55.8601 8.50594 55.6889 8.59151C55.5691 8.65997 55.4493 8.72843 55.3295 8.77977C55.2953 8.79689 55.2611 8.814 55.2439 8.83112C55.1413 8.88246 55.0557 8.91669 54.953 8.96803C54.9359 8.96803 54.9188 8.98515 54.9016 8.98515C54.799 9.01938 54.6963 9.07072 54.5936 9.10495C54.5594 9.12206 54.5422 9.12206 54.508 9.13918C54.4396 9.15629 54.354 9.19052 54.2855 9.20764C54.2513 9.20764 54.2171 9.22475 54.2 9.22475L53.9946 9.2761C53.9775 9.2761 53.9432 9.29321 53.9261 9.29321L53.6694 9.34455H53.6352C53.5496 9.36167 53.4469 9.36167 53.3613 9.37878H53.2929C53.1902 9.37878 53.1046 9.3959 53.0019 9.3959C52.8137 9.3959 52.6083 9.41301 52.42 9.3959H52.3858C52.1804 9.3959 51.9922 9.37878 51.7868 9.37878C51.5814 9.37878 51.3932 9.36167 51.1878 9.36167H50.5203C50.4005 9.36167 50.2636 9.37878 50.1267 9.3959H50.0582C49.9213 9.41301 49.8015 9.43013 49.6646 9.44724H49.6304C49.6132 9.44724 49.5961 9.44724 49.579 9.46435C49.4763 9.48147 49.3565 9.49859 49.2367 9.53281C49.2196 9.53281 49.2025 9.53281 49.1854 9.54993C49.0656 9.58416 48.9287 9.60127 48.7917 9.6355C48.7746 9.6355 48.7575 9.6355 48.7575 9.65262C48.7404 9.65262 48.7233 9.66973 48.7062 9.66973C48.5521 9.70396 48.3981 9.7553 48.227 9.82376C48.2099 9.82376 48.1927 9.84088 48.1756 9.84088C48.0216 9.89222 47.8504 9.96068 47.6793 10.0291C47.6622 10.0291 47.6451 10.0463 47.6451 10.0463C47.628 10.0463 47.6108 10.0634 47.5937 10.0634C47.2857 10.1832 47.0118 10.3372 46.738 10.4912C46.584 10.5768 46.4299 10.6795 46.2759 10.7822C46.2417 10.8164 46.1903 10.8335 46.1561 10.8678C46.0363 10.9533 45.9165 11.056 45.7967 11.1416C45.7796 11.1587 45.7625 11.1758 45.7282 11.1929C45.6256 11.2785 45.5229 11.3812 45.4202 11.4839L45.3688 11.5352C45.3175 11.5866 45.2833 11.6379 45.2319 11.6721L45.0779 11.8262C45.0437 11.8604 45.0265 11.8946 44.9923 11.9289C44.9752 11.9631 44.941 11.9973 44.9239 12.0144C44.9067 12.0487 44.8725 12.0658 44.8554 12.1C44.7869 12.1856 44.7356 12.2711 44.6671 12.3567C44.6671 12.3738 44.65 12.3738 44.65 12.3909C44.6329 12.4081 44.6329 12.4252 44.6158 12.4423L44.5131 12.5963C44.4618 12.6648 44.4104 12.7504 44.3762 12.8188L44.3591 12.8359C44.3591 12.853 44.342 12.853 44.342 12.8702C44.3077 12.9215 44.2735 12.99 44.2393 13.0413C44.1879 13.1269 44.1537 13.2124 44.1195 13.2809V13.298C44.1195 13.298 44.1195 13.3151 44.1024 13.3151C44.0681 13.3836 44.0339 13.4692 43.9997 13.5376C43.9654 13.6061 43.9483 13.6574 43.9312 13.7259C43.9141 13.743 43.9141 13.7772 43.897 13.7943C43.897 13.8115 43.8799 13.8115 43.8799 13.8286C43.8456 13.9313 43.7943 14.0511 43.7601 14.1537C43.7601 14.1709 43.7429 14.188 43.7429 14.2051C43.7258 14.2564 43.7087 14.3078 43.6916 14.342C43.6745 14.4105 43.6574 14.4789 43.6403 14.5303C43.6403 14.5645 43.6231 14.5816 43.6231 14.6158C43.606 14.7014 43.5718 14.8041 43.5547 14.8897C43.5376 14.941 43.5376 14.9924 43.5205 15.0266C43.5205 15.0437 43.5205 15.0608 43.5033 15.0779C43.452 15.3004 43.4178 15.5058 43.4007 15.7112V15.7454C43.4007 15.8139 43.3835 15.8823 43.3835 15.9337C43.3835 16.0021 43.3664 16.0535 43.3664 16.1219C43.3664 16.2075 43.3493 16.2931 43.3493 16.3786C43.3493 16.43 43.3493 16.4984 43.3322 16.5498V17.3542C43.3835 18.9116 44.5816 21.667 46.4471 22.7453L48.98 24.2171C47.1145 23.1389 45.9165 20.3835 45.8652 18.826V18.4324V18.2955V18.0216C45.8652 17.9703 45.8652 17.9018 45.8823 17.8505C45.8823 17.7649 45.8994 17.6793 45.8994 17.5938C45.8994 17.5253 45.9165 17.474 45.9165 17.4055C45.9165 17.3199 45.9336 17.2515 45.9507 17.1659C45.985 16.9605 46.0192 16.7381 46.0534 16.5327L46.1048 16.3273C46.1219 16.2417 46.1561 16.139 46.1732 16.0535C46.1903 15.9679 46.2246 15.8652 46.2588 15.7796C46.2759 15.7283 46.293 15.6769 46.3101 15.6427C46.3615 15.5058 46.3957 15.3689 46.4642 15.232C46.4642 15.2149 46.4813 15.1806 46.4984 15.1635C46.5497 15.0266 46.6182 14.8897 46.6695 14.7528C46.6695 14.7528 46.6695 14.7356 46.6867 14.7356C46.7551 14.5987 46.8236 14.4447 46.9091 14.3078C46.9091 14.2907 46.9263 14.2907 46.9263 14.2736L47.183 13.8628C47.2001 13.8457 47.2001 13.8286 47.2172 13.8115C47.3028 13.6917 47.4055 13.5547 47.491 13.4349C47.5082 13.4007 47.5424 13.3665 47.5595 13.3494C47.628 13.2638 47.7135 13.1782 47.7991 13.0926C47.8504 13.0413 47.8847 12.99 47.936 12.9557C48.0558 12.8359 48.1756 12.7332 48.2954 12.6134C48.3125 12.5963 48.3297 12.5792 48.3639 12.5621C48.4837 12.4594 48.6035 12.3738 48.7233 12.2883C48.7575 12.254 48.8089 12.2369 48.8431 12.2027C48.9971 12.1 49.1512 11.9973 49.3052 11.9117C49.5619 11.7577 49.8528 11.6208 50.1609 11.4839C50.1951 11.4668 50.2123 11.4668 50.2465 11.4496C50.4176 11.3812 50.5888 11.3127 50.7428 11.2614C50.7599 11.2614 50.777 11.2443 50.7942 11.2443C50.9653 11.1929 51.1193 11.1416 51.2734 11.0902C51.3076 11.0902 51.3247 11.0731 51.3589 11.0731C51.4958 11.0389 51.6157 11.0047 51.7526 10.9876C51.7697 10.9876 51.7868 10.9876 51.8039 10.9704C51.9237 10.9533 52.0264 10.9191 52.1462 10.902C52.1804 10.902 52.1975 10.8849 52.2318 10.8849C52.3687 10.8678 52.5056 10.8506 52.6254 10.8335H52.6939C52.8308 10.8164 52.9506 10.8164 53.0875 10.7993H53.1046C53.3271 10.7822 53.5325 10.7822 53.7379 10.7993H53.7721C53.9775 10.7993 54.1828 10.8164 54.3711 10.8164C54.5765 10.8164 54.7647 10.8335 54.9701 10.8335H55.5862C55.6889 10.8335 55.7745 10.8164 55.8772 10.8164H55.9456C56.0312 10.7993 56.1168 10.7993 56.2195 10.7822H56.2537L56.5104 10.7308C56.5275 10.7308 56.5618 10.7137 56.5789 10.7137L56.7843 10.6624C56.8014 10.6624 56.8185 10.6624 56.8185 10.6453C56.8356 10.6453 56.8527 10.6281 56.8698 10.6281C56.9383 10.611 57.0239 10.5768 57.0923 10.5597C57.1265 10.5426 57.1437 10.5426 57.1779 10.5255C57.2806 10.4912 57.3833 10.457 57.486 10.4057H57.5031C57.5202 10.4057 57.5202 10.3885 57.5373 10.3885C57.64 10.3543 57.7256 10.303 57.8282 10.2516C57.8625 10.2345 57.8967 10.2174 57.9138 10.2003C58.0336 10.1489 58.1534 10.0805 58.2732 10.012C58.4272 9.92645 58.5813 9.82376 58.7353 9.72107C58.7695 9.68684 58.8209 9.66973 58.8551 9.6355C58.9749 9.54993 59.0776 9.46436 59.1974 9.36167C59.2316 9.34455 59.2488 9.31032 59.283 9.29321C59.4028 9.19052 59.5226 9.08784 59.6424 8.96803L59.6766 8.9338C59.8478 8.76266 60.0189 8.5744 60.1901 8.38614L60.2243 8.35191L60.5323 7.9925L60.5666 7.95827C60.6864 7.82136 60.7891 7.68444 60.8917 7.54752C60.9089 7.53041 60.9089 7.51329 60.926 7.51329C61.1313 7.25658 61.3196 6.98274 61.525 6.70891C61.7304 6.43508 61.9357 6.14413 62.1582 5.8703L62.569 5.35686C62.6032 5.30551 62.6546 5.25417 62.6888 5.21994C62.7915 5.10014 62.8942 4.96322 62.9968 4.84342C63.0311 4.79208 63.0824 4.75785 63.1166 4.70651C63.2193 4.5867 63.322 4.4669 63.4418 4.3471L63.5958 4.19307C63.6985 4.09038 63.8012 3.98769 63.9039 3.90212C63.9724 3.83366 64.0408 3.7652 64.1264 3.69675C64.2291 3.59406 64.3489 3.50849 64.4516 3.4058C64.52 3.33734 64.6056 3.286 64.6741 3.21754C64.7939 3.11485 64.9308 3.01216 65.0677 2.92659L65.2731 2.77256C65.4785 2.63564 65.7009 2.49872 65.9234 2.36181C66.009 2.31046 66.0946 2.25912 66.1801 2.22489C66.3171 2.15644 66.4369 2.08798 66.5567 2.03663C66.5053 2.05375 66.5396 2.03663 66.5738 2.01952Z" fill="#8AEA16"/>
<path d="M49.2368 11.9289C49.4935 11.7749 49.7844 11.6379 50.0925 11.501C53.755 9.96072 55.244 11.7749 58.2048 10.0634C61.0458 8.42041 62.0214 4.62098 65.8379 2.4132C65.9235 2.36186 66.0091 2.31051 66.0946 2.27628C70.1337 0.0856178 70.3733 3.08067 70.3733 4.70655C70.3733 6.34955 67.6349 15.3518 64.0066 17.4398L52.2832 24.2172C48.6549 26.3051 45.9337 21.2221 45.8652 18.8603C45.7796 16.721 46.3273 13.6061 49.2368 11.9289ZM64.5714 24.5595C78.2631 16.6525 81.5491 44.1899 81.7202 45.6275C81.7373 49.6836 78.8792 55.417 75.3536 57.4536L41.655 76.93C38.1294 78.9667 35.2542 76.5364 35.2371 72.4802C35.4082 70.8372 38.5059 39.6203 52.2147 31.7133L64.5714 24.5595Z" fill="#B6FF63"/>
<path d="M96.1307 47.2361C96.1649 47.219 96.1992 47.219 96.2334 47.2019C96.2676 47.2019 96.2847 47.1847 96.319 47.1847C96.3532 47.1847 96.3874 47.1676 96.4388 47.1676H96.6784C96.7297 47.1676 96.7811 47.1847 96.8324 47.1847C96.8495 47.1847 96.8495 47.1847 96.8666 47.2019C96.9009 47.219 96.9522 47.219 96.9864 47.2361C97.0036 47.2361 97.0036 47.2361 97.0207 47.2532C97.072 47.2703 97.1234 47.2874 97.1576 47.3217L94.6246 45.8498H94.6075L94.5048 45.7985H94.4877C94.4706 45.7985 94.4706 45.7985 94.4535 45.7813C94.4364 45.7813 94.4193 45.7642 94.4021 45.7642C94.385 45.7642 94.3679 45.7471 94.3337 45.7471C94.3166 45.7471 94.3166 45.7471 94.2994 45.73H94.2823C94.2481 45.73 94.1968 45.7129 94.1454 45.7129H93.8374C93.8202 45.7129 93.8031 45.7129 93.786 45.73C93.7518 45.73 93.7347 45.7471 93.7004 45.7471C93.6833 45.7471 93.6662 45.7471 93.6491 45.7642C93.632 45.7642 93.6149 45.7813 93.5978 45.7813L93.4437 45.8327C93.4266 45.8327 93.4095 45.8498 93.3924 45.8498C93.3753 45.8498 93.3753 45.8669 93.3581 45.8669C93.2726 45.9011 93.187 45.9525 93.0843 46.0038L92.0061 46.62L94.5391 48.0918L95.6173 47.4757C95.7028 47.4243 95.8055 47.373 95.8911 47.3388C95.9253 47.3217 95.9424 47.3217 95.9767 47.3045C96.028 47.2703 96.0794 47.2532 96.1307 47.2361Z" fill="#C68620"/>
<path d="M92.5023 46.7742C92.5023 45.987 92.2969 45.3708 91.9375 44.9772C91.8177 44.8403 91.6808 44.7376 91.5268 44.652L88.9938 43.1802C89.5928 43.5225 89.9693 44.2755 89.9693 45.3195V47.784L92.5023 49.2558V46.7742ZM85.8447 53.1066L83.3118 51.6348L89.9693 47.784L92.5023 49.2558L85.8447 53.1066ZM80.6077 58.1383C80.6077 58.087 80.6248 58.0185 80.6419 57.9672C80.6419 57.9329 80.659 57.8816 80.659 57.8474C80.659 57.8131 80.6761 57.7789 80.6932 57.7447C80.7103 57.6933 80.7275 57.642 80.7275 57.5906C80.7446 57.5564 80.7446 57.5393 80.7617 57.5051C80.7788 57.4537 80.7959 57.3853 80.813 57.3339C80.813 57.3168 80.8301 57.2826 80.8301 57.2655C80.8644 57.1799 80.8986 57.1114 80.9328 57.0259C80.9328 57.0259 80.9328 57.0087 80.95 57.0087L81.0526 56.8034C81.0698 56.7863 81.0698 56.752 81.0869 56.7349C81.1211 56.6665 81.1553 56.598 81.1896 56.5467C81.1896 56.5295 81.2067 56.5295 81.2067 56.5124C81.258 56.444 81.2922 56.3584 81.3436 56.2899C81.3607 56.2728 81.3778 56.2557 81.3778 56.2215L81.4805 56.0674C81.4976 56.0332 81.5147 56.0161 81.5319 55.9819C81.5661 55.9476 81.6003 55.8963 81.6345 55.8621C81.6688 55.8278 81.6859 55.7936 81.7201 55.7594C81.7543 55.7252 81.7715 55.6909 81.8057 55.6738C81.857 55.6225 81.9084 55.5711 81.9426 55.5198L82.0111 55.4513C82.1137 55.3486 82.2164 55.2631 82.3191 55.1775C82.3362 55.1604 82.3533 55.1433 82.3705 55.1433C82.4731 55.0577 82.5929 54.9892 82.7128 54.9208L83.791 54.3046L81.258 52.8328L80.1798 53.4489C80.06 53.5174 79.9573 53.5858 79.8375 53.6714C79.8204 53.6885 79.8033 53.7056 79.7862 53.7056C79.6835 53.7912 79.5808 53.8768 79.4781 53.9795L79.461 53.9966L79.4096 54.0479C79.3583 54.0993 79.307 54.1506 79.2727 54.202L79.2214 54.2533C79.2043 54.2704 79.2043 54.2875 79.1872 54.3046C79.1529 54.3389 79.1358 54.3731 79.1016 54.4073C79.0845 54.4244 79.0674 54.4587 79.0502 54.4758C79.0331 54.4929 79.016 54.51 79.016 54.5271C78.9989 54.5614 78.9818 54.5785 78.9647 54.6127C78.9476 54.6298 78.9304 54.6469 78.9304 54.6641C78.9133 54.6983 78.8791 54.7325 78.862 54.7667C78.8449 54.7839 78.8278 54.801 78.8278 54.8352C78.8278 54.8523 78.8106 54.8523 78.8106 54.8694C78.7764 54.9208 78.7422 54.9892 78.7079 55.0577V55.0748C78.7079 55.0919 78.6908 55.0919 78.6908 55.109C78.6737 55.1604 78.6395 55.1946 78.6224 55.246C78.6053 55.2631 78.6053 55.2802 78.5881 55.3144C78.571 55.3315 78.571 55.3658 78.5539 55.3829C78.5368 55.4 78.5368 55.4171 78.5197 55.4342C78.5026 55.4856 78.4683 55.5369 78.4512 55.5882C78.4512 55.5882 78.4512 55.6054 78.4341 55.6054C78.3999 55.6738 78.3828 55.7252 78.3485 55.7936C78.3485 55.8107 78.3485 55.8107 78.3314 55.8278C78.3143 55.845 78.3143 55.8792 78.3143 55.8963C78.2972 55.9305 78.2972 55.9648 78.2801 55.999C78.2801 56.0161 78.263 56.0503 78.263 56.0674C78.2458 56.1017 78.2459 56.1188 78.2287 56.153C78.2287 56.1701 78.2116 56.1872 78.2116 56.2044C78.1945 56.2386 78.1945 56.2728 78.1945 56.307C78.1774 56.3413 78.1774 56.3755 78.1603 56.4097C78.1603 56.4269 78.1603 56.4269 78.1432 56.444C78.1432 56.4782 78.1432 56.4953 78.126 56.5295C78.1089 56.5809 78.1089 56.6493 78.0918 56.7007V56.8034C78.0747 56.9232 78.0747 57.0601 78.0747 57.1799L78.1089 69.5366C78.1089 70.2212 78.3485 70.7004 78.7422 70.9229L81.2751 72.3947C80.8815 72.1723 80.6419 71.693 80.6419 71.0085L80.6077 58.6517C80.6077 58.5319 80.6248 58.395 80.6248 58.2752C80.6077 58.2068 80.6077 58.1725 80.6077 58.1383Z" fill="#C68620"/>
<path d="M95.6172 47.4587C96.8152 46.7742 97.7736 47.3218 97.7736 48.691L97.8079 61.0477C97.8079 62.4169 96.8494 64.077 95.6685 64.7616L82.7642 72.2064C81.5833 72.891 80.6077 72.3433 80.6077 70.9742L80.5735 58.6174C80.5735 57.2483 81.5319 55.5882 82.7128 54.9036L83.791 54.2875V51.823C83.7739 48.4172 86.1871 44.2583 89.1479 42.5469C92.1087 40.8354 94.539 42.2046 94.539 45.6275V48.092L95.6172 47.4587ZM92.5023 49.2558V46.7913C92.5023 44.6862 90.9963 43.8305 89.165 44.8916C87.3337 45.9527 85.8448 48.537 85.8448 50.6421V53.1065L92.5023 49.2558Z" fill="#FFCD2E"/>
<path d="M83.8253 51.0186C83.8424 50.8988 83.8596 50.7619 83.8767 50.625C83.8938 50.4881 83.928 50.334 83.9451 50.1971C83.9622 50.0944 83.9793 50.0089 83.9965 49.9062C84.0136 49.8206 84.0478 49.7179 84.0649 49.6323C84.0992 49.5125 84.1334 49.3756 84.1676 49.2558C84.1847 49.1874 84.219 49.1018 84.2361 49.0333C84.2874 48.8964 84.3216 48.7424 84.373 48.6055C84.3901 48.5541 84.4072 48.4857 84.4414 48.4343C84.5099 48.229 84.5955 48.0407 84.681 47.8353C84.6982 47.8182 84.6982 47.784 84.7153 47.7669C84.8008 47.5957 84.8693 47.4246 84.9549 47.2534C84.9891 47.2021 85.0062 47.1507 85.0405 47.0994C85.126 46.9282 85.2116 46.7742 85.2972 46.6202L85.3485 46.5175C85.4512 46.3292 85.571 46.141 85.6908 45.9698L85.7935 45.8158C85.8791 45.6789 85.9646 45.5591 86.0673 45.4393L86.2214 45.2339C86.3069 45.1312 86.3754 45.0285 86.461 44.9258L86.6663 44.6691C86.7348 44.5835 86.8033 44.5151 86.8717 44.4295C86.9915 44.2926 87.1113 44.1728 87.2311 44.053L87.4536 43.8305C87.5049 43.7792 87.5734 43.7107 87.6419 43.6594C87.7446 43.5738 87.8472 43.4711 87.9499 43.3855C88.0184 43.3342 88.0697 43.2828 88.1382 43.2315C88.2409 43.1459 88.3607 43.0604 88.4805 42.9748C88.5318 42.9406 88.5832 42.8892 88.6516 42.855C88.8228 42.7352 88.9939 42.6325 89.1651 42.5298C89.3362 42.4271 89.4902 42.3587 89.6614 42.2731C89.6956 42.256 89.747 42.2388 89.7812 42.2217C89.9352 42.1533 90.0892 42.0848 90.2433 42.0335C90.2604 42.0335 90.2604 42.0335 90.2775 42.0164C90.4144 41.965 90.5342 41.9308 90.6711 41.9137C90.7396 41.8966 90.8252 41.8794 90.8936 41.8623C90.9963 41.8452 91.0819 41.8281 91.1846 41.811C91.2359 41.811 91.2873 41.7939 91.3386 41.7939C91.4584 41.7939 91.5782 41.7768 91.6809 41.7939H91.7665C91.9034 41.7939 92.0403 41.811 92.1601 41.8452C92.1943 41.8452 92.2286 41.8623 92.2628 41.8623C92.3655 41.8794 92.4682 41.9137 92.5537 41.9479C92.588 41.965 92.6222 41.965 92.6393 41.9821C92.7591 42.0335 92.8789 42.0848 92.9987 42.1533L90.4658 40.6814C90.4487 40.6814 90.4487 40.6643 90.4315 40.6643C90.346 40.613 90.2604 40.5787 90.1577 40.5274C90.1406 40.5274 90.1235 40.5103 90.1064 40.5103C90.0721 40.4932 90.0379 40.4932 90.0208 40.4761C89.9694 40.4589 89.9352 40.4418 89.8839 40.4247C89.8325 40.4076 89.7812 40.4076 89.7298 40.3905C89.6956 40.3905 89.6614 40.3734 89.6272 40.3734C89.61 40.3734 89.5929 40.3562 89.5758 40.3562C89.4731 40.3391 89.3533 40.322 89.2506 40.322H88.8912C88.857 40.322 88.8399 40.322 88.8057 40.3391C88.7543 40.3391 88.703 40.3562 88.6516 40.3562C88.6003 40.3562 88.5489 40.3562 88.4976 40.3734C88.4463 40.3734 88.412 40.3905 88.3607 40.4076C88.2922 40.4247 88.2066 40.4418 88.1382 40.4589C88.104 40.4761 88.0526 40.4761 88.0184 40.4761C87.9328 40.4932 87.8301 40.5274 87.7446 40.5616C87.7274 40.5616 87.7274 40.5616 87.7103 40.5787C87.6076 40.613 87.4878 40.6643 87.3852 40.6985C87.3338 40.7157 87.2996 40.7328 87.2482 40.767C87.214 40.7841 87.1627 40.8012 87.1284 40.8183C86.9744 40.8868 86.8033 40.9724 86.6321 41.0751C86.461 41.1777 86.2898 41.2804 86.1187 41.4002C86.0673 41.4345 86.016 41.4858 85.9475 41.52C85.8277 41.6056 85.725 41.6912 85.6052 41.7768C85.5368 41.8281 85.4854 41.8794 85.417 41.9308C85.3143 42.0164 85.2116 42.1019 85.1089 42.2046C85.0404 42.256 84.9891 42.3244 84.9207 42.3758C84.8864 42.41 84.8522 42.4442 84.8008 42.4785C84.7666 42.5127 84.7324 42.564 84.681 42.5983C84.5612 42.7181 84.4414 42.855 84.3216 42.9748L84.2018 43.0946C84.1676 43.1288 84.1334 43.163 84.1163 43.1973L83.9109 43.454C83.8595 43.5053 83.8253 43.5567 83.774 43.6251C83.7397 43.6765 83.7055 43.7278 83.6713 43.762L83.5173 43.9674C83.483 44.0188 83.4488 44.053 83.4146 44.1043C83.3632 44.1899 83.3119 44.2755 83.2434 44.3439L83.1407 44.498C83.1236 44.5151 83.1065 44.5322 83.0894 44.5664C82.9867 44.7205 82.9011 44.8745 82.8156 45.0285C82.8156 45.0456 82.7984 45.0456 82.7984 45.0628C82.7813 45.097 82.7642 45.1312 82.7471 45.1483C82.6786 45.251 82.6273 45.3708 82.5588 45.4735C82.5246 45.5248 82.5075 45.5762 82.4733 45.6275C82.439 45.6789 82.4219 45.7302 82.3877 45.7816C82.3706 45.8329 82.3363 45.8671 82.3192 45.9185C82.2508 46.0383 82.1994 46.1752 82.1481 46.295C82.131 46.3121 82.131 46.3463 82.1139 46.3635C82.1139 46.3635 82.1139 46.3806 82.0967 46.3806C82.0283 46.5346 81.9598 46.7058 81.8914 46.8598C81.8743 46.894 81.8743 46.9111 81.8571 46.9454C81.84 46.9967 81.8229 47.0652 81.7887 47.1165C81.7545 47.2021 81.7202 47.2705 81.7031 47.3561C81.686 47.4246 81.6689 47.4759 81.6518 47.5444C81.6347 47.6128 81.6004 47.6984 81.5833 47.7669C81.5662 47.8182 81.5491 47.8524 81.5491 47.9038C81.532 47.9893 81.5149 48.0749 81.4806 48.1434C81.4635 48.2289 81.4293 48.3316 81.4122 48.4172C81.4122 48.4514 81.3951 48.4857 81.3951 48.5199C81.3779 48.5884 81.3779 48.6568 81.3608 48.7253C81.3266 48.8622 81.3095 49.0162 81.2924 49.1531C81.2924 49.1874 81.2752 49.2387 81.2752 49.2729C81.2581 49.3585 81.2581 49.4441 81.241 49.5468C81.241 49.6152 81.2239 49.6666 81.2239 49.735C81.2068 49.9404 81.2068 50.1287 81.2068 50.334V52.7985L83.7397 54.2704V51.8059C83.7397 51.6176 83.7569 51.4123 83.7569 51.2069C83.8253 51.1555 83.8253 51.0871 83.8253 51.0186ZM88.7201 56.0674C89.6614 55.5198 90.4144 55.9647 90.4144 57.043C90.4144 57.8645 89.9866 58.8058 89.3533 59.4561V61.1333C89.3533 61.5441 89.0624 62.0233 88.7201 62.2287C88.3778 62.434 88.0868 62.2629 88.0868 61.8693V60.192C87.4707 60.2605 87.0257 59.8155 87.0257 58.994C87.0429 57.9158 87.7959 56.598 88.7201 56.0674Z" fill="#C68620"/>
<path d="M90.2431 63.4266V61.7494L88.3948 60.6711V62.3484C88.3948 62.5538 88.4632 62.6907 88.583 62.7591L90.4314 63.8373C90.3116 63.7689 90.2431 63.632 90.2431 63.4266Z" fill="#E8CFAC"/>
<path d="M91.2702 57.4535C91.2873 57.4535 91.3215 57.4364 91.3386 57.4364C91.3558 57.4364 91.39 57.4193 91.4071 57.4193C91.4413 57.4193 91.4756 57.4022 91.4927 57.4022H91.6638C91.7152 57.4022 91.7494 57.4022 91.7836 57.4193H91.8179C91.8521 57.4193 91.8863 57.4364 91.9034 57.4535C91.9205 57.4535 91.9205 57.4535 91.9377 57.4706L92.0403 57.522L90.192 56.4438H90.1749C90.1406 56.4266 90.1235 56.4095 90.0893 56.4095H90.0722C90.055 56.4095 90.0551 56.4095 90.0379 56.3924C90.0208 56.3924 90.0037 56.3753 89.9866 56.3753C89.9695 56.3753 89.9524 56.3753 89.9352 56.3582H89.901H89.8839C89.8497 56.3582 89.8155 56.3411 89.7812 56.3411H89.5245C89.5074 56.3411 89.4903 56.3411 89.4903 56.3582C89.4732 56.3582 89.4389 56.3753 89.4218 56.3753H89.3876C89.3705 56.3753 89.3705 56.3924 89.3534 56.3924C89.3191 56.4095 89.2678 56.4095 89.2336 56.4266C89.2164 56.4266 89.1993 56.4438 89.1993 56.4438L89.1822 56.4609L88.9768 56.5636C88.8742 56.632 88.7543 56.7005 88.6517 56.786C88.6174 56.8203 88.5832 56.8374 88.549 56.8716C88.4976 56.923 88.4463 56.9572 88.3949 57.0085L88.3265 57.077C88.3094 57.0941 88.2922 57.1112 88.2751 57.1455L88.2067 57.2139C88.1553 57.2653 88.1211 57.3166 88.0698 57.3851C88.0527 57.4022 88.0355 57.4193 88.0184 57.4535C88.0184 57.4706 88.0013 57.4706 88.0013 57.4877L87.95 57.5391L87.8473 57.6931C87.813 57.7445 87.7959 57.7958 87.7617 57.83V57.8643C87.7446 57.8985 87.7104 57.9498 87.6932 57.9841C87.6761 58.0354 87.6419 58.0868 87.6248 58.121C87.6077 58.1723 87.5906 58.2066 87.5563 58.2579C87.5392 58.3092 87.5221 58.3606 87.4879 58.4119L87.4365 58.566C87.4194 58.6002 87.4194 58.6173 87.4194 58.6515C87.4194 58.6686 87.4194 58.6686 87.4023 58.6858C87.4023 58.7029 87.3852 58.72 87.3852 58.7371C87.3681 58.8056 87.3509 58.874 87.3338 58.9254C87.3338 58.9596 87.3167 59.0109 87.3167 59.0452C87.3167 59.0623 87.3167 59.0794 87.2996 59.1136C87.2996 59.1307 87.2996 59.1479 87.2825 59.165C87.2654 59.2848 87.2654 59.3875 87.2654 59.4901C87.2654 60.0207 87.4536 60.3972 87.7617 60.5855L89.6101 61.6637C89.302 61.4926 89.1138 61.116 89.1138 60.5684C89.1138 60.4486 89.1309 60.3116 89.148 60.1747C89.148 60.1576 89.148 60.1405 89.1651 60.1063C89.1822 59.9865 89.2164 59.8667 89.2507 59.7297C89.2507 59.7126 89.2507 59.7126 89.2678 59.6955C89.302 59.5586 89.3534 59.4217 89.4218 59.3019C89.4732 59.165 89.5416 59.0281 89.6272 58.9082V58.8911C89.6956 58.7713 89.7812 58.6515 89.8668 58.5317C89.8668 58.5146 89.8839 58.5146 89.8839 58.4975C89.9695 58.3948 90.0379 58.2921 90.1235 58.2066C90.1406 58.1894 90.1577 58.1723 90.1749 58.1381L90.3802 57.9327C90.4145 57.8985 90.4487 57.8814 90.4829 57.8471C90.5856 57.7616 90.6883 57.6931 90.8081 57.6247L91.0135 57.522C91.0306 57.5049 91.0648 57.5049 91.0819 57.4877C91.1846 57.4877 91.2188 57.4706 91.2702 57.4535Z" fill="#E8CFAC"/>
<path d="M90.8594 57.6247C91.8007 57.077 92.5537 57.522 92.5537 58.6002C92.5537 59.4217 92.1259 60.363 91.4926 61.0134V62.6906C91.4926 63.1014 91.2017 63.5806 90.8594 63.7859C90.5171 63.9913 90.2261 63.8202 90.2261 63.4265V61.7493C89.61 61.8178 89.165 61.3728 89.165 60.5513C89.165 59.4731 89.9352 58.1724 90.8594 57.6247Z" fill="white"/>
</svg>
