<svg width="40" height="40" viewBox="0 0 40 40" fill="none" xmlns="http://www.w3.org/2000/svg">
<path fill-rule="evenodd" clip-rule="evenodd" d="M15.9873 5.33383C15.5814 5.67971 15.3784 5.85268 15.1617 5.99795C14.6649 6.33095 14.1069 6.56206 13.5201 6.67791C13.2641 6.72846 12.9983 6.74966 12.4667 6.79208C11.1311 6.89868 10.4633 6.95196 9.90611 7.14876C8.61744 7.60393 7.60381 8.61756 7.14864 9.90623C6.95184 10.4634 6.89856 11.1312 6.79196 12.4668C6.74954 12.9984 6.72834 13.2642 6.67779 13.5202C6.56194 14.107 6.33082 14.665 5.99782 15.1618C5.85256 15.3786 5.67961 15.5815 5.33371 15.9874C4.46464 17.0072 4.03009 17.517 3.77529 18.0502C3.18591 19.2834 3.18591 20.7167 3.77529 21.9499C4.03011 22.483 4.46464 22.9929 5.33371 24.0127C5.67956 24.4185 5.85256 24.6215 5.99782 24.8382C6.33082 25.335 6.56194 25.893 6.67779 26.4799C6.72834 26.7359 6.74954 27.0017 6.79196 27.5332C6.89856 28.8689 6.95184 29.5367 7.14864 30.0939C7.60381 31.3825 8.61744 32.3962 9.90611 32.8514C10.4633 33.048 11.1311 33.1014 12.4667 33.208C12.9983 33.2504 13.2641 33.2717 13.5201 33.3222C14.1069 33.438 14.6649 33.6692 15.1617 34.0022C15.3784 34.1474 15.5814 34.3204 15.9873 34.6662C17.0071 35.5354 17.5169 35.9699 18.0501 36.2247C19.2833 36.814 20.7166 36.814 21.9498 36.2247C22.4829 35.9699 22.9928 35.5354 24.0126 34.6662C24.4184 34.3204 24.6214 34.1474 24.8381 34.0022C25.3349 33.6692 25.8929 33.438 26.4798 33.3222C26.7358 33.2717 27.0016 33.2504 27.5331 33.208C28.8688 33.1014 29.5366 33.048 30.0938 32.8514C31.3824 32.3962 32.3961 31.3825 32.8513 30.0939C33.0479 29.5367 33.1013 28.8689 33.2079 27.5332C33.2503 27.0017 33.2716 26.7359 33.3221 26.4799C33.4379 25.893 33.6691 25.335 34.0021 24.8382C34.1473 24.6215 34.3203 24.4185 34.6661 24.0127C35.5353 22.9929 35.9698 22.483 36.2246 21.9499C36.8139 20.7167 36.8139 19.2834 36.2246 18.0502C35.9698 17.517 35.5353 17.0072 34.6661 15.9874C34.3203 15.5815 34.1473 15.3786 34.0021 15.1618C33.6691 14.665 33.4379 14.107 33.3221 13.5202C33.2716 13.2642 33.2503 12.9984 33.2079 12.4668C33.1013 11.1312 33.0479 10.4634 32.8513 9.90623C32.3961 8.61756 31.3824 7.60393 30.0938 7.14876C29.5366 6.95196 28.8688 6.89868 27.5331 6.79208C27.0016 6.74966 26.7358 6.72846 26.4798 6.67791C25.8929 6.56206 25.3349 6.33095 24.8381 5.99795C24.6214 5.85268 24.4184 5.67973 24.0126 5.33383C22.9928 4.46476 22.4829 4.03023 21.9498 3.77541C20.7166 3.18603 19.2833 3.18603 18.0501 3.77541C17.5169 4.03021 17.0071 4.46476 15.9873 5.33383ZM27.2891 16.4386C27.8188 15.9089 27.8188 15.05 27.2891 14.5203C26.7594 13.9906 25.9004 13.9906 25.3708 14.5203L17.2871 22.604L14.629 19.946C14.0993 19.4164 13.2405 19.4164 12.7107 19.946C12.181 20.4757 12.181 21.3345 12.7107 21.8644L16.3279 25.4815C16.8576 26.0112 17.7164 26.0112 18.2463 25.4815L27.2891 16.4386Z" fill="white"/>
</svg>
