<svg width="16" height="16" viewBox="0 0 16 16" fill="none" xmlns="http://www.w3.org/2000/svg">
<path d="M14.6133 4.41333C14.5457 4.25043 14.4162 4.12098 14.2533 4.05333C14.1732 4.01917 14.0871 4.00105 14 4H10.6667C10.4899 4 10.3203 4.07024 10.1953 4.19526C10.0702 4.32029 10 4.48986 10 4.66667C10 4.84348 10.0702 5.01305 10.1953 5.13807C10.3203 5.2631 10.4899 5.33333 10.6667 5.33333H12.3933L8.66667 9.06L6.47333 6.86C6.41136 6.79751 6.33762 6.74792 6.25638 6.71407C6.17515 6.68023 6.08801 6.6628 6 6.6628C5.91199 6.6628 5.82486 6.68023 5.74362 6.71407C5.66238 6.74792 5.58864 6.79751 5.52667 6.86L1.52667 10.86C1.46418 10.922 1.41458 10.9957 1.38074 11.0769C1.34689 11.1582 1.32947 11.2453 1.32947 11.3333C1.32947 11.4213 1.34689 11.5085 1.38074 11.5897C1.41458 11.671 1.46418 11.7447 1.52667 11.8067C1.58864 11.8692 1.66238 11.9187 1.74362 11.9526C1.82486 11.9864 1.91199 12.0039 2 12.0039C2.08801 12.0039 2.17514 11.9864 2.25638 11.9526C2.33762 11.9187 2.41136 11.8692 2.47333 11.8067L6 8.27333L8.19333 10.4733C8.25531 10.5358 8.32904 10.5854 8.41028 10.6193C8.49152 10.6531 8.57866 10.6705 8.66667 10.6705C8.75467 10.6705 8.84181 10.6531 8.92305 10.6193C9.00429 10.5854 9.07802 10.5358 9.14 10.4733L13.3333 6.27333V8C13.3333 8.17681 13.4036 8.34638 13.5286 8.4714C13.6536 8.59643 13.8232 8.66667 14 8.66667C14.1768 8.66667 14.3464 8.59643 14.4714 8.4714C14.5964 8.34638 14.6667 8.17681 14.6667 8V4.66667C14.6656 4.57955 14.6475 4.49348 14.6133 4.41333V4.41333Z" fill="#B4FF59"/>
</svg>
