<svg width="19" height="19" viewBox="0 0 19 19" fill="none" xmlns="http://www.w3.org/2000/svg">
<path d="M6.79102 17.403H9.22127C9.22127 17.403 9.20912 11.291 9.22127 8.76045C8.155 8.61767 6.79102 8.87285 6.79102 8.87285V17.403Z" fill="white"/>
<path d="M11.0449 6.95617L13.4752 5.43726V17.2848H11.0449V6.95617Z" fill="white"/>
<path d="M5.16069 7.98596C5.08475 7.95558 5.45232 7.53636 5.49181 7.46953C7.04414 5.41597 8.96708 5.18205 11.0176 4.85397C12.974 4.52892 14.3501 3.69656 15.6867 2.26271L17.1935 0.376221C17.6765 2.67889 16.2882 5.34002 14.2802 6.48832C11.8287 7.88875 10.0151 7.06246 7.515 7.45131C6.77681 7.56674 5.93534 7.69129 5.24575 7.97685L5.16069 7.98596Z" fill="white"/>
<path d="M2.23535 10.9058C2.23535 6.54345 5.77148 3.00732 10.1338 3.00732C10.8475 3.00733 11.5431 3.10452 12.2021 3.28369L12.2051 3.28076C12.7427 3.42656 13.2562 3.62741 13.7422 3.87646C12.9434 4.35629 12.0654 4.68088 11.0176 4.854C10.1245 4.99677 9.25591 5.12491 8.42969 5.38916C8.41451 5.3922 8.39897 5.39774 8.38379 5.40381C8.24709 5.44938 8.11316 5.49854 7.97949 5.55322C7.92512 5.57437 7.87371 5.59547 7.81934 5.61963C7.06597 5.94163 6.35798 6.42813 5.71094 7.19971C5.68664 7.22705 5.66482 7.2544 5.64355 7.28174C5.59197 7.34544 5.54073 7.40346 5.49219 7.47021C5.45234 7.53742 5.0913 7.95244 5.16113 7.98584C4.9576 8.33519 4.78384 8.70637 4.65625 9.09521C4.46794 9.66324 4.3623 10.2709 4.3623 10.9058H4.36133C4.36146 14.0923 6.9472 16.6772 10.1338 16.6772C12.0536 16.6772 13.7489 15.7353 14.7969 14.2954L16.291 15.8481C14.842 17.6494 12.6246 18.8041 10.1338 18.8042C5.77156 18.8042 2.23548 15.268 2.23535 10.9058Z" fill="white"/>
</svg>
