<svg width="12" height="15" viewBox="0 0 12 15" fill="none" xmlns="http://www.w3.org/2000/svg">
<path d="M3.63214 13.8718H5.56929C5.56929 13.8718 5.55961 8.9999 5.56929 6.98284C4.71937 6.86903 3.63214 7.07243 3.63214 7.07243V13.8718Z" fill="#97FF1A"/>
<path d="M7.02216 5.5447L8.95931 4.33398V13.7776H7.02216V5.5447Z" fill="#97FF1A"/>
<path d="M2.33182 6.36551C2.27128 6.3413 2.56428 6.00714 2.59576 5.95387C3.83311 4.31697 5.36588 4.13052 7.00035 3.86901C8.55976 3.60991 9.65667 2.94644 10.7221 1.80352L11.9231 0.299805C12.3082 2.13526 11.2016 4.25644 9.60098 5.17174C7.64688 6.28803 6.20128 5.62939 4.20844 5.93934C3.62003 6.03135 2.94929 6.13063 2.39962 6.35825L2.33182 6.36551Z" fill="#B4FF59"/>
<path d="M0 8.69238C0 5.2152 2.81871 2.39648 6.2959 2.39648C6.86478 2.3965 7.41902 2.47439 7.94434 2.61719L7.94727 2.61426C8.37584 2.73049 8.78544 2.89032 9.17285 3.08887C8.53601 3.47145 7.8354 3.73112 7 3.86914C6.28831 3.98291 5.59595 4.08433 4.9375 4.29492C4.92554 4.29731 4.91333 4.30186 4.90137 4.30664C4.79243 4.34295 4.68561 4.38221 4.5791 4.42578C4.53552 4.44273 4.49378 4.45914 4.4502 4.47852C3.84977 4.73518 3.2862 5.12334 2.77051 5.73828C2.75114 5.76007 2.73375 5.78192 2.7168 5.80371C2.67575 5.8544 2.63434 5.90003 2.5957 5.95312C2.56422 6.0064 2.27634 6.3386 2.33203 6.36523C2.16979 6.6437 2.03139 6.93908 1.92969 7.24902C1.77957 7.70182 1.69531 8.18632 1.69531 8.69238C1.69547 11.2323 3.75591 13.293 6.2959 13.293C7.82616 13.2929 9.17732 12.5422 10.0127 11.3945L11.2041 12.6318C10.0491 14.0677 8.28141 14.9882 6.2959 14.9883C2.81881 14.9883 0.000158209 12.1694 0 8.69238Z" fill="#97FF1A"/>
</svg>
