<svg width="12" height="15" viewBox="0 0 12 15" fill="none" xmlns="http://www.w3.org/2000/svg">
<path d="M3.63214 13.8723H5.56929C5.56929 13.8723 5.55961 9.00039 5.56929 6.98333C4.71937 6.86952 3.63214 7.07292 3.63214 7.07292V13.8723Z" fill="#FDB82B"/>
<path d="M7.02216 5.54519L8.95931 4.33447V13.7781H7.02216V5.54519Z" fill="#FDB82B"/>
<path d="M2.33182 6.366C2.27128 6.34179 2.56428 6.00763 2.59576 5.95436C3.83311 4.31746 5.36588 4.13101 7.00035 3.8695C8.55976 3.6104 9.65667 2.94693 10.7221 1.80401L11.9231 0.300293C12.3082 2.13574 11.2016 4.25693 9.60098 5.17223C7.64688 6.28851 6.20128 5.62988 4.20844 5.93983C3.62003 6.03184 2.94929 6.13112 2.39962 6.35874L2.33182 6.366Z" fill="url(#paint0_linear_286_1798)"/>
<path fill-rule="evenodd" clip-rule="evenodd" d="M6.29574 2.39746C6.86478 2.39746 7.41929 2.47495 7.94474 2.61781L7.94717 2.61539C8.37576 2.73162 8.78498 2.89143 9.17241 3.08999C8.53557 3.47258 7.83578 3.73167 7.00038 3.8697C6.94829 3.87802 6.8963 3.88629 6.84442 3.89453C6.18731 3.99897 5.54775 4.10062 4.93732 4.29587C4.92521 4.29829 4.91311 4.30313 4.901 4.30797L4.90099 4.30798C4.79203 4.3443 4.68549 4.38304 4.57894 4.42663C4.53536 4.44358 4.49419 4.46053 4.45061 4.4799C3.85009 4.73657 3.28589 5.124 2.77013 5.73905C2.75076 5.76084 2.73381 5.78263 2.71686 5.80443C2.70357 5.82084 2.69029 5.83674 2.67709 5.85255C2.64938 5.88573 2.62202 5.91847 2.59578 5.95456C2.58734 5.96884 2.56043 6.00316 2.52665 6.04626C2.43447 6.16383 2.29109 6.34671 2.33185 6.3662C2.16961 6.64467 2.03159 6.94008 1.92989 7.25003C1.77976 7.70284 1.69501 8.18712 1.69501 8.6932C1.69503 11.2333 3.75567 13.2939 6.29574 13.2939C7.82609 13.2939 9.17725 12.5433 10.0127 11.3955L11.204 12.6328C10.049 14.0688 8.28132 14.9889 6.29574 14.9889C2.81857 14.9889 2.13047e-05 12.1704 0 8.6932M6.29574 2.39746C2.81857 2.39746 2.13872e-05 5.216 0 8.69316L6.29574 2.39746Z" fill="url(#paint1_linear_286_1798)"/>
<defs>
<linearGradient id="paint0_linear_286_1798" x1="7.16179" y1="0.300293" x2="7.16179" y2="6.366" gradientUnits="userSpaceOnUse">
<stop stop-color="#FFCD65"/>
<stop offset="1" stop-color="#E5A000"/>
</linearGradient>
<linearGradient id="paint1_linear_286_1798" x1="5.602" y1="8.69321" x2="5.602" y2="14.989" gradientUnits="userSpaceOnUse">
<stop stop-color="#FFD833"/>
<stop offset="1" stop-color="#ED9F00"/>
</linearGradient>
</defs>
</svg>
